<svg width="24" height="26" viewBox="0 0 24 26" fill="none" xmlns="http://www.w3.org/2000/svg">
<path fill-rule="evenodd" clip-rule="evenodd" d="M4.38971 4.52476C4.38971 2.16388 6.31554 0.25 8.69118 0.25C10.0216 0.25 11.211 0.850265 12 1.79314C12.789 0.850265 13.9784 0.25 15.3088 0.25C17.6845 0.25 19.6103 2.16388 19.6103 4.52476C19.6103 5.51686 19.2702 6.43001 18.6996 7.15539H19.9412C21.7686 7.15539 23.25 8.6276 23.25 10.4437V12.0878C23.25 12.6326 22.8056 13.0743 22.2574 13.0743H13.3897C13.1704 13.0743 12.9926 12.8976 12.9926 12.6797V8.12752C12.6182 7.88925 12.2833 7.5949 12 7.25638C11.7167 7.5949 11.3818 7.88925 11.0074 8.12752V12.6797C11.0074 12.8976 10.8296 13.0743 10.6103 13.0743H1.74265C1.19442 13.0743 0.75 12.6326 0.75 12.0878V10.4437C0.75 8.6276 2.23141 7.15539 4.05882 7.15539H5.3004C4.72978 6.43001 4.38971 5.51686 4.38971 4.52476ZM11.0074 4.52476C11.0074 3.25352 9.97037 2.22297 8.69118 2.22297C7.41199 2.22297 6.375 3.25352 6.375 4.52476C6.375 5.79601 7.41199 6.82656 8.69118 6.82656C9.97037 6.82656 11.0074 5.79601 11.0074 4.52476ZM12.9926 4.52476C12.9926 5.79601 14.0296 6.82656 15.3088 6.82656C16.588 6.82656 17.625 5.79601 17.625 4.52476C17.625 3.25352 16.588 2.22297 15.3088 2.22297C14.0296 2.22297 12.9926 3.25352 12.9926 4.52476Z" fill="#E1712C"/>
<path d="M11.0074 15.2446C11.0074 15.0266 10.8296 14.85 10.6103 14.85H3.59428C3.05739 14.85 2.59861 15.2344 2.50793 15.7603C2.21404 17.4647 2.21404 19.2064 2.50793 20.9108L2.80481 22.6325C3.00471 23.7919 3.95216 24.68 5.1284 24.8106L6.53812 24.9672C7.88932 25.1173 9.24522 25.2115 10.6023 25.2498C10.8247 25.2561 11.0074 25.078 11.0074 24.857V15.2446Z" fill="#E1712C"/>
<path d="M13.3977 25.2498C13.1753 25.2561 12.9926 25.078 12.9926 24.857L12.9926 15.2446C12.9926 15.0266 13.1704 14.85 13.3897 14.85H20.4057C20.9426 14.85 21.4014 15.2344 21.4921 15.7603C21.786 17.4647 21.786 19.2064 21.4921 20.9108L21.1952 22.6325C20.9953 23.7919 20.0478 24.68 18.8716 24.8106L17.4619 24.9672C16.1107 25.1173 14.7548 25.2115 13.3977 25.2498Z" fill="#E1712C"/>
</svg>
