<svg width="42" height="42" viewBox="0 0 42 42" fill="none" xmlns="http://www.w3.org/2000/svg">
<rect width="42" height="42" rx="21" fill="#7387BA"/>
<path fill-rule="evenodd" clip-rule="evenodd" d="M15.4191 14.0513C15.4191 12.32 16.8314 10.9165 18.5735 10.9165C19.5492 10.9165 20.4214 11.3567 21 12.0481C21.5786 11.3567 22.4508 10.9165 23.4265 10.9165C25.1686 10.9165 26.5809 12.32 26.5809 14.0513C26.5809 14.7789 26.3315 15.4485 25.913 15.9805H26.8235C28.1636 15.9805 29.25 17.0601 29.25 18.3919V19.5976C29.25 19.9971 28.9241 20.321 28.5221 20.321H22.0191C21.8583 20.321 21.7279 20.1914 21.7279 20.0316V16.6934C21.4533 16.5186 21.2077 16.3028 21 16.0545C20.7923 16.3028 20.5467 16.5186 20.2721 16.6934V20.0316C20.2721 20.1914 20.1417 20.321 19.9809 20.321H13.4779C13.0759 20.321 12.75 19.9971 12.75 19.5976V18.3919C12.75 17.0601 13.8364 15.9805 15.1765 15.9805H16.087C15.6685 15.4485 15.4191 14.7789 15.4191 14.0513ZM20.2721 14.0513C20.2721 13.1191 19.5116 12.3633 18.5735 12.3633C17.6355 12.3633 16.875 13.1191 16.875 14.0513C16.875 14.9836 17.6355 15.7393 18.5735 15.7393C19.5116 15.7393 20.2721 14.9836 20.2721 14.0513ZM21.7279 14.0513C21.7279 14.9836 22.4884 15.7393 23.4265 15.7393C24.3645 15.7393 25.125 14.9836 25.125 14.0513C25.125 13.1191 24.3645 12.3633 23.4265 12.3633C22.4884 12.3633 21.7279 13.1191 21.7279 14.0513Z" fill="white"/>
<path d="M20.2721 21.9125C20.2721 21.7527 20.1417 21.6231 19.9809 21.6231H14.8358C14.4421 21.6231 14.1056 21.9051 14.0391 22.2907C13.8236 23.5406 13.8236 24.8178 14.0391 26.0677L14.2569 27.3304C14.4035 28.1805 15.0982 28.8318 15.9608 28.9276L16.9946 29.0424C17.9855 29.1525 18.9798 29.2216 19.975 29.2497C20.1381 29.2543 20.2721 29.1237 20.2721 28.9616L20.2721 21.9125Z" fill="white"/>
<path d="M22.025 29.2497C21.8619 29.2543 21.7279 29.1237 21.7279 28.9616L21.7279 21.9125C21.7279 21.7527 21.8583 21.6231 22.0191 21.6231H27.1642C27.5579 21.6231 27.8944 21.9051 27.9608 22.2907C28.1764 23.5406 28.1764 24.8178 27.9608 26.0677L27.7431 27.3304C27.5965 28.1805 26.9017 28.8318 26.0392 28.9276L25.0054 29.0424C24.0145 29.1525 23.0202 29.2216 22.025 29.2497Z" fill="white"/>
</svg>
