<svg width="879" height="536" viewBox="0 0 879 536" fill="none" xmlns="http://www.w3.org/2000/svg">
<path d="M468.72 844.643L439.778 407.274V407.316L439.551 406.654V406.592H439.592L439.675 406.469H439.654C439.654 406.469 439.654 406.469 439.633 406.448L439.551 406.531V406.489C439.551 406.489 439.551 406.448 439.53 406.427H439.468C439.468 406.427 439.468 406.427 439.447 406.427H439.406H439.344L439.365 406.407L439.468 406.324C439.468 406.324 439.468 406.324 439.468 406.303C439.468 406.303 439.468 406.303 439.468 406.262C439.468 406.262 439.489 406.262 439.509 406.262C439.509 406.262 439.53 406.262 439.551 406.262C439.551 406.262 439.551 406.283 439.551 406.303H439.613C439.613 406.303 439.613 406.303 439.633 406.303L439.737 406.241H439.695L439.716 406.2H439.737L439.778 406.117V406.179L763.477 109.517C778.217 125.592 791.882 142.907 804.058 160.965L440.274 406.055L439.757 406.241L439.861 406.283H439.923H439.881H439.943L440.088 406.241L874.553 343.76C877.633 365.248 879.122 387.191 878.998 408.969V409.444L440.956 406.82L873.623 475.086C870.212 496.719 865.126 518.27 858.511 539.138L441.287 406.985L833.931 600.256C824.276 619.843 813.071 638.872 800.585 656.807L440.543 406.82H440.067L759.301 707.635C744.354 723.483 728.085 738.338 710.967 751.789L439.943 407.15L440.088 407.812L656.494 788.361C637.433 799.187 617.422 808.65 596.955 816.502L440.212 408.39L533.758 835.428C512.444 840.098 490.551 843.197 468.741 844.643H468.72ZM403.497 844.147C381.687 842.371 359.835 838.92 338.583 833.92L438.93 407.812L275.758 814.043C255.457 805.902 235.611 796.15 216.736 785.034L439.013 407.522L439.158 406.944L162.862 747.677C145.931 733.979 129.91 718.875 115.19 702.8L439.034 406.654H439.178L439.158 406.902L439.22 406.634H439.385L439.137 406.944L439.096 407.336L439.137 407.274L439.096 407.357L403.476 844.106L403.497 844.147ZM74.6711 651.352C62.4533 633.211 51.5173 613.996 42.1524 594.243L437.979 406.902L18.5024 532.712C12.2178 511.761 7.46297 490.128 4.36202 468.433L438.165 406.778L439.054 406.365L438.372 406.758H438.517L74.6918 651.332L74.6711 651.352ZM439.158 406.324H439.096L438.248 405.89L438.517 405.931L78.1442 156.254C90.5687 138.361 104.42 121.232 119.366 105.364L439.034 405.993H439.22L439.261 406.179L439.282 406.221L439.178 406.303L439.158 406.324ZM439.054 406.324L0 403.245C0.144711 381.447 1.94327 359.525 5.2923 338.057L438.103 405.849L439.034 406.303L439.054 406.324ZM439.468 406.262V406.179L439.385 406.241C439.385 406.2 439.365 406.2 439.365 406.2L439.427 406.076V406.035L439.199 405.456L439.385 405.766L409.761 -31.9335C431.385 -33.3799 453.484 -33.2352 474.964 -31.4996L439.819 405.291L439.737 405.518L439.819 405.373V405.725L439.551 406.035L439.695 406.221H439.654L439.613 406.2L439.509 406.076L439.468 406.159C439.468 406.159 439.468 406.179 439.468 406.2L439.427 406.303L439.468 406.262ZM441.018 405.828L836.618 217.992C846.024 237.806 854.025 258.489 860.351 279.481L441.018 405.828ZM438 405.787L20.3423 273.985C26.937 253.096 35.1856 232.517 44.8605 212.847L437.979 405.787H438ZM439.902 405.621L440.026 405.064L661.827 27.3658C680.64 38.3992 698.791 50.9616 715.763 64.681L439.881 405.601L439.902 405.621ZM439.116 405.497L167.659 61.1685C184.817 47.6557 203.133 35.3413 222.091 24.5352L439.013 405.084L439.116 405.518V405.497ZM438.93 404.671L281.567 -3.66821C302.054 -11.561 323.306 -17.9455 344.744 -22.6564L438.91 404.65L438.93 404.671ZM440.15 404.547L539.898 -21.3754C561.253 -16.3752 582.422 -9.70145 602.806 -1.5607L440.15 404.526V404.547Z" fill="url(#paint0_radial_0_40)"/>
<defs>
<radialGradient id="paint0_radial_0_40" cx="0" cy="0" r="1" gradientUnits="userSpaceOnUse" gradientTransform="translate(439.52 405.731) rotate(0.339815) scale(439.22 438.981)">
<stop stop-color="#130D2C"/>
<stop offset="1" stop-color="#130D2C" stop-opacity="0"/>
</radialGradient>
</defs>
</svg>
