<svg width="447" height="115" viewBox="0 0 447 115" fill="none" xmlns="http://www.w3.org/2000/svg">
<path fill-rule="evenodd" clip-rule="evenodd" d="M257.855 0H235.532V0.00878906C233.139 0.00878906 231.197 2.27734 231.197 5.07324V109.936C231.197 112.731 233.139 115 235.532 115H257.855C260.255 115 262.197 112.723 262.197 109.927V5.07324C262.197 2.26855 260.248 0 257.855 0ZM73.2142 12.6943H50.6761V12.7021C48.26 12.7021 46.2992 14.6621 46.2992 17.0781V110.414C46.2992 112.83 48.26 114.79 50.6761 114.79H73.2142C75.6376 114.79 77.5984 112.822 77.5984 110.406V17.0781C77.5984 14.6553 75.6303 12.6943 73.2142 12.6943ZM26.9223 37.9795H4.38424V37.9717C1.96079 37.9717 0 39.9395 0 42.3555V110.399C0 112.822 1.96813 114.783 4.38424 114.783H26.915C29.3384 114.783 31.2992 112.815 31.2992 110.399V42.3555C31.2992 39.9395 29.3384 37.9795 26.9223 37.9795ZM373.574 12.6943H396.112C398.528 12.6943 400.496 14.6553 400.496 17.0781V110.406C400.496 112.822 398.535 114.79 396.112 114.79H373.574C371.158 114.79 369.197 112.83 369.197 110.414V17.0781C369.197 14.6621 371.158 12.7021 373.574 12.7021V12.6943ZM119.513 37.9795H96.9753V37.9941C94.5592 37.9941 92.5984 39.9551 92.5984 42.3711V110.414C92.5984 112.83 94.5592 114.791 96.9753 114.791H119.513C121.937 114.791 123.898 112.823 123.898 110.407V42.3633C123.898 39.9404 121.929 37.9795 119.513 37.9795ZM419.873 37.9795H442.411C444.827 37.9795 446.795 39.9404 446.795 42.3633V110.407C446.795 112.823 444.834 114.791 442.411 114.791H419.873C417.457 114.791 415.496 112.83 415.496 110.414V42.3711C415.496 39.9551 417.457 37.9941 419.873 37.9941V37.9795ZM165.813 12.6943H143.275V12.7021C140.858 12.7021 138.898 14.6621 138.898 17.0781V110.414C138.898 112.83 140.858 114.79 143.275 114.79H165.813C168.236 114.79 170.197 112.822 170.197 110.406V17.0781C170.197 14.6553 168.229 12.6943 165.813 12.6943ZM189.539 29.0088H211.862C214.255 29.0088 216.197 31.2861 216.197 34.0938V109.906C216.197 112.714 214.255 115 211.855 115H189.539C187.146 115 185.197 112.722 185.197 109.906V34.0938C185.197 31.2861 187.139 29 189.539 29V29.0088ZM281.532 29H303.855C306.248 29 308.197 31.2783 308.197 34.0938V109.906C308.197 112.714 306.255 115 303.855 115H281.532C279.139 115 277.197 112.722 277.197 109.915V34.1016C277.197 31.2949 279.139 29.0166 281.532 29.0166V29ZM349.855 0H327.532V0.00878906C325.139 0.00878906 323.197 2.27734 323.197 5.07324V109.936C323.197 112.731 325.139 115 327.532 115H349.855C352.255 115 354.197 112.723 354.197 109.927V5.07324C354.197 2.26855 352.248 0 349.855 0Z" fill="url(#paint0_linear_0_1201)" fill-opacity="0.2"/>
<g clip-path="url(#clip0_0_1201)">
<g filter="url(#filter0_d_0_1201)">
<path d="M54.2823 40.8442C52.5738 37.953 48.4288 37.953 46.7203 40.8442L31.6948 66.2724C29.9412 69.2389 32.0562 73.0026 35.4758 73.0026H65.5241C68.9437 73.0026 71.0587 69.2389 69.3051 66.2724L54.2823 40.8442ZM50.2834 46.6241C51.6465 46.5033 52.8475 47.5234 52.967 48.9006C52.9803 49.0429 52.9777 49.1986 52.967 49.3355L52.1433 58.8577C52.0636 59.7758 51.2639 60.455 50.3552 60.3744C49.5448 60.302 48.9204 59.6496 48.8539 58.8577L48.0303 49.3355C47.9107 47.9583 48.9204 46.7449 50.2834 46.6241ZM50.4986 67.8322C49.0399 67.8322 47.8576 66.6375 47.8576 65.1637C47.8576 63.6899 49.0399 62.4952 50.4986 62.4952C51.9574 62.4952 53.1397 63.6899 53.1397 65.1637C53.1397 66.6375 51.9574 67.8322 50.4986 67.8322Z" fill="url(#paint1_linear_0_1201)"/>
<path d="M54.2823 40.8442C52.5738 37.953 48.4288 37.953 46.7203 40.8442L31.6948 66.2724C29.9412 69.2389 32.0562 73.0026 35.4758 73.0026H65.5241C68.9437 73.0026 71.0587 69.2389 69.3051 66.2724L54.2823 40.8442ZM50.2834 46.6241C51.6465 46.5033 52.8475 47.5234 52.967 48.9006C52.9803 49.0429 52.9777 49.1986 52.967 49.3355L52.1433 58.8577C52.0636 59.7758 51.2639 60.455 50.3552 60.3744C49.5448 60.302 48.9204 59.6496 48.8539 58.8577L48.0303 49.3355C47.9107 47.9583 48.9204 46.7449 50.2834 46.6241ZM50.4986 67.8322C49.0399 67.8322 47.8576 66.6375 47.8576 65.1637C47.8576 63.6899 49.0399 62.4952 50.4986 62.4952C51.9574 62.4952 53.1397 63.6899 53.1397 65.1637C53.1397 66.6375 51.9574 67.8322 50.4986 67.8322Z" fill="url(#paint2_radial_0_1201)"/>
<path d="M47.1508 41.0986C48.6184 38.6149 52.1095 38.5375 53.7035 40.8662L53.8519 41.0986L68.8744 66.5264V66.5273C70.4353 69.1681 68.5473 72.5029 65.5238 72.5029H35.476C32.5469 72.5029 30.6831 69.3728 31.9886 66.7764L32.1254 66.5273V66.5264L47.1508 41.0986ZM50.4984 61.9951C48.7588 61.9952 47.3578 63.419 47.3578 65.1641C47.358 66.9089 48.7589 68.3319 50.4984 68.332C52.238 68.332 53.6398 66.909 53.64 65.1641C53.64 63.419 52.2381 61.9951 50.4984 61.9951ZM50.3929 46.1162L50.2396 46.126C48.6492 46.2669 47.4653 47.6408 47.5228 49.2246L47.5326 49.3789L48.3558 58.9004C48.437 59.8635 49.154 60.6707 50.1156 60.8457L50.3109 60.8721C51.4261 60.9709 52.4083 60.1964 52.6117 59.1201L52.641 58.9014L52.642 58.9004L53.4652 49.3789V49.374C53.4713 49.2958 53.4756 49.2103 53.476 49.1221L53.4652 48.8545C53.3253 47.2603 51.971 46.0576 50.3929 46.1162Z" stroke="url(#paint3_linear_0_1201)" stroke-opacity="0.3"/>
</g>
<g filter="url(#filter1_d_0_1201)">
<path d="M20.2033 31.0617C18.1361 31.0617 16.2071 31.4215 14.5279 32.0577C13.6803 32.3799 12.8088 31.6309 13.0373 30.745C16.324 18.0765 26.527 7.98523 39.5943 4.31275C33.7993 10.2617 29.7048 20.8792 28.7217 33.5906C26.5748 32.0282 23.5804 31.0617 20.2033 31.0617ZM40.402 31.0617C39.9185 31.0617 39.4482 31.0886 38.9805 31.1262C38.8477 31.1369 38.7175 31.1503 38.5873 31.1638C38.2286 31.2013 37.8752 31.2497 37.5271 31.3087C37.4182 31.3275 37.3066 31.3436 37.2003 31.3624C36.7646 31.4456 36.3394 31.545 35.9249 31.6604C35.8399 31.6846 35.7575 31.7141 35.6725 31.7383C35.3404 31.8376 35.0162 31.9477 34.7 32.0685C34.5858 32.1114 34.4715 32.157 34.3573 32.2027C34.0278 32.3396 33.7063 32.4846 33.3981 32.643C33.3476 32.6698 33.2945 32.6913 33.244 32.7181C32.9464 32.8765 32.6594 33.0403 32.3831 33.2174C33.8339 17.357 40.5854 4.65906 48.692 3V33.4161C46.5637 31.9503 43.6569 31.0591 40.3994 31.0591L40.402 31.0617ZM52.3029 33.4134V3.00268C60.4068 4.6698 67.153 17.3624 68.6011 33.2174C68.3274 33.0403 68.0405 32.8765 67.7429 32.7181C67.7004 32.6966 67.6552 32.6752 67.61 32.6537C67.2965 32.4926 66.967 32.3423 66.6296 32.2027C66.5206 32.157 66.4091 32.1141 66.2975 32.0711C65.9786 31.9503 65.6518 31.8376 65.3144 31.7356C65.232 31.7114 65.1523 31.6819 65.0699 31.6604C64.6554 31.545 64.2303 31.4456 63.7945 31.3597C63.6883 31.3383 63.5793 31.3248 63.473 31.306C63.125 31.247 62.7716 31.1987 62.4102 31.1611C62.28 31.1477 62.1498 31.1342 62.017 31.1235C61.552 31.0859 61.0791 31.0591 60.5981 31.0591C57.3406 31.0591 54.4312 31.9477 52.3002 33.4107L52.3029 33.4134ZM80.7995 31.0617C77.4145 31.0617 74.4147 32.0282 72.2652 33.596C71.2821 20.8819 67.1849 10.2617 61.3899 4.31275C74.4625 7.98523 84.6761 18.0765 87.9629 30.745C88.1941 31.6309 87.3225 32.3799 86.4723 32.0577C84.7957 31.4215 82.8667 31.0617 80.7969 31.0617H80.7995Z" fill="url(#paint4_linear_0_1201)"/>
<path d="M20.2033 31.0617C18.1361 31.0617 16.2071 31.4215 14.5279 32.0577C13.6803 32.3799 12.8088 31.6309 13.0373 30.745C16.324 18.0765 26.527 7.98523 39.5943 4.31275C33.7993 10.2617 29.7048 20.8792 28.7217 33.5906C26.5748 32.0282 23.5804 31.0617 20.2033 31.0617ZM40.402 31.0617C39.9185 31.0617 39.4482 31.0886 38.9805 31.1262C38.8477 31.1369 38.7175 31.1503 38.5873 31.1638C38.2286 31.2013 37.8752 31.2497 37.5271 31.3087C37.4182 31.3275 37.3066 31.3436 37.2003 31.3624C36.7646 31.4456 36.3394 31.545 35.9249 31.6604C35.8399 31.6846 35.7575 31.7141 35.6725 31.7383C35.3404 31.8376 35.0162 31.9477 34.7 32.0685C34.5858 32.1114 34.4715 32.157 34.3573 32.2027C34.0278 32.3396 33.7063 32.4846 33.3981 32.643C33.3476 32.6698 33.2945 32.6913 33.244 32.7181C32.9464 32.8765 32.6594 33.0403 32.3831 33.2174C33.8339 17.357 40.5854 4.65906 48.692 3V33.4161C46.5637 31.9503 43.6569 31.0591 40.3994 31.0591L40.402 31.0617ZM52.3029 33.4134V3.00268C60.4068 4.6698 67.153 17.3624 68.6011 33.2174C68.3274 33.0403 68.0405 32.8765 67.7429 32.7181C67.7004 32.6966 67.6552 32.6752 67.61 32.6537C67.2965 32.4926 66.967 32.3423 66.6296 32.2027C66.5206 32.157 66.4091 32.1141 66.2975 32.0711C65.9786 31.9503 65.6518 31.8376 65.3144 31.7356C65.232 31.7114 65.1523 31.6819 65.0699 31.6604C64.6554 31.545 64.2303 31.4456 63.7945 31.3597C63.6883 31.3383 63.5793 31.3248 63.473 31.306C63.125 31.247 62.7716 31.1987 62.4102 31.1611C62.28 31.1477 62.1498 31.1342 62.017 31.1235C61.552 31.0859 61.0791 31.0591 60.5981 31.0591C57.3406 31.0591 54.4312 31.9477 52.3002 33.4107L52.3029 33.4134ZM80.7995 31.0617C77.4145 31.0617 74.4147 32.0282 72.2652 33.596C71.2821 20.8819 67.1849 10.2617 61.3899 4.31275C74.4625 7.98523 84.6761 18.0765 87.9629 30.745C88.1941 31.6309 87.3225 32.3799 86.4723 32.0577C84.7957 31.4215 82.8667 31.0617 80.7969 31.0617H80.7995Z" fill="url(#paint5_radial_0_1201)"/>
<path d="M62.97 5.31934C74.856 9.25312 84.0779 18.6296 87.3216 30.2871L87.4788 30.8701V30.8711C87.5945 31.3146 87.1949 31.7222 86.7405 31.6182L86.6497 31.5898C84.914 30.9312 82.9253 30.5618 80.7991 30.5615C77.6804 30.5616 74.8601 31.3616 72.6907 32.709C71.6686 21.1983 68.0932 11.4082 62.97 5.31934ZM38.013 5.31934C32.8902 11.4082 29.3161 21.1966 28.2943 32.7051C26.1283 31.3625 23.3145 30.5615 20.2034 30.5615C18.2119 30.5615 16.3389 30.8864 14.68 31.4697L14.3509 31.5898L14.3499 31.5908C13.8648 31.7748 13.3993 31.3457 13.5218 30.8701L13.5208 30.8691C16.6156 18.9424 25.9363 9.3187 38.013 5.31934ZM48.1917 32.5107C46.068 31.2801 43.3665 30.5586 40.3997 30.5586H39.2015L39.2493 30.6064L38.9407 30.6279H38.9398L38.5364 30.666H38.5355C38.351 30.6853 38.1675 30.7076 37.9857 30.7324L37.4437 30.8154L37.4417 30.8164L37.1136 30.8701L37.1068 30.8711C36.8822 30.914 36.6601 30.9614 36.4407 31.0127L35.7903 31.1787L35.7884 31.1797C35.7365 31.1944 35.6864 31.2106 35.6458 31.2236L35.5355 31.2568L35.5296 31.2588C35.3578 31.3102 35.1877 31.3649 35.0198 31.4219L34.5237 31.6006L34.1722 31.7383L34.1653 31.7412C33.9962 31.8115 33.8278 31.8839 33.6614 31.96L33.1693 32.1982L33.1634 32.2012C33.1516 32.2074 33.1376 32.2145 33.1097 32.2275L33.0091 32.2764C32.9985 32.282 32.9875 32.2873 32.9769 32.293C33.7708 24.8058 35.7543 18.0954 38.4818 13.0195C41.1873 7.98453 44.5778 4.64061 48.1917 3.63574V32.5107ZM52.803 3.63867C56.4158 4.64707 59.8036 7.99249 62.5071 13.0264C65.2326 18.1009 67.2134 24.808 68.0062 32.292L67.9778 32.2764L67.9681 32.2715L67.8245 32.2021C67.5013 32.0366 67.1639 31.8822 66.8206 31.7402H66.8196L66.4769 31.6045L66.4749 31.6035L65.9749 31.4229L65.4593 31.2568L65.4554 31.2559L65.346 31.2207C65.3062 31.2078 65.2566 31.1928 65.2034 31.1787H65.2044C64.7762 31.0595 64.3379 30.9572 63.8909 30.8691H63.89L63.5599 30.8135H63.5569C63.3775 30.783 63.1964 30.7554 63.014 30.7305L62.4622 30.6641H62.4612L62.0569 30.625C61.5844 30.5868 61.097 30.5586 60.598 30.5586C57.632 30.5586 54.9289 31.2772 52.803 32.5049V3.63867Z" stroke="url(#paint6_linear_0_1201)" stroke-opacity="0.3"/>
</g>
</g>
<g clip-path="url(#clip1_0_1201)">
<g filter="url(#filter2_d_0_1201)">
<path d="M182.282 50.8442C180.574 47.953 176.429 47.953 174.72 50.8442L159.695 76.2724C157.941 79.2389 160.056 83.0026 163.476 83.0026H193.524C196.944 83.0026 199.059 79.2389 197.305 76.2724L182.282 50.8442ZM178.283 56.6241C179.646 56.5033 180.847 57.5234 180.967 58.9006C180.98 59.0429 180.978 59.1986 180.967 59.3355L180.143 68.8577C180.064 69.7758 179.264 70.455 178.355 70.3744C177.545 70.302 176.92 69.6496 176.854 68.8577L176.03 59.3355C175.911 57.9583 176.92 56.7449 178.283 56.6241ZM178.499 77.8322C177.04 77.8322 175.858 76.6375 175.858 75.1637C175.858 73.6899 177.04 72.4952 178.499 72.4952C179.957 72.4952 181.14 73.6899 181.14 75.1637C181.14 76.6375 179.957 77.8322 178.499 77.8322Z" fill="url(#paint7_linear_0_1201)"/>
<path d="M182.282 50.8442C180.574 47.953 176.429 47.953 174.72 50.8442L159.695 76.2724C157.941 79.2389 160.056 83.0026 163.476 83.0026H193.524C196.944 83.0026 199.059 79.2389 197.305 76.2724L182.282 50.8442ZM178.283 56.6241C179.646 56.5033 180.847 57.5234 180.967 58.9006C180.98 59.0429 180.978 59.1986 180.967 59.3355L180.143 68.8577C180.064 69.7758 179.264 70.455 178.355 70.3744C177.545 70.302 176.92 69.6496 176.854 68.8577L176.03 59.3355C175.911 57.9583 176.92 56.7449 178.283 56.6241ZM178.499 77.8322C177.04 77.8322 175.858 76.6375 175.858 75.1637C175.858 73.6899 177.04 72.4952 178.499 72.4952C179.957 72.4952 181.14 73.6899 181.14 75.1637C181.14 76.6375 179.957 77.8322 178.499 77.8322Z" fill="url(#paint8_radial_0_1201)"/>
<path d="M175.151 51.0986C176.618 48.6149 180.11 48.5375 181.703 50.8662L181.852 51.0986L196.874 76.5264V76.5273C198.435 79.1681 196.547 82.5029 193.524 82.5029H163.476C160.547 82.5029 158.683 79.3728 159.989 76.7764L160.125 76.5273V76.5264L175.151 51.0986ZM178.498 71.9951C176.759 71.9952 175.358 73.419 175.358 75.1641C175.358 76.9089 176.759 78.3319 178.498 78.332C180.238 78.332 181.64 76.909 181.64 75.1641C181.64 73.419 180.238 71.9951 178.498 71.9951ZM178.393 56.1162L178.24 56.126C176.649 56.2669 175.465 57.6408 175.523 59.2246L175.533 59.3789L176.356 68.9004C176.437 69.8635 177.154 70.6707 178.116 70.8457L178.311 70.8721C179.426 70.9709 180.408 70.1964 180.612 69.1201L180.641 68.9014L180.642 68.9004L181.465 59.3789V59.374C181.471 59.2958 181.476 59.2103 181.476 59.1221L181.465 58.8545C181.325 57.2603 179.971 56.0576 178.393 56.1162Z" stroke="url(#paint9_linear_0_1201)" stroke-opacity="0.3"/>
</g>
<g filter="url(#filter3_d_0_1201)">
<path d="M148.203 41.0617C146.136 41.0617 144.207 41.4215 142.528 42.0577C141.68 42.3799 140.809 41.6309 141.037 40.745C144.324 28.0765 154.527 17.9852 167.594 14.3128C161.799 20.2617 157.705 30.8792 156.722 43.5906C154.575 42.0282 151.58 41.0617 148.203 41.0617ZM168.402 41.0617C167.918 41.0617 167.448 41.0886 166.981 41.1262C166.848 41.1369 166.717 41.1503 166.587 41.1638C166.229 41.2013 165.875 41.2497 165.527 41.3087C165.418 41.3275 165.307 41.3436 165.2 41.3624C164.765 41.4456 164.339 41.545 163.925 41.6604C163.84 41.6846 163.758 41.7141 163.673 41.7383C163.34 41.8376 163.016 41.9477 162.7 42.0685C162.586 42.1114 162.472 42.157 162.357 42.2027C162.028 42.3396 161.706 42.4846 161.398 42.643C161.348 42.6698 161.294 42.6913 161.244 42.7181C160.946 42.8765 160.659 43.0403 160.383 43.2174C161.834 27.357 168.585 14.6591 176.692 13V43.4161C174.564 41.9503 171.657 41.0591 168.399 41.0591L168.402 41.0617ZM180.303 43.4134V13.0027C188.407 14.6698 195.153 27.3624 196.601 43.2174C196.327 43.0403 196.04 42.8765 195.743 42.7181C195.7 42.6966 195.655 42.6752 195.61 42.6537C195.297 42.4926 194.967 42.3423 194.63 42.2027C194.521 42.157 194.409 42.1141 194.297 42.0711C193.979 41.9503 193.652 41.8376 193.314 41.7356C193.232 41.7114 193.152 41.6819 193.07 41.6604C192.655 41.545 192.23 41.4456 191.795 41.3597C191.688 41.3383 191.579 41.3248 191.473 41.306C191.125 41.247 190.772 41.1987 190.41 41.1611C190.28 41.1477 190.15 41.1342 190.017 41.1235C189.552 41.0859 189.079 41.0591 188.598 41.0591C185.341 41.0591 182.431 41.9477 180.3 43.4107L180.303 43.4134ZM208.8 41.0617C205.414 41.0617 202.415 42.0282 200.265 43.596C199.282 30.8819 195.185 20.2617 189.39 14.3128C202.463 17.9852 212.676 28.0765 215.963 40.745C216.194 41.6309 215.323 42.3799 214.472 42.0577C212.796 41.4215 210.867 41.0617 208.797 41.0617H208.8Z" fill="url(#paint10_linear_0_1201)"/>
<path d="M148.203 41.0617C146.136 41.0617 144.207 41.4215 142.528 42.0577C141.68 42.3799 140.809 41.6309 141.037 40.745C144.324 28.0765 154.527 17.9852 167.594 14.3128C161.799 20.2617 157.705 30.8792 156.722 43.5906C154.575 42.0282 151.58 41.0617 148.203 41.0617ZM168.402 41.0617C167.918 41.0617 167.448 41.0886 166.981 41.1262C166.848 41.1369 166.717 41.1503 166.587 41.1638C166.229 41.2013 165.875 41.2497 165.527 41.3087C165.418 41.3275 165.307 41.3436 165.2 41.3624C164.765 41.4456 164.339 41.545 163.925 41.6604C163.84 41.6846 163.758 41.7141 163.673 41.7383C163.34 41.8376 163.016 41.9477 162.7 42.0685C162.586 42.1114 162.472 42.157 162.357 42.2027C162.028 42.3396 161.706 42.4846 161.398 42.643C161.348 42.6698 161.294 42.6913 161.244 42.7181C160.946 42.8765 160.659 43.0403 160.383 43.2174C161.834 27.357 168.585 14.6591 176.692 13V43.4161C174.564 41.9503 171.657 41.0591 168.399 41.0591L168.402 41.0617ZM180.303 43.4134V13.0027C188.407 14.6698 195.153 27.3624 196.601 43.2174C196.327 43.0403 196.04 42.8765 195.743 42.7181C195.7 42.6966 195.655 42.6752 195.61 42.6537C195.297 42.4926 194.967 42.3423 194.63 42.2027C194.521 42.157 194.409 42.1141 194.297 42.0711C193.979 41.9503 193.652 41.8376 193.314 41.7356C193.232 41.7114 193.152 41.6819 193.07 41.6604C192.655 41.545 192.23 41.4456 191.795 41.3597C191.688 41.3383 191.579 41.3248 191.473 41.306C191.125 41.247 190.772 41.1987 190.41 41.1611C190.28 41.1477 190.15 41.1342 190.017 41.1235C189.552 41.0859 189.079 41.0591 188.598 41.0591C185.341 41.0591 182.431 41.9477 180.3 43.4107L180.303 43.4134ZM208.8 41.0617C205.414 41.0617 202.415 42.0282 200.265 43.596C199.282 30.8819 195.185 20.2617 189.39 14.3128C202.463 17.9852 212.676 28.0765 215.963 40.745C216.194 41.6309 215.323 42.3799 214.472 42.0577C212.796 41.4215 210.867 41.0617 208.797 41.0617H208.8Z" fill="url(#paint11_radial_0_1201)"/>
<path d="M190.97 15.3193C202.856 19.2531 212.078 28.6296 215.322 40.2871L215.479 40.8701V40.8711C215.595 41.3146 215.195 41.7222 214.741 41.6182L214.65 41.5898C212.914 40.9312 210.925 40.5618 208.799 40.5615C205.68 40.5616 202.86 41.3616 200.691 42.709C199.669 31.1983 196.093 21.4082 190.97 15.3193ZM166.013 15.3193C160.89 21.4082 157.316 31.1966 156.294 42.7051C154.128 41.3625 151.315 40.5615 148.203 40.5615C146.212 40.5615 144.339 40.8864 142.68 41.4697L142.351 41.5898L142.35 41.5908C141.865 41.7748 141.399 41.3457 141.522 40.8701L141.521 40.8691C144.616 28.9424 153.936 19.3187 166.013 15.3193ZM176.192 42.5107C174.068 41.2801 171.366 40.5586 168.4 40.5586H167.201L167.249 40.6064L166.941 40.6279H166.94L166.536 40.666H166.535C166.351 40.6853 166.168 40.7076 165.986 40.7324L165.444 40.8154L165.442 40.8164L165.114 40.8701L165.107 40.8711C164.882 40.914 164.66 40.9614 164.441 41.0127L163.79 41.1787L163.788 41.1797C163.736 41.1944 163.686 41.2106 163.646 41.2236L163.535 41.2568L163.53 41.2588C163.358 41.3102 163.188 41.3649 163.02 41.4219L162.524 41.6006L162.172 41.7383L162.165 41.7412C161.996 41.8115 161.828 41.8839 161.661 41.96L161.169 42.1982L161.163 42.2012C161.152 42.2074 161.138 42.2145 161.11 42.2275L161.009 42.2764C160.998 42.282 160.987 42.2873 160.977 42.293C161.771 34.8058 163.754 28.0954 166.482 23.0195C169.187 17.9845 172.578 14.6406 176.192 13.6357V42.5107ZM180.803 13.6387C184.416 14.6471 187.804 17.9925 190.507 23.0264C193.233 28.1009 195.213 34.808 196.006 42.292L195.978 42.2764L195.968 42.2715L195.825 42.2021C195.501 42.0366 195.164 41.8822 194.821 41.7402H194.82L194.477 41.6045L194.475 41.6035L193.975 41.4229L193.459 41.2568L193.455 41.2559L193.346 41.2207C193.306 41.2078 193.257 41.1928 193.203 41.1787H193.204C192.776 41.0595 192.338 40.9572 191.891 40.8691H191.89L191.56 40.8135H191.557C191.377 40.783 191.196 40.7554 191.014 40.7305L190.462 40.6641H190.461L190.057 40.625C189.584 40.5868 189.097 40.5586 188.598 40.5586C185.632 40.5586 182.929 41.2772 180.803 42.5049V13.6387Z" stroke="url(#paint12_linear_0_1201)" stroke-opacity="0.3"/>
</g>
</g>
<g clip-path="url(#clip2_0_1201)">
<g filter="url(#filter4_d_0_1201)">
<path d="M323.282 54.8442C321.574 51.953 317.429 51.953 315.72 54.8442L300.695 80.2724C298.941 83.2389 301.056 87.0026 304.476 87.0026H334.524C337.944 87.0026 340.059 83.2389 338.305 80.2724L323.282 54.8442ZM319.283 60.6241C320.646 60.5033 321.847 61.5234 321.967 62.9006C321.98 63.0429 321.978 63.1986 321.967 63.3355L321.143 72.8577C321.064 73.7758 320.264 74.455 319.355 74.3744C318.545 74.302 317.92 73.6496 317.854 72.8577L317.03 63.3355C316.911 61.9583 317.92 60.7449 319.283 60.6241ZM319.499 81.8322C318.04 81.8322 316.858 80.6375 316.858 79.1637C316.858 77.6899 318.04 76.4952 319.499 76.4952C320.957 76.4952 322.14 77.6899 322.14 79.1637C322.14 80.6375 320.957 81.8322 319.499 81.8322Z" fill="url(#paint13_linear_0_1201)"/>
<path d="M323.282 54.8442C321.574 51.953 317.429 51.953 315.72 54.8442L300.695 80.2724C298.941 83.2389 301.056 87.0026 304.476 87.0026H334.524C337.944 87.0026 340.059 83.2389 338.305 80.2724L323.282 54.8442ZM319.283 60.6241C320.646 60.5033 321.847 61.5234 321.967 62.9006C321.98 63.0429 321.978 63.1986 321.967 63.3355L321.143 72.8577C321.064 73.7758 320.264 74.455 319.355 74.3744C318.545 74.302 317.92 73.6496 317.854 72.8577L317.03 63.3355C316.911 61.9583 317.92 60.7449 319.283 60.6241ZM319.499 81.8322C318.04 81.8322 316.858 80.6375 316.858 79.1637C316.858 77.6899 318.04 76.4952 319.499 76.4952C320.957 76.4952 322.14 77.6899 322.14 79.1637C322.14 80.6375 320.957 81.8322 319.499 81.8322Z" fill="url(#paint14_radial_0_1201)"/>
<path d="M316.151 55.0986C317.618 52.6149 321.11 52.5375 322.703 54.8662L322.852 55.0986L337.874 80.5264V80.5273C339.435 83.1681 337.547 86.5029 334.524 86.5029H304.476C301.547 86.5029 299.683 83.3728 300.989 80.7764L301.125 80.5273V80.5264L316.151 55.0986ZM319.498 75.9951C317.759 75.9952 316.358 77.419 316.358 79.1641C316.358 80.9089 317.759 82.3319 319.498 82.332C321.238 82.332 322.64 80.909 322.64 79.1641C322.64 77.419 321.238 75.9951 319.498 75.9951ZM319.393 60.1162L319.24 60.126C317.649 60.2669 316.465 61.6408 316.523 63.2246L316.533 63.3789L317.356 72.9004C317.437 73.8635 318.154 74.6707 319.116 74.8457L319.311 74.8721C320.426 74.9709 321.408 74.1964 321.612 73.1201L321.641 72.9014L321.642 72.9004L322.465 63.3789V63.374C322.471 63.2958 322.476 63.2103 322.476 63.1221L322.465 62.8545C322.325 61.2603 320.971 60.0576 319.393 60.1162Z" stroke="url(#paint15_linear_0_1201)" stroke-opacity="0.3"/>
</g>
<g filter="url(#filter5_d_0_1201)">
<path d="M289.203 45.0617C287.136 45.0617 285.207 45.4215 283.528 46.0577C282.68 46.3799 281.809 45.6309 282.037 44.745C285.324 32.0765 295.527 21.9852 308.594 18.3128C302.799 24.2617 298.705 34.8792 297.722 47.5906C295.575 46.0282 292.58 45.0617 289.203 45.0617ZM309.402 45.0617C308.918 45.0617 308.448 45.0886 307.981 45.1262C307.848 45.1369 307.717 45.1503 307.587 45.1638C307.229 45.2013 306.875 45.2497 306.527 45.3087C306.418 45.3275 306.307 45.3436 306.2 45.3624C305.765 45.4456 305.339 45.545 304.925 45.6604C304.84 45.6846 304.758 45.7141 304.673 45.7383C304.34 45.8376 304.016 45.9477 303.7 46.0685C303.586 46.1114 303.472 46.157 303.357 46.2027C303.028 46.3396 302.706 46.4846 302.398 46.643C302.348 46.6698 302.294 46.6913 302.244 46.7181C301.946 46.8765 301.659 47.0403 301.383 47.2174C302.834 31.357 309.585 18.6591 317.692 17V47.4161C315.564 45.9503 312.657 45.0591 309.399 45.0591L309.402 45.0617ZM321.303 47.4134V17.0027C329.407 18.6698 336.153 31.3624 337.601 47.2174C337.327 47.0403 337.04 46.8765 336.743 46.7181C336.7 46.6966 336.655 46.6752 336.61 46.6537C336.297 46.4926 335.967 46.3423 335.63 46.2027C335.521 46.157 335.409 46.1141 335.297 46.0711C334.979 45.9503 334.652 45.8376 334.314 45.7356C334.232 45.7114 334.152 45.6819 334.07 45.6604C333.655 45.545 333.23 45.4456 332.795 45.3597C332.688 45.3383 332.579 45.3248 332.473 45.306C332.125 45.247 331.772 45.1987 331.41 45.1611C331.28 45.1477 331.15 45.1342 331.017 45.1235C330.552 45.0859 330.079 45.0591 329.598 45.0591C326.341 45.0591 323.431 45.9477 321.3 47.4107L321.303 47.4134ZM349.8 45.0617C346.414 45.0617 343.415 46.0282 341.265 47.596C340.282 34.8819 336.185 24.2617 330.39 18.3128C343.463 21.9852 353.676 32.0765 356.963 44.745C357.194 45.6309 356.323 46.3799 355.472 46.0577C353.796 45.4215 351.867 45.0617 349.797 45.0617H349.8Z" fill="url(#paint16_linear_0_1201)"/>
<path d="M289.203 45.0617C287.136 45.0617 285.207 45.4215 283.528 46.0577C282.68 46.3799 281.809 45.6309 282.037 44.745C285.324 32.0765 295.527 21.9852 308.594 18.3128C302.799 24.2617 298.705 34.8792 297.722 47.5906C295.575 46.0282 292.58 45.0617 289.203 45.0617ZM309.402 45.0617C308.918 45.0617 308.448 45.0886 307.981 45.1262C307.848 45.1369 307.717 45.1503 307.587 45.1638C307.229 45.2013 306.875 45.2497 306.527 45.3087C306.418 45.3275 306.307 45.3436 306.2 45.3624C305.765 45.4456 305.339 45.545 304.925 45.6604C304.84 45.6846 304.758 45.7141 304.673 45.7383C304.34 45.8376 304.016 45.9477 303.7 46.0685C303.586 46.1114 303.472 46.157 303.357 46.2027C303.028 46.3396 302.706 46.4846 302.398 46.643C302.348 46.6698 302.294 46.6913 302.244 46.7181C301.946 46.8765 301.659 47.0403 301.383 47.2174C302.834 31.357 309.585 18.6591 317.692 17V47.4161C315.564 45.9503 312.657 45.0591 309.399 45.0591L309.402 45.0617ZM321.303 47.4134V17.0027C329.407 18.6698 336.153 31.3624 337.601 47.2174C337.327 47.0403 337.04 46.8765 336.743 46.7181C336.7 46.6966 336.655 46.6752 336.61 46.6537C336.297 46.4926 335.967 46.3423 335.63 46.2027C335.521 46.157 335.409 46.1141 335.297 46.0711C334.979 45.9503 334.652 45.8376 334.314 45.7356C334.232 45.7114 334.152 45.6819 334.07 45.6604C333.655 45.545 333.23 45.4456 332.795 45.3597C332.688 45.3383 332.579 45.3248 332.473 45.306C332.125 45.247 331.772 45.1987 331.41 45.1611C331.28 45.1477 331.15 45.1342 331.017 45.1235C330.552 45.0859 330.079 45.0591 329.598 45.0591C326.341 45.0591 323.431 45.9477 321.3 47.4107L321.303 47.4134ZM349.8 45.0617C346.414 45.0617 343.415 46.0282 341.265 47.596C340.282 34.8819 336.185 24.2617 330.39 18.3128C343.463 21.9852 353.676 32.0765 356.963 44.745C357.194 45.6309 356.323 46.3799 355.472 46.0577C353.796 45.4215 351.867 45.0617 349.797 45.0617H349.8Z" fill="url(#paint17_radial_0_1201)"/>
<path d="M331.97 19.3193C343.856 23.2531 353.078 32.6296 356.322 44.2871L356.479 44.8701V44.8711C356.595 45.3146 356.195 45.7222 355.741 45.6182L355.65 45.5898C353.914 44.9312 351.925 44.5618 349.799 44.5615C346.68 44.5616 343.86 45.3616 341.691 46.709C340.669 35.1983 337.093 25.4082 331.97 19.3193ZM307.013 19.3193C301.89 25.4082 298.316 35.1966 297.294 46.7051C295.128 45.3625 292.315 44.5615 289.203 44.5615C287.212 44.5615 285.339 44.8864 283.68 45.4697L283.351 45.5898L283.35 45.5908C282.865 45.7748 282.399 45.3457 282.522 44.8701L282.521 44.8691C285.616 32.9424 294.936 23.3187 307.013 19.3193ZM317.192 46.5107C315.068 45.2801 312.366 44.5586 309.4 44.5586H308.201L308.249 44.6064L307.941 44.6279H307.94L307.536 44.666H307.535C307.351 44.6853 307.168 44.7076 306.986 44.7324L306.444 44.8154L306.442 44.8164L306.114 44.8701L306.107 44.8711C305.882 44.914 305.66 44.9614 305.441 45.0127L304.79 45.1787L304.788 45.1797C304.736 45.1944 304.686 45.2106 304.646 45.2236L304.535 45.2568L304.53 45.2588C304.358 45.3102 304.188 45.3649 304.02 45.4219L303.524 45.6006L303.172 45.7383L303.165 45.7412C302.996 45.8115 302.828 45.8839 302.661 45.96L302.169 46.1982L302.163 46.2012C302.152 46.2074 302.138 46.2145 302.11 46.2275L302.009 46.2764C301.998 46.282 301.987 46.2873 301.977 46.293C302.771 38.8058 304.754 32.0954 307.482 27.0195C310.187 21.9845 313.578 18.6406 317.192 17.6357V46.5107ZM321.803 17.6387C325.416 18.6471 328.804 21.9925 331.507 27.0264C334.233 32.1009 336.213 38.808 337.006 46.292L336.978 46.2764L336.968 46.2715L336.825 46.2021C336.501 46.0366 336.164 45.8822 335.821 45.7402H335.82L335.477 45.6045L335.475 45.6035L334.975 45.4229L334.459 45.2568L334.455 45.2559L334.346 45.2207C334.306 45.2078 334.257 45.1928 334.203 45.1787H334.204C333.776 45.0595 333.338 44.9572 332.891 44.8691H332.89L332.56 44.8135H332.557C332.377 44.783 332.196 44.7554 332.014 44.7305L331.462 44.6641H331.461L331.057 44.625C330.584 44.5868 330.097 44.5586 329.598 44.5586C326.632 44.5586 323.929 45.2772 321.803 46.5049V17.6387Z" stroke="url(#paint18_linear_0_1201)" stroke-opacity="0.3"/>
</g>
</g>
<defs>
<filter id="filter0_d_0_1201" x="25.0648" y="36.6758" width="50.8703" height="46.3271" filterUnits="userSpaceOnUse" color-interpolation-filters="sRGB">
<feFlood flood-opacity="0" result="BackgroundImageFix"/>
<feColorMatrix in="SourceAlpha" type="matrix" values="0 0 0 0 0 0 0 0 0 0 0 0 0 0 0 0 0 0 127 0" result="hardAlpha"/>
<feMorphology radius="2" operator="erode" in="SourceAlpha" result="effect1_dropShadow_0_1201"/>
<feOffset dy="4"/>
<feGaussianBlur stdDeviation="4"/>
<feComposite in2="hardAlpha" operator="out"/>
<feColorMatrix type="matrix" values="0 0 0 0 1 0 0 0 0 0.384314 0 0 0 0 0.254902 0 0 0 0.48 0"/>
<feBlend mode="normal" in2="BackgroundImageFix" result="effect1_dropShadow_0_1201"/>
<feBlend mode="normal" in="SourceGraphic" in2="effect1_dropShadow_0_1201" result="shape"/>
</filter>
<filter id="filter1_d_0_1201" x="7.00031" y="1" width="87.0004" height="42.5957" filterUnits="userSpaceOnUse" color-interpolation-filters="sRGB">
<feFlood flood-opacity="0" result="BackgroundImageFix"/>
<feColorMatrix in="SourceAlpha" type="matrix" values="0 0 0 0 0 0 0 0 0 0 0 0 0 0 0 0 0 0 127 0" result="hardAlpha"/>
<feMorphology radius="2" operator="erode" in="SourceAlpha" result="effect1_dropShadow_0_1201"/>
<feOffset dy="4"/>
<feGaussianBlur stdDeviation="4"/>
<feComposite in2="hardAlpha" operator="out"/>
<feColorMatrix type="matrix" values="0 0 0 0 1 0 0 0 0 0.384314 0 0 0 0 0.254902 0 0 0 0.48 0"/>
<feBlend mode="normal" in2="BackgroundImageFix" result="effect1_dropShadow_0_1201"/>
<feBlend mode="normal" in="SourceGraphic" in2="effect1_dropShadow_0_1201" result="shape"/>
</filter>
<filter id="filter2_d_0_1201" x="153.065" y="46.6758" width="50.8703" height="46.3271" filterUnits="userSpaceOnUse" color-interpolation-filters="sRGB">
<feFlood flood-opacity="0" result="BackgroundImageFix"/>
<feColorMatrix in="SourceAlpha" type="matrix" values="0 0 0 0 0 0 0 0 0 0 0 0 0 0 0 0 0 0 127 0" result="hardAlpha"/>
<feMorphology radius="2" operator="erode" in="SourceAlpha" result="effect1_dropShadow_0_1201"/>
<feOffset dy="4"/>
<feGaussianBlur stdDeviation="4"/>
<feComposite in2="hardAlpha" operator="out"/>
<feColorMatrix type="matrix" values="0 0 0 0 1 0 0 0 0 0.384314 0 0 0 0 0.254902 0 0 0 0.48 0"/>
<feBlend mode="normal" in2="BackgroundImageFix" result="effect1_dropShadow_0_1201"/>
<feBlend mode="normal" in="SourceGraphic" in2="effect1_dropShadow_0_1201" result="shape"/>
</filter>
<filter id="filter3_d_0_1201" x="135" y="11" width="87.0004" height="42.5957" filterUnits="userSpaceOnUse" color-interpolation-filters="sRGB">
<feFlood flood-opacity="0" result="BackgroundImageFix"/>
<feColorMatrix in="SourceAlpha" type="matrix" values="0 0 0 0 0 0 0 0 0 0 0 0 0 0 0 0 0 0 127 0" result="hardAlpha"/>
<feMorphology radius="2" operator="erode" in="SourceAlpha" result="effect1_dropShadow_0_1201"/>
<feOffset dy="4"/>
<feGaussianBlur stdDeviation="4"/>
<feComposite in2="hardAlpha" operator="out"/>
<feColorMatrix type="matrix" values="0 0 0 0 1 0 0 0 0 0.384314 0 0 0 0 0.254902 0 0 0 0.48 0"/>
<feBlend mode="normal" in2="BackgroundImageFix" result="effect1_dropShadow_0_1201"/>
<feBlend mode="normal" in="SourceGraphic" in2="effect1_dropShadow_0_1201" result="shape"/>
</filter>
<filter id="filter4_d_0_1201" x="294.065" y="50.6758" width="50.8703" height="46.3271" filterUnits="userSpaceOnUse" color-interpolation-filters="sRGB">
<feFlood flood-opacity="0" result="BackgroundImageFix"/>
<feColorMatrix in="SourceAlpha" type="matrix" values="0 0 0 0 0 0 0 0 0 0 0 0 0 0 0 0 0 0 127 0" result="hardAlpha"/>
<feMorphology radius="2" operator="erode" in="SourceAlpha" result="effect1_dropShadow_0_1201"/>
<feOffset dy="4"/>
<feGaussianBlur stdDeviation="4"/>
<feComposite in2="hardAlpha" operator="out"/>
<feColorMatrix type="matrix" values="0 0 0 0 1 0 0 0 0 0.384314 0 0 0 0 0.254902 0 0 0 0.48 0"/>
<feBlend mode="normal" in2="BackgroundImageFix" result="effect1_dropShadow_0_1201"/>
<feBlend mode="normal" in="SourceGraphic" in2="effect1_dropShadow_0_1201" result="shape"/>
</filter>
<filter id="filter5_d_0_1201" x="276" y="15" width="87.0004" height="42.5957" filterUnits="userSpaceOnUse" color-interpolation-filters="sRGB">
<feFlood flood-opacity="0" result="BackgroundImageFix"/>
<feColorMatrix in="SourceAlpha" type="matrix" values="0 0 0 0 0 0 0 0 0 0 0 0 0 0 0 0 0 0 127 0" result="hardAlpha"/>
<feMorphology radius="2" operator="erode" in="SourceAlpha" result="effect1_dropShadow_0_1201"/>
<feOffset dy="4"/>
<feGaussianBlur stdDeviation="4"/>
<feComposite in2="hardAlpha" operator="out"/>
<feColorMatrix type="matrix" values="0 0 0 0 1 0 0 0 0 0.384314 0 0 0 0 0.254902 0 0 0 0.48 0"/>
<feBlend mode="normal" in2="BackgroundImageFix" result="effect1_dropShadow_0_1201"/>
<feBlend mode="normal" in="SourceGraphic" in2="effect1_dropShadow_0_1201" result="shape"/>
</filter>
<linearGradient id="paint0_linear_0_1201" x1="433" y1="0" x2="433" y2="95" gradientUnits="userSpaceOnUse">
<stop stop-color="white"/>
<stop offset="1" stop-color="white" stop-opacity="0"/>
</linearGradient>
<linearGradient id="paint1_linear_0_1201" x1="50.5" y1="38.6758" x2="50.5" y2="73.0026" gradientUnits="userSpaceOnUse">
<stop stop-color="#E9305E"/>
<stop offset="1" stop-color="#E9305E"/>
</linearGradient>
<radialGradient id="paint2_radial_0_1201" cx="0" cy="0" r="1" gradientUnits="userSpaceOnUse" gradientTransform="translate(50.5 38.6758) rotate(90) scale(34.3268 38.8703)">
<stop stop-color="white" stop-opacity="0.3"/>
<stop offset="1" stop-color="white" stop-opacity="0"/>
</radialGradient>
<linearGradient id="paint3_linear_0_1201" x1="31.0648" y1="55.8392" x2="69.9351" y2="55.8392" gradientUnits="userSpaceOnUse">
<stop stop-color="white" stop-opacity="0"/>
<stop offset="1" stop-color="white"/>
</linearGradient>
<linearGradient id="paint4_linear_0_1201" x1="50.5005" y1="3" x2="50.5005" y2="33.596" gradientUnits="userSpaceOnUse">
<stop stop-color="#E9305E"/>
<stop offset="1" stop-color="#E9305E"/>
</linearGradient>
<radialGradient id="paint5_radial_0_1201" cx="0" cy="0" r="1" gradientUnits="userSpaceOnUse" gradientTransform="translate(50.5005 3) rotate(90) scale(30.596 75.0003)">
<stop stop-color="white" stop-opacity="0.3"/>
<stop offset="1" stop-color="white" stop-opacity="0"/>
</radialGradient>
<linearGradient id="paint6_linear_0_1201" x1="13.0003" y1="18.298" x2="88.0006" y2="18.298" gradientUnits="userSpaceOnUse">
<stop stop-color="white" stop-opacity="0"/>
<stop offset="1" stop-color="white"/>
</linearGradient>
<linearGradient id="paint7_linear_0_1201" x1="178.5" y1="48.6758" x2="178.5" y2="83.0026" gradientUnits="userSpaceOnUse">
<stop stop-color="#E9305E"/>
<stop offset="1" stop-color="#E9305E"/>
</linearGradient>
<radialGradient id="paint8_radial_0_1201" cx="0" cy="0" r="1" gradientUnits="userSpaceOnUse" gradientTransform="translate(178.5 48.6758) rotate(90) scale(34.3268 38.8703)">
<stop stop-color="white" stop-opacity="0.3"/>
<stop offset="1" stop-color="white" stop-opacity="0"/>
</radialGradient>
<linearGradient id="paint9_linear_0_1201" x1="159.065" y1="65.8392" x2="197.935" y2="65.8392" gradientUnits="userSpaceOnUse">
<stop stop-color="white" stop-opacity="0"/>
<stop offset="1" stop-color="white"/>
</linearGradient>
<linearGradient id="paint10_linear_0_1201" x1="178.5" y1="13" x2="178.5" y2="43.596" gradientUnits="userSpaceOnUse">
<stop stop-color="#E9305E"/>
<stop offset="1" stop-color="#E9305E"/>
</linearGradient>
<radialGradient id="paint11_radial_0_1201" cx="0" cy="0" r="1" gradientUnits="userSpaceOnUse" gradientTransform="translate(178.5 13) rotate(90) scale(30.596 75.0003)">
<stop stop-color="white" stop-opacity="0.3"/>
<stop offset="1" stop-color="white" stop-opacity="0"/>
</radialGradient>
<linearGradient id="paint12_linear_0_1201" x1="141" y1="28.298" x2="216.001" y2="28.298" gradientUnits="userSpaceOnUse">
<stop stop-color="white" stop-opacity="0"/>
<stop offset="1" stop-color="white"/>
</linearGradient>
<linearGradient id="paint13_linear_0_1201" x1="319.5" y1="52.6758" x2="319.5" y2="87.0026" gradientUnits="userSpaceOnUse">
<stop stop-color="#E9305E"/>
<stop offset="1" stop-color="#E9305E"/>
</linearGradient>
<radialGradient id="paint14_radial_0_1201" cx="0" cy="0" r="1" gradientUnits="userSpaceOnUse" gradientTransform="translate(319.5 52.6758) rotate(90) scale(34.3268 38.8703)">
<stop stop-color="white" stop-opacity="0.3"/>
<stop offset="1" stop-color="white" stop-opacity="0"/>
</radialGradient>
<linearGradient id="paint15_linear_0_1201" x1="300.065" y1="69.8392" x2="338.935" y2="69.8392" gradientUnits="userSpaceOnUse">
<stop stop-color="white" stop-opacity="0"/>
<stop offset="1" stop-color="white"/>
</linearGradient>
<linearGradient id="paint16_linear_0_1201" x1="319.5" y1="17" x2="319.5" y2="47.596" gradientUnits="userSpaceOnUse">
<stop stop-color="#E9305E"/>
<stop offset="1" stop-color="#E9305E"/>
</linearGradient>
<radialGradient id="paint17_radial_0_1201" cx="0" cy="0" r="1" gradientUnits="userSpaceOnUse" gradientTransform="translate(319.5 17) rotate(90) scale(30.596 75.0003)">
<stop stop-color="white" stop-opacity="0.3"/>
<stop offset="1" stop-color="white" stop-opacity="0"/>
</radialGradient>
<linearGradient id="paint18_linear_0_1201" x1="282" y1="32.298" x2="357.001" y2="32.298" gradientUnits="userSpaceOnUse">
<stop stop-color="white" stop-opacity="0"/>
<stop offset="1" stop-color="white"/>
</linearGradient>
<clipPath id="clip0_0_1201">
<rect width="75" height="70" fill="white" transform="translate(13 3)"/>
</clipPath>
<clipPath id="clip1_0_1201">
<rect width="75" height="70" fill="white" transform="translate(141 13)"/>
</clipPath>
<clipPath id="clip2_0_1201">
<rect width="75" height="70" fill="white" transform="translate(282 17)"/>
</clipPath>
</defs>
</svg>
