<svg width="375" height="261" viewBox="0 0 375 261" fill="none" xmlns="http://www.w3.org/2000/svg">
<path opacity="0.6" fill-rule="evenodd" clip-rule="evenodd" d="M396.092 200.928L54.5176 0H54.9224L399.143 195.635L396.092 200.928ZM347.857 261L36.6177 3.35623L338.577 261H347.857ZM28.5223 12.1854L240.15 261H233.839L28.5223 12.1854ZM160.658 261L19.0251 19.4756L155.86 261H160.658ZM-56 33.3727L-49.5686 22.4037L-56 33.7632V33.3727ZM-38.5124 26.9986L-56 76.2584V74.0287L-38.5124 26.9986ZM-56 202.843L-26.834 29.6041L-56 188.368V202.843ZM-14.8782 30.1371L-13.1542 261H-16.5873L-14.8782 30.1371ZM39.691 261L-3.01242 28.5904L36.123 261H39.691ZM8.40363 24.9941L96.1566 261H92.1838L8.40363 24.9941ZM431 118.701L97.6782 0H95.407L431 125.18V118.701ZM225.009 0L431 34.7918V40.6556L210.407 0H225.009ZM-56 51.437L-44.1417 24.934L-56 49.4474V51.437ZM-32.7331 28.5527L-56 121.036V110.63L-32.7331 28.5527ZM-37.5754 261L-20.8748 30.1294L-44.494 261H-37.5754ZM-8.91159 29.6191L14.775 261H7.83395L-8.91159 29.6191ZM69.1118 261L2.77431 27.036L61.6461 261H69.1118ZM13.8381 22.4638L129.243 261H120.593L13.8381 22.4638ZM200.678 261L23.9349 16.0369L189.816 261H200.678ZM32.7724 7.9435L293.07 261H277.996L32.7724 7.9435ZM42.2095 0L371.933 238.656L378.934 228.64L42.352 0H42.2095ZM414.075 166.655L70.7009 0H72.7323L419.232 155.573L414.075 166.655ZM431 72.7599L142.75 0H132.226L431 84.9754V72.7599ZM431 3.54393L396.489 0H431V3.54393Z" fill="url(#paint0_radial_0_1295)" fill-opacity="0.7"/>
<defs>
<radialGradient id="paint0_radial_0_1295" cx="0" cy="0" r="1" gradientUnits="userSpaceOnUse" gradientTransform="translate(-5.32147 -46.174) rotate(18.1912) scale(319.858 320.277)">
<stop offset="0.334312" stop-color="#E120C1" stop-opacity="0"/>
<stop offset="0.4" stop-color="#E120C1"/>
<stop offset="0.99" stop-color="#E120C1" stop-opacity="0"/>
</radialGradient>
</defs>
</svg>
