<svg width="20" height="17" viewBox="0 0 20 17" fill="none" xmlns="http://www.w3.org/2000/svg">
<path d="M19.8088 2.22724C19.8667 2.14647 19.7812 2.04218 19.6885 2.07811C19.0297 2.33344 18.3413 2.50571 17.6391 2.5906C18.421 2.12348 19.0243 1.4124 19.3589 0.570533C19.393 0.484774 19.2993 0.408187 19.2186 0.452801C18.4918 0.854139 17.7081 1.14313 16.8939 1.30957C16.8599 1.31654 16.8247 1.30494 16.8008 1.27969C16.1898 0.635016 15.3856 0.205781 14.5089 0.0574517C13.6137 -0.0939932 12.6936 0.0559587 11.8928 0.48379C11.0921 0.911621 10.456 1.59313 10.0843 2.42144C9.73088 3.209 9.63552 4.08691 9.80983 4.93003C9.82335 4.99545 9.77215 5.05721 9.70547 5.05307C8.12142 4.95469 6.57372 4.53336 5.15771 3.81446C3.74529 3.09739 2.49456 2.09983 1.48169 0.883296C1.43674 0.829305 1.35154 0.836293 1.31879 0.898445C1.00362 1.49651 0.838603 2.16311 0.839051 2.8406C0.837772 3.51498 1.00327 4.17922 1.32081 4.77416C1.63834 5.36911 2.09807 5.87631 2.65905 6.2506C2.06413 6.23441 1.4808 6.08734 0.9503 5.82067C0.881932 5.78631 0.799925 5.83524 0.803481 5.91167C0.84485 6.80091 1.1713 7.69364 1.73637 8.37857C2.33769 9.10744 3.17231 9.60624 4.09905 9.7906C3.74231 9.89917 3.37193 9.95641 2.99905 9.9606C2.79611 9.95823 2.59357 9.94325 2.39259 9.91578C2.31807 9.90559 2.25722 9.97637 2.28331 10.0469C2.55972 10.7944 3.04805 11.4467 3.69013 11.9228C4.37658 12.4318 5.20463 12.7142 6.05905 12.7306C4.61625 13.8659 2.83493 14.4855 0.999051 14.4906C0.810408 14.4912 0.621848 14.4851 0.433733 14.4723C0.327725 14.4651 0.27897 14.6063 0.370345 14.6605C2.15911 15.7221 4.20364 16.2831 6.28905 16.2806C7.82874 16.2966 9.35619 16.0056 10.7822 15.4247C12.2081 14.8437 13.5041 13.9845 14.5943 12.8971C15.6844 11.8097 16.547 10.516 17.1316 9.09151C17.7162 7.66702 18.0111 6.14033 17.9991 4.6006V4.12077C17.9991 4.0892 18.014 4.05951 18.0392 4.04048C18.7175 3.52834 19.314 2.91691 19.8088 2.22724Z" fill="white"/>
</svg>
