<svg width="105" height="100" viewBox="0 0 105 100" fill="none" xmlns="http://www.w3.org/2000/svg">
<mask id="mask0_196_30203" style="mask-type:alpha" maskUnits="userSpaceOnUse" x="2" y="0" width="100" height="100">
<rect x="2.48828" width="99.3624" height="100" fill="#D9D9D9"/>
</mask>
<g mask="url(#mask0_196_30203)">
</g>
<g clip-path="url(#clip0_196_30203)">
<path d="M98.0941 70.5993C97.8518 70.5993 97.4883 70.5993 97.3671 70.4774C97.1248 70.4774 96.5189 70.3556 95.6707 70.4774C94.9436 70.4774 93.9742 70.5993 93.4895 70.8431C92.6413 71.0869 91.9143 70.8431 91.3084 70.8431C91.0661 70.8431 90.9449 70.8431 90.7026 70.8431C90.4602 70.8431 90.2179 70.965 89.8543 71.0869C89.4908 71.2088 89.1273 71.4526 88.6426 71.6964C87.7944 72.1839 86.9462 72.7934 86.4615 73.7685C86.3403 73.8904 86.2191 74.1342 85.9768 74.2561C85.7344 74.3779 85.3709 74.4998 85.1286 74.6217C84.5227 74.7436 83.9168 74.8655 83.6745 74.8655C84.5227 74.0123 85.2497 73.0371 85.9768 72.062C86.7038 71.0869 87.3097 70.1118 87.9156 69.1367L86.825 68.6491C86.0979 69.9899 85.0074 71.5745 84.1592 72.6715C84.1592 72.5496 84.1592 72.3058 84.038 72.062C84.038 71.8182 84.038 71.6964 84.038 71.5745C84.038 71.3307 84.1592 71.2088 84.2803 70.8431C84.2803 70.7212 84.4015 70.5993 84.5227 70.4774C84.6439 70.3556 84.6439 70.2337 84.765 70.1118C84.8862 69.9899 85.0074 69.7461 85.1286 69.6242C85.2497 69.5023 85.2497 69.2585 85.3709 69.1367C85.4921 68.8929 85.4921 68.5272 85.4921 68.4053C85.4921 68.2834 85.4921 68.1615 85.4921 68.0396C85.6133 67.5521 85.6133 67.1864 85.6133 66.9426C85.6133 66.6988 85.6133 66.3332 85.4921 65.9675C85.3709 65.6018 85.0074 64.9924 84.5227 64.5048C84.2803 64.261 84.038 63.8954 83.7956 63.6516C83.5533 63.4078 83.311 63.164 83.0686 62.9202C82.8263 62.6765 82.5839 62.4327 82.3416 62.1889C82.0992 61.9451 81.8569 61.7013 81.6145 61.4576C81.1298 60.97 80.7663 60.7262 80.7663 60.7262C80.7663 60.7262 80.7663 60.97 80.6451 61.2138C80.6451 61.3357 80.6451 61.5794 80.6451 61.8232C80.6451 62.067 80.6451 62.3108 80.7663 62.5546C81.0087 63.5297 80.8875 64.5048 80.7663 65.2362C80.7663 65.4799 80.7663 65.7237 80.7663 65.9675C80.7663 66.2113 80.8875 66.4551 80.8875 66.6988C80.8875 66.8207 80.8875 67.0645 80.8875 67.1864C80.8875 67.3083 80.8875 67.5521 80.8875 67.7959C80.8875 67.9177 80.8875 68.1615 81.0087 68.4053C81.1298 68.6491 81.1298 68.8929 81.251 69.1367C81.4933 69.6242 81.8569 70.1118 82.3416 70.4774C83.0686 71.0869 83.4321 71.4526 83.6745 71.8182C83.6745 71.8182 83.6745 71.8182 83.6745 71.9401C83.6745 72.062 83.6745 72.1839 83.7956 72.3058C83.7956 72.5496 83.9168 72.9153 83.7956 73.2809C83.6745 73.5247 83.4321 73.6466 83.311 73.7685C83.1898 73.8904 83.0686 74.0123 82.9474 74.1342C82.9474 74.1342 82.8263 74.2561 82.7051 74.3779C82.5839 74.4998 82.3416 74.7436 82.2204 74.9874C81.8569 75.475 81.251 75.9625 80.7663 76.4501C80.1604 76.9376 79.5546 77.5471 79.0699 77.9128C78.8275 78.1566 78.5852 78.2784 78.3428 78.5222C78.1005 78.6441 77.8581 78.766 77.737 78.8879C77.3734 79.1317 76.7676 79.6192 76.0405 80.1068C76.0405 79.7411 76.1617 79.3755 76.2829 79.0098C76.5252 79.0098 76.6464 79.0098 76.8887 78.8879C77.1311 78.766 77.2523 78.6441 77.4946 78.5222C77.737 78.4003 77.8581 78.2784 77.9793 78.1565C78.1005 78.0347 78.2217 77.9128 78.3428 77.7909C78.464 77.669 78.5852 77.5471 78.7064 77.3033C78.8275 77.0595 78.9487 76.8158 79.0699 76.572C79.3122 76.0844 79.4334 75.5969 79.4334 75.475C79.4334 75.3531 79.191 74.7436 78.8275 74.1342C78.5852 73.5247 78.3428 72.9153 78.3428 72.5496C78.3428 72.1839 78.3428 71.8182 78.2217 71.5745C78.2217 71.2088 78.2217 70.965 78.2217 70.5993C78.2217 70.2337 78.1005 69.9899 78.1005 69.6242C78.1005 69.5023 77.9793 69.3804 77.9793 69.2585C77.9793 69.1367 77.9793 69.1367 77.9793 69.1367C77.9793 69.1367 77.9793 69.1367 77.9793 69.2585C77.9793 69.2585 77.8581 69.3804 77.8581 69.5023C77.737 69.6242 77.6158 69.868 77.3734 70.1118C77.2523 70.2337 77.2523 70.3556 77.1311 70.4774C77.0099 70.5993 76.8887 70.7212 76.8887 70.8431C76.7676 70.965 76.6464 71.0869 76.6464 71.0869C76.5252 71.2088 76.4041 71.2088 76.4041 71.3307C76.0405 71.5745 75.677 71.8182 75.3135 72.062C75.1923 72.1839 75.1923 72.1839 75.0711 72.3058C74.95 72.4277 74.95 72.4277 74.8288 72.5496C74.1018 72.5496 73.9806 72.6715 73.9806 72.9153C73.9806 73.0371 73.9806 73.2809 73.9806 73.4028C73.9806 73.6466 73.9806 73.7685 74.1018 74.0123C74.2229 74.3779 74.2229 74.8655 74.1018 75.2312C73.9806 75.5969 74.2229 76.2063 74.4653 76.9376C74.7076 77.5471 75.0711 78.2784 75.4347 78.5222C75.5558 78.6441 75.5558 78.6441 75.677 78.6441C75.5558 78.8879 75.4347 79.1317 75.3135 79.2536C75.1923 79.4973 75.0711 79.6192 75.0711 79.6192C75.0711 79.6192 75.0711 79.7411 75.0711 79.863C75.0711 79.9849 74.95 80.2287 74.95 80.4725C74.2229 80.96 73.4959 81.3257 72.7688 81.5695C72.2841 81.8133 71.5571 82.0571 70.5877 82.3008C69.7395 82.5446 68.7701 82.7884 67.9219 83.0322C67.0737 83.276 66.1043 83.3978 65.2561 83.6416C65.3772 83.6416 65.4984 83.5197 65.7408 83.3979C65.8619 83.276 65.9831 83.276 66.2255 83.1541C66.4678 82.9103 66.7102 82.7884 66.8313 82.5446C66.9525 82.4227 67.0737 82.3008 67.1949 82.1789C67.4372 82.3008 68.0431 82.3008 68.8913 82.0571C69.6183 81.8133 70.4665 81.3257 71.0724 80.5944C71.1936 80.3506 71.4359 80.2287 71.5571 79.9849C71.6783 79.863 71.7995 79.6192 71.9206 79.4974C72.0418 79.3755 72.0418 79.2536 72.163 79.1317C72.2841 79.0098 72.2841 78.8879 72.2841 78.766C72.4053 78.5222 72.4053 78.4003 72.4053 78.1565C72.4053 77.9128 72.4053 77.669 72.2841 77.3033C72.2841 76.9376 72.2841 76.4501 72.2841 76.0844C72.2841 75.8406 72.4053 75.5968 72.4053 75.3531C72.4053 75.2312 72.4053 75.1093 72.4053 74.9874C72.4053 74.8655 72.4053 74.7436 72.4053 74.6217C72.5265 74.1342 72.5265 73.7685 72.5265 73.4028C72.5265 73.0372 72.5265 72.6715 72.4053 72.5496C72.4053 72.4277 72.2841 72.5496 72.0418 72.5496C71.9206 72.5496 71.9206 72.6715 71.7995 72.6715C71.6783 72.7934 71.5571 72.7934 71.4359 72.9153C70.9512 73.2809 70.4665 73.6466 70.2242 73.7685C69.8607 74.0123 69.2548 74.7436 68.6489 75.475C68.4066 75.8406 68.0431 76.2063 67.8007 76.572C67.5584 76.9376 67.316 77.1814 67.1949 77.4252C67.0737 77.669 66.9525 77.9128 66.8313 78.2784C66.7102 78.6441 66.589 79.0098 66.589 79.3755C66.4678 80.1068 66.589 80.96 66.9525 81.8133C66.8313 81.9352 66.7102 82.0571 66.4678 82.1789C66.3466 82.3008 66.1043 82.3008 65.9831 82.4227C65.6196 82.5446 65.3772 82.6665 65.2561 82.6665C65.1349 82.7884 64.8926 82.9103 64.7714 83.0322C64.6502 83.1541 64.6502 83.1541 64.529 83.276C64.2867 83.5197 64.2867 83.6416 64.1655 83.6416C63.5596 83.7635 63.0749 83.7635 62.7114 83.8854C61.742 84.0073 60.5303 83.8854 59.4397 83.7635C59.4397 83.7635 54.714 84.1292 52.1693 85.1043C49.6247 84.1292 44.8989 83.7635 44.8989 83.7635C43.8083 83.8854 42.5966 84.0073 41.6272 83.8854C41.2637 83.8854 40.779 83.7635 40.1731 83.6416C40.1731 83.6416 40.0519 83.5197 40.0519 83.3979C39.9308 83.276 39.9308 83.276 39.8096 83.1541C39.6884 83.0322 39.4461 82.7884 39.3249 82.7884C39.2037 82.7884 38.8402 82.6665 38.5979 82.5446C38.4767 82.4227 38.2343 82.4227 38.1132 82.3008C37.992 82.1789 37.7496 82.0571 37.6285 81.9352C37.992 81.0819 38.1132 80.2287 37.992 79.4974C37.992 79.1317 37.8708 78.766 37.7496 78.4003C37.6285 78.0347 37.5073 77.7909 37.3861 77.5471C37.265 77.3033 37.0226 77.0595 36.7803 76.6939C36.5379 76.3282 36.1744 75.9625 35.932 75.5968C35.3262 74.8655 34.8415 74.1342 34.3568 73.8904C34.1144 73.7685 33.6297 73.4028 33.1451 73.0372C33.0239 72.9153 32.9027 72.9153 32.7815 72.7934C32.6604 72.6715 32.5392 72.6715 32.5392 72.6715C32.418 72.5496 32.2968 72.5496 32.1757 72.6715C32.0545 72.9153 32.0545 73.159 32.0545 73.5247C32.0545 73.8904 32.0545 74.3779 32.1757 74.7436C32.1757 74.8655 32.1757 74.9874 32.1757 75.1093C32.1757 75.2312 32.1757 75.3531 32.1757 75.475C32.1757 75.7187 32.2968 75.9625 32.2968 76.2063C32.2968 76.6939 32.418 77.0595 32.2968 77.4252C32.2968 77.7909 32.1757 78.0347 32.1757 78.2784C32.1757 78.5222 32.1757 78.6441 32.2968 78.8879C32.2968 79.0098 32.418 79.1317 32.418 79.2536C32.5392 79.3755 32.5392 79.4973 32.6604 79.6192C32.7815 79.7411 32.9027 79.863 33.0239 80.1068C33.1451 80.2287 33.2662 80.4725 33.5086 80.7163C34.1144 81.4476 34.9627 81.9352 35.6897 82.1789C36.4167 82.4227 37.0226 82.4227 37.3861 82.3008C37.5073 82.4227 37.6285 82.5446 37.7496 82.6665C37.8708 82.9103 38.1132 83.0322 38.3555 83.276C38.4767 83.3978 38.5979 83.3978 38.8402 83.5197C38.9614 83.6416 39.0826 83.6416 39.2037 83.7635C38.3555 83.6416 37.3861 83.3979 36.5379 83.1541C35.6897 82.9103 34.7203 82.6665 33.8721 82.4227C33.0239 82.1789 32.2968 81.9352 31.691 81.6914C30.9639 81.4476 30.2369 80.96 29.5098 80.5944C29.3887 80.3506 29.3887 80.2287 29.3887 79.9849C29.3887 79.863 29.3887 79.7411 29.3887 79.7411C29.3887 79.7411 29.2675 79.6192 29.1463 79.3755C29.0251 79.1317 28.904 78.8879 28.7828 78.766C28.904 78.766 28.904 78.6441 29.0251 78.6441C29.2675 78.4003 29.631 77.669 29.9945 77.0595C30.2369 76.4501 30.4792 75.7187 30.3581 75.3531C30.2369 74.9874 30.3581 74.6217 30.3581 74.1342C30.3581 73.8904 30.4792 73.7685 30.4792 73.5247C30.4792 73.2809 30.4792 73.159 30.4792 73.0372C30.4792 72.9153 30.3581 72.6715 30.2369 72.5496C30.1157 72.4277 30.1157 72.4277 29.9945 72.3058C29.8734 72.1839 29.8734 72.1839 29.7522 72.062C29.3887 71.8182 28.904 71.5745 28.6616 71.3307C28.5405 71.2088 28.5404 71.2088 28.4193 71.0869C28.2981 70.965 28.1769 70.8431 28.1769 70.8431C28.0558 70.7212 27.9346 70.5993 27.9346 70.4774C27.8134 70.3556 27.6922 70.2337 27.6922 70.1118C27.5711 69.868 27.3287 69.6242 27.2075 69.5023C27.2075 69.3804 27.0864 69.3804 27.0864 69.2585V69.1367C27.0864 69.1367 27.0864 69.1367 27.0864 69.2585C27.0864 69.3804 26.9652 69.5023 26.9652 69.6242C26.844 69.868 26.844 70.2337 26.844 70.5993C26.844 70.965 26.844 71.2088 26.844 71.5745C26.844 71.9401 26.844 72.1839 26.7228 72.5496C26.7228 72.9153 26.4805 73.5247 26.2382 74.1342C25.9958 74.7436 25.7535 75.2312 25.6323 75.475C25.6323 75.5969 25.7535 76.0844 25.9958 76.572C26.117 76.8158 26.2382 77.0595 26.3593 77.3033C26.4805 77.5471 26.6017 77.669 26.7228 77.7909C26.844 77.9128 26.844 78.0347 27.0864 78.1565C27.2075 78.2784 27.3287 78.4003 27.5711 78.5222C27.8134 78.6441 27.9346 78.766 28.1769 78.8879C28.4193 79.0098 28.5405 79.0098 28.7828 79.0098C28.904 79.3755 29.0251 79.7411 29.0251 80.1068C28.2981 79.6192 27.6922 79.1317 27.3287 78.8879C27.2075 78.766 26.9652 78.6441 26.7228 78.5222C26.4805 78.4003 26.2381 78.1566 25.9958 77.9128C25.3899 77.4252 24.7841 76.9376 24.2994 76.4501C23.6935 75.9625 23.2088 75.3531 22.8453 74.9874C22.6029 74.7436 22.4818 74.6217 22.3606 74.3779C22.2394 74.2561 22.1182 74.1342 22.1182 74.1342C21.9971 74.0123 21.8759 73.8904 21.7547 73.7685C21.6336 73.6466 21.5124 73.4028 21.27 73.2809C21.27 72.9153 21.27 72.5496 21.27 72.3058C21.27 72.1839 21.3912 72.062 21.3912 71.9401V71.8182C21.6336 71.4526 21.9971 71.0869 22.7241 70.4774C23.2088 70.1118 23.5723 69.6242 23.8147 69.1367C23.9359 68.8929 24.057 68.6491 24.057 68.4053C24.1782 68.1615 24.1782 68.0396 24.1782 67.7959C24.1782 67.5521 24.1782 67.4302 24.1782 67.1864C24.1782 67.0645 24.1782 66.8207 24.1782 66.6988C24.1782 66.4551 24.2994 66.2113 24.2994 65.9675C24.2994 65.7237 24.2994 65.4799 24.2994 65.2362C24.2994 64.6267 24.1782 63.6516 24.2994 62.5546C24.2994 62.3108 24.4205 62.067 24.4205 61.8232C24.4205 61.5794 24.4205 61.4576 24.4205 61.2138C24.4205 60.8481 24.2994 60.7262 24.2994 60.7262C24.2994 60.7262 23.9359 61.0919 23.4512 61.4576C23.2088 61.7013 22.9665 61.9451 22.7241 62.1889C22.4818 62.4327 22.2394 62.6765 21.9971 62.9202C21.7547 63.164 21.5124 63.4078 21.27 63.6516C21.0277 63.8954 20.7853 64.1391 20.543 64.5048C20.0583 65.1143 19.6948 65.6018 19.5736 65.9675C19.4524 66.3332 19.4524 66.577 19.4524 66.9426C19.4524 67.1864 19.4524 67.5521 19.5736 68.0396C19.5736 68.1615 19.5736 68.2834 19.5736 68.4053C19.5736 68.6491 19.6948 68.8929 19.6948 69.1367C19.6948 69.2585 19.8159 69.5023 19.9371 69.6242C20.0583 69.7461 20.0583 69.9899 20.1795 70.1118C20.3006 70.2337 20.4218 70.3556 20.4218 70.4774C20.543 70.5993 20.543 70.7212 20.6642 70.8431C20.7853 71.0869 20.9065 71.3307 20.9065 71.5745C20.9065 71.6964 20.9065 71.8182 20.9065 72.062C20.9065 72.3058 20.9065 72.4277 20.7853 72.6715C19.9371 71.5745 18.8466 70.1118 18.1195 68.6491L17.1501 68.8929L17.6348 68.6491C17.1501 67.9177 16.5443 66.8207 16.0596 65.8456C16.0596 65.6018 16.0596 65.2362 16.0596 64.9924C16.0596 64.7486 16.1807 64.5048 16.1807 64.3829C16.3019 64.1391 16.4231 63.7735 16.5443 63.2859C17.1501 63.2859 18.483 62.6765 19.4524 61.9451C19.9371 61.5794 20.1795 61.2138 20.4218 60.7262C20.543 60.4824 20.6642 60.2386 20.7853 59.9949C20.9065 59.7511 21.0277 59.3854 21.27 59.1416C21.5124 58.776 21.6336 58.5322 21.8759 58.1665C21.9971 58.0446 22.1182 57.8008 22.1182 57.6789C22.1182 57.557 22.2394 57.557 22.2394 57.4352C22.2394 57.3133 22.3606 57.3133 22.3606 57.1914C22.4818 57.0695 22.4818 56.8257 22.6029 56.7038C22.6029 56.5819 22.7241 56.3381 22.7241 56.2163C22.7241 56.0944 22.7241 56.0944 22.7241 55.9725C22.7241 55.8506 22.7241 55.8506 22.7241 55.7287C22.7241 55.6068 22.7241 55.4849 22.7241 55.2411C22.7241 54.9973 22.6029 54.7536 22.6029 54.5098C22.6029 54.266 22.4818 54.1441 22.4818 54.0222C22.4818 53.9003 22.3606 53.7784 22.3606 53.7784V53.6566C22.3606 53.6566 22.3606 53.6566 22.2394 53.7784C22.2394 53.9003 22.1182 53.9003 21.9971 54.0222C21.7547 54.266 21.3912 54.5098 20.9065 54.7536C20.4218 54.9973 19.9371 55.2411 19.4524 55.6068C18.9677 55.9725 18.3619 56.3381 17.756 56.7038C17.1501 57.0695 16.6654 57.4352 16.3019 57.6789C15.9384 58.0446 15.696 58.2884 15.4537 58.776C15.2113 59.2635 15.2113 60.1168 15.4537 60.97C15.696 61.8232 15.9384 62.6765 16.3019 62.9202C16.1807 63.2859 16.0596 63.7735 15.8172 64.1391C15.696 64.3829 15.696 64.5048 15.696 64.7486C15.3325 64.0172 15.0902 63.4078 15.0902 63.0421C14.969 62.7983 14.969 62.4327 14.7267 62.067C14.6055 61.7013 14.3631 61.2138 14.242 60.8481C13.8784 60.3605 13.5149 59.2635 13.3937 58.4103C13.3937 58.2884 13.3937 58.0446 13.2726 57.8008C13.2726 57.5571 13.2726 57.3133 13.1514 57.0695C13.2726 56.8257 13.7573 56.3381 13.7573 55.9725C13.7573 55.8506 13.7573 55.6068 13.7573 55.2411C13.7573 54.8755 13.8784 54.5098 14.1208 54.266C15.0902 54.3879 16.0596 54.0222 16.7866 53.6566C17.1501 53.4128 17.5136 53.2909 17.8772 53.0471C18.1195 52.8033 18.3619 52.5595 18.6042 52.3158C18.9677 51.8282 19.5736 50.8531 20.0583 49.9998C20.1795 49.7561 20.3006 49.5123 20.4218 49.2685C20.543 49.0247 20.6642 48.7809 20.7853 48.659C21.0277 48.2934 21.1489 47.9277 21.1489 47.6839C21.1489 47.562 21.1489 47.3182 21.27 47.0745C21.27 46.9526 21.3912 46.8307 21.3912 46.5869C21.3912 46.465 21.5124 46.3431 21.5124 46.0993C21.6335 45.4899 21.7547 45.0023 21.5124 45.0023C21.3912 45.0023 21.27 45.0023 21.0277 45.1242C20.9065 45.1242 20.6642 45.2461 20.543 45.368C20.3006 45.4899 20.1795 45.6118 19.9371 45.7337C19.6948 45.8556 19.5736 45.9774 19.3312 46.0993C19.0889 46.2212 18.9677 46.3431 18.7254 46.5869C18.483 46.7088 18.2407 46.8307 18.1195 47.0745C17.756 47.3182 17.2713 47.562 16.9078 47.6839C16.1807 47.9277 15.8172 48.1715 15.4537 48.4153C15.3325 48.5372 15.0902 48.7809 14.969 49.0247C14.8478 49.1466 14.7267 49.2685 14.7267 49.5123C14.6055 49.7561 14.4843 49.8779 14.3631 50.1217C13.8784 50.975 13.7573 51.8282 13.7573 52.5595C13.7573 52.9252 13.8784 53.2909 13.8784 53.5347C13.9996 53.7784 13.9996 54.0222 14.1208 54.1441C14.1208 54.266 13.9996 54.5098 13.8784 54.6317C13.7573 54.7536 13.5149 54.9973 13.5149 55.363C13.3937 55.6068 13.2726 55.9725 13.2726 56.2163C13.1514 55.4849 13.1514 54.6317 13.0302 53.7784C13.0302 52.9252 12.909 52.072 12.7879 51.2187C12.7879 50.975 12.7879 50.8531 12.6667 50.6093C12.6667 50.3655 12.6667 50.2436 12.6667 50.1217C12.6667 49.7561 12.6667 49.5123 12.6667 49.2685C12.6667 48.5372 12.6667 47.8058 12.7879 46.9526C12.909 46.5869 13.3937 46.3431 13.3937 46.3431C13.3937 46.3431 13.5149 46.2212 13.6361 45.9774C13.7573 45.7337 13.9996 45.6118 14.1208 45.368C14.242 45.368 14.242 45.4899 14.3631 45.4899C14.8478 45.6118 15.5749 45.4899 16.4231 45.368C17.1501 45.2461 17.9983 45.0023 18.2407 44.7585C18.8466 44.271 19.9371 44.0272 20.543 43.5396C20.6642 43.4177 20.7853 43.2959 20.9065 43.0521C20.9065 42.9302 21.0277 42.8083 21.0277 42.8083C21.0277 42.6864 21.0277 42.5645 21.1489 42.4426C21.1489 42.3207 21.1489 42.1988 21.1489 42.077C21.1489 41.9551 21.1489 41.8332 21.1489 41.7113C21.1489 41.5894 21.1489 41.4675 21.1489 41.3456C21.1489 41.2237 21.1489 41.1018 21.1489 40.9799C21.27 40.6143 21.5124 39.8829 21.7547 39.3954C21.8759 39.1516 21.9971 38.9078 22.1182 38.664C22.2394 38.5421 22.2394 38.4202 22.2394 38.4202C22.2394 38.4202 21.9971 38.4202 21.7547 38.5421C21.5124 38.664 21.1489 38.7859 20.7853 39.0297C20.1795 39.3954 19.5736 39.6391 18.8466 40.0048C18.483 40.2486 17.756 40.3705 17.0289 40.4924C16.3019 40.6143 15.696 40.7362 15.4537 40.7362C15.2113 40.7362 14.8478 41.2237 14.6055 41.5894C14.4843 41.8332 14.242 42.077 14.1208 42.1988C13.9996 42.4426 13.8784 42.5645 13.8784 42.6864C13.8784 42.8083 13.7573 42.9302 13.7573 43.0521C13.7573 43.174 13.6361 43.4177 13.6361 43.6615C13.6361 43.9053 13.6361 44.0272 13.6361 44.271C13.6361 44.5148 13.6361 44.6367 13.7573 44.8804C13.5149 45.1242 13.0302 45.368 12.7879 45.6118C12.909 44.7585 13.0302 44.0272 13.1514 43.6615C13.1514 43.5396 13.1514 43.2959 13.2726 43.0521C13.2726 42.8083 13.3937 42.4426 13.3937 42.1988C13.5149 41.5894 13.7573 40.7362 13.8784 40.1267C14.242 38.664 14.8478 37.3232 14.8478 37.0794C14.969 36.8357 15.0902 36.3481 15.2113 35.9824C15.4537 35.7386 15.8172 35.6168 16.1807 35.4949C16.3019 35.4949 16.4231 35.373 16.5443 35.373H16.6654C17.0289 35.373 17.756 35.373 18.6042 35.6168C19.2101 35.7386 19.9371 35.7386 20.543 35.6168C20.7853 35.6168 21.1489 35.4949 21.3912 35.373C21.6336 35.2511 21.8759 35.2511 21.9971 35.1292C22.2394 35.0073 22.3606 34.8854 22.6029 34.7635C22.7241 34.6416 22.9665 34.6416 23.0876 34.5197C23.33 34.3978 23.5723 34.276 23.8147 34.1541C23.9359 34.1541 24.057 34.0322 24.1782 34.0322C24.2994 34.0322 24.4205 33.9103 24.5417 33.9103C25.1476 33.5446 25.8746 32.9352 26.9652 32.5695C27.2075 32.4476 27.4499 32.3257 27.6922 32.2038C27.9346 32.0819 28.0558 31.96 28.1769 31.96C28.2981 31.8381 28.4193 31.8381 28.5405 31.7163C28.5405 31.7163 28.6616 31.7163 28.6616 31.5944C28.6616 31.5944 28.5404 31.5944 28.2981 31.4725C28.0558 31.4725 27.8134 31.3506 27.4499 31.3506C27.3287 31.3506 27.0864 31.2287 26.9652 31.2287C26.7228 31.2287 26.6017 31.1068 26.3593 31.1068C25.9958 30.9849 25.6323 30.9849 25.2688 30.9849C24.6629 30.863 23.8147 30.7411 23.0876 30.7411C22.3606 30.7411 21.6335 30.7411 21.1489 30.863C20.7853 30.9849 20.543 31.1068 20.1795 31.2287C19.9371 31.3506 19.5736 31.5944 19.2101 31.96C19.0889 32.0819 19.0889 32.0819 18.9677 32.2038C18.8466 32.3257 18.6042 32.5695 18.3619 32.8133C18.2407 32.9352 18.1195 33.0571 17.9983 33.1789C17.8772 33.3008 17.756 33.5446 17.6348 33.6665C17.5136 33.7884 17.5136 33.9103 17.3925 34.1541C17.2713 34.276 17.2713 34.3978 17.1501 34.5197C17.0289 34.6416 17.0289 34.7635 16.9078 34.8854C16.7866 35.0073 16.7866 35.0073 16.6654 35.1292C16.4231 35.2511 15.9384 35.4949 15.5749 35.6168C16.0596 34.3978 16.9078 32.6914 17.756 31.3506C18.2407 30.6192 18.8466 29.5222 19.4524 28.669C19.5736 28.5471 19.6948 28.5471 19.8159 28.4252C19.9371 28.3033 20.0583 28.3033 20.1795 28.1814C20.4218 28.0595 20.6642 27.9376 20.7853 27.9376C21.0277 27.9376 21.5124 27.8158 21.9971 27.6939C22.3606 28.0595 23.6935 28.7909 24.7841 29.1566C25.1476 29.2784 25.3899 29.2784 25.6323 29.2784C25.8746 29.2784 26.117 29.2784 26.3593 29.1566C26.6017 29.1566 26.844 29.0347 27.2075 29.0347C27.5711 29.0347 27.8134 28.9128 28.2981 28.9128C29.1463 28.9128 29.8734 28.9128 30.6004 28.7909C31.3274 28.669 31.9333 28.5471 32.418 28.3033C32.5392 28.1814 32.6604 28.1814 32.7815 28.0595C32.9027 27.9376 32.9027 27.9376 33.0239 27.9376C33.1451 27.8158 33.2662 27.6939 33.3874 27.6939C33.5086 27.572 33.5086 27.572 33.5086 27.4501V27.3282C33.5086 27.3282 33.5086 27.3282 33.3874 27.3282C33.2662 27.3282 33.1451 27.3282 33.0239 27.2063C32.9027 27.2063 32.6604 27.0844 32.5392 26.9625C32.2968 26.8406 32.1757 26.7187 31.9333 26.5969C31.691 26.475 31.4486 26.3531 31.2063 26.2312C30.9639 26.1093 30.7216 25.9874 30.3581 25.8655C29.7522 25.6217 29.1463 25.3779 28.4193 25.1342C27.6922 24.7685 27.2075 24.6466 26.7228 24.5247C26.4805 24.4028 26.2381 24.4028 25.9958 24.4028C25.7535 24.4028 25.5111 24.4028 25.1476 24.4028C24.6629 24.4028 23.8147 24.8904 23.0876 25.4998C22.7241 25.7436 22.4818 26.1093 22.1182 26.3531C21.8759 26.5969 21.7547 26.9625 21.6335 27.0844C21.3912 27.0844 21.1489 27.2063 20.9065 27.2063C20.6642 27.3282 20.4218 27.3282 20.1795 27.3282C19.9371 27.3282 19.8159 27.4501 19.5736 27.572C19.6948 27.4501 19.8159 27.3282 19.9371 27.0844C20.0583 26.9625 20.1795 26.8406 20.3006 26.7187C20.543 26.475 20.6642 26.2312 20.7853 26.1093C21.1489 25.7436 21.7547 25.0123 22.3606 24.2809C23.0876 23.5496 23.8147 22.6964 24.6629 22.0869C24.7841 21.965 25.0264 21.8431 25.1476 21.7212C25.3899 21.5993 25.5111 21.4774 25.7535 21.3556C25.9958 21.3556 26.844 21.3556 27.0864 21.3556C27.3287 21.2337 28.1769 20.7461 28.904 20.868C29.2675 21.7212 29.9945 22.3307 30.7216 22.6964C31.4486 23.1839 32.1757 23.4277 32.7815 23.5496C32.9027 23.5496 33.1451 23.5496 33.2662 23.6715C33.5086 23.6715 33.7509 23.6715 33.9933 23.7934C34.478 23.7934 34.9627 23.9153 35.5685 23.9153C35.8109 23.9153 36.0532 23.9153 36.2956 24.0372C36.4167 24.0372 36.5379 24.0372 36.6591 24.0372C36.7803 24.0372 36.9014 24.0372 37.0226 24.0372C37.265 24.0372 37.3861 24.0372 37.6285 24.0372C37.7496 24.0372 37.7496 24.0372 37.8708 24.0372C37.992 24.0372 37.992 24.0372 38.1132 24.0372C38.3555 23.9153 38.9614 23.9153 39.4461 23.7934C39.5673 23.7934 39.6884 23.7934 39.8096 23.7934C39.9308 23.7934 40.0519 23.7934 40.1731 23.7934C40.2943 23.7934 40.4155 23.6715 40.4155 23.6715C40.2943 23.1839 39.5673 22.6964 38.8402 22.2088C38.5979 22.0869 38.4767 21.965 38.2343 21.8431C37.992 21.7212 37.8708 21.5993 37.6285 21.4774C37.265 21.2337 36.9014 20.9899 36.5379 20.6242C36.2956 20.3804 36.0532 20.1367 35.932 20.0148C35.6897 19.8929 35.5685 19.771 35.3262 19.6491C35.0838 19.5272 34.8415 19.5272 34.478 19.5272C34.3568 19.5272 34.1144 19.5272 33.8721 19.4053C33.6297 19.4053 33.3874 19.4053 33.1451 19.2834C32.1757 19.1615 31.2063 19.5272 30.4792 19.771C30.3581 19.8929 30.1157 19.8929 29.9945 20.0148C29.8734 20.1367 29.7522 20.1367 29.631 20.2585C29.3887 20.3804 29.2675 20.6242 29.2675 20.7461C29.0251 20.7461 28.904 20.7461 28.6616 20.7461C28.5405 20.7461 28.4193 20.7461 28.2981 20.7461C28.1769 20.7461 27.9346 20.7461 27.8134 20.7461C27.4499 20.7461 27.0864 20.868 26.844 20.9899C27.5711 20.9899 28.4193 20.6242 29.1463 20.1367C29.9945 19.6491 30.8428 19.2834 31.5698 18.7959C31.9333 18.5521 32.2968 18.4302 32.6604 18.1864C32.7815 18.1864 33.7509 17.577 35.0838 16.8456C35.5685 16.8456 36.0532 16.9675 36.6591 17.0894C37.6285 17.577 38.3555 17.4551 38.8402 17.4551C40.2943 17.4551 40.779 17.4551 41.6272 17.0894C42.5966 16.7237 44.0507 15.3829 45.1412 14.4078C46.2318 13.4327 48.1706 13.1889 48.1706 13.1889C48.1706 13.1889 45.3836 10.9949 43.9295 11.2386C42.4754 11.4824 41.8696 11.8481 41.0213 11.8481C40.1731 11.8481 40.2943 12.4575 38.4767 12.7013C37.6285 12.8232 36.1744 13.6765 35.6897 14.8954C35.4473 15.5048 35.0838 15.9924 34.8415 16.358C32.1757 17.577 29.3887 18.9177 28.5405 19.4053C27.6922 19.8929 26.844 20.3804 26.117 20.9899C25.7535 21.2337 25.3899 21.4774 25.1476 21.7212C25.0264 21.8431 24.9052 21.965 24.7841 22.0869C24.6629 22.2088 24.5417 22.3307 24.4205 22.3307C24.4205 22.2088 24.4205 21.965 24.5417 21.7212C24.5417 21.4774 24.6629 21.3556 24.6629 21.2337C24.7841 21.1118 24.7841 20.9899 24.9052 20.868C25.0264 20.7461 25.1476 20.6242 25.2688 20.5023C25.5111 20.2585 25.7535 20.0148 26.117 19.771C26.9652 19.1615 27.4499 18.674 27.8134 18.1864C28.0558 17.9426 28.2981 17.6988 28.5405 17.4551C28.7828 17.2113 28.904 17.0894 29.0251 16.9675C29.1463 16.7237 29.2675 16.6018 29.3887 16.4799C29.5098 16.358 29.631 16.1143 29.7522 15.9924C29.8734 15.7486 29.9945 15.5048 30.1157 15.1391C30.2369 14.7735 30.3581 14.4078 30.4792 14.0421C30.6004 13.6765 30.7216 13.3108 30.8428 12.9451C30.9639 12.5794 31.0851 12.2138 31.2063 11.8481C31.2063 11.7262 31.3274 11.4824 31.4486 11.3605C31.5698 11.2386 31.691 10.9949 31.8121 10.873C31.9333 10.7511 32.0545 10.5073 32.1757 10.3854C32.2968 10.2635 32.418 10.1416 32.6604 10.0197C32.9027 9.77596 33.2662 9.53218 33.5086 9.41028C33.5086 9.28839 33.6297 9.1665 33.6297 9.1665C33.6297 9.1665 33.3874 9.1665 32.9027 9.1665C32.6604 9.1665 32.418 9.1665 32.0545 9.28839C31.9333 9.28839 31.691 9.28839 31.5698 9.28839C31.4486 9.28839 31.2063 9.28839 31.0851 9.41028C30.9639 9.41028 30.7216 9.41029 30.6004 9.53218C30.4792 9.53218 30.2369 9.65407 30.1157 9.65407C29.9945 9.65407 29.7522 9.77596 29.631 9.77596C29.5098 9.77596 29.2675 9.89785 29.1463 9.89785C29.0251 9.89785 28.7828 10.0197 28.6616 10.0197C28.5405 10.1416 28.4193 10.1416 28.2981 10.2635C28.0558 10.3854 27.8134 10.5073 27.6922 10.6292C27.0864 11.2386 26.6017 11.7262 26.2382 12.2138C26.117 12.4575 25.8746 12.5794 25.7535 12.8232C25.6323 13.067 25.3899 13.1889 25.2688 13.4327C25.0264 13.5546 25.0264 13.7983 24.9052 13.9202C24.7841 14.0421 24.7841 14.164 24.7841 14.4078C24.7841 14.5297 24.6629 14.7735 24.5417 15.0173C24.4205 15.261 24.1782 15.6267 23.9359 15.9924C23.33 16.358 23.0876 16.9675 23.0876 17.577C23.0876 18.1864 23.2088 18.7959 23.4512 19.4053C23.9359 20.1367 24.1782 20.7461 24.2994 21.1118C24.2994 21.1118 24.2994 21.1118 24.2994 21.2337C24.2994 21.3556 24.2994 21.4774 24.2994 21.5993C24.2994 21.7212 24.2994 21.965 24.1782 22.0869C24.1782 22.2088 24.057 22.4526 24.057 22.5745C23.8147 22.8182 23.5723 22.9401 23.4512 23.062C23.33 23.1839 23.0876 23.3058 22.9665 23.4277C22.8453 23.5496 22.6029 23.6715 22.4818 23.9153C22.2394 24.0372 22.1182 24.2809 21.8759 24.4028C21.6336 24.6466 21.3912 24.7685 21.27 25.0123C20.3006 25.9874 19.2101 27.2063 17.9983 28.9128C17.8772 28.4252 17.8772 27.9376 17.756 27.572C17.9983 27.3282 18.483 26.9625 18.9677 26.5969C19.4524 26.2312 19.8159 25.8655 19.9371 25.6217C19.9371 25.4998 20.0583 25.2561 19.9371 25.0123C19.9371 24.7685 19.9371 24.4028 19.8159 24.159C19.6948 23.4277 19.6948 22.6964 19.6948 21.965C19.6948 21.2337 19.9371 20.6242 20.1795 20.0148C20.4218 19.4053 20.543 18.7959 20.4218 18.1864C20.4218 17.8207 20.3006 17.4551 20.1795 17.0894C20.0583 16.7237 20.0583 16.2362 19.9371 15.9924C19.8159 15.261 19.6948 14.7735 19.5736 14.7735C19.5736 14.7735 19.4524 14.8954 19.3312 15.1391C19.2101 15.261 18.9677 15.5048 18.7254 15.8705C18.483 16.1143 18.2407 16.4799 17.9983 16.8456C17.756 17.2113 17.5136 17.577 17.2713 17.9426C16.7866 18.674 16.1807 19.2834 15.5749 19.8929C15.0902 20.5023 14.6055 21.1118 14.4843 21.4774C14.3631 21.7212 14.3631 21.8431 14.3631 22.0869C14.3631 22.3307 14.3631 22.4526 14.3631 22.6964C14.3631 22.9401 14.3631 23.1839 14.3631 23.5496C14.3631 23.9153 14.3631 24.2809 14.3631 24.8904C14.3631 25.3779 14.3631 25.7436 14.4843 26.1093C14.6055 26.3531 14.7267 26.5969 14.969 26.7187C15.4537 27.0844 16.1807 27.2063 17.1501 27.6939C17.1501 28.3033 17.2713 29.0347 17.3925 29.6441C17.2713 29.8879 17.0289 30.1317 16.9078 30.3755C16.7866 30.4973 16.7866 30.6192 16.6654 30.7411C16.5443 30.863 16.5443 30.9849 16.4231 31.1068C15.9384 31.96 15.3325 33.0571 14.8478 34.1541C14.3631 35.2511 13.8784 36.3481 13.5149 37.4451C13.3937 37.3232 13.1514 36.8357 13.0302 36.2262C12.909 35.9824 12.909 35.6168 12.909 35.373C12.909 35.1292 12.909 34.8854 13.0302 34.7635C13.6361 33.9103 13.8784 32.8133 13.7573 31.96C13.7573 31.4725 13.6361 31.1068 13.6361 30.7411C13.5149 30.2536 13.5149 29.8879 13.3937 29.766C13.3937 29.6441 13.2726 29.4003 13.1514 29.2784C12.7879 28.7909 12.182 28.4252 11.9397 27.572C11.8185 26.9625 11.455 26.3531 10.9703 25.7436C10.6067 25.1342 10.2432 24.6466 10.0009 24.5247C9.8797 24.4028 9.63736 24.159 9.51618 24.0372C9.39501 23.7934 9.27383 23.6715 9.27383 23.6715C9.27383 23.6715 9.27383 23.7934 9.27383 24.0372C9.27383 24.2809 9.15266 24.5247 9.15266 24.8904C9.03149 25.4998 8.91031 26.3531 8.66797 27.2063C8.54679 27.2063 8.54679 27.3282 8.54679 27.4501C8.42562 27.8158 8.30444 28.3033 8.18327 28.5471C8.0621 28.9128 7.94092 29.1566 7.81975 29.5222C7.69858 29.766 7.69858 30.1317 7.5774 30.3755C7.5774 30.6192 7.5774 30.9849 7.5774 31.3506C7.69858 32.0819 7.81975 32.3257 7.94092 32.6914C8.0621 33.0571 8.30445 33.3008 8.91031 34.0322C9.51618 34.6416 10.3644 35.1292 11.0914 35.4949C11.8185 35.8605 12.4243 36.2262 12.5455 36.7138C12.6667 36.9575 12.6667 37.3232 12.7879 37.567C12.7879 37.6889 12.909 37.9327 12.909 38.0546C12.909 38.1765 13.0302 38.2983 13.0302 38.4202C13.0302 38.5421 12.909 38.7859 12.909 38.9078C12.909 39.0297 12.7879 39.2735 12.7879 39.3954C12.6667 39.761 12.6667 40.0048 12.5455 40.2486C12.3032 41.2237 12.0608 42.1988 11.9397 42.9302C11.8185 43.7834 11.6973 44.3929 11.6973 45.1242C11.6973 45.2461 11.6973 45.4899 11.6973 45.6118C11.6973 45.7337 11.6973 45.8556 11.6973 46.0993C11.6973 46.3431 11.6973 46.5869 11.6973 46.8307C11.6973 47.0745 11.6973 47.3182 11.6973 47.562C11.6973 47.8058 11.6973 47.9277 11.6973 48.1715C11.6973 48.2934 11.6973 48.4153 11.6973 48.659C11.5761 48.5372 11.3338 48.2934 11.0914 48.0496C10.8491 47.8058 10.4856 47.4401 10.3644 47.1964C11.455 45.7337 12.0608 44.5148 11.3338 43.4177C10.6067 42.3207 10.2432 41.2237 9.63736 40.0048C9.39501 39.3954 8.91031 38.9078 8.42562 38.4202C7.94092 37.9327 7.45623 37.567 7.21388 36.8357C7.09271 36.7138 7.09271 36.5919 6.97153 36.3481C6.85036 36.2262 6.85036 36.1043 6.72919 35.9824C6.60801 35.7386 6.36567 35.4949 6.24449 35.373C6.12332 35.2511 6.00215 35.0073 5.88097 35.0073C5.7598 34.8854 5.7598 34.8854 5.7598 34.8854C5.7598 34.8854 5.63862 35.1292 5.63862 35.373C5.63862 35.4949 5.51745 35.7386 5.51745 35.9824C5.39628 36.2262 5.39628 36.47 5.2751 36.7138C5.03276 37.8108 4.79041 39.1516 4.66923 40.3705C4.54806 41.5894 4.79041 43.0521 5.15393 44.271C5.2751 44.5148 5.39628 44.8804 5.51745 45.1242C5.63862 45.368 5.7598 45.6118 5.88097 45.8556C6.12332 46.3431 6.48684 46.7088 6.72919 46.8307C7.21388 47.1964 7.81975 47.3182 8.42562 47.4401C9.03149 47.562 9.51618 47.562 9.8797 47.4401C10.2432 47.8058 10.6067 48.1715 10.9703 48.5371C11.3338 48.9028 11.5761 49.1466 11.6973 49.3904C11.6973 50.4874 11.6973 52.072 11.9397 53.9003C12.0608 55.8506 12.4243 57.4352 12.6667 58.5322C12.3032 58.2884 11.9397 58.0446 11.6973 57.8008C11.3338 57.3133 11.0914 56.7038 10.9703 55.9725C10.8491 54.9973 10.4856 54.3879 10.2432 53.9003C10.1221 53.5347 10.0009 53.2909 9.8797 53.0471C9.75853 52.8033 9.63736 52.5595 9.63736 52.4376C9.51618 52.3158 9.39501 52.072 9.39501 51.9501C9.27383 51.8282 9.15266 51.5844 9.03149 51.4625C8.66797 51.0969 8.0621 50.6093 7.33506 50.1217C6.97153 49.8779 6.60801 49.6342 6.24449 49.3904C5.88097 49.1466 5.51745 48.9028 5.2751 48.7809C5.03276 48.5372 4.66923 48.2934 4.42689 48.0496C4.18454 47.8058 3.94219 47.4401 3.82102 47.0745C3.69985 46.7088 3.57867 46.465 3.4575 46.2212C3.33632 45.9774 3.33632 45.8556 3.33632 45.8556C3.33632 45.8556 3.21515 46.0993 3.09398 46.465C2.9728 46.5869 2.9728 46.8307 2.85163 47.0745C2.73046 47.3182 2.73046 47.562 2.60928 47.8058C2.36693 48.9028 2.12459 50.2436 2.48811 50.8531C2.60928 51.2187 2.85163 51.4625 2.9728 51.8282C3.09398 52.072 3.33632 52.3158 3.4575 52.5595C3.69985 52.9252 3.94219 53.2909 4.18454 53.7784C4.30571 54.266 4.54806 54.266 4.91158 54.5098C5.15393 54.7536 5.51745 55.1192 6.00215 55.8506C6.24449 56.2163 6.72919 56.7038 7.33506 57.0695C7.94092 57.4352 8.54679 57.5571 9.27383 57.5571C10.2432 57.5571 10.8491 57.6789 11.3338 57.6789C11.3338 57.6789 11.3338 57.6789 11.455 57.6789C11.5761 57.6789 11.6973 57.8008 11.8185 57.9227C12.0608 58.0446 12.4243 58.2884 12.6667 58.6541C12.7879 58.8978 12.7879 59.1416 12.7879 59.2635C12.909 59.9949 13.1514 60.8481 13.5149 62.067C13.8784 63.2859 14.4843 64.7486 15.3325 66.577C14.8478 66.3332 14.3631 66.2113 13.8784 65.9675C13.8784 65.8456 13.7573 65.6018 13.7573 65.358C13.7573 65.1143 13.6361 64.8705 13.6361 64.5048C13.6361 64.3829 13.6361 64.261 13.5149 64.1391C13.5149 64.0172 13.5149 63.8954 13.3937 63.7735C13.3937 64.0173 13.3937 63.7735 13.2726 63.7735C13.1514 63.6516 13.0302 63.5297 12.7879 63.4078C12.6667 63.2859 12.5455 63.2859 12.4243 63.164C12.3032 63.0421 12.0608 63.0421 11.9397 62.9202C11.2126 62.5546 10.4856 62.1889 9.8797 61.8232C9.51618 61.5794 9.27383 61.4576 9.03149 61.2138C8.78914 60.97 8.54679 60.7262 8.30445 60.4824C7.81975 59.9949 7.33506 59.6292 6.60801 59.3854C6.24449 59.2635 5.88097 59.1416 5.39628 59.0197C5.03276 58.8978 4.54806 58.776 4.18454 58.6541C3.4575 58.4103 2.85163 58.2884 2.85163 58.2884C2.85163 58.4103 3.09398 58.776 3.4575 59.3854C3.57867 59.6292 3.82102 59.9949 3.94219 60.3605C4.18454 60.7262 4.30571 61.0919 4.54806 61.4576C4.79041 61.8232 4.91158 62.1889 5.15393 62.5546C5.2751 62.7983 5.2751 62.9202 5.39628 63.164C5.51745 63.4078 5.51745 63.5297 5.63862 63.6516C5.7598 64.0173 5.88097 64.3829 6.12332 64.6267C6.12332 64.9924 6.36567 65.2362 6.48684 65.358C6.60801 65.4799 6.85036 65.6018 6.97153 65.7237C7.09271 65.8456 7.33506 65.9675 7.5774 66.0894C7.81975 66.2113 8.0621 66.3332 8.42562 66.577C8.78914 66.8207 9.15266 67.0645 9.63736 67.3083C9.75853 67.4302 10.0009 67.5521 10.2432 67.674C10.4856 67.7959 10.6067 67.7959 10.7279 67.7959C11.0914 67.9177 11.3338 67.7959 11.5761 67.7959C12.182 67.674 12.7879 67.1864 13.6361 66.6988C13.8784 66.8207 14.242 66.9426 14.6055 67.1864C14.969 67.3083 15.3325 67.5521 15.5749 67.674C15.696 67.9177 15.8172 68.1615 15.9384 68.4053C16.0596 68.5272 16.0596 68.6491 16.1807 68.771C16.3019 68.8929 16.3019 69.0148 16.4231 69.1367C16.9078 69.9899 17.6348 71.0869 18.3619 72.062C19.0889 73.0371 19.9371 74.0123 20.6642 74.8655C20.4218 74.8655 19.8159 74.7436 19.2101 74.6217C18.8466 74.4998 18.6042 74.3779 18.3619 74.2561C18.1195 74.1342 17.8772 74.0123 17.8772 73.7685C17.3925 72.7934 16.5443 72.062 15.696 71.6964C15.3325 71.4526 14.8478 71.3307 14.4843 71.0869C14.1208 70.965 13.7573 70.8431 13.6361 70.8431C13.3937 70.8431 13.2726 70.8431 13.0302 70.8431C12.4243 70.8431 11.6973 71.0869 10.8491 70.8431C10.2432 70.5993 9.39501 70.5993 8.66797 70.4774C7.94092 70.4774 7.21388 70.4774 6.97153 70.4774C6.72919 70.4774 6.48684 70.5993 6.24449 70.5993C6.00215 70.5993 5.7598 70.5993 5.7598 70.5993C5.7598 70.5993 5.88097 70.7212 6.00215 70.8431C6.12332 70.965 6.36567 71.2088 6.60801 71.4526C7.09271 71.9401 7.81975 72.5496 8.54679 73.0372C8.66797 73.159 8.66797 73.159 8.78914 73.2809C9.15266 73.6466 9.39501 73.8904 9.63736 74.1342C9.8797 74.3779 10.1221 74.6217 10.3644 74.8655C10.6067 75.1093 10.8491 75.3531 11.0914 75.475C11.3338 75.7187 11.6973 75.8406 12.0608 75.9625C12.7879 76.2063 13.1514 76.3282 13.5149 76.4501C13.8784 76.572 14.3631 76.572 15.2113 76.4501C16.1807 76.3282 17.0289 75.9625 17.8772 75.5968C18.7254 75.2312 19.3312 74.9874 19.8159 75.1093C20.0583 75.2312 20.4218 75.3531 20.7853 75.3531C21.1489 75.475 21.5124 75.5968 21.7547 75.5968C22.2394 76.0844 22.8453 76.572 23.2088 76.9376C24.057 77.669 24.7841 78.2784 25.5111 78.766C26.2381 79.2536 26.844 79.7411 27.4499 79.9849C28.6616 80.7163 29.5098 81.0819 30.3581 81.4476C30.4792 81.4476 30.6004 81.5695 30.8428 81.6914C30.7216 81.6914 30.3581 81.8133 29.9945 81.9352C29.631 82.0571 29.1463 82.0571 28.7828 82.1789C27.8134 80.8381 26.844 79.863 25.5111 79.863C25.1476 79.863 24.7841 79.863 24.4205 79.863C24.057 79.863 23.6935 79.7411 23.33 79.7411C22.9665 79.7411 22.6029 79.6192 22.2394 79.6192C21.8759 79.4973 21.5124 79.4973 21.1489 79.3755C20.7853 79.2536 20.4218 79.2536 20.0583 79.3755C19.6948 79.3755 19.3312 79.4974 18.9677 79.4974C18.2407 79.6192 17.6348 79.7411 16.7866 79.6192C16.0596 79.4973 15.3325 79.4974 14.8478 79.4974C14.3631 79.4974 14.1208 79.6192 14.1208 79.6192C14.1208 79.6192 14.242 79.7411 14.4843 79.9849C14.6055 80.1068 14.7267 80.2287 14.969 80.4725C15.2113 80.5944 15.3325 80.8381 15.5749 81.0819C16.4231 81.8133 17.6348 82.7884 18.8466 83.5197C20.0583 84.2511 21.6336 84.8605 23.0876 85.1043C24.5417 85.47 25.8746 85.47 26.6017 85.1043C27.2075 84.8605 27.6922 84.373 28.0558 84.0073C28.4193 83.5197 28.6616 83.1541 28.7828 82.9103C29.2675 82.7884 29.8734 82.6665 30.3581 82.5446C30.8428 82.4227 31.3274 82.3008 31.5698 82.4227C32.1757 82.6665 32.7815 82.9103 33.6297 83.1541C34.478 83.3979 35.3262 83.6416 36.2956 83.8854C37.265 84.1292 38.3555 84.373 39.2037 84.4949C40.0519 84.6168 40.9002 84.7386 41.506 84.7386C41.1425 84.9824 40.6578 85.2262 40.4155 85.3481C39.9308 85.47 39.2037 85.47 38.3555 85.3481C38.1132 85.3481 37.8708 85.2262 37.6285 85.2262C37.5073 85.2262 37.3861 85.2262 37.265 85.2262C37.1438 85.2262 37.0226 85.2262 36.9014 85.2262C36.6591 85.2262 36.5379 85.2262 36.2956 85.2262C36.1744 85.2262 35.932 85.2262 35.8109 85.2262C35.4473 85.2262 35.0838 85.2262 34.7203 85.2262C34.478 85.2262 34.2356 85.2262 33.9933 85.2262C33.5086 85.2262 33.1451 85.3481 32.6604 85.3481C32.418 85.3481 32.0545 85.47 31.691 85.5919C31.3274 85.7138 30.9639 85.8357 30.6004 86.0794C30.2369 86.2013 29.8734 86.4451 29.3887 86.567C29.1463 86.6889 29.0251 86.6889 28.7828 86.8108C28.5405 86.9327 28.4193 86.9327 28.2981 87.0546C27.5711 87.2983 26.6017 87.4202 25.8746 87.4202C25.5111 87.4202 25.1476 87.2983 24.9052 87.2983C24.6629 87.2983 24.5417 87.1765 24.5417 87.1765C24.5417 87.1765 24.7841 87.4202 25.0264 87.664C25.3899 87.9078 25.8746 88.3954 26.3593 88.761C26.9652 89.1267 27.5711 89.4924 28.1769 89.858C28.5405 89.9799 28.7828 90.1018 29.0251 90.2237C29.2675 90.3456 29.631 90.3456 29.8734 90.3456C30.1157 90.3456 30.3581 90.3456 30.4792 90.3456C30.7216 90.3456 30.8428 90.3456 31.0851 90.3456C31.3274 90.3456 31.4486 90.3456 31.5698 90.3456C31.691 90.3456 31.9333 90.3456 32.0545 90.3456C32.2968 90.3456 32.6604 90.3456 32.9027 90.2237C33.1451 90.2237 33.3874 90.2237 33.7509 90.2237C34.3568 90.2237 34.478 90.1018 34.8415 89.9799C34.9627 89.858 35.205 89.858 35.5685 89.7362C35.6897 89.7362 35.932 89.6143 36.1744 89.6143C36.4167 89.6143 36.6591 89.4924 36.9014 89.4924C37.1438 89.4924 37.5073 89.3705 37.7496 89.2486C37.8708 89.1267 37.992 89.1267 38.2343 89.0048C38.3555 88.8829 38.4767 88.8829 38.719 88.761C38.9614 88.5173 39.2037 88.3954 39.4461 88.0297C39.6884 87.7859 39.8096 87.5421 39.9308 87.1765C40.1731 86.3232 40.4155 85.8357 40.6578 85.47C40.6578 85.47 40.6578 85.47 40.779 85.3481C40.9002 85.3481 40.9002 85.2262 41.0213 85.1043C41.1425 84.9824 41.2637 84.8605 41.506 84.8605C41.6272 84.7386 41.8696 84.6168 41.9907 84.6168C42.1119 84.6168 42.1119 84.6168 42.2331 84.6168C42.3542 84.6168 42.3542 84.6168 42.4754 84.6168C42.5966 84.6168 42.7178 84.6168 42.7178 84.6168C42.9601 84.6168 43.2025 84.6168 43.4448 84.6168H43.566C44.293 84.6168 47.2012 84.8605 50.2305 85.9576C47.5647 87.7859 46.1106 90.7113 46.1106 90.7113H48.1706C49.14 89.0048 50.5941 87.7859 52.1693 86.8108C53.7446 87.664 55.1987 89.0048 56.168 90.7113H58.228C58.228 90.7113 56.7739 87.7859 54.1081 85.9576C57.1374 84.7386 60.0456 84.6168 60.7726 84.6168H60.8938C61.1362 84.6168 61.3785 84.6168 61.6209 84.6168C61.742 84.6168 61.742 84.6168 61.8632 84.6168C61.9844 84.6168 61.9844 84.6168 62.1056 84.6168C62.2267 84.6168 62.2267 84.6168 62.3479 84.6168C62.5903 84.7386 62.7114 84.7386 62.8326 84.8605C62.9538 84.9824 63.1961 85.1043 63.3173 85.1043C63.4385 85.2262 63.5596 85.2262 63.5596 85.3481C63.5596 85.3481 63.6808 85.3481 63.6808 85.47C63.9232 85.8357 64.1655 86.3232 64.4079 87.1765C64.529 87.4202 64.6502 87.7859 64.8926 88.0297C65.1349 88.2735 65.3772 88.5173 65.6196 88.761C65.7408 88.8829 65.8619 89.0048 66.1043 89.0048C66.2255 89.1267 66.3466 89.1267 66.589 89.2486C66.8313 89.3705 67.1948 89.4924 67.4372 89.4924C67.6795 89.4924 67.9219 89.6143 68.1642 89.6143C68.4066 89.6143 68.5278 89.7362 68.7701 89.7362C69.1336 89.858 69.2548 89.858 69.4972 89.9799C69.8607 90.1018 70.103 90.2237 70.5877 90.2237C70.8301 90.2237 71.1936 90.2237 71.4359 90.2237C71.6783 90.2237 71.9206 90.2237 72.2841 90.3456C72.4053 90.3456 72.6477 90.3456 72.7688 90.3456C72.89 90.3456 73.1324 90.3456 73.2535 90.3456C73.4959 90.3456 73.6171 90.3456 73.8594 90.3456C74.1018 90.3456 74.3441 90.3456 74.4653 90.3456C74.7076 90.3456 74.95 90.3456 75.1923 90.2237C75.4347 90.1018 75.7982 89.9799 76.0405 89.858C76.6464 89.6143 77.2523 89.2486 77.8581 88.761C78.464 88.3954 78.8275 88.0297 79.191 87.664C79.5546 87.4202 79.6757 87.1765 79.6757 87.1765C79.6757 87.1765 79.5546 87.1765 79.3122 87.2983C79.0699 87.2983 78.7064 87.4202 78.3428 87.4202C77.4946 87.4202 76.5252 87.4202 75.9194 87.0546C75.7982 86.9327 75.5558 86.9327 75.4347 86.8108C75.1923 86.6889 75.0711 86.6889 74.8288 86.567C74.4653 86.4451 74.1018 86.2013 73.6171 86.0794C73.2535 85.9575 72.89 85.7138 72.5265 85.5919C72.163 85.47 71.9206 85.3481 71.5571 85.3481C71.0724 85.2262 70.7089 85.2262 70.2242 85.2262C69.9818 85.2262 69.7395 85.2262 69.4972 85.2262C69.2548 85.2262 68.8913 85.2262 68.4066 85.2262C68.2854 85.2262 68.1642 85.2262 67.9219 85.2262C67.8007 85.2262 67.5584 85.2262 67.316 85.2262C67.1949 85.2262 67.0737 85.2262 66.9525 85.2262C66.8313 85.2262 66.7102 85.2262 66.589 85.2262C66.3466 85.2262 66.1043 85.2262 65.8619 85.3481C65.0137 85.47 64.2867 85.47 63.802 85.3481C63.5596 85.2262 63.0749 84.9824 62.7114 84.7386C63.3173 84.7386 64.0443 84.6168 65.0137 84.4949C65.8619 84.373 66.8313 84.2511 67.9219 83.8854C68.8913 83.6416 69.8607 83.3979 70.5877 83.1541C71.4359 82.9103 72.0418 82.6665 72.6477 82.4227C72.89 82.4227 73.3747 82.5446 73.8594 82.5446C74.3441 82.6665 74.95 82.7884 75.4347 82.9103C75.5558 83.1541 75.7982 83.5197 76.1617 84.0073C76.5252 84.4949 77.0099 84.8605 77.6158 85.1043C78.3428 85.3481 79.6758 85.3481 81.1298 85.1043C82.5839 84.8605 84.1592 84.2511 85.3709 83.5197C86.5826 82.7884 87.7944 81.8133 88.6426 81.0819C88.8849 80.8381 89.1273 80.7163 89.2485 80.4725C89.3696 80.3506 89.612 80.1068 89.7332 79.9849C89.9755 79.7411 90.0967 79.6192 90.0967 79.6192C90.0967 79.6192 89.8543 79.6192 89.3696 79.4974C88.8849 79.4974 88.1579 79.4973 87.4309 79.6192C86.7038 79.7411 85.9768 79.6192 85.2497 79.4974C84.8862 79.4974 84.5227 79.3755 84.1592 79.3755C83.7957 79.3755 83.4321 79.3755 83.0686 79.3755C82.7051 79.4973 82.3416 79.4973 81.978 79.6192C81.6145 79.6192 81.251 79.7411 80.8875 79.7411C80.524 79.7411 80.1604 79.863 79.7969 79.863C79.4334 79.863 79.0699 79.863 78.7064 79.863C77.3734 79.863 76.4041 80.8381 75.4347 82.4227C75.0711 82.3008 74.5864 82.3008 74.2229 82.1789C73.8594 82.0571 73.4959 82.0571 73.3747 81.9352C73.6171 81.8133 73.7382 81.8133 73.8594 81.6914C74.5864 81.3257 75.5558 80.96 76.6464 80.2287C77.2523 79.863 77.8581 79.4973 78.5852 79.0098C79.3122 78.5222 80.0393 77.9128 80.8875 77.1814C81.3722 76.8158 81.8569 76.3282 82.3416 75.8406C82.5839 75.7187 82.9474 75.7187 83.311 75.5968C83.6745 75.475 84.038 75.3531 84.2803 75.3531C84.765 75.2312 85.3709 75.475 86.2191 75.8406C87.0673 76.2063 87.9156 76.572 88.8849 76.6939C89.8543 76.8158 90.2178 76.8158 90.5814 76.6939C90.9449 76.572 91.3084 76.4501 92.0355 76.2063C92.399 76.0844 92.6413 75.9625 93.0048 75.7187C93.2472 75.475 93.4895 75.3531 93.7319 75.1093C93.9742 74.8655 94.2166 74.6217 94.4589 74.3779C94.7013 74.1342 94.9436 73.7685 95.3072 73.5247C95.4283 73.4028 95.4283 73.4028 95.5495 73.2809C96.1554 72.6715 96.8824 72.062 97.4883 71.6964C97.7306 71.4526 97.973 71.3307 98.0941 71.0869C98.2153 70.965 98.3365 70.8431 98.3365 70.8431C98.3365 70.8431 98.3365 70.5993 98.0941 70.5993Z" fill="#E1712C" fill-opacity="0.3"/>
<path d="M91.5508 59.6292C91.5508 59.5073 91.6719 59.2635 91.6719 59.0197C91.9143 58.776 92.2778 58.5322 92.5202 58.2884C92.6413 58.1665 92.7625 58.1665 92.8837 58.0446H93.0048C93.3684 57.9227 94.0954 57.8008 95.0648 57.9227C95.7918 57.9227 96.3977 57.6789 97.0036 57.4352C97.6095 57.0695 98.0941 56.7038 98.3365 56.2163C98.8212 55.363 99.1847 54.9974 99.4271 54.8755C99.6694 54.6317 99.9117 54.5098 100.154 54.1441C100.275 53.6566 100.518 53.4128 100.881 52.9252C101.002 52.6814 101.123 52.4376 101.366 52.1939C101.487 51.9501 101.729 51.5844 101.851 51.2187C102.214 50.4874 101.972 49.2685 101.729 48.1715C101.608 47.9277 101.608 47.6839 101.487 47.4401C101.366 47.1964 101.366 46.9526 101.245 46.8307C101.123 46.465 101.002 46.2212 101.002 46.2212C101.002 46.2212 101.002 46.3431 100.881 46.5869C100.76 46.8307 100.639 47.0745 100.518 47.4401C100.396 47.8058 100.154 48.0496 99.9118 48.4153C99.6694 48.659 99.4271 49.0247 99.0635 49.1466C98.8212 49.3904 98.4577 49.5123 98.0941 49.7561C97.7306 49.9998 97.3671 50.2436 97.0036 50.4874C96.2765 50.975 95.7918 51.3406 95.4283 51.8282C95.3071 52.072 95.186 52.1939 95.0648 52.3158C94.9436 52.4377 94.8225 52.6814 94.8225 52.8033C94.7013 52.9252 94.7013 53.169 94.5801 53.4128C94.4589 53.6566 94.3378 53.9003 94.2166 54.266C93.9742 54.7536 93.6107 55.363 93.4895 56.3382C93.3684 57.0695 93.126 57.6789 92.8837 58.0446C92.6413 58.2884 92.2778 58.5322 91.9143 58.776C92.1566 57.6789 92.399 56.0944 92.6413 54.1441C92.8837 52.3158 92.8837 50.7312 92.8837 49.6342C93.0048 49.3904 93.2472 49.0247 93.6107 48.7809C93.9742 48.4153 94.3378 48.0496 94.7013 47.6839C94.9436 47.6839 95.5495 47.6839 96.1554 47.6839C96.7612 47.562 97.3671 47.4401 97.8518 47.0745C98.0941 46.8307 98.4577 46.465 98.7 46.0993C98.8212 45.8556 98.9424 45.6118 99.0635 45.368C99.1847 45.1242 99.3059 44.7585 99.4271 44.5148C99.7906 43.2959 100.033 41.8332 99.9118 40.6143C99.7906 39.3954 99.5482 38.0546 99.3059 36.9576C99.1847 36.7138 99.1847 36.47 99.0635 36.2262C98.9424 35.9824 98.9424 35.8605 98.9424 35.6168C98.8212 35.2511 98.8212 35.1292 98.8212 35.1292C98.8212 35.1292 98.8212 35.1292 98.7 35.2511C98.5788 35.373 98.4577 35.4949 98.3365 35.6168C98.2153 35.7386 98.0941 35.9824 97.8518 36.2262C97.7306 36.3481 97.7306 36.47 97.6095 36.5919C97.4883 36.7138 97.4883 36.8357 97.3671 37.0794C97.1248 37.6889 96.6401 38.1765 96.1554 38.664C95.6707 39.1516 95.186 39.6391 94.9436 40.2486C94.3378 41.4675 93.9742 42.5645 93.2472 43.6615C92.5202 44.7585 93.126 45.9775 94.2166 47.4401C93.9742 47.6839 93.7319 48.0496 93.4895 48.2934C93.2472 48.5372 93.0048 48.7809 92.8837 48.9028C92.8837 48.659 92.8837 48.5372 92.8837 48.4153C92.8837 48.1715 92.8837 48.0496 92.8837 47.8058C92.8837 47.562 92.8837 47.3182 92.8837 47.0745C92.8837 46.8307 92.8837 46.5869 92.8837 46.3431C92.8837 46.2212 92.8837 46.0993 92.8837 45.8556C92.8837 45.7337 92.8837 45.6118 92.8837 45.368C92.8837 44.7585 92.7625 44.0272 92.6413 43.174C92.5202 42.3207 92.2778 41.4675 92.0355 40.4924C91.9143 40.2486 91.9143 39.8829 91.7931 39.6391C91.7931 39.5173 91.6719 39.2735 91.6719 39.1516C91.6719 39.0297 91.5508 38.7859 91.5508 38.664C91.5508 38.5421 91.6719 38.4202 91.6719 38.2983C91.6719 38.1765 91.7931 38.0546 91.7931 37.8108C91.9143 37.4451 91.9143 37.2013 92.0355 36.9576C92.1566 36.5919 92.7625 36.2262 93.4895 35.7386C94.2166 35.373 95.0648 34.8854 95.6707 34.276C96.2765 33.6665 96.5189 33.3008 96.6401 32.9352C96.7612 32.5695 96.7612 32.3257 97.0036 31.5944C97.1248 31.2287 97.1248 30.9849 97.0036 30.6192C97.0036 30.3755 96.8824 30.0098 96.7612 29.766C96.6401 29.5222 96.5189 29.1566 96.3977 28.7909C96.2765 28.4252 96.1554 28.0595 96.0342 27.6939C96.0342 27.572 96.0342 27.4501 95.913 27.4501C95.6707 26.5969 95.5495 25.7436 95.4283 25.1342C95.3071 24.7685 95.3071 24.5247 95.3071 24.2809C95.3071 24.0372 95.3071 23.9153 95.3071 23.9153C95.3071 23.9153 95.186 24.0372 95.0648 24.2809C94.9436 24.5247 94.7013 24.6466 94.5801 24.7685C94.4589 24.8904 93.9742 25.3779 93.6107 25.9874C93.2472 26.5969 92.8837 27.3282 92.6413 27.8158C92.399 28.669 91.7931 29.0347 91.4296 29.5222C91.3084 29.6441 91.1872 29.766 91.1872 30.0098C91.1872 30.1317 91.0661 30.4974 90.9449 30.863C90.8237 31.2287 90.8237 31.5944 90.8237 32.0819C90.8237 32.9352 90.9449 34.0322 91.5508 34.8854C91.6719 35.0073 91.6719 35.2511 91.6719 35.4949C91.6719 35.7386 91.5508 35.9824 91.5508 36.3481C91.3084 36.8357 91.0661 37.4451 91.0661 37.567C90.7025 36.47 90.2179 35.373 89.7332 34.276C89.2485 33.1789 88.6426 32.2038 88.1579 31.2287C88.0367 31.1068 88.0367 30.9849 87.9156 30.863C87.7944 30.7411 87.7944 30.6192 87.6732 30.4974C87.552 30.2536 87.3097 30.0098 87.1885 29.766C87.3097 29.1566 87.4309 28.3033 87.4309 27.8158C88.4002 27.3282 89.1273 27.2063 89.612 26.8406C89.8543 26.7187 89.9755 26.475 90.0967 26.2312C90.2179 25.9874 90.2179 25.6217 90.2179 25.0123C90.2179 24.5247 90.2179 24.0372 90.2179 23.6715C90.2179 23.3058 90.2179 23.062 90.2179 22.8182C90.2179 22.5745 90.2179 22.3307 90.2179 22.2088C90.2179 21.965 90.2179 21.8431 90.0967 21.5993C89.9755 21.1118 89.4908 20.6242 89.0061 20.0148C88.5214 19.4053 87.7944 18.674 87.3097 18.0645C87.0673 17.6988 86.825 17.3332 86.5826 16.9675C86.3403 16.6018 86.098 16.358 85.8556 15.9924C85.6133 15.7486 85.3709 15.5048 85.2497 15.261C85.1286 15.1391 85.0074 15.0173 85.0074 14.8954C85.0074 14.7735 84.8862 15.3829 84.6439 16.1143C84.5227 16.4799 84.5227 16.8456 84.4015 17.2113C84.2803 17.577 84.2803 17.9426 84.1592 18.3083C84.038 18.9177 84.1592 19.5272 84.4015 20.1367C84.6439 20.7461 84.765 21.3556 84.8862 22.0869C84.8862 22.8182 84.8862 23.5496 84.765 24.2809C84.765 24.6466 84.6439 24.8904 84.6439 25.1342C84.6439 25.3779 84.6439 25.6217 84.6439 25.7436C84.765 25.9874 85.1286 26.3531 85.6133 26.7187C86.0979 27.0844 86.5826 27.4501 86.825 27.6939C86.7038 28.0595 86.7038 28.669 86.5826 29.0347C85.3709 27.3282 84.2803 26.1093 83.311 25.1342C83.0686 24.8904 82.8263 24.6466 82.7051 24.5247C82.4627 24.2809 82.3416 24.159 82.0992 24.0372C81.8569 23.9153 81.7357 23.6715 81.6145 23.5496C81.4934 23.4277 81.251 23.3058 81.1298 23.1839C81.0087 23.062 80.8875 22.9401 80.524 22.6964C80.4028 22.5745 80.4028 22.3307 80.4028 22.2088C80.4028 22.0869 80.4028 21.8431 80.2816 21.7212C80.2816 21.5993 80.2816 21.4775 80.2816 21.3556V21.2337C80.4028 20.868 80.6451 20.2585 81.1298 19.5272C81.251 18.7959 81.3722 18.1864 81.251 17.577C81.251 16.9675 81.0087 16.358 80.6451 15.9924C80.2816 15.6267 80.1604 15.261 80.0393 15.0173C79.9181 14.7735 79.7969 14.5297 79.7969 14.4078C79.7969 14.2859 79.6757 14.0421 79.6757 13.9202C79.5546 13.7983 79.5546 13.6765 79.3122 13.4327C79.0699 13.1889 78.9487 13.067 78.8275 12.8232C78.7064 12.5794 78.464 12.4575 78.3428 12.2138C77.9793 11.7262 77.6158 11.2386 76.8888 10.6292C76.7676 10.5073 76.5252 10.3854 76.2829 10.2635C76.1617 10.1416 76.0405 10.1416 75.9194 10.0197C75.7982 10.0197 75.5558 9.89785 75.4347 9.89785C75.3135 9.89785 75.0711 9.77596 74.95 9.77596C74.8288 9.77596 74.5865 9.65407 74.4653 9.65407C74.3441 9.65407 74.1018 9.53218 73.9806 9.53218C73.8594 9.53218 73.6171 9.41029 73.4959 9.41029C73.3747 9.41029 73.1324 9.41029 73.0112 9.28839C72.89 9.28839 72.6477 9.28839 72.5265 9.28839C72.163 9.28839 71.9206 9.28839 71.6783 9.1665C71.1936 9.1665 70.9512 9.1665 70.9512 9.1665C70.9512 9.1665 71.0724 9.28839 71.3148 9.41029C71.5571 9.53218 71.7995 9.77596 72.163 10.0197C72.2841 10.1416 72.4053 10.2635 72.6477 10.3854C72.7688 10.5073 72.89 10.6292 73.0112 10.873C73.1324 10.9949 73.2535 11.2386 73.3747 11.3605C73.4959 11.4824 73.4959 11.7262 73.6171 11.8481C73.7382 12.2138 73.8594 12.5794 73.9806 12.9451C74.1018 13.3108 74.2229 13.6765 74.3441 14.0421C74.4653 14.4078 74.5864 14.7735 74.7076 15.1391C74.8288 15.5048 74.95 15.7486 75.0711 15.9924C75.1923 16.2362 75.3135 16.358 75.4347 16.4799C75.5558 16.6018 75.677 16.7237 75.7982 16.9675C75.9194 17.0894 76.0405 17.3332 76.2829 17.4551C76.5252 17.6988 76.6464 17.8207 77.0099 18.1864C77.3734 18.5521 77.8581 19.1615 78.7064 19.771C79.0699 20.0148 79.3122 20.2585 79.5546 20.5023C79.6757 20.6242 79.7969 20.7461 79.9181 20.868C80.0393 20.9899 80.0393 21.1118 80.1604 21.2337C80.1604 21.3556 80.2816 21.5993 80.2816 21.7212C80.2816 21.965 80.4028 22.0869 80.4028 22.3307C80.2816 22.2088 80.1604 22.0869 80.0393 22.0869C79.9181 21.965 79.7969 21.8431 79.6757 21.7212C78.8275 21.3556 78.464 21.1118 78.1005 20.868C77.3734 20.3804 76.5252 19.8929 75.677 19.2834C74.8288 18.7959 72.0418 17.4551 69.376 16.2362C69.1336 15.8705 68.8913 15.3829 68.5278 14.7735C67.9219 13.5546 66.589 12.7013 65.7408 12.5794C63.9232 12.3357 64.0443 11.7262 63.1961 11.7262C62.3479 11.7262 61.6209 11.3605 60.288 11.1168C58.8339 10.873 56.0469 13.067 56.0469 13.067C56.0469 13.067 57.9857 13.3108 59.0762 14.2859C60.1668 15.261 61.6209 16.7237 62.5903 16.9675C63.5596 17.3332 63.9232 17.3332 65.3772 17.3332C65.8619 17.3332 66.589 17.4551 67.5584 17.0894C68.1642 16.8456 68.6489 16.8456 69.1336 16.8456C70.4665 17.577 71.4359 18.0645 71.5571 18.1864C71.9206 18.3083 72.2842 18.5521 72.6477 18.7959C73.3747 19.1615 74.2229 19.6491 75.0711 20.1367C75.7982 20.6242 76.6464 20.9899 77.3734 21.4775C77.1311 21.3556 76.7676 21.2337 76.4041 21.2337C76.2829 21.2337 76.0405 21.2337 75.9194 21.2337C75.7982 21.2337 75.677 21.2337 75.5558 21.2337C75.4347 21.2337 75.1923 21.2337 74.95 21.2337C74.95 21.1118 74.7076 20.9899 74.5864 20.7461C74.4653 20.6242 74.3441 20.6242 74.2229 20.5023C74.1018 20.3804 73.9806 20.2585 73.7382 20.2585C73.0112 19.8929 72.0418 19.6491 71.0724 19.771C70.8301 19.771 70.5877 19.771 70.3454 19.8929C70.103 19.8929 69.9818 19.8929 69.7395 20.0148C69.376 20.0148 69.1336 20.1367 68.8913 20.1367C68.6489 20.2585 68.5278 20.2585 68.2854 20.5023C68.0431 20.6242 67.9219 20.868 67.6795 21.1118C67.4372 21.3556 67.0737 21.7212 66.589 21.965C66.3466 22.0869 66.2255 22.2088 65.9831 22.3307C65.7408 22.4526 65.6196 22.5745 65.3772 22.6964C64.529 23.1839 63.9232 23.7934 63.802 24.159C63.802 24.2809 63.9232 24.2809 64.0443 24.2809C64.1655 24.2809 64.2867 24.2809 64.4079 24.2809C64.529 24.2809 64.6502 24.2809 64.7714 24.2809C65.2561 24.2809 65.8619 24.4028 66.1043 24.5247C66.1043 24.5247 66.2255 24.5247 66.3466 24.5247C66.4678 24.5247 66.4678 24.5247 66.589 24.5247C66.7102 24.5247 66.9525 24.5247 67.1949 24.5247C67.316 24.5247 67.4372 24.5247 67.5584 24.5247C67.6795 24.5247 67.8007 24.5247 67.9219 24.5247C68.1642 24.5247 68.4066 24.5247 68.6489 24.4028C69.1336 24.4028 69.7395 24.2809 70.2242 24.2809C70.4665 24.2809 70.7089 24.2809 70.9512 24.159C71.1936 24.159 71.3148 24.159 71.4359 24.0372C72.0418 23.9153 72.7688 23.6715 73.4959 23.1839C74.2229 22.6964 74.95 22.0869 75.3135 21.3556C76.0405 21.3556 76.8887 21.8431 77.1311 21.8431C77.3734 21.965 78.2217 21.8431 78.464 21.8431C78.7064 21.965 78.9487 22.0869 79.0699 22.2088C79.3122 22.3307 79.4334 22.4526 79.5546 22.5745C80.2816 23.1839 81.1298 23.9153 81.8569 24.7685C82.5839 25.4998 83.0686 26.2312 83.4321 26.5969C83.5533 26.7187 83.7956 26.9625 83.9168 27.2063C84.038 27.3282 84.1592 27.4501 84.2803 27.572C84.4015 27.6939 84.5227 27.8158 84.6439 28.0595C84.4015 27.9376 84.2803 27.9377 84.038 27.8158C83.7957 27.8158 83.5533 27.6939 83.311 27.6939C83.0686 27.572 82.8263 27.572 82.5839 27.572C82.5839 27.3282 82.3416 27.0844 82.0992 26.8406C81.8569 26.5969 81.4934 26.2312 81.1298 25.9874C80.4028 25.3779 79.6757 24.8904 79.0699 24.8904C78.8275 24.8904 78.464 24.8904 78.2217 24.8904C77.9793 24.8904 77.737 24.8904 77.4946 25.0123C77.0099 25.1342 76.5252 25.3779 75.7982 25.6217C75.1923 25.7436 74.5864 25.9874 73.9806 26.2312C73.7382 26.3531 73.3747 26.475 73.1324 26.5969C72.89 26.7187 72.6477 26.8406 72.4053 26.9625C72.163 27.0844 72.0418 27.2063 71.7995 27.3282C71.6783 27.4501 71.4359 27.4501 71.3148 27.4501C71.1936 27.4501 71.0724 27.572 70.9512 27.572C70.8301 27.572 70.8301 27.572 70.8301 27.572C70.8301 27.572 70.8301 27.572 70.8301 27.6939C70.8301 27.6939 70.9512 27.8158 70.9512 27.9376C71.0724 28.0595 71.1936 28.0595 71.3148 28.1814C71.4359 28.1814 71.4359 28.3033 71.5571 28.3033C71.6783 28.4252 71.7995 28.4252 71.9206 28.5471C72.4053 28.7909 73.0112 28.9128 73.7382 29.0347C74.4653 29.1566 75.3135 29.1566 76.0405 29.1566C76.4041 29.1566 76.7676 29.1566 77.1311 29.2784C77.4946 29.2784 77.737 29.4003 77.9793 29.4003C78.2217 29.4003 78.464 29.5222 78.7064 29.5222C78.9487 29.5222 79.191 29.5222 79.5546 29.4003C80.6451 29.0347 81.978 28.4252 82.3416 27.9376C82.8263 28.0595 83.1898 28.1814 83.5533 28.1814C83.6745 28.1814 83.9168 28.3033 84.1592 28.4252C84.2803 28.4252 84.4015 28.5471 84.5227 28.669C84.6439 28.7909 84.765 28.7909 84.8862 28.9128C85.4921 29.766 86.2191 30.863 86.5826 31.5944C87.4309 32.9352 88.2791 34.5197 88.7638 35.8605C88.4002 35.7386 87.9156 35.4949 87.6732 35.373C87.552 35.2511 87.552 35.2511 87.4309 35.1292C87.3097 35.0073 87.3097 34.8854 87.1885 34.7635C87.0673 34.6416 87.0673 34.5197 86.9462 34.3979C86.825 34.276 86.825 34.1541 86.7038 33.9103C86.5826 33.6665 86.4615 33.5446 86.3403 33.4227C86.2191 33.3008 86.098 33.1789 85.9768 33.0571C85.7344 32.8133 85.4921 32.6914 85.3709 32.4476C85.2497 32.3257 85.2497 32.3257 85.1286 32.2038C84.765 31.8381 84.4015 31.7163 84.1592 31.4725C83.9168 31.3506 83.5533 31.2287 83.1898 31.1068C82.7051 30.9849 82.0992 30.9849 81.251 30.9849C80.524 30.9849 79.6757 31.1068 79.0699 31.2287C78.7064 31.2287 78.3428 31.3506 77.9793 31.3506C77.737 31.3506 77.6158 31.4725 77.3734 31.4725C77.1311 31.4725 77.0099 31.5944 76.8888 31.5944C76.5252 31.7163 76.2829 31.7163 76.0405 31.7163C75.7982 31.7163 75.677 31.8381 75.677 31.8381C75.677 31.8381 75.677 31.8381 75.7982 31.96C75.9194 31.96 75.9194 32.0819 76.1617 32.2038C76.2829 32.3257 76.5252 32.4476 76.6464 32.4476C76.8888 32.5695 77.1311 32.6914 77.3734 32.8133C78.464 33.1789 79.3122 33.7884 79.7969 34.1541C79.9181 34.276 80.0393 34.276 80.1604 34.276C80.2816 34.276 80.4028 34.3979 80.524 34.3979C80.7663 34.5197 81.0087 34.6416 81.251 34.7635C81.3722 34.8854 81.4934 34.8854 81.7357 35.0073C81.8569 35.1292 82.0992 35.2511 82.3416 35.373C82.4627 35.4949 82.7051 35.6168 82.9474 35.6168C83.1898 35.7386 83.4321 35.7386 83.7956 35.8605C84.4015 35.9824 85.1286 35.9824 85.7344 35.8605C86.7038 35.6168 87.3097 35.6168 87.6732 35.6168C87.6732 35.6168 87.6732 35.6168 87.7944 35.6168C87.9156 35.6168 88.0367 35.7386 88.1579 35.7386C88.4002 35.8605 88.7638 35.9824 89.1273 36.2262C89.2485 36.7138 89.3696 37.0794 89.4908 37.3232C89.612 37.567 90.0967 38.9078 90.4602 40.3705C90.7025 41.1018 90.8237 41.8332 90.9449 42.4426C91.0661 42.8083 91.0661 43.0521 91.0661 43.2959C91.0661 43.5396 91.0661 43.7834 91.1872 43.9053C91.1872 44.271 91.3084 45.0023 91.5508 45.8556C91.3084 45.6118 90.8237 45.368 90.5814 45.1242C90.7025 45.0023 90.7026 44.7585 90.7026 44.5148C90.7026 44.271 90.7026 44.1491 90.7026 43.9053C90.7026 43.6615 90.5814 43.5396 90.5814 43.2959C90.5814 43.174 90.4602 42.9302 90.4602 42.9302C90.4602 42.8083 90.339 42.6864 90.2179 42.4426C90.0967 42.1988 89.9755 41.9551 89.7332 41.8332C89.3696 41.4675 89.0061 40.9799 88.8849 40.9799C88.6426 40.9799 88.0367 40.858 87.3097 40.7362C86.5826 40.6143 85.8556 40.4924 85.4921 40.2486C84.765 39.8829 84.1592 39.6391 83.5533 39.2735C83.1898 39.0297 82.9474 38.9078 82.5839 38.7859C82.3416 38.664 82.0992 38.664 82.0992 38.664C82.0992 38.664 82.2204 38.7859 82.2204 38.9078C82.3416 39.0297 82.4627 39.2735 82.5839 39.6391C82.8263 40.1267 83.0686 40.858 83.1898 41.2237C83.1898 41.3456 83.1898 41.4675 83.1898 41.5894C83.1898 41.7113 83.1898 41.8332 83.1898 41.9551C83.1898 42.077 83.1898 42.1988 83.1898 42.3207C83.1898 42.4426 83.1898 42.5645 83.1898 42.6864C83.1898 42.8083 83.1898 42.9302 83.311 43.0521C83.311 43.174 83.311 43.2959 83.4321 43.2959C83.5533 43.5396 83.6745 43.6615 83.7956 43.7834C84.4015 44.271 85.4921 44.3929 86.0979 45.0023C86.3403 45.2461 87.1885 45.4899 87.9156 45.6118C88.6426 45.7337 89.4908 45.7337 89.9755 45.7337C90.0967 45.7337 90.2179 45.7337 90.2179 45.6118C90.339 45.8556 90.5814 45.9775 90.7026 46.2212C90.8237 46.465 90.9449 46.5869 90.9449 46.5869C90.9449 46.5869 91.4296 46.8307 91.6719 47.0745C91.7931 47.8058 91.7931 48.659 91.7931 49.3904C91.7931 49.6342 91.7931 49.9998 91.7931 50.2436C91.7931 50.3655 91.7931 50.6093 91.7931 50.7312C91.7931 50.975 91.7931 51.0969 91.6719 51.3406C91.5508 52.1939 91.4296 53.0471 91.4296 53.9003C91.3084 54.7536 91.1872 55.6068 91.1872 56.3382C91.1872 56.0944 91.0661 55.7287 90.9449 55.4849C90.8237 55.1192 90.7025 54.8755 90.5814 54.7536C90.4602 54.6317 90.339 54.5098 90.339 54.266C90.4602 54.1441 90.4602 54.0222 90.5814 53.6566C90.7025 53.4128 90.7026 53.0471 90.7026 52.6814C90.7026 51.9501 90.5814 51.0969 90.0967 50.2436C89.9755 49.9998 89.8543 49.7561 89.7332 49.6342C89.612 49.5123 89.4908 49.2685 89.4908 49.1466C89.2485 48.9028 89.1273 48.659 89.0061 48.5372C88.6426 48.1715 88.2791 48.0496 87.552 47.8058C87.1885 47.6839 86.7038 47.4401 86.3403 47.1964C86.0979 47.0745 85.8556 46.9526 85.7344 46.7088C85.4921 46.5869 85.3709 46.3431 85.1286 46.2212C84.8862 46.0993 84.765 45.9775 84.5227 45.8556C84.2803 45.7337 84.1592 45.6118 83.9168 45.4899C83.6745 45.368 83.5533 45.2461 83.4321 45.2461C83.311 45.2461 83.0686 45.1242 82.9474 45.1242C82.7051 45.1242 82.8263 45.6118 82.9474 46.2212C82.9474 46.3431 83.0686 46.465 83.0686 46.7088C83.0686 46.8307 83.1898 46.9526 83.1898 47.1964C83.311 47.4401 83.311 47.6839 83.311 47.8058C83.311 48.0496 83.4321 48.4153 83.6745 48.7809C83.7956 49.0247 83.9168 49.1466 84.038 49.3904C84.1592 49.6342 84.2803 49.8779 84.4015 50.1217C84.8862 51.0969 85.4921 52.072 85.8556 52.4377C85.9768 52.6814 86.2191 52.9252 86.5826 53.169C86.825 53.4128 87.1885 53.6566 87.6732 53.7784C88.4003 54.1441 89.3696 54.3879 90.339 54.3879C90.5814 54.6317 90.5814 55.1192 90.7026 55.363C90.7026 55.7287 90.7026 55.9725 90.7026 56.0944C90.7026 56.3382 91.1872 56.9476 91.3084 57.1914C91.3084 57.4352 91.3084 57.6789 91.1872 57.9227C91.1872 58.1665 91.1872 58.2884 91.0661 58.5322C90.9449 59.3854 90.5814 60.4824 90.2179 61.4576C90.0967 61.9451 89.8543 62.3108 89.7332 62.6765C89.612 63.0421 89.4908 63.4078 89.3696 63.6516C89.2485 64.0173 89.0061 64.6267 88.7638 65.358C88.7638 65.1143 88.6426 64.9924 88.6426 64.7486C88.5214 64.3829 88.2791 63.8954 88.1579 63.5297C88.5214 63.164 88.7638 62.4327 89.0061 61.5794C89.2485 60.7262 89.2485 59.873 89.0061 59.3854C88.7638 58.8979 88.5214 58.5322 88.1579 58.2884C87.7944 57.9227 87.3097 57.6789 86.7038 57.3133C86.0979 56.9476 85.4921 56.5819 85.0074 56.2163C84.5227 55.8506 84.038 55.6068 83.5533 55.363C83.0686 55.1192 82.7051 54.8755 82.4627 54.6317C82.3416 54.5098 82.2204 54.3879 82.2204 54.3879C82.2204 54.266 82.0992 54.266 82.0992 54.266C82.0992 54.266 82.0992 54.266 82.0992 54.3879C82.0992 54.3879 81.978 54.5098 81.978 54.6317C81.978 54.7536 81.8569 54.8755 81.8569 55.1192C81.8569 55.363 81.7357 55.6068 81.7357 55.8506C81.7357 55.9725 81.7357 56.0944 81.7357 56.3382C81.7357 56.46 81.7357 56.46 81.7357 56.5819C81.7357 56.7038 81.7357 56.7038 81.7357 56.8257C81.7357 56.9476 81.8569 57.1914 81.8569 57.3133C81.8569 57.4352 81.978 57.6789 82.0992 57.8008C82.0992 57.9227 82.2204 57.9227 82.2204 58.0446C82.2204 58.1665 82.3416 58.1665 82.3416 58.2884C82.4627 58.4103 82.4627 58.6541 82.5839 58.776C82.8263 59.1416 82.9474 59.3854 83.1898 59.7511C83.4321 60.1168 83.5533 60.3605 83.6745 60.6043C83.7956 60.8481 83.9168 61.0919 84.038 61.3357C84.2803 61.8232 84.4015 62.1889 85.0074 62.5546C85.9768 63.2859 87.3097 63.8954 87.9156 63.8954C88.0367 64.261 88.1579 64.7486 88.2791 64.9924C88.4003 65.1143 88.4003 65.3581 88.4003 65.6018C88.4003 65.8456 88.4003 66.0894 88.4003 66.4551C87.9156 67.4302 87.3097 68.5272 86.825 69.2585L87.9156 69.7461C88.0367 69.6242 88.0367 69.5023 88.1579 69.3804C88.2791 69.2585 88.2791 69.1367 88.4003 69.0148C88.5214 68.771 88.6426 68.5272 88.7638 68.2834C89.1273 68.1615 89.4908 67.9178 89.7332 67.7959C90.0967 67.674 90.4602 67.4302 90.7026 67.3083C91.6719 67.7959 92.2778 68.1615 92.7625 68.4053C93.0048 68.5272 93.3684 68.5272 93.6107 68.4053C93.7319 68.4053 93.9742 68.2834 94.0954 68.2834C94.3378 68.1615 94.4589 68.0396 94.7013 67.9178C95.186 67.5521 95.5495 67.3083 95.913 67.1864C96.2765 66.9426 96.5189 66.8207 96.7612 66.6988C97.0036 66.577 97.1248 66.4551 97.3671 66.3332C97.4883 66.2113 97.7306 66.0894 97.8518 65.9675C97.973 65.8456 98.2153 65.6018 98.3365 65.2362C98.4577 64.9924 98.5788 64.6267 98.8212 64.261C98.9424 64.1391 98.9424 63.8954 99.0635 63.7735C99.1847 63.5297 99.1847 63.4078 99.3059 63.164C99.4271 62.7983 99.6694 62.4327 99.9118 62.067C100.154 61.7013 100.275 61.3357 100.518 60.97C100.76 60.6043 100.881 60.2386 101.002 59.9949C101.245 59.3854 101.487 59.0197 101.608 58.8979C101.608 58.776 101.123 59.0197 100.275 59.2635C99.9117 59.3854 99.4271 59.5073 99.0635 59.6292C98.7 59.7511 98.2153 59.873 97.8518 59.9949C97.2459 60.2386 96.6401 60.6043 96.1554 61.0919C95.913 61.3357 95.6707 61.5794 95.4283 61.8232C95.186 62.067 94.9436 62.3108 94.5801 62.4327C93.9742 62.7984 93.126 63.164 92.5202 63.5297C92.399 63.6516 92.1566 63.6516 92.0355 63.7735C91.9143 63.8954 91.7931 63.8954 91.6719 64.0173C91.4296 64.1391 91.1872 64.261 91.1872 64.3829C90.9449 63.7735 90.9449 64.0173 90.8237 64.261C90.8237 64.3829 90.7026 64.5048 90.7026 64.6267C90.7026 64.7486 90.5814 64.8705 90.5814 64.9924C90.5814 65.2362 90.4602 65.6018 90.4602 65.8456C90.4602 66.0894 90.339 66.3332 90.339 66.4551C89.8543 66.577 89.3696 66.8207 88.8849 67.0645C89.8543 65.2362 90.339 63.6516 90.7026 62.5546C91.1872 61.2138 91.4296 60.3605 91.5508 59.6292Z" fill="#E1712C" fill-opacity="0.3"/>
</g>
<path d="M9.85344 49.9331C10.7963 50.1353 11.5536 50.6097 12.1255 51.3564C12.6974 52.0875 12.9834 52.9275 12.9834 53.8764C12.9834 55.2453 12.5042 56.3342 11.5459 57.1431C10.6031 57.9364 9.28155 58.3331 7.58135 58.3331H0V41.9531H7.32632C8.98015 41.9531 10.2708 42.3342 11.1981 43.0964C12.141 43.8586 12.6124 44.8931 12.6124 46.1997C12.6124 47.1642 12.3574 47.9653 11.8473 48.6031C11.3527 49.2408 10.6881 49.6842 9.85344 49.9331ZM3.96456 48.5797H6.56123C7.2104 48.5797 7.705 48.4397 8.04504 48.1597C8.40054 47.8642 8.57829 47.4364 8.57829 46.8764C8.57829 46.3164 8.40054 45.8886 8.04504 45.5931C7.705 45.2975 7.2104 45.1497 6.56123 45.1497H3.96456V48.5797ZM6.88582 55.1131C7.55044 55.1131 8.0605 54.9653 8.416 54.6697C8.78695 54.3586 8.97243 53.9153 8.97243 53.3397C8.97243 52.7642 8.77922 52.3131 8.39281 51.9864C8.02186 51.6597 7.50407 51.4964 6.83945 51.4964H3.96456V55.1131H6.88582Z" fill="#691A2E"/>
<path d="M19.1546 55.2531H24.348V58.3331H15.1901V41.9531H19.1546V55.2531Z" fill="#691A2E"/>
<path d="M33.8435 58.4964C32.3133 58.4964 30.9068 58.1386 29.6239 57.4231C28.3565 56.7075 27.3441 55.7119 26.5867 54.4364C25.8448 53.1453 25.4739 51.6986 25.4739 50.0964C25.4739 48.4942 25.8448 47.0553 26.5867 45.7797C27.3441 44.5042 28.3565 43.5086 29.6239 42.7931C30.9068 42.0775 32.3133 41.7197 33.8435 41.7197C35.3737 41.7197 36.7725 42.0775 38.0399 42.7931C39.3228 43.5086 40.3274 44.5042 41.0539 45.7797C41.7958 47.0553 42.1667 48.4942 42.1667 50.0964C42.1667 51.6986 41.7958 53.1453 41.0539 54.4364C40.312 55.7119 39.3073 56.7075 38.0399 57.4231C36.7725 58.1386 35.3737 58.4964 33.8435 58.4964ZM33.8435 54.8564C35.1418 54.8564 36.1774 54.4208 36.9502 53.5497C37.7385 52.6786 38.1326 51.5275 38.1326 50.0964C38.1326 48.6497 37.7385 47.4986 36.9502 46.6431C36.1774 45.7719 35.1418 45.3364 33.8435 45.3364C32.5297 45.3364 31.4787 45.7642 30.6904 46.6197C29.9176 47.4753 29.5312 48.6342 29.5312 50.0964C29.5312 51.5431 29.9176 52.7019 30.6904 53.5731C31.4787 54.4286 32.5297 54.8564 33.8435 54.8564Z" fill="#691A2E"/>
<path d="M43.6073 50.1197C43.6073 48.5019 43.955 47.0631 44.6506 45.8031C45.3461 44.5275 46.3121 43.5397 47.5486 42.8397C48.8006 42.1242 50.2149 41.7664 51.7914 41.7664C53.7235 41.7664 55.3773 42.2797 56.7529 43.3064C58.1285 44.3331 59.0482 45.7331 59.5119 47.5064H55.1532C54.8286 46.8219 54.3649 46.3008 53.7621 45.9431C53.1748 45.5853 52.5024 45.4064 51.745 45.4064C50.524 45.4064 49.5348 45.8342 48.7774 46.6897C48.0201 47.5453 47.6414 48.6886 47.6414 50.1197C47.6414 51.5508 48.0201 52.6942 48.7774 53.5497C49.5348 54.4053 50.524 54.8331 51.745 54.8331C52.5024 54.8331 53.1748 54.6542 53.7621 54.2964C54.3649 53.9386 54.8286 53.4175 55.1532 52.7331H59.5119C59.0482 54.5064 58.1285 55.9064 56.7529 56.9331C55.3773 57.9442 53.7235 58.4497 51.7914 58.4497C50.2149 58.4497 48.8006 58.0997 47.5486 57.3997C46.3121 56.6842 45.3461 55.6964 44.6506 54.4364C43.955 53.1764 43.6073 51.7375 43.6073 50.1197Z" fill="#691A2E"/>
<path d="M71.2831 58.3331L65.8116 51.0997V58.3331H61.847V41.9531H65.8116V49.1397L71.2368 41.9531H75.8969L69.5906 49.9797L76.1287 58.3331H71.2831Z" fill="#691A2E"/>
<path d="M81.8846 45.1497V48.4631H87.1939V51.5431H81.8846V55.1364H87.8894V58.3331H77.9201V41.9531H87.8894V45.1497H81.8846Z" fill="#691A2E"/>
<path d="M96.4681 41.9531C98.1837 41.9531 99.683 42.2953 100.966 42.9797C102.249 43.6642 103.238 44.6286 103.934 45.8731C104.645 47.1019 105 48.5253 105 50.1431C105 51.7453 104.645 53.1686 103.934 54.4131C103.238 55.6575 102.241 56.6219 100.943 57.3064C99.6598 57.9908 98.1683 58.3331 96.4681 58.3331H90.3705V41.9531H96.4681ZM96.213 54.8797C97.7123 54.8797 98.8793 54.4675 99.7139 53.6431C100.549 52.8186 100.966 51.6519 100.966 50.1431C100.966 48.6342 100.549 47.4597 99.7139 46.6197C98.8793 45.7797 97.7123 45.3597 96.213 45.3597H94.3351V54.8797H96.213Z" fill="#691A2E"/>
<defs>
<clipPath id="clip0_196_30203">
<rect width="99.3624" height="81.6667" fill="white" transform="translate(2.48828 9.1665)"/>
</clipPath>
</defs>
</svg>
