<svg width="521" height="338" viewBox="0 0 521 338" fill="none" xmlns="http://www.w3.org/2000/svg">
<path opacity="0.6" fill-rule="evenodd" clip-rule="evenodd" d="M474.13 267.62L18.44 0H18.98L478.2 260.57L474.13 267.62ZM409.78 347.63L-5.44 4.47021L397.4 347.63H409.78ZM-16.24 16.23L266.09 347.63H257.67L-16.24 16.23ZM160.04 347.63L-28.91 25.9399L153.64 347.63H160.04ZM-129 44.4497L-120.42 29.8398L-129 44.9697V44.4497ZM-105.67 35.96L-129 101.57V98.6001L-105.67 35.96ZM-129 270.17L-90.09 39.4302L-129 250.89V270.17ZM-74.14 40.1401L-71.84 347.63H-76.42L-74.14 40.1401ZM-1.34 347.63L-58.31 38.0801L-6.10001 347.63H-1.34ZM-43.08 33.29L73.99 347.63H68.69L-43.08 33.29ZM520.7 158.1L76.02 0H72.99L520.7 166.73V158.1ZM245.89 0L520.7 46.3398V54.1499L226.41 0H245.89ZM-129 68.5098L-113.18 33.21L-129 65.8599V68.5098ZM-97.96 38.0298L-129 161.21V147.35L-97.96 38.0298ZM-104.42 347.63L-82.14 40.1299L-113.65 347.63H-104.42ZM-66.18 39.4502L-34.58 347.63H-43.84L-66.18 39.4502ZM37.91 347.63L-50.59 36.0098L27.95 347.63H37.91ZM-35.83 29.9199L118.13 347.63H106.59L-35.83 29.9199ZM213.43 347.63L-22.36 21.3599L198.94 347.63H213.43ZM-10.57 10.5801L336.69 347.63H316.58L-10.57 10.5801ZM2.02 0L441.9 317.87L451.24 304.53L2.21001 0H2.02ZM498.12 221.97L40.03 0H42.74L505 207.21L498.12 221.97ZM520.7 96.9102L136.15 0H122.11L520.7 113.18V96.9102ZM520.7 4.72021L474.66 0H520.7V4.72021Z" fill="url(#paint0_radial_19_384)"/>
<defs>
<radialGradient id="paint0_radial_19_384" cx="0" cy="0" r="1" gradientUnits="userSpaceOnUse" gradientTransform="translate(-61.3905 -61.5) rotate(18.1636) scale(426.65 426.65)">
<stop stop-color="#E120C1"/>
<stop offset="0.99" stop-color="#E120C1" stop-opacity="0"/>
</radialGradient>
</defs>
</svg>
