<svg width="20" height="11" viewBox="0 0 20 11" fill="none" xmlns="http://www.w3.org/2000/svg">
<path d="M9.82047 0.00851886C9.42714 0.047278 9.0552 0.209682 8.75587 0.473077L0.717013 7.51651C0.312473 7.84787 0.056939 8.33294 0.00835045 8.86049C-0.0399804 9.38811 0.122903 9.91296 0.460152 10.3156C0.797135 10.7182 1.27962 10.9638 1.79689 10.9963C2.31437 11.0288 2.82252 10.8454 3.20539 10.4878L10 4.53255L16.7946 10.4878C17.1775 10.8451 17.6856 11.0285 18.2031 10.996C18.7203 10.9638 19.2028 10.7182 19.5398 10.3156C19.8771 9.91298 20.04 9.38784 19.9916 8.86022C19.9431 8.3326 19.6875 7.84786 19.283 7.51651L11.2441 0.473077C10.8508 0.12725 10.337 -0.0403454 9.82066 0.00824591L9.82047 0.00851886Z" fill="white"/>
</svg>
