<svg width="26" height="19" viewBox="0 0 26 19" fill="none" xmlns="http://www.w3.org/2000/svg">
<path fill-rule="evenodd" clip-rule="evenodd" d="M5.93304 0.347516C9.98034 -0.115839 16.9415 -0.115839 20.9888 0.347516C23.3829 0.621604 25.3163 2.55334 25.5979 5.01991C26.0819 9.25886 26.0819 9.74114 25.5979 13.9801C25.3163 16.4467 23.3829 18.3784 20.9888 18.6525C16.9415 19.1158 9.98034 19.1158 5.93304 18.6525C3.53893 18.3784 1.60557 16.4467 1.32394 13.9801C0.839937 9.74114 0.839937 9.25886 1.32394 5.01991C1.60557 2.55334 3.53894 0.621604 5.93304 0.347516Z" fill="#038941"/>
<path fill-rule="evenodd" clip-rule="evenodd" d="M9.1264 4.23036C11.4567 3.96358 15.4646 3.96358 17.7949 4.23036C19.1733 4.38817 20.2865 5.50038 20.4486 6.92053C20.7273 9.36113 20.7273 9.63881 20.4486 12.0794C20.2865 13.4996 19.1733 14.6118 17.7949 14.7696C15.4646 15.0364 11.4567 15.0364 9.12639 14.7696C7.74797 14.6118 6.63483 13.4996 6.47267 12.0794C6.194 9.63881 6.194 9.36113 6.47267 6.92053C6.63483 5.50038 7.74797 4.38817 9.1264 4.23036Z" fill="#E7FD52"/>
</svg>
