<svg width="40" height="40" viewBox="0 0 40 40" fill="none" xmlns="http://www.w3.org/2000/svg">
<path fill-rule="evenodd" clip-rule="evenodd" d="M3.33301 4.99999C3.33301 4.07953 4.07921 3.33333 4.99967 3.33333H16.6663C17.5868 3.33333 18.333 4.07953 18.333 4.99999V16.6667C18.333 17.5872 17.5868 18.3333 16.6663 18.3333H4.99967C4.07921 18.3333 3.33301 17.5872 3.33301 16.6667V4.99999ZM8.33301 9.99999C8.33301 9.07953 9.07921 8.33333 9.99967 8.33333H11.6663C12.5868 8.33333 13.333 9.07953 13.333 9.99999V11.6667C13.333 12.5871 12.5868 13.3333 11.6663 13.3333H9.99967C9.07921 13.3333 8.33301 12.5871 8.33301 11.6667V9.99999Z" fill="white"/>
<path fill-rule="evenodd" clip-rule="evenodd" d="M3.33301 23.3333C3.33301 22.4128 4.07921 21.6667 4.99967 21.6667H16.6663C17.5868 21.6667 18.333 22.4128 18.333 23.3333V35C18.333 35.9205 17.5868 36.6667 16.6663 36.6667H4.99967C4.07921 36.6667 3.33301 35.9205 3.33301 35V23.3333ZM9.99967 26.6667C9.07921 26.6667 8.33301 27.4128 8.33301 28.3333V30C8.33301 30.9205 9.07921 31.6667 9.99967 31.6667H11.6663C12.5868 31.6667 13.333 30.9205 13.333 30V28.3333C13.333 27.4128 12.5868 26.6667 11.6663 26.6667H9.99967Z" fill="white"/>
<path fill-rule="evenodd" clip-rule="evenodd" d="M23.3327 3.33333C22.4122 3.33333 21.666 4.07953 21.666 4.99999V16.6667C21.666 17.5872 22.4122 18.3333 23.3327 18.3333H34.9993C35.9198 18.3333 36.666 17.5872 36.666 16.6667V4.99999C36.666 4.07953 35.9198 3.33333 34.9993 3.33333H23.3327ZM26.666 9.99999C26.666 9.07953 27.4122 8.33333 28.3327 8.33333H29.9993C30.9198 8.33333 31.666 9.07953 31.666 9.99999V11.6667C31.666 12.5871 30.9198 13.3333 29.9993 13.3333H28.3327C27.4122 13.3333 26.666 12.5871 26.666 11.6667V9.99999Z" fill="white"/>
<path d="M23.3327 21.6667C22.4122 21.6667 21.666 22.4128 21.666 23.3333V25C21.666 25.9205 22.4122 26.6667 23.3327 26.6667H24.9993V30C24.9993 30.9205 25.7455 31.6667 26.666 31.6667H28.3327C29.2532 31.6667 29.9993 30.9205 29.9993 30V26.6667C29.9993 25.7462 29.2532 25 28.3327 25H26.666V23.3333C26.666 22.4128 25.9198 21.6667 24.9993 21.6667H23.3327Z" fill="white"/>
<path d="M23.3327 31.6667C22.4122 31.6667 21.666 32.4128 21.666 33.3333V35C21.666 35.9205 22.4122 36.6667 23.3327 36.6667H24.9993C25.9198 36.6667 26.666 35.9205 26.666 35V33.3333C26.666 32.4128 25.9198 31.6667 24.9993 31.6667H23.3327Z" fill="white"/>
<path d="M30 23.3333C30 22.4128 30.7462 21.6667 31.6667 21.6667H33.3333C34.2538 21.6667 35 22.4128 35 23.3333V25C35 25.9205 34.2538 26.6667 33.3333 26.6667H31.6667C30.7462 26.6667 30 25.9205 30 25V23.3333Z" fill="white"/>
<path d="M31.6667 31.6667C30.7462 31.6667 30 32.4128 30 33.3333V35C30 35.9205 30.7462 36.6667 31.6667 36.6667H33.3333C34.2538 36.6667 35 35.9205 35 35V33.3333C35 32.4128 34.2538 31.6667 33.3333 31.6667H31.6667Z" fill="white"/>
</svg>
