<svg width="18" height="19" viewBox="0 0 18 19" fill="none" xmlns="http://www.w3.org/2000/svg">
<g filter="url(#filter0_d_35_1075)">
<path d="M6.81173 0H2.21813C1.54642 0 1 0.546422 1 1.21815V5.81181C1 6.48353 1.54642 7.02996 2.21813 7.02996H6.81173C7.48345 7.02996 8.02986 6.48353 8.02986 5.81181V1.21815C8.02975 0.546422 7.48345 0 6.81173 0Z" fill="white"/>
</g>
<g filter="url(#filter1_d_35_1075)">
<path d="M15.7815 0H11.1879C10.5161 0 9.96973 0.546422 9.96973 1.21815V5.81181C9.96973 6.48353 10.5161 7.02996 11.1879 7.02996H15.7815C16.4532 7.02996 16.9996 6.48353 16.9996 5.81181V1.21815C16.9996 0.546422 16.4532 0 15.7815 0Z" fill="white"/>
</g>
<g filter="url(#filter2_d_35_1075)">
<path d="M6.81173 8.97005H2.21813C1.54642 8.97005 1 9.51642 1 10.1881V14.7818C1 15.4535 1.54642 15.9999 2.21813 15.9999H6.81173C7.48345 15.9999 8.02986 15.4535 8.02986 14.7818V10.1881C8.02975 9.51642 7.48345 8.97005 6.81173 8.97005Z" fill="white"/>
</g>
<g filter="url(#filter3_d_35_1075)">
<path d="M15.7815 8.97005H11.1879C10.5161 8.97005 9.96973 9.51647 9.96973 10.1882V14.7819C9.96973 15.4536 10.5161 16 11.1879 16H15.7815C16.4532 15.9999 16.9996 15.4535 16.9996 14.7818V10.1881C16.9996 9.51642 16.4532 8.97005 15.7815 8.97005Z" fill="white"/>
</g>
<defs>
<filter id="filter0_d_35_1075" x="0.316901" y="0" width="8.39598" height="9.07925" filterUnits="userSpaceOnUse" color-interpolation-filters="sRGB">
<feFlood flood-opacity="0" result="BackgroundImageFix"/>
<feColorMatrix in="SourceAlpha" type="matrix" values="0 0 0 0 0 0 0 0 0 0 0 0 0 0 0 0 0 0 127 0" result="hardAlpha"/>
<feOffset dy="1.3662"/>
<feGaussianBlur stdDeviation="0.341549"/>
<feComposite in2="hardAlpha" operator="out"/>
<feColorMatrix type="matrix" values="0 0 0 0 0 0 0 0 0 0 0 0 0 0 0 0 0 0 0.25 0"/>
<feBlend mode="normal" in2="BackgroundImageFix" result="effect1_dropShadow_35_1075"/>
<feBlend mode="normal" in="SourceGraphic" in2="effect1_dropShadow_35_1075" result="shape"/>
</filter>
<filter id="filter1_d_35_1075" x="9.28663" y="0" width="8.39598" height="9.07925" filterUnits="userSpaceOnUse" color-interpolation-filters="sRGB">
<feFlood flood-opacity="0" result="BackgroundImageFix"/>
<feColorMatrix in="SourceAlpha" type="matrix" values="0 0 0 0 0 0 0 0 0 0 0 0 0 0 0 0 0 0 127 0" result="hardAlpha"/>
<feOffset dy="1.3662"/>
<feGaussianBlur stdDeviation="0.341549"/>
<feComposite in2="hardAlpha" operator="out"/>
<feColorMatrix type="matrix" values="0 0 0 0 0 0 0 0 0 0 0 0 0 0 0 0 0 0 0.25 0"/>
<feBlend mode="normal" in2="BackgroundImageFix" result="effect1_dropShadow_35_1075"/>
<feBlend mode="normal" in="SourceGraphic" in2="effect1_dropShadow_35_1075" result="shape"/>
</filter>
<filter id="filter2_d_35_1075" x="0.316901" y="8.97005" width="8.39598" height="9.0792" filterUnits="userSpaceOnUse" color-interpolation-filters="sRGB">
<feFlood flood-opacity="0" result="BackgroundImageFix"/>
<feColorMatrix in="SourceAlpha" type="matrix" values="0 0 0 0 0 0 0 0 0 0 0 0 0 0 0 0 0 0 127 0" result="hardAlpha"/>
<feOffset dy="1.3662"/>
<feGaussianBlur stdDeviation="0.341549"/>
<feComposite in2="hardAlpha" operator="out"/>
<feColorMatrix type="matrix" values="0 0 0 0 0 0 0 0 0 0 0 0 0 0 0 0 0 0 0.25 0"/>
<feBlend mode="normal" in2="BackgroundImageFix" result="effect1_dropShadow_35_1075"/>
<feBlend mode="normal" in="SourceGraphic" in2="effect1_dropShadow_35_1075" result="shape"/>
</filter>
<filter id="filter3_d_35_1075" x="9.28663" y="8.97005" width="8.39598" height="9.07925" filterUnits="userSpaceOnUse" color-interpolation-filters="sRGB">
<feFlood flood-opacity="0" result="BackgroundImageFix"/>
<feColorMatrix in="SourceAlpha" type="matrix" values="0 0 0 0 0 0 0 0 0 0 0 0 0 0 0 0 0 0 127 0" result="hardAlpha"/>
<feOffset dy="1.3662"/>
<feGaussianBlur stdDeviation="0.341549"/>
<feComposite in2="hardAlpha" operator="out"/>
<feColorMatrix type="matrix" values="0 0 0 0 0 0 0 0 0 0 0 0 0 0 0 0 0 0 0.25 0"/>
<feBlend mode="normal" in2="BackgroundImageFix" result="effect1_dropShadow_35_1075"/>
<feBlend mode="normal" in="SourceGraphic" in2="effect1_dropShadow_35_1075" result="shape"/>
</filter>
</defs>
</svg>
