<svg width="14" height="12" viewBox="0 0 14 12" fill="none" xmlns="http://www.w3.org/2000/svg">
<path d="M14 1.39175C13.475 1.63918 12.9208 1.79381 12.3375 1.8866C12.9208 1.51546 13.3875 0.927835 13.5917 0.216495C13.0375 0.556701 12.425 0.804124 11.7542 0.958763C11.2292 0.371134 10.4708 0 9.65417 0C8.07917 0 6.79583 1.36082 6.79583 3.03093C6.79583 3.27835 6.825 3.49485 6.88333 3.71134C4.52083 3.58763 2.39167 2.38144 0.9625 0.525773C0.729167 0.989691 0.583333 1.48454 0.583333 2.04124C0.583333 3.09278 1.07917 4.02062 1.86667 4.57732C1.4 4.54639 0.9625 4.42268 0.554167 4.20619V4.23711C0.554167 5.72165 1.54583 6.95876 2.85833 7.23711C2.625 7.29897 2.3625 7.3299 2.1 7.3299C1.925 7.3299 1.72083 7.29897 1.54583 7.26804C1.925 8.47423 2.975 9.37113 4.22917 9.37113C3.2375 10.1753 2.0125 10.6701 0.670833 10.6701C0.4375 10.6701 0.204167 10.6701 0 10.6392C1.28333 11.5052 2.77083 12 4.40417 12C9.68333 12 12.5708 7.36082 12.5708 3.34021C12.5708 3.21649 12.5708 3.06186 12.5708 2.93814C13.125 2.53608 13.6208 2.01031 14 1.39175Z" fill="white"/>
</svg>
