<svg width="20" height="20" viewBox="0 0 20 20" fill="none" xmlns="http://www.w3.org/2000/svg">
<g clip-path="url(#clip0_196_30212)">
<path d="M10 20C15.5228 20 20 15.5228 20 10C20 4.47715 15.5228 0 10 0C4.47715 0 0 4.47715 0 10C0 15.5228 4.47715 20 10 20Z" fill="#F0F0F0"/>
<path d="M0.34375 12.6089C0.922344 14.7557 2.19754 16.6164 3.9123 17.934V12.6089H0.34375Z" fill="#D80027"/>
<path d="M9.12891 19.9616C9.41555 19.9863 9.70543 19.9997 9.99848 19.9997C14.6188 19.9997 18.5065 16.8661 19.654 12.6084H9.12891V19.9616Z" fill="#D80027"/>
<path d="M19.654 7.39129C18.5065 3.13363 14.6188 0 9.99848 0C9.70543 0 9.41555 0.0133594 9.12891 0.0380469V7.39129H19.654Z" fill="#D80027"/>
<path d="M3.9123 2.06641C2.19754 3.38398 0.922344 5.24465 0.34375 7.39148H3.9123V2.06641Z" fill="#D80027"/>
<path d="M19.9154 8.69576H7.82613H7.82609V0.237793C6.90195 0.442715 6.02582 0.774863 5.21738 1.216V8.69568V8.69572H0.0846484C0.0289844 9.12271 0 9.55803 0 10.0001C0 10.4422 0.0289844 10.8775 0.0846484 11.3044H5.21734H5.21738V18.7842C6.02582 19.2253 6.90195 19.5575 7.82609 19.7624V11.3046V11.3045H19.9154C19.9709 10.8775 20 10.4422 20 10.0001C20 9.55803 19.9709 9.12271 19.9154 8.69576Z" fill="#0052B4"/>
</g>
<defs>
<clipPath id="clip0_196_30212">
<rect width="20" height="20" fill="white"/>
</clipPath>
</defs>
</svg>
