<svg width="33" height="30" viewBox="0 0 33 30" fill="none" xmlns="http://www.w3.org/2000/svg">
<path fill-rule="evenodd" clip-rule="evenodd" d="M6.56317 0.457258C11.9056 -0.152419 21.0944 -0.152419 26.4368 0.457258C29.597 0.8179 32.1491 3.35965 32.5208 6.60515C33.1597 12.1827 33.1597 17.8173 32.5208 23.3949C32.1491 26.6404 29.597 29.1821 26.4368 29.5427C21.0944 30.1524 11.9056 30.1524 6.56317 29.5427C3.40296 29.1821 0.850921 26.6403 0.479164 23.3949C-0.159721 17.8173 -0.159721 12.1827 0.479164 6.60515C0.850921 3.35965 3.40296 0.8179 6.56317 0.457258Z" fill="url(#paint0_linear_302_253)"/>
<g filter="url(#filter0_d_302_253)">
<path fill-rule="evenodd" clip-rule="evenodd" d="M16.666 10.6554C17.7706 10.6554 18.666 9.76231 18.666 8.66069C18.666 7.55906 17.7706 6.66602 16.666 6.66602C15.5614 6.66602 14.666 7.55906 14.666 8.66069C14.666 9.76231 15.5614 10.6554 16.666 10.6554ZM18.166 14.5307C18.166 13.7045 17.4944 13.0347 16.666 13.0347C15.8376 13.0347 15.166 13.7045 15.166 14.5307V21.17C15.166 21.9962 15.8376 22.666 16.666 22.666C17.4944 22.666 18.166 21.9962 18.166 21.17V14.5307Z" fill="#E7FD52"/>
</g>
<defs>
<filter id="filter0_d_302_253" x="13.666" y="6.66602" width="6" height="19" filterUnits="userSpaceOnUse" color-interpolation-filters="sRGB">
<feFlood flood-opacity="0" result="BackgroundImageFix"/>
<feColorMatrix in="SourceAlpha" type="matrix" values="0 0 0 0 0 0 0 0 0 0 0 0 0 0 0 0 0 0 127 0" result="hardAlpha"/>
<feOffset dy="2"/>
<feGaussianBlur stdDeviation="0.5"/>
<feComposite in2="hardAlpha" operator="out"/>
<feColorMatrix type="matrix" values="0 0 0 0 0 0 0 0 0 0 0 0 0 0 0 0 0 0 0.25 0"/>
<feBlend mode="normal" in2="BackgroundImageFix" result="effect1_dropShadow_302_253"/>
<feBlend mode="normal" in="SourceGraphic" in2="effect1_dropShadow_302_253" result="shape"/>
</filter>
<linearGradient id="paint0_linear_302_253" x1="33" y1="15" x2="-6.15006e-09" y2="15" gradientUnits="userSpaceOnUse">
<stop stop-color="#0B764F"/>
<stop offset="1" stop-color="#038941"/>
</linearGradient>
</defs>
</svg>
