<svg width="126" height="40" viewBox="0 0 126 40" fill="none" xmlns="http://www.w3.org/2000/svg">
<path d="M26.1052 8.76149C24.6693 8.76149 23.5231 8.33842 22.667 7.49231C21.8109 6.61887 21.3828 5.5817 21.3828 4.38074C21.3828 3.17978 21.797 2.15626 22.6255 1.31013C23.4817 0.436709 24.6417 0 26.1052 0C27.5692 0 28.7153 0.436709 29.5438 1.31013C30.3998 2.15626 30.8281 3.17978 30.8281 4.38074C30.8281 5.5817 30.3998 6.61887 29.5438 7.49231C28.7153 8.33842 27.5692 8.76149 26.1052 8.76149Z" fill="#4AA330"/>
<path d="M80.2921 31.4016V26.0794C82.9434 24.3871 85.1529 22.6676 86.9203 20.9207C88.7156 19.1738 90.0688 17.4953 90.9802 15.8848C91.8917 14.2745 92.3472 12.8689 92.3472 11.6679C92.3472 9.7846 91.4083 8.84294 89.5303 8.84294C88.4531 8.84294 87.5279 9.18412 86.7545 9.86646C86.0089 10.5215 85.4704 11.3267 85.1391 12.2821L79.3806 9.12954C79.8777 7.71023 80.6649 6.46833 81.7421 5.40386C82.8191 4.31208 84.1172 3.46597 85.6362 2.86547C87.155 2.23771 88.7982 1.92383 90.5659 1.92383C92.6096 1.92383 94.3634 2.30595 95.827 3.0702C97.2907 3.83444 98.4092 4.88527 99.1826 6.22269C99.9558 7.53283 100.329 9.034 100.301 10.7262C100.301 13.1282 99.5555 15.5437 98.064 17.9729C96.5726 20.4021 94.1147 22.7767 90.6902 25.0968H100.964V31.4016H80.2921Z" fill="#4AA330"/>
<path d="M114.153 31.4022V25.1792H101.849V19.8159L116.265 2.25195H121.858V19.3245H126V25.1792H121.858V31.4022H114.153ZM109.223 19.3245H114.153V13.3471L109.223 19.3245Z" fill="#4AA330"/>
<path d="M11.1852 31.8523C8.89289 31.8523 6.90442 31.429 5.21974 30.583C3.56268 29.7096 2.27845 28.4813 1.36707 26.8984C0.455691 25.3152 0 23.4592 0 21.3302C0 19.1194 0.497119 17.1679 1.49136 15.4756C2.48559 13.7833 3.85265 12.4596 5.59256 11.5043C7.3601 10.549 9.38999 10.0713 11.6823 10.0713C13.6983 10.0713 15.452 10.4535 16.9434 11.2177C18.4347 11.9819 19.5671 13.1147 20.3403 14.6158L14.9549 18.628C14.4302 17.3179 13.4084 16.6629 11.8894 16.6629C10.7018 16.6629 9.74902 17.086 9.03097 17.9321C8.31291 18.7509 7.95388 19.8427 7.95388 21.2074C7.95388 22.4902 8.27148 23.4865 8.90669 24.1962C9.54189 24.9058 10.4533 25.2605 11.6408 25.2605C13.1598 25.2605 14.306 24.5647 15.0792 23.1726L20.2575 27.3895C19.4014 28.8635 18.2 29.9826 16.6534 30.7469C15.1068 31.4837 13.2841 31.8523 11.1852 31.8523Z" fill="#EDEDED"/>
<path d="M29.9987 10.3584V31.4022H22.2933V10.3584H29.9987Z" fill="#EDEDED"/>
<path d="M44.9516 31.8529C42.1345 31.8529 39.9253 31.1022 38.3233 29.6009C36.7214 28.0725 35.9344 26.0799 35.9621 23.6235L36.0862 16.6226H32.6893V10.3585H36.2105L36.2934 6.10059H43.916L43.8331 10.3585H50.2127V16.6226H43.7502L43.6673 22.7229C43.6398 23.5689 43.8606 24.224 44.3303 24.688C44.8272 25.1248 45.5039 25.3431 46.3599 25.3431C46.94 25.3431 47.5201 25.275 48.0999 25.1384C48.6799 24.9747 49.2738 24.688 49.8813 24.2786L52.0355 30.0104C51.345 30.5836 50.3922 31.0339 49.1771 31.3616C47.9619 31.6891 46.5533 31.8529 44.9516 31.8529Z" fill="#EDEDED"/>
<path d="M61.5684 40C60.6846 40 59.718 39.9317 58.6686 39.7953C57.6468 39.6861 56.6525 39.4951 55.686 39.2221C54.7468 38.9493 53.9598 38.6079 53.3247 38.1985L55.1472 31.7297C56.1968 32.2483 57.2601 32.6441 58.337 32.9171C59.4418 33.2174 60.6708 33.3676 62.024 33.3676C64.206 33.3676 65.7663 32.9035 66.7053 31.9755C67.6442 31.0476 68.1967 29.6008 68.3623 27.6357L68.4451 26.6122C67.6166 27.9223 66.581 28.9594 65.3383 29.7238C64.0955 30.4879 62.6732 30.87 61.0713 30.87C58.3924 30.87 56.4178 29.9966 55.1472 28.2498C53.8769 26.5031 53.2555 24.0874 53.2831 21.0032L53.3247 10.3584H61.0299L60.9883 20.5119C60.9883 21.6037 61.1954 22.4225 61.6098 22.9684C62.0518 23.5143 62.6594 23.7871 63.4325 23.7871C64.3993 23.7871 65.214 23.3914 65.8767 22.5999C66.5672 21.781 67.1057 20.4027 67.4924 18.4648C67.9066 16.4995 68.1413 13.7974 68.1967 10.3584H75.6535V26.8169C75.6535 29.8738 75.0596 32.3713 73.872 34.3092C72.7121 36.2471 71.0689 37.6799 68.9423 38.6079C66.8435 39.5362 64.3856 40 61.5684 40Z" fill="#EDEDED"/>
</svg>
