<svg width="95" height="40" viewBox="0 0 95 40" fill="none" xmlns="http://www.w3.org/2000/svg">
<path d="M57.8624 17.7234L58.2443 17.9336C62.4854 19.9609 64.3232 22.456 64.3232 25.7309C64.3232 31.6568 59.3752 35.5554 51.8827 35.5554C48.6312 35.5554 45.5211 34.7757 43.8246 33.996L44.8142 27.6022L45.8038 28.07C48.2071 29.1616 49.7621 29.6295 52.5895 29.6295C54.5687 29.6295 56.8306 28.6938 56.8306 26.8225C56.8306 25.5749 55.9824 24.6392 53.155 23.2357C50.3276 21.8322 46.7934 19.649 46.7934 15.4385C46.7934 9.82442 51.8827 5.92578 58.9511 5.92578C61.7785 5.92578 64.0404 6.54956 65.4541 7.17334L64.3232 13.2552L63.6163 12.9433C62.344 12.3195 60.6476 11.8517 58.2443 11.8517C55.4169 11.8517 54.1446 13.0993 54.1446 14.3468C54.1446 15.6787 55.5449 16.4488 57.8624 17.7234Z" fill="white"/>
<path d="M37.1804 6.86135H44.2489L39.8665 34.9315H32.6566L37.1804 6.86135Z" fill="white"/>
<path fill-rule="evenodd" clip-rule="evenodd" d="M83.125 6.86135H77.6116C75.9152 6.86135 74.6428 7.0173 73.936 8.88864L63.3333 34.9315H70.9672L72.3809 30.2532H81.4286L82.2768 34.9315H89.0625L83.125 6.86135ZM74.3601 25.7308V25.5748C74.9256 24.0154 77.1875 17.3097 77.1875 17.3097C77.1875 17.3097 77.753 15.5943 78.1771 14.5027L78.6012 17.1538C78.6012 17.1538 80.0149 24.1713 80.2976 25.7308H74.3601Z" fill="white"/>
<path d="M26.8602 7.0173H34.4941L23.0432 35.0875H15.4092L9.22434 10.8575C7.75764 9.92178 6.16723 9.08358 4.50614 8.38182L0 6.86135H13.1473C14.7024 6.86135 15.9747 7.32919 16.3988 9.20053L18.6784 21.1109L18.9435 22.2999C18.9081 22.2415 18.8905 22.183 18.8728 22.1245L18.9435 22.4559L19.6503 26.5105L26.8602 7.0173Z" fill="white"/>
</svg>
