<svg width="40" height="40" viewBox="0 0 40 40" fill="none" xmlns="http://www.w3.org/2000/svg">
<g clip-path="url(#clip0_0_744)">
<g filter="url(#filter0_d_0_744)">
<path d="M38.0172 14.2045L17.9547 34.267C17.4859 34.7355 16.8503 34.9987 16.1875 34.9987C15.5248 34.9987 14.8891 34.7355 14.4203 34.267L3.22971 23.017C2.7617 22.5483 2.49884 21.913 2.49884 21.2506C2.49884 20.5882 2.7617 19.9529 3.22971 19.4842L6.35471 16.3592C6.82325 15.8926 7.45755 15.6307 8.11878 15.6307C8.78 15.6307 9.4143 15.8926 9.88284 16.3592L16.25 22.5342L31.3688 7.60138C31.8374 7.13433 32.472 6.87207 33.1336 6.87207C33.7952 6.87207 34.4299 7.13433 34.8985 7.60138L38.0157 10.6545C38.2501 10.8868 38.4362 11.1632 38.5632 11.4678C38.6903 11.7724 38.7558 12.0992 38.7559 12.4292C38.7561 12.7592 38.6909 13.086 38.5641 13.3907C38.4373 13.6954 38.2514 13.972 38.0172 14.2045Z" fill="url(#paint0_linear_0_744)"/>
<path d="M38.0172 14.2045L17.9547 34.267C17.4859 34.7355 16.8503 34.9987 16.1875 34.9987C15.5248 34.9987 14.8891 34.7355 14.4203 34.267L3.22971 23.017C2.7617 22.5483 2.49884 21.913 2.49884 21.2506C2.49884 20.5882 2.7617 19.9529 3.22971 19.4842L6.35471 16.3592C6.82325 15.8926 7.45755 15.6307 8.11878 15.6307C8.78 15.6307 9.4143 15.8926 9.88284 16.3592L16.25 22.5342L31.3688 7.60138C31.8374 7.13433 32.472 6.87207 33.1336 6.87207C33.7952 6.87207 34.4299 7.13433 34.8985 7.60138L38.0157 10.6545C38.2501 10.8868 38.4362 11.1632 38.5632 11.4678C38.6903 11.7724 38.7558 12.0992 38.7559 12.4292C38.7561 12.7592 38.6909 13.086 38.5641 13.3907C38.4373 13.6954 38.2514 13.972 38.0172 14.2045Z" fill="url(#paint1_radial_0_744)"/>
<path d="M33.1336 7.37207C33.5968 7.37207 34.0436 7.53265 34.3992 7.82324L34.5457 7.95508L34.5486 7.95898L37.6658 11.0117C37.8056 11.1507 37.9233 11.3095 38.0164 11.4824L38.1014 11.6602C38.1777 11.843 38.2264 12.036 38.2459 12.2324L38.2557 12.4297C38.2557 12.6276 38.2262 12.824 38.1688 13.0127L38.1024 13.1982C38.0262 13.3812 37.9234 13.5519 37.7977 13.7041L37.6649 13.8496L17.6014 33.9131C17.2263 34.2879 16.7175 34.499 16.1873 34.499C15.7235 34.499 15.2765 34.3372 14.9207 34.0459L14.7742 33.9131L3.5838 22.6641L3.45099 22.5166C3.16012 22.161 2.99893 21.7144 2.99884 21.251C2.99884 20.7211 3.20944 20.2129 3.5838 19.8379L3.58282 19.8369L6.70685 16.7129L6.70782 16.7139C7.08265 16.3406 7.58998 16.1309 8.11896 16.1309C8.58174 16.1309 9.02819 16.2909 9.38361 16.5811L9.53009 16.7139L9.53497 16.7178L15.9022 22.8936L16.2527 23.2334L16.6014 22.8896L31.7205 7.95703L31.7215 7.95508C32.0964 7.5815 32.6044 7.37207 33.1336 7.37207Z" stroke="url(#paint2_linear_0_744)" stroke-opacity="0.3"/>
</g>
</g>
<defs>
<filter id="filter0_d_0_744" x="-3.50116" y="4.87207" width="48.2571" height="40.1265" filterUnits="userSpaceOnUse" color-interpolation-filters="sRGB">
<feFlood flood-opacity="0" result="BackgroundImageFix"/>
<feColorMatrix in="SourceAlpha" type="matrix" values="0 0 0 0 0 0 0 0 0 0 0 0 0 0 0 0 0 0 127 0" result="hardAlpha"/>
<feMorphology radius="2" operator="erode" in="SourceAlpha" result="effect1_dropShadow_0_744"/>
<feOffset dy="4"/>
<feGaussianBlur stdDeviation="4"/>
<feComposite in2="hardAlpha" operator="out"/>
<feColorMatrix type="matrix" values="0 0 0 0 1 0 0 0 0 0.384314 0 0 0 0 0.254902 0 0 0 0.48 0"/>
<feBlend mode="normal" in2="BackgroundImageFix" result="effect1_dropShadow_0_744"/>
<feBlend mode="normal" in="SourceGraphic" in2="effect1_dropShadow_0_744" result="shape"/>
</filter>
<linearGradient id="paint0_linear_0_744" x1="20.6274" y1="6.87207" x2="20.6274" y2="34.9987" gradientUnits="userSpaceOnUse">
<stop stop-color="#E32CC4"/>
<stop offset="1" stop-color="#E9305E"/>
</linearGradient>
<radialGradient id="paint1_radial_0_744" cx="0" cy="0" r="1" gradientUnits="userSpaceOnUse" gradientTransform="translate(20.6274 6.87207) rotate(90) scale(28.1266 36.2571)">
<stop stop-color="white" stop-opacity="0.3"/>
<stop offset="1" stop-color="white" stop-opacity="0"/>
</radialGradient>
<linearGradient id="paint2_linear_0_744" x1="2.49884" y1="20.9354" x2="38.7559" y2="20.9354" gradientUnits="userSpaceOnUse">
<stop stop-color="white" stop-opacity="0"/>
<stop offset="1" stop-color="white"/>
</linearGradient>
<clipPath id="clip0_0_744">
<rect width="40" height="40" fill="white"/>
</clipPath>
</defs>
</svg>
