<svg width="44" height="44" viewBox="0 0 44 44" fill="none" xmlns="http://www.w3.org/2000/svg">
<path d="M39.5217 22.4955L32.5806 7.75942C32.0144 6.5575 30.4847 6.1829 29.4273 6.98736L27.1814 8.69588C26.7013 9.06111 24.3507 10.937 22.0001 10.937C19.6496 10.937 17.299 9.06111 16.8189 8.69588L14.573 6.98736C13.5156 6.18298 11.9858 6.55758 11.4197 7.75942L4.47852 22.4954H39.5217V22.4955Z" fill="url(#paint0_linear_196_9186)"/>
<path d="M39.5217 22.4955L32.5806 7.75942C32.0144 6.5575 30.4847 6.1829 29.4273 6.98736L27.1814 8.69588C26.7013 9.06111 24.3507 10.937 22.0001 10.937C19.6496 10.937 17.299 9.06111 16.8189 8.69588L14.573 6.98736C13.5156 6.18298 11.9858 6.55758 11.4197 7.75942L4.47852 22.4954H39.5217V22.4955Z" fill="url(#paint1_linear_196_9186)"/>
<path d="M41.1313 24.3924L43.9619 8.42078C44.3077 6.46974 42.2273 4.99626 40.5015 5.96993L34.0361 9.61789C30.7544 11.4695 26.5998 10.4706 24.5185 7.32946L23.2138 5.36038C22.638 4.4912 21.362 4.4912 20.7861 5.36038L19.4814 7.32946C17.4002 10.4706 13.2455 11.4695 9.96382 9.61789L3.4984 5.96993C1.77269 4.99626 -0.307773 6.46974 0.0380398 8.42078L2.86865 24.3924H41.1313Z" fill="url(#paint2_linear_196_9186)"/>
<path d="M31.5824 10.4634C30.8647 10.5719 30.1403 10.5705 29.4332 10.4634H14.5675C13.8604 10.5705 13.136 10.5719 12.4183 10.4634H0.400391L2.86895 24.3922H41.1317L43.6002 10.4634H31.5824Z" fill="url(#paint3_linear_196_9186)"/>
<path d="M41.1313 24.3923L43.9619 8.42074C44.3077 6.4697 42.2273 4.99622 40.5016 5.96989L34.0361 9.61785C30.7545 11.4695 26.5998 10.4705 24.5186 7.32942L23.2139 5.36033C22.9259 4.92575 22.4629 4.7085 22 4.7085V24.3924H41.1313V24.3923Z" fill="url(#paint4_linear_196_9186)"/>
<path d="M21.9998 17.1974C24.1743 17.1974 25.9371 15.4346 25.9371 13.2601C25.9371 11.0855 24.1743 9.32275 21.9998 9.32275C19.8253 9.32275 18.0625 11.0855 18.0625 13.2601C18.0625 15.4346 19.8253 17.1974 21.9998 17.1974Z" fill="url(#paint5_linear_196_9186)"/>
<path d="M22.0002 16.1802C23.613 16.1802 24.9204 14.8728 24.9204 13.26C24.9204 11.6472 23.613 10.3398 22.0002 10.3398C20.3875 10.3398 19.0801 11.6472 19.0801 13.26C19.0801 14.8728 20.3875 16.1802 22.0002 16.1802Z" fill="url(#paint6_linear_196_9186)"/>
<path d="M19.0801 13.2603C19.0801 14.8731 20.3874 16.1804 22.0002 16.1804C23.613 16.1804 24.9204 14.873 24.9204 13.2603C24.9204 12.911 24.8589 12.5761 24.7464 12.2656H19.254C19.1416 12.5761 19.0801 12.9109 19.0801 13.2603Z" fill="url(#paint7_linear_196_9186)"/>
<path d="M19.9357 15.3252C21.0761 16.4656 22.9251 16.4656 24.0654 15.3252C25.2058 14.1848 25.2058 12.3359 24.0654 11.1955C23.8185 10.9485 23.5381 10.7552 23.2392 10.6152L19.3555 14.4989C19.4955 14.7979 19.6887 15.0782 19.9357 15.3252Z" fill="url(#paint8_linear_196_9186)"/>
<path d="M6.89349 18.8495C8.43112 18.8495 9.67761 17.603 9.67761 16.0654C9.67761 14.5277 8.43112 13.2812 6.89349 13.2812C5.35587 13.2812 4.10938 14.5277 4.10938 16.0654C4.10938 17.603 5.35587 18.8495 6.89349 18.8495Z" fill="url(#paint9_linear_196_9186)"/>
<path d="M6.89303 18.1303C8.03345 18.1303 8.95794 17.2058 8.95794 16.0654C8.95794 14.925 8.03345 14.0005 6.89303 14.0005C5.75262 14.0005 4.82812 14.925 4.82812 16.0654C4.82812 17.2058 5.75262 18.1303 6.89303 18.1303Z" fill="url(#paint10_linear_196_9186)"/>
<path d="M4.82812 16.0651C4.82812 17.2055 5.75264 18.13 6.89303 18.13C8.03342 18.13 8.95794 17.2055 8.95794 16.0651C8.95794 15.8181 8.91445 15.5814 8.83487 15.3618H4.9511C4.87161 15.5814 4.82812 15.8181 4.82812 16.0651Z" fill="url(#paint11_linear_196_9186)"/>
<path d="M5.43379 17.5252C6.24014 18.3316 7.54759 18.3316 8.35394 17.5252C9.1603 16.7189 9.1603 15.4114 8.35394 14.6051C8.17932 14.4305 7.98115 14.2938 7.76966 14.1948L5.02344 16.941C5.12252 17.1525 5.25916 17.3506 5.43379 17.5252Z" fill="url(#paint12_linear_196_9186)"/>
<path d="M37.1044 18.8495C38.6421 18.8495 39.8885 17.603 39.8885 16.0654C39.8885 14.5277 38.6421 13.2812 37.1044 13.2812C35.5668 13.2812 34.3203 14.5277 34.3203 16.0654C34.3203 17.603 35.5668 18.8495 37.1044 18.8495Z" fill="url(#paint13_linear_196_9186)"/>
<path d="M37.104 18.1303C38.2444 18.1303 39.1689 17.2058 39.1689 16.0654C39.1689 14.925 38.2444 14.0005 37.104 14.0005C35.9636 14.0005 35.0391 14.925 35.0391 16.0654C35.0391 17.2058 35.9636 18.1303 37.104 18.1303Z" fill="url(#paint14_linear_196_9186)"/>
<path d="M35.0391 16.0651C35.0391 17.2055 35.9636 18.13 37.104 18.13C38.2444 18.13 39.1689 17.2055 39.1689 16.0651C39.1689 15.8181 39.1254 15.5814 39.0458 15.3618H35.1621C35.0825 15.5814 35.0391 15.8181 35.0391 16.0651Z" fill="url(#paint15_linear_196_9186)"/>
<path d="M35.6447 17.5252C36.4511 18.3316 37.7585 18.3316 38.5649 17.5252C39.3712 16.7189 39.3712 15.4114 38.5649 14.6051C38.3903 14.4305 38.1921 14.2938 37.9806 14.1948L35.2344 16.941C35.3335 17.1525 35.4701 17.3506 35.6447 17.5252Z" fill="url(#paint16_linear_196_9186)"/>
<path d="M24.9872 17.8095C23.2912 16.277 20.7106 16.277 19.0145 17.8095C18.3087 18.4472 17.4177 18.8463 16.4707 18.9367C8.20742 19.7256 2.16602 22.2373 2.16602 25.2142V32.7569H41.8357V25.2142C41.8357 22.2372 35.7943 19.7255 27.531 18.9367C26.5841 18.8463 25.693 18.4471 24.9872 17.8095Z" fill="url(#paint17_linear_196_9186)"/>
<path d="M24.9872 17.8095C23.2912 16.277 20.7106 16.277 19.0145 17.8095C18.3087 18.4472 17.4177 18.8463 16.4707 18.9367C8.20742 19.7256 2.16602 22.2373 2.16602 25.2142V32.7569H41.8357V25.2142C41.8357 22.2372 35.7943 19.7255 27.531 18.9367C26.5841 18.8463 25.693 18.4471 24.9872 17.8095Z" fill="url(#paint18_linear_196_9186)"/>
<path d="M41.8351 28.4258V32.7565H2.16602V28.4258C2.16602 24.8162 11.0458 21.8901 22.0006 21.8901C32.9554 21.8901 41.8351 24.8162 41.8351 28.4258Z" fill="url(#paint19_linear_196_9186)"/>
<path d="M41.8351 28.4258V32.7565H2.16602V28.4258C2.16602 24.8162 11.0458 21.8901 22.0006 21.8901C32.9554 21.8901 41.8351 24.8162 41.8351 28.4258Z" fill="url(#paint20_linear_196_9186)"/>
<path d="M41.8348 32.7568V25.2142C41.8348 22.2372 35.7934 19.7255 27.5301 18.9367C26.5831 18.8463 25.6921 18.4472 24.9863 17.8095C24.1383 17.0433 23.0691 16.6602 22 16.6602V32.7568H41.8348Z" fill="url(#paint21_linear_196_9186)"/>
<path d="M41.8348 32.7568V25.2142C41.8348 22.2372 35.7934 19.7255 27.5301 18.9367C26.5831 18.8463 25.6921 18.4472 24.9863 17.8095C24.1383 17.0433 23.0691 16.6602 22 16.6602V32.7568H41.8348Z" fill="url(#paint22_linear_196_9186)"/>
<path d="M22.0008 39.2923C32.9553 39.2923 41.8356 36.3663 41.8356 32.757C41.8356 29.1476 32.9553 26.2217 22.0008 26.2217C11.0464 26.2217 2.16602 29.1476 2.16602 32.757C2.16602 36.3663 11.0464 39.2923 22.0008 39.2923Z" fill="url(#paint23_linear_196_9186)"/>
<path d="M2.16602 32.7569C2.16602 31.4568 3.31844 30.2455 5.30471 29.2275H38.6969C40.6832 30.2455 41.8356 31.4568 41.8356 32.7569C41.8356 36.3662 32.9553 39.2922 22.0008 39.2922C11.0464 39.2921 2.16602 36.3662 2.16602 32.7569Z" fill="url(#paint24_linear_196_9186)"/>
<path d="M22.0005 37.0304C30.3432 37.0304 37.1064 35.3348 37.1064 33.2432C37.1064 31.1516 30.3432 29.4561 22.0005 29.4561C13.6577 29.4561 6.89453 31.1516 6.89453 33.2432C6.89453 35.3348 13.6577 37.0304 22.0005 37.0304Z" fill="url(#paint25_linear_196_9186)"/>
<path d="M22.0005 37.0304C30.3432 37.0304 37.1064 35.3348 37.1064 33.2432C37.1064 31.1516 30.3432 29.4561 22.0005 29.4561C13.6577 29.4561 6.89453 31.1516 6.89453 33.2432C6.89453 35.3348 13.6577 37.0304 22.0005 37.0304Z" fill="url(#paint26_linear_196_9186)"/>
<path d="M23.1406 26.2329C33.5645 26.4276 41.8355 29.274 41.8355 32.7572C41.8355 36.2404 33.5645 39.0868 23.1406 39.2815V26.2329Z" fill="url(#paint27_linear_196_9186)"/>
<path d="M41.8339 29.8209V29.4552C41.8339 25.8466 32.9542 22.9204 21.9994 22.9204C11.0446 22.9204 2.16485 25.8466 2.16485 29.4552V29.8209C1.92818 29.3852 1.80469 28.9348 1.80469 28.4753C1.80469 28.0157 1.92809 27.5653 2.16485 27.1296C3.94986 23.8434 12.1516 21.3594 21.9994 21.3594C31.8471 21.3594 40.0489 23.8434 41.8339 27.1296C42.0706 27.5653 42.1941 28.0157 42.1941 28.4753C42.1941 28.9348 42.0706 29.3852 41.8339 29.8209Z" fill="url(#paint28_linear_196_9186)"/>
<path d="M41.8339 29.8209V29.4552C41.8339 25.8466 32.9542 22.9204 21.9994 22.9204C11.0446 22.9204 2.16485 25.8466 2.16485 29.4552V29.8209C1.92818 29.3852 1.80469 28.9348 1.80469 28.4753C1.80469 28.0157 1.92809 27.5653 2.16485 27.1296C3.94986 23.8434 12.1516 21.3594 21.9994 21.3594C31.8471 21.3594 40.0489 23.8434 41.8339 27.1296C42.0706 27.5653 42.1941 28.0157 42.1941 28.4753C42.1941 28.9348 42.0706 29.3852 41.8339 29.8209Z" fill="url(#paint29_linear_196_9186)"/>
<defs>
<linearGradient id="paint0_linear_196_9186" x1="9.85803" y1="10.6196" x2="25.6894" y2="18.384" gradientUnits="userSpaceOnUse">
<stop stop-color="#FEF0AE"/>
<stop offset="1" stop-color="#FBC56D"/>
</linearGradient>
<linearGradient id="paint1_linear_196_9186" x1="22.0001" y1="0.786622" x2="22.0001" y2="11.2909" gradientUnits="userSpaceOnUse">
<stop stop-color="#DC8758" stop-opacity="0"/>
<stop offset="0.2153" stop-color="#DD8654" stop-opacity="0.215"/>
<stop offset="0.4291" stop-color="#E28448" stop-opacity="0.429"/>
<stop offset="0.6424" stop-color="#EA8034" stop-opacity="0.642"/>
<stop offset="0.8543" stop-color="#F47B18" stop-opacity="0.854"/>
<stop offset="1" stop-color="#FE7701"/>
</linearGradient>
<linearGradient id="paint2_linear_196_9186" x1="16.2266" y1="14.5504" x2="25.019" y2="14.5504" gradientUnits="userSpaceOnUse">
<stop stop-color="#FEF0AE"/>
<stop offset="1" stop-color="#FBC56D"/>
</linearGradient>
<linearGradient id="paint3_linear_196_9186" x1="22.0004" y1="15.3878" x2="22.0004" y2="25.434" gradientUnits="userSpaceOnUse">
<stop stop-color="#DC8758" stop-opacity="0"/>
<stop offset="0.2153" stop-color="#DD8654" stop-opacity="0.215"/>
<stop offset="0.4291" stop-color="#E28448" stop-opacity="0.429"/>
<stop offset="0.6424" stop-color="#EA8034" stop-opacity="0.642"/>
<stop offset="0.8543" stop-color="#F47B18" stop-opacity="0.854"/>
<stop offset="1" stop-color="#FE7701"/>
</linearGradient>
<linearGradient id="paint4_linear_196_9186" x1="36.1243" y1="15.864" x2="42.0335" y2="17.0459" gradientUnits="userSpaceOnUse">
<stop stop-color="#DC8758" stop-opacity="0"/>
<stop offset="0.2153" stop-color="#DD8654" stop-opacity="0.215"/>
<stop offset="0.4291" stop-color="#E28448" stop-opacity="0.429"/>
<stop offset="0.6424" stop-color="#EA8034" stop-opacity="0.642"/>
<stop offset="0.8543" stop-color="#F47B18" stop-opacity="0.854"/>
<stop offset="1" stop-color="#FE7701"/>
</linearGradient>
<linearGradient id="paint5_linear_196_9186" x1="24.0556" y1="15.3159" x2="19.325" y2="10.5853" gradientUnits="userSpaceOnUse">
<stop stop-color="#FEF0AE"/>
<stop offset="1" stop-color="#FBC56D"/>
</linearGradient>
<linearGradient id="paint6_linear_196_9186" x1="20.6702" y1="11.8143" x2="23.23" y2="14.5967" gradientUnits="userSpaceOnUse">
<stop stop-color="#FD4755"/>
<stop offset="0.3362" stop-color="#E43F48"/>
<stop offset="1" stop-color="#A72B2B"/>
</linearGradient>
<linearGradient id="paint7_linear_196_9186" x1="22.0002" y1="13.1029" x2="22.0002" y2="16.3058" gradientUnits="userSpaceOnUse">
<stop stop-color="#A72B2B" stop-opacity="0"/>
<stop offset="1" stop-color="#481F05"/>
</linearGradient>
<linearGradient id="paint8_linear_196_9186" x1="22.4562" y1="13.6143" x2="24.2864" y2="15.0365" gradientUnits="userSpaceOnUse">
<stop stop-color="#A72B2B" stop-opacity="0"/>
<stop offset="1" stop-color="#481F05"/>
</linearGradient>
<linearGradient id="paint9_linear_196_9186" x1="8.34721" y1="17.5191" x2="5.00218" y2="14.174" gradientUnits="userSpaceOnUse">
<stop stop-color="#FEF0AE"/>
<stop offset="1" stop-color="#FBC56D"/>
</linearGradient>
<linearGradient id="paint10_linear_196_9186" x1="5.95262" y1="15.0432" x2="7.76263" y2="17.0106" gradientUnits="userSpaceOnUse">
<stop stop-color="#BBEC6C"/>
<stop offset="1" stop-color="#81B823"/>
</linearGradient>
<linearGradient id="paint11_linear_196_9186" x1="6.89303" y1="15.9538" x2="6.89303" y2="18.2186" gradientUnits="userSpaceOnUse">
<stop stop-color="#026841" stop-opacity="0"/>
<stop offset="0.2391" stop-color="#0A6644" stop-opacity="0.239"/>
<stop offset="0.6113" stop-color="#20604D" stop-opacity="0.611"/>
<stop offset="1" stop-color="#3E5959"/>
</linearGradient>
<linearGradient id="paint12_linear_196_9186" x1="7.21605" y1="16.3155" x2="8.51018" y2="17.3211" gradientUnits="userSpaceOnUse">
<stop stop-color="#026841" stop-opacity="0"/>
<stop offset="0.2391" stop-color="#0A6644" stop-opacity="0.239"/>
<stop offset="0.6113" stop-color="#20604D" stop-opacity="0.611"/>
<stop offset="1" stop-color="#3E5959"/>
</linearGradient>
<linearGradient id="paint13_linear_196_9186" x1="38.5581" y1="17.5191" x2="35.213" y2="14.174" gradientUnits="userSpaceOnUse">
<stop stop-color="#FEF0AE"/>
<stop offset="1" stop-color="#FBC56D"/>
</linearGradient>
<linearGradient id="paint14_linear_196_9186" x1="36.1635" y1="15.0432" x2="37.9735" y2="17.0106" gradientUnits="userSpaceOnUse">
<stop stop-color="#BBEC6C"/>
<stop offset="1" stop-color="#81B823"/>
</linearGradient>
<linearGradient id="paint15_linear_196_9186" x1="37.104" y1="15.9538" x2="37.104" y2="18.2186" gradientUnits="userSpaceOnUse">
<stop stop-color="#026841" stop-opacity="0"/>
<stop offset="0.2391" stop-color="#0A6644" stop-opacity="0.239"/>
<stop offset="0.6113" stop-color="#20604D" stop-opacity="0.611"/>
<stop offset="1" stop-color="#3E5959"/>
</linearGradient>
<linearGradient id="paint16_linear_196_9186" x1="37.427" y1="16.3155" x2="38.7211" y2="17.3211" gradientUnits="userSpaceOnUse">
<stop stop-color="#026841" stop-opacity="0"/>
<stop offset="0.2391" stop-color="#0A6644" stop-opacity="0.239"/>
<stop offset="0.6113" stop-color="#20604D" stop-opacity="0.611"/>
<stop offset="1" stop-color="#3E5959"/>
</linearGradient>
<linearGradient id="paint17_linear_196_9186" x1="12.879" y1="24.7085" x2="29.0357" y2="24.7085" gradientUnits="userSpaceOnUse">
<stop stop-color="#FEF0AE"/>
<stop offset="1" stop-color="#FBC56D"/>
</linearGradient>
<linearGradient id="paint18_linear_196_9186" x1="20.2416" y1="17.5381" x2="22.6052" y2="32.8036" gradientUnits="userSpaceOnUse">
<stop stop-color="#DC8758" stop-opacity="0"/>
<stop offset="0.2153" stop-color="#DD8654" stop-opacity="0.215"/>
<stop offset="0.4291" stop-color="#E28448" stop-opacity="0.429"/>
<stop offset="0.6424" stop-color="#EA8034" stop-opacity="0.642"/>
<stop offset="0.8543" stop-color="#F47B18" stop-opacity="0.854"/>
<stop offset="1" stop-color="#FE7701"/>
</linearGradient>
<linearGradient id="paint19_linear_196_9186" x1="22.7192" y1="26.5395" x2="23.507" y2="22.2061" gradientUnits="userSpaceOnUse">
<stop stop-color="#DC8758" stop-opacity="0"/>
<stop offset="0.2153" stop-color="#DD8654" stop-opacity="0.215"/>
<stop offset="0.4291" stop-color="#E28448" stop-opacity="0.429"/>
<stop offset="0.6424" stop-color="#EA8034" stop-opacity="0.642"/>
<stop offset="0.8543" stop-color="#F47B18" stop-opacity="0.854"/>
<stop offset="1" stop-color="#FE7701"/>
</linearGradient>
<linearGradient id="paint20_linear_196_9186" x1="20.0312" y1="25.0141" x2="18.3241" y2="20.3524" gradientUnits="userSpaceOnUse">
<stop stop-color="#DC8758" stop-opacity="0"/>
<stop offset="0.2153" stop-color="#DD8654" stop-opacity="0.215"/>
<stop offset="0.4291" stop-color="#E28448" stop-opacity="0.429"/>
<stop offset="0.6424" stop-color="#EA8034" stop-opacity="0.642"/>
<stop offset="0.8543" stop-color="#F47B18" stop-opacity="0.854"/>
<stop offset="1" stop-color="#FE7701"/>
</linearGradient>
<linearGradient id="paint21_linear_196_9186" x1="36.6135" y1="24.7085" x2="40.792" y2="24.7085" gradientUnits="userSpaceOnUse">
<stop stop-color="#DC8758" stop-opacity="0"/>
<stop offset="0.2153" stop-color="#DD8654" stop-opacity="0.215"/>
<stop offset="0.4291" stop-color="#E28448" stop-opacity="0.429"/>
<stop offset="0.6424" stop-color="#EA8034" stop-opacity="0.642"/>
<stop offset="0.8543" stop-color="#F47B18" stop-opacity="0.854"/>
<stop offset="1" stop-color="#FE7701"/>
</linearGradient>
<linearGradient id="paint22_linear_196_9186" x1="24.0131" y1="22.8414" x2="17.8084" y2="18.6065" gradientUnits="userSpaceOnUse">
<stop stop-color="#DC8758" stop-opacity="0"/>
<stop offset="0.2153" stop-color="#DD8654" stop-opacity="0.215"/>
<stop offset="0.4291" stop-color="#E28448" stop-opacity="0.429"/>
<stop offset="0.6424" stop-color="#EA8034" stop-opacity="0.642"/>
<stop offset="0.8543" stop-color="#F47B18" stop-opacity="0.854"/>
<stop offset="1" stop-color="#FE7701"/>
</linearGradient>
<linearGradient id="paint23_linear_196_9186" x1="22.0008" y1="26.8876" x2="22.0008" y2="39.0434" gradientUnits="userSpaceOnUse">
<stop stop-color="#FEF0AE"/>
<stop offset="1" stop-color="#FBC56D"/>
</linearGradient>
<linearGradient id="paint24_linear_196_9186" x1="22.0008" y1="34.3241" x2="22.0008" y2="39.7649" gradientUnits="userSpaceOnUse">
<stop stop-color="#DC8758" stop-opacity="0"/>
<stop offset="0.2153" stop-color="#DD8654" stop-opacity="0.215"/>
<stop offset="0.4291" stop-color="#E28448" stop-opacity="0.429"/>
<stop offset="0.6424" stop-color="#EA8034" stop-opacity="0.642"/>
<stop offset="0.8543" stop-color="#F47B18" stop-opacity="0.854"/>
<stop offset="1" stop-color="#FE7701"/>
</linearGradient>
<linearGradient id="paint25_linear_196_9186" x1="19.6269" y1="22.5471" x2="23.4051" y2="39.5726" gradientUnits="userSpaceOnUse">
<stop stop-color="#DC8758" stop-opacity="0"/>
<stop offset="0.2153" stop-color="#DD8654" stop-opacity="0.215"/>
<stop offset="0.4291" stop-color="#E28448" stop-opacity="0.429"/>
<stop offset="0.6424" stop-color="#EA8034" stop-opacity="0.642"/>
<stop offset="0.8543" stop-color="#F47B18" stop-opacity="0.854"/>
<stop offset="1" stop-color="#FE7701"/>
</linearGradient>
<linearGradient id="paint26_linear_196_9186" x1="22.0005" y1="34.8062" x2="22.0005" y2="29.3992" gradientUnits="userSpaceOnUse">
<stop stop-color="#DC8758" stop-opacity="0"/>
<stop offset="0.2153" stop-color="#DD8654" stop-opacity="0.215"/>
<stop offset="0.4291" stop-color="#E28448" stop-opacity="0.429"/>
<stop offset="0.6424" stop-color="#EA8034" stop-opacity="0.642"/>
<stop offset="0.8543" stop-color="#F47B18" stop-opacity="0.854"/>
<stop offset="1" stop-color="#FE7701"/>
</linearGradient>
<linearGradient id="paint27_linear_196_9186" x1="31.077" y1="34.2806" x2="38.3898" y2="39.6637" gradientUnits="userSpaceOnUse">
<stop stop-color="#DC8758" stop-opacity="0"/>
<stop offset="0.2153" stop-color="#DD8654" stop-opacity="0.215"/>
<stop offset="0.4291" stop-color="#E28448" stop-opacity="0.429"/>
<stop offset="0.6424" stop-color="#EA8034" stop-opacity="0.642"/>
<stop offset="0.8543" stop-color="#F47B18" stop-opacity="0.854"/>
<stop offset="1" stop-color="#FE7701"/>
</linearGradient>
<linearGradient id="paint28_linear_196_9186" x1="19.0822" y1="25.5902" x2="27.9031" y2="25.5902" gradientUnits="userSpaceOnUse">
<stop stop-color="#FD4755"/>
<stop offset="0.3362" stop-color="#E43F48"/>
<stop offset="1" stop-color="#A72B2B"/>
</linearGradient>
<linearGradient id="paint29_linear_196_9186" x1="21.9994" y1="22.1834" x2="21.9994" y2="27.7644" gradientUnits="userSpaceOnUse">
<stop stop-color="#A72B2B" stop-opacity="0"/>
<stop offset="1" stop-color="#481F05"/>
</linearGradient>
</defs>
</svg>
