<svg width="22" height="22" viewBox="0 0 22 22" fill="none" xmlns="http://www.w3.org/2000/svg">
<path fill-rule="evenodd" clip-rule="evenodd" d="M15.6627 17.178C11.8765 20.2104 6.33423 19.9718 2.82442 16.462C-0.941474 12.6961 -0.941474 6.59032 2.82442 2.82442C6.59032 -0.941475 12.696 -0.941475 16.4619 2.82442C19.9717 6.33423 20.2104 11.8765 17.178 15.6627L21.6862 20.1709C22.1046 20.5893 22.1046 21.2677 21.6862 21.6862C21.2677 22.1046 20.5893 22.1046 20.1709 21.6862L15.6627 17.178ZM4.3397 14.9467C1.41067 12.0176 1.41067 7.26874 4.3397 4.33971C7.26873 1.41067 12.0176 1.41067 14.9467 4.33971C17.8735 7.26659 17.8757 12.0107 14.9531 14.9402C14.9509 14.9423 14.9488 14.9445 14.9466 14.9466C14.9445 14.9488 14.9423 14.9509 14.9402 14.9531C12.0107 17.8757 7.26659 17.8736 4.3397 14.9467Z" fill="#E1712C"/>
</svg>
