<?xml version="1.0" encoding="utf-8"?><svg viewBox="0 0 50 50" xmlns="http://www.w3.org/2000/svg" xmlns:xlink="http://www.w3.org/1999/xlink"><style>:root>svg{display:none}:root>svg:target{display:block}</style><svg viewBox="0 0 12 20" id="facebook" xmlns="http://www.w3.org/2000/svg"><path d="M8.2.875A4.625 4.625 0 003.575 5.5v2.575H1.1c-.124 0-.225.1-.225.225v3.4c0 .124.1.225.225.225h2.475V18.9c0 .124.1.225.225.225h3.4c.124 0 .225-.1.225-.225v-6.975h2.497c.103 0 .193-.07.218-.17l.85-3.4a.225.225 0 00-.218-.28H7.425V5.5a.775.775 0 01.775-.775h2.6c.124 0 .225-.1.225-.225V1.1c0-.124-.1-.225-.225-.225H8.2z"/></svg><svg viewBox="0 0 20 20" id="insta" xmlns="http://www.w3.org/2000/svg"><path d="M10 6.75a3.25 3.25 0 100 6.5 3.25 3.25 0 000-6.5z"/><path fill-rule="evenodd" clip-rule="evenodd" d="M4.77 1.082a47.472 47.472 0 0110.461 0c1.899.212 3.43 1.707 3.653 3.613a45.68 45.68 0 010 10.61c-.223 1.906-1.754 3.401-3.653 3.614a47.469 47.469 0 01-10.46 0c-1.9-.213-3.43-1.708-3.653-3.613a45.672 45.672 0 010-10.611C1.34 2.789 2.872 1.294 4.77 1.082zM15 4a1 1 0 100 2 1 1 0 000-2zm-9.75 6a4.75 4.75 0 119.5 0 4.75 4.75 0 01-9.5 0z"/></svg><svg viewBox="0 0 20 21" id="linke" xmlns="http://www.w3.org/2000/svg"><path d="M2.75.875a2.125 2.125 0 100 4.25 2.125 2.125 0 000-4.25zm-2 6A.125.125 0 00.625 7v13c0 .069.056.125.125.125h4A.125.125 0 004.875 20V7a.125.125 0 00-.125-.125h-4zm6.5 0A.125.125 0 007.125 7v13c0 .069.056.125.125.125h4a.125.125 0 00.125-.125v-7a1.875 1.875 0 113.75 0v7c0 .069.056.125.125.125h4a.125.125 0 00.125-.125v-8.62c0-2.427-2.11-4.325-4.525-4.106a7.168 7.168 0 00-2.168.548l-1.307.56V7a.125.125 0 00-.125-.125h-4z"/></svg><svg viewBox="0 0 21 18" id="telegram" xmlns="http://www.w3.org/2000/svg"><path fill-rule="evenodd" clip-rule="evenodd" d="M17.482 16.79l.001-.002.017-.043 3-15.12v-.048c0-.377-.14-.706-.443-.903-.265-.173-.57-.185-.783-.169-.226.017-.44.074-.587.12a3.233 3.233 0 00-.24.088l-.013.005-16.72 6.56H1.71a1.753 1.753 0 00-.15.062 2.24 2.24 0 00-.341.191c-.215.147-.624.495-.555 1.048.057.457.373.748.585.898a2.068 2.068 0 00.435.234l.01.004.008.002 2.925.985c-.01.184.008.37.057.555l1.465 5.559a1.5 1.5 0 002.835.196l2.287-2.446 3.93 3.012.055.024c.357.156.69.206.995.164.305-.042.547-.17.729-.315a1.74 1.74 0 00.491-.634l.008-.018.002-.006.001-.003zM6.134 10.875a.3.3 0 01.13-.33l9.922-6.3s.583-.355.562 0c0 0 .104.062-.208.354-.297.277-7.072 6.818-7.758 7.48a.278.278 0 00-.077.135L7.6 16.434l-1.465-5.559z"/></svg><svg viewBox="0 0 20 17" id="twitter" xmlns="http://www.w3.org/2000/svg"><path d="M19.809 2.227c.058-.08-.028-.185-.12-.149a8.49 8.49 0 01-2.05.513A4.13 4.13 0 0019.36.57c.034-.086-.06-.163-.14-.118a8.21 8.21 0 01-2.325.857.1.1 0 01-.093-.03A4.1 4.1 0 009.81 4.93a.102.102 0 01-.105.123A11.64 11.64 0 011.482.883a.098.098 0 00-.163.015 4.16 4.16 0 00-.48 1.943 4.09 4.09 0 001.82 3.41A4.05 4.05 0 01.95 5.82c-.068-.035-.15.014-.147.09a4.23 4.23 0 00.933 2.468A4.1 4.1 0 004.1 9.79a3.93 3.93 0 01-1.1.17 4.9 4.9 0 01-.606-.045c-.075-.01-.136.06-.11.13A4.11 4.11 0 006.06 12.73a8.22 8.22 0 01-5.625 1.741c-.106-.007-.155.134-.064.189a11.57 11.57 0 005.919 1.62A11.59 11.59 0 0018 4.6v-.48a.1.1 0 01.04-.08 8.429 8.429 0 001.77-1.814z"/></svg><svg viewBox="0 0 50 50" id="whats" xmlns="http://www.w3.org/2000/svg"><path d="M25 2C12.318 2 2 12.318 2 25c0 3.96 1.023 7.854 2.963 11.29L2.037 46.73a.999.999 0 001.203 1.241l10.896-2.699A23.014 23.014 0 0025 48c12.682 0 23-10.318 23-23S37.682 2 25 2zm11.57 31.116c-.492 1.362-2.852 2.605-3.986 2.772-1.018.149-2.306.213-3.72-.231a34.606 34.606 0 01-3.366-1.229c-5.923-2.526-9.791-8.415-10.087-8.804-.295-.389-2.411-3.161-2.411-6.03s1.525-4.28 2.067-4.864c.542-.584 1.181-.73 1.575-.73s.787.005 1.132.021c.363.018.85-.137 1.329 1.001.492 1.168 1.673 4.037 1.819 4.33.148.292.246.633.05 1.022s-.294.632-.59.973-.62.76-.886 1.022c-.296.291-.603.606-.259 1.19s1.529 2.493 3.285 4.039c2.255 1.986 4.158 2.602 4.748 2.894.59.292.935.243 1.279-.146.344-.39 1.476-1.703 1.869-2.286s.787-.487 1.329-.292c.542.194 3.445 1.604 4.035 1.896.59.292.984.438 1.132.681.148.242.148 1.41-.344 2.771z"/></svg></svg>