<svg width="18" height="12" viewBox="0 0 18 12" fill="none" xmlns="http://www.w3.org/2000/svg">
<path fill-rule="evenodd" clip-rule="evenodd" d="M8.43715 5.94212L3.99985 -5.97623e-07L0.0770168 -7.69096e-07L4.5529 5.94212L0.0770168 11.8842L-0.000152588 12L3.88409 12L4.00628 11.8842L8.44358 5.94212L8.43715 5.94212ZM17.6719 5.98071L14.6622 1.94212L12.0063 1.94212L15.0545 5.98714L12.0063 10.0257L11.9677 10.1029L14.5851 10.1029L14.6622 10.0257L17.6719 5.98071ZM13.4725 5.98071L9.70403 0.990353L6.45644 0.990353L10.1799 5.98071L6.45644 10.9711L6.37927 11.0482L9.62686 11.0482L9.70403 10.9711L13.4661 5.98071L13.4725 5.98071Z" fill="white"/>
</svg>
