<svg width="37" height="29" viewBox="0 0 37 29" fill="none" xmlns="http://www.w3.org/2000/svg">
<path d="M36.0172 8.20451L15.9547 28.267C15.4859 28.7355 14.8502 28.9987 14.1875 28.9987C13.5247 28.9987 12.8891 28.7355 12.4203 28.267L1.22965 17.017C0.761644 16.5483 0.498779 15.913 0.498779 15.2506C0.498779 14.5882 0.761644 13.9529 1.22965 13.4842L4.35465 10.3592C4.82319 9.89262 5.45749 9.63066 6.11872 9.63066C6.77994 9.63066 7.41424 9.89262 7.88278 10.3592L14.25 16.5342L29.3687 1.60138C29.8373 1.13433 30.4719 0.87207 31.1336 0.87207C31.7952 0.87207 32.4298 1.13433 32.8984 1.60138L36.0156 4.65451C36.25 4.88681 36.4361 5.16324 36.5632 5.46783C36.6902 5.77242 36.7557 6.09915 36.7559 6.42918C36.756 6.75921 36.6908 7.08601 36.564 7.39071C36.4372 7.69541 36.2514 7.972 36.0172 8.20451Z" fill="url(#paint0_linear_0_869)"/>
<path d="M36.0172 8.20451L15.9547 28.267C15.4859 28.7355 14.8502 28.9987 14.1875 28.9987C13.5247 28.9987 12.8891 28.7355 12.4203 28.267L1.22965 17.017C0.761644 16.5483 0.498779 15.913 0.498779 15.2506C0.498779 14.5882 0.761644 13.9529 1.22965 13.4842L4.35465 10.3592C4.82319 9.89262 5.45749 9.63066 6.11872 9.63066C6.77994 9.63066 7.41424 9.89262 7.88278 10.3592L14.25 16.5342L29.3687 1.60138C29.8373 1.13433 30.4719 0.87207 31.1336 0.87207C31.7952 0.87207 32.4298 1.13433 32.8984 1.60138L36.0156 4.65451C36.25 4.88681 36.4361 5.16324 36.5632 5.46783C36.6902 5.77242 36.7557 6.09915 36.7559 6.42918C36.756 6.75921 36.6908 7.08601 36.564 7.39071C36.4372 7.69541 36.2514 7.972 36.0172 8.20451Z" fill="url(#paint1_radial_0_869)"/>
<path d="M31.1335 1.37207C31.5968 1.37207 32.0436 1.53265 32.3992 1.82324L32.5457 1.95508L32.5486 1.95898L35.6658 5.01172C35.8056 5.15065 35.9233 5.30951 36.0164 5.48242L36.1013 5.66016C36.1776 5.843 36.2263 6.036 36.2458 6.23242L36.2556 6.42969C36.2557 6.62764 36.2262 6.82401 36.1687 7.0127L36.1023 7.19824C36.0262 7.38124 35.9234 7.55186 35.7976 7.7041L35.6648 7.84961L15.6013 27.9131C15.2263 28.2879 14.7175 28.499 14.1873 28.499C13.7234 28.499 13.2764 28.3372 12.9207 28.0459L12.7742 27.9131L1.58374 16.6641L1.45093 16.5166C1.16006 16.161 0.998866 15.7144 0.998779 15.251C0.998779 14.7211 1.20938 14.2129 1.58374 13.8379L1.58276 13.8369L4.70679 10.7129L4.70776 10.7139C5.08259 10.3406 5.58991 10.1309 6.1189 10.1309C6.58168 10.1309 7.02813 10.2909 7.38354 10.5811L7.53003 10.7139L7.53491 10.7178L13.9021 16.8936L14.2527 17.2334L14.6013 16.8896L29.7205 1.95703L29.7214 1.95508C30.0963 1.5815 30.6043 1.37207 31.1335 1.37207Z" stroke="url(#paint2_linear_0_869)" stroke-opacity="0.3"/>
<defs>
<linearGradient id="paint0_linear_0_869" x1="18.6273" y1="0.87207" x2="18.6273" y2="28.9987" gradientUnits="userSpaceOnUse">
<stop stop-color="#E32CC4"/>
<stop offset="1" stop-color="#E9305E"/>
</linearGradient>
<radialGradient id="paint1_radial_0_869" cx="0" cy="0" r="1" gradientUnits="userSpaceOnUse" gradientTransform="translate(18.6273 0.87207) rotate(90) scale(28.1266 36.2571)">
<stop stop-color="white" stop-opacity="0.3"/>
<stop offset="1" stop-color="white" stop-opacity="0"/>
</radialGradient>
<linearGradient id="paint2_linear_0_869" x1="0.498779" y1="14.9354" x2="36.7559" y2="14.9354" gradientUnits="userSpaceOnUse">
<stop stop-color="white" stop-opacity="0"/>
<stop offset="1" stop-color="white"/>
</linearGradient>
</defs>
</svg>
