<svg width="98" height="40" viewBox="0 0 98 40" fill="none" xmlns="http://www.w3.org/2000/svg">
<g clip-path="url(#clip0_0_562)">
<path d="M46.3505 19.5405V31.2658H42.7314V2.30956H52.3298C53.4755 2.28496 54.6146 2.49382 55.6814 2.92407C56.7482 3.35432 57.7215 3.99745 58.5451 4.81635C59.3771 5.58553 60.0393 6.52885 60.4871 7.5829C60.9349 8.63695 61.158 9.77732 61.1414 10.9274C61.1652 12.0836 60.9456 13.2314 60.4974 14.2921C60.0493 15.3529 59.3833 16.3015 58.5451 17.073C56.8667 18.718 54.795 19.5398 52.3298 19.5382H46.3505V19.5405ZM46.3505 5.87451V15.9825H52.4197C53.0851 16.0028 53.7472 15.8801 54.3638 15.6223C54.9804 15.3645 55.5379 14.9773 56.0006 14.4854C56.4608 14.0255 56.8267 13.4754 57.0765 12.8676C57.3263 12.2599 57.455 11.6068 57.455 10.947C57.455 10.2872 57.3263 9.63415 57.0765 9.02639C56.8267 8.41864 56.4608 7.86854 56.0006 7.40862C55.5437 6.90636 54.9882 6.50964 54.3708 6.24476C53.7535 5.97988 53.0884 5.85289 52.4197 5.8722H46.3505V5.87451Z" fill="white"/>
<path d="M69.4822 10.8086C72.1572 10.8086 74.2687 11.5433 75.8167 13.0127C77.3647 14.4821 78.138 16.4968 78.1365 19.0567V31.2672H74.6748V28.5178H74.5174C73.0188 30.782 71.0257 31.9141 68.5381 31.9141C66.4146 31.9141 64.6381 31.2672 63.2084 29.9734C62.5223 29.3796 61.9738 28.6359 61.6028 27.7965C61.2319 26.9572 61.0478 26.0433 61.064 25.1215C61.064 23.0714 61.8178 21.4411 63.3253 20.2304C64.8329 19.0198 66.8455 18.4129 69.3631 18.4098C71.512 18.4098 73.2818 18.8141 74.6725 19.6228V18.7726C74.6766 18.1442 74.5446 17.5227 74.2861 16.9533C74.0275 16.3838 73.6489 15.8806 73.1777 15.4802C72.2207 14.5928 70.9734 14.1085 69.6845 14.124C67.6629 14.124 66.0632 15.0004 64.8853 16.7533L61.6979 14.6901C63.4512 12.1024 66.046 10.8086 69.4822 10.8086ZM64.7999 25.2024C64.7975 25.6758 64.9052 26.143 65.114 26.5649C65.3228 26.9869 65.6266 27.3515 66.0003 27.6283C66.8007 28.2755 67.7942 28.6183 68.8124 28.5987C70.3395 28.5961 71.8034 27.9713 72.8832 26.8613C74.0821 25.7015 74.6815 24.3406 74.6815 22.7788C73.5531 21.8546 71.9796 21.3925 69.961 21.3925C68.4909 21.3925 67.2651 21.7568 66.2835 22.4854C65.2922 23.2247 64.7999 24.1234 64.7999 25.2024Z" fill="white"/>
<path d="M98.0068 11.4551L85.9223 40.0001H82.1863L86.6708 30.0122L78.7246 11.4551H82.6584L88.4016 25.6872H88.4803L94.0663 11.4551H98.0068Z" fill="white"/>
<path d="M31.7264 17.0143C31.7278 15.8807 31.6345 14.749 31.4477 13.6318H16.1847V20.0386H24.9266C24.7477 21.0618 24.3691 22.0373 23.8136 22.9061C23.258 23.7749 22.5371 24.519 21.6942 25.0937V29.2525H26.9115C29.9663 26.3575 31.7264 22.0764 31.7264 17.0143Z" fill="#4285F4"/>
<path d="M16.1853 33.2695C20.5529 33.2695 24.2304 31.7955 26.9121 29.254L21.6948 25.0953C20.2427 26.1073 18.3725 26.6849 16.1853 26.6849C11.9639 26.6849 8.38077 23.7599 7.09949 19.8184H1.72485V24.1042C3.07192 26.8593 5.1375 29.1753 7.69099 30.7938C10.2445 32.4122 13.1854 33.2694 16.1853 33.2695Z" fill="#34A853"/>
<path d="M7.09801 19.8193C6.42064 17.7539 6.42064 15.5172 7.09801 13.4518V9.16602H1.72337C0.590171 11.4837 0 14.0417 0 16.6355C0 19.2294 0.590171 21.7874 1.72337 24.1051L7.09801 19.8193Z" fill="#FBBC04"/>
<path d="M16.1853 6.58476C18.4934 6.54601 20.7236 7.44233 22.3939 9.08L27.0133 4.33212C24.0841 1.50436 20.2037 -0.0481242 16.1853 0.000114843C13.1854 0.000255373 10.2445 0.857401 7.69099 2.47586C5.13751 4.09431 3.07192 6.41038 1.72485 9.16548L7.09949 13.4513C8.38077 9.50973 11.9639 6.58476 16.1853 6.58476Z" fill="#EA4335"/>
</g>
<defs>
<clipPath id="clip0_0_562">
<rect width="98" height="40" fill="white"/>
</clipPath>
</defs>
</svg>
