<svg width="18" height="18" viewBox="0 0 18 18" fill="none" xmlns="http://www.w3.org/2000/svg">
<path d="M8.99957 1.62164C11.4025 1.62164 11.687 1.63064 12.6363 1.67392C13.207 1.6809 13.7723 1.7857 14.3076 1.98376C14.6958 2.13347 15.0484 2.36281 15.3426 2.65702C15.6368 2.95122 15.8661 3.30377 16.0158 3.69197C16.2139 4.22728 16.3187 4.79258 16.3257 5.36332C16.3685 6.31256 16.3779 6.59711 16.3779 9C16.3779 11.4029 16.3689 11.6874 16.3257 12.6367C16.3187 13.2074 16.2139 13.7727 16.0158 14.308C15.8661 14.6962 15.6368 15.0488 15.3426 15.343C15.0484 15.6372 14.6958 15.8665 14.3076 16.0162C13.7723 16.2143 13.207 16.3191 12.6363 16.3261C11.6874 16.3689 11.4029 16.3784 8.99957 16.3784C6.59626 16.3784 6.3117 16.3694 5.36289 16.3261C4.79216 16.3191 4.22685 16.2143 3.69154 16.0162C3.30334 15.8665 2.95079 15.6372 2.65659 15.343C2.36239 15.0488 2.13305 14.6962 1.98333 14.308C1.78528 13.7727 1.68048 13.2074 1.67349 12.6367C1.63064 11.6874 1.62121 11.4029 1.62121 9C1.62121 6.59711 1.63021 6.31256 1.67349 5.36332C1.68048 4.79258 1.78528 4.22728 1.98333 3.69197C2.13305 3.30377 2.36239 2.95122 2.65659 2.65702C2.95079 2.36281 3.30334 2.13347 3.69154 1.98376C4.22685 1.7857 4.79216 1.6809 5.36289 1.67392C6.31213 1.63107 6.59669 1.62164 8.99957 1.62164ZM8.99957 0C6.55683 0 6.24913 0.0102852 5.28918 0.0539974C4.54223 0.0688544 3.80322 0.210282 3.10357 0.472263C2.50338 0.698395 1.95976 1.05276 1.51064 1.51064C1.05235 1.95992 0.697679 2.50385 0.471406 3.10442C0.209424 3.80408 0.0679974 4.54309 0.0531404 5.29003C0.0102853 6.24913 0 6.55683 0 8.99957C0 11.4423 0.0102852 11.75 0.0539974 12.71C0.0688544 13.4569 0.210282 14.1959 0.472263 14.8956C0.698285 15.4961 1.05266 16.04 1.51064 16.4894C1.96001 16.9473 2.50393 17.3017 3.10442 17.5277C3.80408 17.7897 4.54309 17.9311 5.29004 17.946C6.24999 17.9889 6.5564 18 9.00043 18C11.4445 18 11.7509 17.9897 12.7108 17.946C13.4578 17.9311 14.1968 17.7897 14.8964 17.5277C15.4941 17.2961 16.0368 16.9422 16.4899 16.4889C16.943 16.0355 17.2965 15.4925 17.5277 14.8947C17.7897 14.1951 17.9312 13.4561 17.946 12.7091C17.9889 11.75 17.9991 11.4423 17.9991 8.99957C17.9991 6.55683 17.9889 6.24913 17.9452 5.28918C17.9303 4.54223 17.7889 3.80322 17.5269 3.10357C17.3009 2.50307 16.9465 1.95915 16.4885 1.50979C16.0391 1.0518 15.4952 0.697427 14.8947 0.471406C14.1951 0.209424 13.4561 0.0679973 12.7091 0.0531404C11.75 0.0102853 11.4423 0 8.99957 0Z" fill="white"/>
<path d="M9.00138 4.38086C8.08733 4.38086 7.19382 4.65191 6.43381 5.15972C5.67381 5.66754 5.08147 6.38932 4.73168 7.23378C4.38189 8.07825 4.29036 9.00748 4.46869 9.90396C4.64701 10.8004 5.08716 11.6239 5.73349 12.2702C6.37982 12.9166 7.20329 13.3567 8.09977 13.535C8.99625 13.7134 9.92548 13.6218 10.7699 13.2721C11.6144 12.9223 12.3362 12.3299 12.844 11.5699C13.3518 10.8099 13.6229 9.9164 13.6229 9.00235C13.6229 7.77666 13.136 6.60116 12.2693 5.73446C11.4026 4.86777 10.2271 4.38086 9.00138 4.38086ZM9.00138 12.0022C8.40806 12.0022 7.82807 11.8263 7.33475 11.4966C6.84142 11.167 6.45692 10.6985 6.22987 10.1503C6.00282 9.6022 5.94341 8.99903 6.05916 8.41711C6.17491 7.8352 6.46062 7.30067 6.88016 6.88113C7.2997 6.4616 7.83422 6.17589 8.41614 6.06014C8.99805 5.94439 9.60122 6.00379 10.1494 6.23085C10.6975 6.4579 11.166 6.8424 11.4957 7.33572C11.8253 7.82905 12.0012 8.40904 12.0012 9.00235C12.0012 9.79797 11.6852 10.561 11.1226 11.1236C10.56 11.6862 9.79699 12.0022 9.00138 12.0022Z" fill="white"/>
<path d="M13.8046 5.27513C14.401 5.27513 14.8845 4.79162 14.8845 4.19518C14.8845 3.59874 14.401 3.11523 13.8046 3.11523C13.2081 3.11523 12.7246 3.59874 12.7246 4.19518C12.7246 4.79162 13.2081 5.27513 13.8046 5.27513Z" fill="white"/>
</svg>
