<svg width="16" height="16" viewBox="0 0 16 16" fill="none" xmlns="http://www.w3.org/2000/svg">
<path fill-rule="evenodd" clip-rule="evenodd" d="M8 0C3.56667 0 0 3.65541 0 8.19905C0 11.8203 2.3 14.8949 5.46667 15.9882C5.86667 16.0565 6 15.8173 6 15.5782C6 15.3732 6 14.8608 6 14.1775C3.76667 14.69 3.3 13.0843 3.3 13.0843C2.93333 12.1278 2.4 11.8886 2.4 11.8886C1.66667 11.3762 2.46667 11.3762 2.46667 11.3762C3.26667 11.4445 3.7 12.2303 3.7 12.2303C4.4 13.4943 5.56667 13.1185 6.03333 12.9135C6.1 12.3669 6.3 12.0253 6.53333 11.8203C4.76667 11.6153 2.9 10.8979 2.9 7.75494C2.9 6.86671 3.2 6.11513 3.73333 5.56852C3.66667 5.36355 3.36667 4.54364 3.8 3.38211C3.8 3.38211 4.46667 3.17713 6 4.23618C6.63333 4.06536 7.33333 3.96287 8 3.96287C8.66667 3.96287 9.36667 4.06536 10 4.23618C11.5333 3.17713 12.2 3.38211 12.2 3.38211C12.6333 4.50948 12.3667 5.32938 12.2667 5.56852C12.7667 6.14929 13.1 6.86671 13.1 7.75494C13.1 10.8979 11.2333 11.5812 9.43333 11.7861C9.73333 12.0253 9.96667 12.5377 9.96667 13.2893C9.96667 14.3825 9.96667 15.2707 9.96667 15.544C9.96667 15.749 10.1 16.0223 10.5333 15.954C13.7 14.8949 16 11.8203 16 8.19905C16 3.65541 12.4333 0 8 0Z" fill="white"/>
</svg>
