<svg width="18" height="18" viewBox="0 0 18 18" fill="none" xmlns="http://www.w3.org/2000/svg">
<path fill-rule="evenodd" clip-rule="evenodd" d="M4.31649 0.768697C7.40404 0.423618 10.5954 0.423618 13.683 0.768697C15.5094 0.972822 16.9843 2.41146 17.1991 4.24843C17.5683 7.40535 17.5683 10.5945 17.1991 13.7515C16.9843 15.5884 15.5094 17.0271 13.683 17.2312C10.5954 17.5763 7.40404 17.5763 4.31649 17.2312C2.49011 17.0271 1.01521 15.5884 0.80036 13.7515C0.43113 10.5945 0.43113 7.40535 0.80036 4.24843C1.01521 2.41146 2.49011 0.972822 4.31649 0.768697ZM9.99976 4.99994C9.99976 5.55223 9.55204 5.99994 8.99976 5.99994C8.44747 5.99994 7.99976 5.55223 7.99976 4.99994C7.99976 4.44766 8.44747 3.99994 8.99976 3.99994C9.55204 3.99994 9.99976 4.44766 9.99976 4.99994ZM8.99976 7.74994C9.41397 7.74994 9.74976 8.08573 9.74976 8.49994V13.4999C9.74976 13.9142 9.41397 14.2499 8.99976 14.2499C8.58554 14.2499 8.24976 13.9142 8.24976 13.4999V8.49994C8.24976 8.08573 8.58554 7.74994 8.99976 7.74994Z" fill="white"/>
</svg>
