<svg width="28" height="29" viewBox="0 0 28 29" fill="none" xmlns="http://www.w3.org/2000/svg">
<g filter="url(#filter0_d_146_9639)">
<path d="M7.23938 3.07042C6.31193 2.96676 5.35394 2.96676 4.42649 3.07042C3.72804 3.14848 3.16203 3.69822 3.07933 4.40531C2.96835 5.35422 2.96835 6.31283 3.07933 7.26174C3.16203 7.96884 3.72804 8.51857 4.42649 8.59663C5.35394 8.70029 6.31193 8.70029 7.23938 8.59663C7.93782 8.51857 8.50383 7.96884 8.58653 7.26174C8.69752 6.31283 8.69752 5.35422 8.58653 4.40531C8.50383 3.69821 7.93782 3.14848 7.23938 3.07042Z" fill="#E7FD52"/>
<path d="M15.406 3.07042C14.4786 2.96676 13.5206 2.96676 12.5931 3.07042C11.8947 3.14848 11.3287 3.69822 11.246 4.40531C11.135 5.35422 11.135 6.31283 11.246 7.26174C11.3287 7.96884 11.8947 8.51857 12.5931 8.59663C13.5206 8.70029 14.4786 8.70029 15.406 8.59663C16.1045 8.51857 16.6705 7.96884 16.7532 7.26174C16.8642 6.31283 16.8642 5.35422 16.7532 4.40531C16.6705 3.69821 16.1045 3.14848 15.406 3.07042Z" fill="#E7FD52"/>
<path d="M23.5727 3.07042C22.6453 2.96676 21.6873 2.96676 20.7598 3.07042C20.0614 3.14848 19.4954 3.69822 19.4127 4.40531C19.3017 5.35422 19.3017 6.31283 19.4127 7.26174C19.4954 7.96884 20.0614 8.51857 20.7598 8.59663C21.6873 8.70029 22.6453 8.70029 23.5727 8.59663C24.2711 8.51857 24.8372 7.96884 24.9199 7.26174C25.0308 6.31283 25.0308 5.35422 24.9199 4.40531C24.8372 3.69821 24.2711 3.14848 23.5727 3.07042Z" fill="#E7FD52"/>
<path d="M7.23938 11.2371C6.31193 11.1334 5.35394 11.1334 4.42649 11.2371C3.72804 11.3151 3.16203 11.8649 3.07933 12.572C2.96835 13.5209 2.96835 14.4795 3.07933 15.4284C3.16203 16.1355 3.72804 16.6852 4.42649 16.7633C5.35394 16.867 6.31193 16.867 7.23938 16.7633C7.93782 16.6852 8.50383 16.1355 8.58653 15.4284C8.69752 14.4795 8.69752 13.5209 8.58653 12.572C8.50383 11.8649 7.93782 11.3151 7.23938 11.2371Z" fill="#E7FD52"/>
<path d="M15.406 11.2371C14.4786 11.1334 13.5206 11.1334 12.5931 11.2371C11.8947 11.3151 11.3287 11.8649 11.246 12.572C11.135 13.5209 11.135 14.4795 11.246 15.4284C11.3287 16.1355 11.8947 16.6852 12.5931 16.7633C13.5206 16.867 14.4786 16.867 15.406 16.7633C16.1045 16.6852 16.6705 16.1355 16.7532 15.4284C16.8642 14.4795 16.8642 13.5209 16.7532 12.572C16.6705 11.8649 16.1045 11.3151 15.406 11.2371Z" fill="#E7FD52"/>
<path d="M23.5727 11.2371C22.6453 11.1334 21.6873 11.1334 20.7598 11.2371C20.0614 11.3151 19.4954 11.8649 19.4127 12.572C19.3017 13.5209 19.3017 14.4795 19.4127 15.4284C19.4954 16.1355 20.0614 16.6852 20.7598 16.7633C21.6873 16.867 22.6453 16.867 23.5727 16.7633C24.2711 16.6852 24.8372 16.1355 24.9199 15.4284C25.0308 14.4795 25.0308 13.5209 24.9199 12.572C24.8372 11.8649 24.2711 11.3151 23.5727 11.2371Z" fill="#E7FD52"/>
<path d="M7.23938 19.4038C6.31193 19.3001 5.35394 19.3001 4.42649 19.4038C3.72804 19.4818 3.16203 20.0315 3.07933 20.7386C2.96835 21.6876 2.96835 22.6462 3.07933 23.5951C3.16203 24.3022 3.72804 24.8519 4.42649 24.93C5.35394 25.0336 6.31193 25.0336 7.23938 24.93C7.93782 24.8519 8.50383 24.3022 8.58653 23.5951C8.69752 22.6462 8.69752 21.6876 8.58653 20.7386C8.50383 20.0315 7.93782 19.4818 7.23938 19.4038Z" fill="#E7FD52"/>
<path d="M15.406 19.4038C14.4786 19.3001 13.5206 19.3001 12.5931 19.4038C11.8947 19.4818 11.3287 20.0315 11.246 20.7386C11.135 21.6876 11.135 22.6462 11.246 23.5951C11.3287 24.3022 11.8947 24.8519 12.5931 24.93C13.5206 25.0336 14.4786 25.0336 15.406 24.93C16.1045 24.8519 16.6705 24.3022 16.7532 23.5951C16.8642 22.6462 16.8642 21.6876 16.7532 20.7386C16.6705 20.0315 16.1045 19.4818 15.406 19.4038Z" fill="#E7FD52"/>
<path d="M23.5727 19.4038C22.6453 19.3001 21.6873 19.3001 20.7598 19.4038C20.0614 19.4818 19.4954 20.0315 19.4127 20.7386C19.3017 21.6876 19.3017 22.6462 19.4127 23.5951C19.4954 24.3022 20.0614 24.8519 20.7598 24.93C21.6873 25.0336 22.6453 25.0336 23.5727 24.93C24.2711 24.8519 24.8372 24.3022 24.9199 23.5951C25.0308 22.6462 25.0308 21.6876 24.9199 20.7386C24.8372 20.0315 24.2711 19.4818 23.5727 19.4038Z" fill="#E7FD52"/>
</g>
<defs>
<filter id="filter0_d_146_9639" x="-1" y="0" width="30" height="31" filterUnits="userSpaceOnUse" color-interpolation-filters="sRGB">
<feFlood flood-opacity="0" result="BackgroundImageFix"/>
<feColorMatrix in="SourceAlpha" type="matrix" values="0 0 0 0 0 0 0 0 0 0 0 0 0 0 0 0 0 0 127 0" result="hardAlpha"/>
<feOffset dy="2"/>
<feGaussianBlur stdDeviation="0.5"/>
<feComposite in2="hardAlpha" operator="out"/>
<feColorMatrix type="matrix" values="0 0 0 0 0 0 0 0 0 0 0 0 0 0 0 0 0 0 0.25 0"/>
<feBlend mode="normal" in2="BackgroundImageFix" result="effect1_dropShadow_146_9639"/>
<feBlend mode="normal" in="SourceGraphic" in2="effect1_dropShadow_146_9639" result="shape"/>
</filter>
</defs>
</svg>
