<svg width="20" height="20" viewBox="0 0 20 20" fill="none" xmlns="http://www.w3.org/2000/svg">
<path d="M4.20546 0.631577C3.4105 0.542729 2.58937 0.542729 1.79441 0.631577C1.19574 0.698487 0.710593 1.16969 0.639706 1.77577C0.544577 2.58912 0.544577 3.41079 0.639706 4.22414C0.710593 4.83022 1.19574 5.30142 1.79441 5.36833C2.58937 5.45718 3.4105 5.45718 4.20546 5.36833C4.80413 5.30142 5.28928 4.83022 5.36016 4.22414C5.45529 3.41079 5.45529 2.58912 5.36016 1.77577C5.28928 1.16969 4.80413 0.698487 4.20546 0.631577Z" fill="white"/>
<path d="M11.2055 0.631577C10.4105 0.542729 9.58936 0.542729 8.7944 0.631577C8.19574 0.698487 7.71059 1.16969 7.6397 1.77577C7.54457 2.58912 7.54457 3.41079 7.6397 4.22414C7.71059 4.83022 8.19574 5.30142 8.7944 5.36833C9.58936 5.45718 10.4105 5.45718 11.2055 5.36833C11.8041 5.30142 12.2893 4.83022 12.3602 4.22414C12.4553 3.41079 12.4553 2.58912 12.3602 1.77577C12.2893 1.16969 11.8041 0.698487 11.2055 0.631577Z" fill="white"/>
<path d="M18.2055 0.631577C17.4105 0.542729 16.5894 0.542729 15.7944 0.631577C15.1957 0.698487 14.7106 1.16969 14.6397 1.77577C14.5446 2.58912 14.5446 3.41079 14.6397 4.22414C14.7106 4.83022 15.1957 5.30142 15.7944 5.36833C16.5894 5.45718 17.4105 5.45718 18.2055 5.36833C18.8041 5.30142 19.2893 4.83022 19.3602 4.22414C19.4553 3.41079 19.4553 2.58912 19.3602 1.77577C19.2893 1.16969 18.8041 0.698487 18.2055 0.631577Z" fill="white"/>
<path d="M4.20546 7.63158C3.4105 7.54273 2.58937 7.54273 1.79441 7.63158C1.19574 7.69849 0.710593 8.16969 0.639706 8.77577C0.544577 9.58912 0.544577 10.4108 0.639706 11.2241C0.710593 11.8302 1.19574 12.3014 1.79441 12.3683C2.58937 12.4572 3.4105 12.4572 4.20546 12.3683C4.80413 12.3014 5.28928 11.8302 5.36016 11.2241C5.45529 10.4108 5.45529 9.58912 5.36016 8.77577C5.28928 8.16969 4.80413 7.69849 4.20546 7.63158Z" fill="white"/>
<path d="M11.2055 7.63158C10.4105 7.54273 9.58936 7.54273 8.7944 7.63158C8.19574 7.69849 7.71059 8.16969 7.6397 8.77577C7.54457 9.58912 7.54457 10.4108 7.6397 11.2241C7.71059 11.8302 8.19574 12.3014 8.7944 12.3683C9.58936 12.4572 10.4105 12.4572 11.2055 12.3683C11.8041 12.3014 12.2893 11.8302 12.3602 11.2241C12.4553 10.4108 12.4553 9.58912 12.3602 8.77577C12.2893 8.16969 11.8041 7.69849 11.2055 7.63158Z" fill="white"/>
<path d="M18.2055 7.63158C17.4105 7.54273 16.5894 7.54273 15.7944 7.63158C15.1957 7.69849 14.7106 8.16969 14.6397 8.77577C14.5446 9.58912 14.5446 10.4108 14.6397 11.2241C14.7106 11.8302 15.1957 12.3014 15.7944 12.3683C16.5894 12.4572 17.4105 12.4572 18.2055 12.3683C18.8041 12.3014 19.2893 11.8302 19.3602 11.2241C19.4553 10.4108 19.4553 9.58912 19.3602 8.77577C19.2893 8.16969 18.8041 7.69849 18.2055 7.63158Z" fill="white"/>
<path d="M4.20546 14.6316C3.4105 14.5427 2.58937 14.5427 1.79441 14.6316C1.19574 14.6985 0.710593 15.1697 0.639706 15.7758C0.544577 16.5891 0.544577 17.4108 0.639706 18.2241C0.710593 18.8302 1.19574 19.3014 1.79441 19.3683C2.58937 19.4572 3.4105 19.4572 4.20546 19.3683C4.80413 19.3014 5.28928 18.8302 5.36016 18.2241C5.45529 17.4108 5.45529 16.5891 5.36016 15.7758C5.28928 15.1697 4.80413 14.6985 4.20546 14.6316Z" fill="white"/>
<path d="M11.2055 14.6316C10.4105 14.5427 9.58936 14.5427 8.7944 14.6316C8.19574 14.6985 7.71059 15.1697 7.6397 15.7758C7.54457 16.5891 7.54457 17.4108 7.6397 18.2241C7.71059 18.8302 8.19574 19.3014 8.7944 19.3683C9.58936 19.4572 10.4105 19.4572 11.2055 19.3683C11.8041 19.3014 12.2893 18.8302 12.3602 18.2241C12.4553 17.4108 12.4553 16.5891 12.3602 15.7758C12.2893 15.1697 11.8041 14.6985 11.2055 14.6316Z" fill="white"/>
<path d="M18.2055 14.6316C17.4105 14.5427 16.5894 14.5427 15.7944 14.6316C15.1957 14.6985 14.7106 15.1697 14.6397 15.7758C14.5446 16.5891 14.5446 17.4108 14.6397 18.2241C14.7106 18.8302 15.1957 19.3014 15.7944 19.3683C16.5894 19.4572 17.4105 19.4572 18.2055 19.3683C18.8041 19.3014 19.2893 18.8302 19.3602 18.2241C19.4553 17.4108 19.4553 16.5891 19.3602 15.7758C19.2893 15.1697 18.8041 14.6985 18.2055 14.6316Z" fill="white"/>
</svg>
