<svg width="185" height="54" viewBox="0 0 185 54" fill="none" xmlns="http://www.w3.org/2000/svg">
<path d="M82.1241 40.1939H72.5137L73.9115 38.567C74.5619 38.567 75.1007 38.4692 75.5278 38.2738C75.9938 38.0686 76.3627 37.7901 76.6345 37.4384C76.9452 37.0084 77.1733 36.5883 77.3189 36.1779C77.5033 35.6893 77.6392 35.1861 77.7266 34.6682L80.901 34.551V38.5376L82.1241 40.1939ZM71.174 40.1939H65L66.194 38.5376V21.4917L65 19.8501H70.5187C70.6935 19.8501 70.8537 19.9087 70.9993 20.026C71.1158 20.1726 71.174 20.3338 71.174 20.5097V40.1939Z" fill="#F7D8B3"/>
<path d="M91.5308 41C89.8125 41 88.3418 40.6922 87.1187 40.0766C85.8276 39.4415 84.7743 38.6207 83.9589 37.6143C83.1143 36.6078 82.4785 35.4353 82.0513 34.0966C81.6339 32.8263 81.4252 31.4877 81.4252 30.0806C81.4252 28.6638 81.6436 27.3007 82.0805 25.9913C82.4979 24.682 83.1337 23.5046 83.988 22.459C84.8325 21.4233 85.8858 20.5927 87.1478 19.9674C88.4292 19.3225 89.8902 19 91.5308 19C93.249 19 94.7634 19.3225 96.0739 19.9674C97.4038 20.622 98.4862 21.4624 99.3211 22.4883C100.195 23.5534 100.85 24.7308 101.287 26.0207C101.724 27.33 101.942 28.6931 101.942 30.1099C101.942 31.4974 101.733 32.8263 101.316 34.0966C100.85 35.4548 100.204 36.6274 99.3793 37.6143C98.5542 38.5914 97.4718 39.4122 96.1321 40.0766C94.8507 40.6922 93.317 41 91.5308 41ZM91.4725 39.3877C93.1713 39.3877 94.4722 38.948 95.375 38.0686C96.2778 37.1892 96.7292 35.6942 96.7292 33.5836C96.7292 32.6065 96.5884 31.4877 96.3069 30.2272C96.0254 29.1035 95.6371 27.9944 95.142 26.9001C94.6275 25.8252 94.0596 24.8628 93.4383 24.0127C92.8364 23.1821 92.1812 22.5323 91.4725 22.0633C91.8414 22.0047 92.1812 21.9753 92.4918 21.9753C93.6761 21.9753 94.7974 22.2343 95.8555 22.7522C96.8651 23.27 97.7387 23.9491 98.4765 24.7895C98.0882 24.1153 97.6417 23.5388 97.1369 23.06C96.6709 22.6105 96.0836 22.1805 95.375 21.7702C94.7148 21.4184 94.0499 21.1546 93.3801 20.9787C92.6617 20.8028 91.9579 20.7149 91.2687 20.7149C90.5794 20.7149 89.9242 20.8028 89.3029 20.9787C88.6525 21.1643 88.0943 21.477 87.6283 21.9167C87.1138 22.376 86.7255 22.9769 86.4634 23.7195C86.1625 24.4915 86.012 25.4295 86.012 26.5336C86.012 27.1004 86.0945 27.8723 86.2596 28.8494C86.3858 29.5823 86.6139 30.4422 86.9439 31.429C87.2352 32.2987 87.6138 33.1488 88.0797 33.9793C88.5748 34.8881 89.0796 35.6307 89.5941 36.2072C90.1377 36.8032 90.7833 37.3113 91.5308 37.7315C92.22 38.1321 92.9772 38.3324 93.8023 38.3324L94.2537 38.3031C93.7489 38.5767 93.1519 38.7575 92.4627 38.8454C91.6375 38.9431 90.9483 38.992 90.395 38.992C90.0358 38.992 89.7785 38.9822 89.6232 38.9627C89.3223 38.9627 89.1233 38.9529 89.0262 38.9334C88.7447 38.9334 88.5554 38.9236 88.4583 38.9041C89.4582 39.2265 90.4629 39.3877 91.4725 39.3877Z" fill="#F7D8B3"/>
<path d="M108.611 40.1939H103.122L104.316 38.5376V21.4624L103.122 19.8501H111.494C113.106 19.8501 114.47 20.026 115.586 20.3777C116.79 20.7979 117.736 21.3011 118.426 21.8874C119.163 22.5128 119.726 23.2114 120.115 23.9833C120.474 24.7748 120.653 25.5956 120.653 26.4457C120.653 27.3153 120.454 28.1752 120.056 29.0253C119.678 29.8559 119.091 30.6278 118.295 31.3411C117.537 32.0153 116.586 32.5527 115.44 32.9534C114.314 33.3735 112.999 33.5836 111.494 33.5836H109.776L111.494 30.6522C112.184 30.6522 112.81 30.5301 113.373 30.2858C113.916 30.0806 114.368 29.7826 114.727 29.3917C115.076 29.0107 115.334 28.5905 115.499 28.1312C115.673 27.6525 115.761 27.159 115.761 26.6509C115.761 26.1623 115.673 25.6738 115.499 25.1852C115.334 24.726 115.067 24.296 114.698 23.8954C114.348 23.5143 113.907 23.2016 113.373 22.9574C112.81 22.7424 112.184 22.6349 111.494 22.6349H106.849L109.296 23.4997V39.505C109.296 39.7102 109.237 39.8714 109.121 39.9887C108.985 40.1255 108.815 40.1939 108.611 40.1939Z" fill="#F7D8B3"/>
<path d="M133.802 40.1939H128.284L129.478 38.5376V23.9247C129.672 23.6511 129.832 23.4508 129.958 23.3238C130.084 23.1968 130.283 23.0355 130.555 22.8401C130.73 22.7131 130.977 22.6154 131.298 22.547C131.375 22.5372 131.492 22.5225 131.647 22.503C131.812 22.4835 131.934 22.4688 132.011 22.459C132.147 22.4395 132.366 22.4297 132.667 22.4297H133.118C133.196 22.4493 133.302 22.459 133.438 22.459C133.584 22.459 133.686 22.4688 133.744 22.4883C133.618 22.4102 133.351 22.3271 132.943 22.2392C132.594 22.161 132.152 22.1219 131.618 22.1219C130.492 22.1219 129.58 22.2929 128.881 22.6349C128.153 23.0258 127.526 23.4166 127.002 23.8075C126.478 24.2276 125.91 24.6185 125.299 24.98C124.735 25.3416 124.003 25.5223 123.1 25.5223L121.964 25.493V23.0306C121.964 22.4053 121.954 22.0047 121.935 21.8288C121.896 21.5259 121.847 21.3256 121.789 21.2278C121.682 21.052 121.561 20.881 121.425 20.7149C121.153 20.3826 120.935 20.0944 120.77 19.8501H143.194C143.029 20.0944 142.811 20.3826 142.539 20.7149C142.403 20.881 142.282 21.052 142.175 21.2278C142.088 21.3646 142.029 21.565 142 21.8288C141.981 22.0047 141.971 22.4053 141.971 23.0306L142 25.493L140.865 25.5223C140.321 25.5223 139.904 25.4783 139.612 25.3904C139.321 25.3318 139.074 25.2438 138.87 25.1266C138.666 25.0093 138.486 24.8579 138.331 24.6722C138.069 24.4084 137.85 24.2081 137.676 24.0713C137.326 23.7977 136.977 23.5583 136.627 23.3531C135.996 23.0306 135.423 22.7717 134.909 22.5763C134.88 22.5665 134.841 22.5567 134.792 22.547C134.744 22.5372 134.71 22.5274 134.691 22.5177C134.632 22.4981 134.555 22.4883 134.458 22.4883V39.505C134.458 39.7102 134.399 39.8714 134.283 39.9887C134.176 40.1255 134.016 40.1939 133.802 40.1939Z" fill="#F7D8B3"/>
<path d="M155.266 40.531C153.761 40.531 152.48 40.2574 151.422 39.7102C150.383 39.2119 149.49 38.5425 148.742 37.7022C148.024 36.8912 147.456 35.9629 147.039 34.9174C146.611 33.8719 146.296 32.8605 146.092 31.8834C145.859 30.7597 145.718 29.8168 145.67 29.0546C145.612 28.1948 145.582 27.5059 145.582 26.988V21.4624L144.388 19.8501H150.388C150.533 19.8501 150.679 19.9087 150.825 20.026C150.951 20.153 151.014 20.3142 151.014 20.5097V21.7408C151.014 22.4541 150.994 23.5925 150.956 25.1559C150.907 27.1101 150.883 28.2729 150.883 28.6442C150.883 29.6018 150.936 30.7597 151.043 32.1179C151.13 33.2612 151.339 34.2432 151.669 35.064C151.999 35.8945 152.446 36.5638 153.009 37.072C153.562 37.5703 154.314 37.8195 155.266 37.8195C156.013 37.8195 156.654 37.6387 157.188 37.2771C156.945 37.5898 156.528 37.9221 155.936 38.2738C155.363 38.5963 154.494 38.7575 153.329 38.7575L152.266 38.6989C152.441 38.738 152.698 38.7966 153.038 38.8748C153.358 38.9529 153.785 38.992 154.319 38.992C154.931 38.992 155.576 38.8748 156.256 38.6402C156.906 38.4155 157.542 37.9318 158.163 37.1892C158.746 36.4466 159.231 35.4157 159.62 34.0966C159.998 32.797 160.187 31.0284 160.187 28.7908C160.187 27.9114 160.139 26.7877 160.042 25.4197C159.984 24.638 159.823 23.3189 159.561 21.4624L158.367 19.8501H164.367C164.522 19.8501 164.672 19.9087 164.818 20.026C164.934 20.1432 164.993 20.3045 164.993 20.5097L165.022 27.0759C165.022 27.5938 164.993 28.2827 164.934 29.1426C164.886 29.8754 164.745 30.8086 164.512 31.942C164.308 32.9192 163.993 33.9305 163.566 34.976C163.1 36.0313 162.522 36.9498 161.833 37.7315C161.085 38.5718 160.192 39.2412 159.154 39.7395C158.047 40.2672 156.751 40.531 155.266 40.531Z" fill="#F7D8B3"/>
<path d="M175.957 40.4284C174.569 40.4284 173.448 40.36 172.594 40.2232C171.662 40.1059 170.846 39.9447 170.147 39.7395C169.439 39.5245 168.851 39.3047 168.386 39.0799C167.997 38.9236 167.551 38.7135 167.046 38.4497C167.143 38.225 167.24 37.8976 167.337 37.4677C167.424 37.0768 167.497 36.6371 167.556 36.1486C167.565 36.0118 167.585 35.7821 167.614 35.4597C167.643 35.1372 167.662 34.8832 167.672 34.6975C167.682 34.5314 167.701 34.292 167.73 33.9793C167.759 33.6667 167.779 33.437 167.788 33.2905C168.439 34.0331 169.235 34.6829 170.177 35.2398C171.108 35.7968 171.963 36.2072 172.739 36.471C173.613 36.7739 174.419 36.984 175.157 37.1013C175.933 37.2185 176.588 37.2771 177.122 37.2771C177.676 37.2771 178.151 37.2185 178.549 37.1013C178.918 37.0133 179.209 36.8619 179.423 36.6469C179.675 36.3928 179.836 36.1632 179.904 35.958C179.981 35.7528 180.02 35.5037 180.02 35.2105C180.02 34.9076 179.991 34.6096 179.933 34.3165C179.836 34.0233 179.743 33.7595 179.656 33.525C179.607 33.4077 179.51 33.1976 179.365 32.8947C179.297 32.7677 179.214 32.6602 179.117 32.5723C179.311 33.0315 179.452 33.4615 179.539 33.8621C179.617 34.2139 179.656 34.5461 179.656 34.8588C179.656 35.5134 179.496 35.9531 179.175 36.1779C178.855 36.4026 178.501 36.5296 178.112 36.559C178.743 36.217 179.059 35.7577 179.059 35.1812C179.059 34.8392 178.962 34.507 178.768 34.1845C178.574 33.8719 178.307 33.5641 177.967 33.2612C177.491 32.9192 177.074 32.67 176.715 32.5137C176.103 32.2694 175.564 32.0984 175.098 32.0007C173.827 31.7564 172.642 31.3851 171.545 30.8867C170.458 30.3884 169.643 29.8901 169.099 29.3917C168.449 28.7957 167.983 28.1948 167.701 27.5889C167.4 26.9343 167.25 26.2942 167.25 25.6689C167.25 24.8676 167.458 24.0957 167.876 23.3531C168.264 22.6007 168.832 21.9412 169.58 21.3744C170.298 20.8272 171.181 20.368 172.23 19.9967C173.298 19.6547 174.443 19.4837 175.666 19.4837C177.035 19.4837 178.166 19.5521 179.059 19.6889C180.107 19.855 180.923 20.026 181.505 20.2019C182.078 20.3777 182.656 20.5878 183.238 20.8321C183.908 21.1643 184.354 21.3744 184.578 21.4624C184.452 21.6382 184.325 21.9265 184.199 22.3271C184.073 22.7082 183.971 23.099 183.893 23.4997C183.806 23.9589 183.748 24.4231 183.719 24.8921C183.66 25.4002 183.631 25.879 183.631 26.3284V26.6216C183.126 26.0744 182.588 25.5761 182.015 25.1266C181.442 24.6869 180.835 24.296 180.195 23.954C179.564 23.612 178.947 23.3433 178.345 23.1479C177.685 22.9622 177.088 22.8694 176.554 22.8694C174.894 23.016 173.691 23.4362 172.943 24.1299C172.215 24.8041 171.851 25.664 171.851 26.7095C171.851 27.4815 172.079 28.3022 172.535 29.1719C172.4 28.7029 172.317 28.3951 172.288 28.2485C172.23 27.9554 172.201 27.6427 172.201 27.3105C172.201 26.773 172.332 26.2454 172.594 25.7275C172.807 26.2063 173.244 26.6362 173.904 27.0173C174.603 27.4375 175.477 27.7453 176.525 27.9407C177.865 28.185 179.127 28.5563 180.311 29.0546C181.408 29.5627 182.287 30.105 182.947 30.6815C183.646 31.2971 184.16 31.9274 184.49 32.5723C184.83 33.2758 185 33.9549 185 34.6096C185 35.362 184.801 36.0851 184.403 36.7788C184.005 37.4726 183.418 38.0931 182.641 38.6402C181.923 39.1483 180.981 39.5783 179.816 39.93C178.7 40.2623 177.414 40.4284 175.957 40.4284Z" fill="#F7D8B3"/>
<path fill-rule="evenodd" clip-rule="evenodd" d="M24.5485 0.83899C24.5385 0.834967 24.5283 0.831474 24.5179 0.828467C24.5273 0.832348 24.5375 0.835863 24.5485 0.83899ZM24.1447 0.842128C24.2744 0.819518 24.4071 0.796381 24.5179 0.828467C24.3611 0.763529 24.4272 0.59614 24.4928 0.430201C24.5876 0.190565 24.6811 -0.0460467 24.0999 0.0332906C24.0369 0.0423686 23.9723 0.0293043 23.9114 0.0169729L23.9114 0.0169723C23.7525 -0.015186 23.6182 -0.0423576 23.5994 0.341159C23.5731 0.941776 23.8511 0.893302 24.1447 0.842128ZM32.946 4.4093C32.4129 4.65822 32.1529 5.05124 31.9124 5.64733C31.6588 5.04469 31.3793 4.65822 30.7617 4.52721C30.8547 4.45203 30.9497 4.38376 31.0425 4.3171C31.4106 4.05268 31.7434 3.81361 31.7693 3.26953C31.91 3.41765 32.0122 3.58266 32.1098 3.74034C32.3102 4.06381 32.4915 4.35646 32.946 4.4093ZM36.8152 10.5993C36.2171 10.5141 35.8856 10.1473 35.9116 9.53812C35.9376 8.92238 36.3211 8.54245 36.9322 8.56866C37.5693 8.59486 37.9593 8.99443 37.9008 9.67568C37.8423 10.298 37.4523 10.5927 36.8152 10.5993ZM31.0996 18.7375C31.266 18.621 31.4393 18.4997 31.3845 18.2175C31.3754 18.1902 31.3664 18.1557 31.3567 18.1188C31.3455 18.0763 31.3334 18.0304 31.3195 17.9882C30.3184 15.4794 28.7712 13.3375 27.0224 11.3199C26.7949 11.0579 26.6324 11.1169 26.4179 11.3265C24.4091 13.2654 22.6019 15.355 21.4317 17.9424C21.2497 18.3354 21.3017 18.5843 21.6723 18.866C22.3029 19.3442 22.9399 19.8551 23.4535 20.4643C23.9216 21.0211 24.1686 20.9621 24.6432 20.4774C26.4301 18.6506 26.4504 18.6695 28.2812 20.3704L28.2836 20.3726C28.299 20.3881 28.3144 20.4029 28.3296 20.4175C28.3592 20.4458 28.3878 20.4733 28.4136 20.5036C28.6672 20.8115 28.8687 20.8049 29.1417 20.484C29.7008 19.8289 30.3639 19.2721 31.066 18.7612L31.0996 18.7375ZM33.4143 28.6586C32.5757 26.1563 31.282 23.9947 29.6113 22.0689C29.2794 21.6859 29.5382 21.525 29.7633 21.385L29.7633 21.385C29.8116 21.355 29.8583 21.326 29.8973 21.2959C32.1986 19.5404 34.7794 18.4399 37.6333 18.0207C39.33 17.7718 39.33 17.798 39.3105 19.5469C39.2992 20.6039 39.1265 21.6362 38.9536 22.6696L38.9531 22.6726C38.9269 22.8294 38.9006 22.9862 38.875 23.1431C38.5954 24.8528 37.9193 26.1825 36.1316 26.8113C35.3533 27.0848 34.6838 27.6306 33.9867 28.199C33.7988 28.3521 33.6089 28.507 33.4143 28.6586ZM14.8489 25.8547C16.4936 26.5687 18.0018 27.512 19.4774 28.7435C20.251 26.3722 21.3822 24.3547 22.9164 22.5926C23.4169 22.0227 23.2674 21.7738 22.7668 21.3874C20.121 19.3567 17.1241 18.289 13.8477 17.9222C13.4057 17.8763 13.2627 18.0205 13.2107 18.4528C12.9116 20.8961 13.3732 23.1953 14.4198 25.3962C14.5173 25.5862 14.6278 25.7565 14.8489 25.8547ZM32.2881 32.3466C32.1516 35.707 30.6174 38.5171 28.2511 40.8753C26.9965 42.1264 25.5533 42.0543 24.2141 40.8098C22.2834 39.0084 21.3603 36.6633 20.8337 34.1283C20.3006 31.5475 20.9117 29.1435 22.0428 26.8443C23.0245 24.853 24.3701 23.1237 25.9368 21.5647L25.9653 21.5356L26.0078 21.4915C26.2338 21.2554 26.4512 21.0283 26.8339 21.414C29.6163 24.2503 31.8006 27.4076 32.2426 31.5147C32.2587 31.6685 32.2648 31.8222 32.2718 31.9959C32.2761 32.1036 32.2807 32.2189 32.2881 32.3466ZM52 45.3424C49.9847 45.9188 47.898 46.2595 45.8112 46.4822C41.8782 46.8948 37.9517 46.9276 34.0513 46.1547C33.4597 46.0367 33.2517 46.2595 33.0761 46.79C32.1855 49.4495 30.7228 51.6897 28.311 53.2029C26.5428 54.3099 26.1918 54.2837 24.5861 52.9998C22.5383 51.3688 20.8481 49.4036 19.4829 47.17C19.1254 46.5804 18.8394 46.4101 18.1113 46.6328C12.4231 48.3621 6.64383 48.7355 0.793099 47.6416C0.742928 47.6317 0.692065 47.6242 0.640945 47.6166C0.420493 47.5839 0.195253 47.5505 0 47.3272C2.08676 44.8053 4.66108 42.9581 7.62545 41.6283C9.02963 40.9995 10.4858 40.5148 11.981 40.1414C12.397 40.0366 12.6636 40.1152 12.9821 40.3575C16.0635 42.696 19.5869 43.5476 23.3769 43.4821C23.8515 43.4755 24.2805 43.5214 24.7161 43.7114C25.8212 44.1764 26.9394 44.1568 28.0315 43.6786C28.3565 43.541 28.6621 43.469 29.0066 43.4821C33.2647 43.6065 37.1846 42.6764 40.5001 39.8073C40.7211 39.6173 40.9226 39.5191 41.2412 39.5977C45.1026 40.5868 48.6976 42.1 51.6945 44.8446L51.7257 44.8678C51.8508 44.9604 52 45.0707 52 45.3424ZM30.1305 41.9624C38.1005 40.8489 43.6977 34.8028 44.0553 26.8703C44.1203 26.4707 44.0423 26.2022 43.4832 26.2546C40.1223 26.6017 37.0149 27.6629 34.187 29.5494C33.7905 29.8114 33.706 30.1062 33.758 30.5516C33.8425 31.318 33.9075 32.091 33.849 32.8705C33.5955 36.2046 32.1068 38.9558 29.9355 41.3926C29.9018 41.4322 29.8503 41.4642 29.7979 41.4968C29.6684 41.5772 29.5338 41.6609 29.6495 41.8707C29.7401 42.0372 29.8787 42.01 30.0297 41.9803C30.0628 41.9738 30.0966 41.9672 30.1305 41.9624ZM23.1889 41.9952C15.1474 41.0519 9.64769 35.4448 8.84809 27.4205L8.84591 27.3981C8.7896 26.8151 8.76121 26.5213 8.8938 26.39C9.02856 26.2566 9.32963 26.2912 9.93673 26.361L9.97923 26.3659C13.1191 26.7131 15.999 27.7939 18.6318 29.5494C19.0284 29.818 19.2299 30.08 19.1714 30.5975C18.7033 34.9339 20.0815 38.6283 23.0719 41.7528C23.1011 41.7739 23.1142 41.8084 23.1371 41.8687C23.1499 41.9022 23.1656 41.9437 23.1889 41.9952ZM15.8933 14.4835C16.4784 14.4901 16.7774 14.1363 16.8294 13.5337C16.7969 12.9769 16.5109 12.6166 15.9258 12.597C15.3343 12.5773 14.9767 12.918 14.9442 13.4813C14.9052 14.097 15.2758 14.4704 15.8933 14.4835ZM20.8149 8.05078C20.6459 8.78443 20.2688 9.07264 19.8008 9.34776C20.2661 9.43166 20.4841 9.76099 20.7386 10.1452L20.7386 10.1452L20.7386 10.1453L20.7386 10.1453L20.7386 10.1453C20.8218 10.271 20.909 10.4026 21.0099 10.5334C21.0424 9.82594 21.4715 9.55737 22.0826 9.28226C21.3935 9.07919 21.0684 8.74512 20.8149 8.05078ZM26.6596 5.47656C27.0172 5.49621 27.2512 5.69928 27.2512 6.04645C27.2512 6.38052 27.0432 6.64253 26.6856 6.64253C26.3346 6.64253 26.1006 6.41982 26.0941 6.0661C26.0876 5.71238 26.2956 5.50276 26.6596 5.47656ZM18.7948 4.88744C18.7298 5.20841 18.5802 5.40492 18.2422 5.38527C17.9497 5.36562 17.8066 5.17566 17.8066 4.90709C17.8066 4.63853 17.9432 4.44856 18.2422 4.42891C18.5932 4.40271 18.7233 4.61888 18.7948 4.88744ZM33.7065 14.2735C33.973 14.2604 34.142 14.0901 34.155 13.7299C34.1355 13.4678 33.9535 13.2844 33.6414 13.2975C33.3749 13.3106 33.1929 13.4678 33.1994 13.7692C33.2059 14.1032 33.3879 14.2932 33.7065 14.2735Z" fill="url(#paint0_radial_196_7752)"/>
<defs>
<radialGradient id="paint0_radial_196_7752" cx="0" cy="0" r="1" gradientUnits="userSpaceOnUse" gradientTransform="translate(26.3054 40.8188) scale(31.0117 51.6595)">
<stop stop-color="#F7D8B3"/>
<stop offset="0.476851" stop-color="#F77C30"/>
<stop offset="0.784148" stop-color="#803B11"/>
</radialGradient>
</defs>
</svg>
