<svg width="24" height="24" viewBox="0 0 24 24" fill="none" xmlns="http://www.w3.org/2000/svg">
<path fill-rule="evenodd" clip-rule="evenodd" d="M16.6627 18.178C12.8765 21.2104 7.33423 20.9718 3.82442 17.462C0.0585257 13.6961 0.0585257 7.59032 3.82442 3.82442C7.59032 0.0585248 13.696 0.0585254 17.4619 3.82442C20.9717 7.33423 21.2104 12.8765 18.178 16.6627L22.6862 21.1709C23.1046 21.5893 23.1046 22.2677 22.6862 22.6862C22.2677 23.1046 21.5893 23.1046 21.1709 22.6862L16.6627 18.178ZM5.3397 15.9467C2.41067 13.0176 2.41067 8.26874 5.3397 5.33971C8.26873 2.41067 13.0176 2.41067 15.9467 5.33971C18.8735 8.26659 18.8757 13.0107 15.9531 15.9402C15.9509 15.9423 15.9488 15.9445 15.9466 15.9466C15.9445 15.9488 15.9423 15.9509 15.9402 15.9531C13.0107 18.8757 8.26659 18.8736 5.3397 15.9467Z" fill="#858585"/>
</svg>
