<svg width="476" height="174" viewBox="0 0 476 174" fill="none" xmlns="http://www.w3.org/2000/svg">
<g clip-path="url(#clip0_0_1127)">
<path d="M299.357 153.407C297.225 152.912 295.133 152.129 293.274 150.916C292.338 150.303 291.506 149.638 290.674 148.908C290.259 148.543 289.869 148.165 289.505 147.747C289.193 147.369 288.894 147.043 288.686 146.521C286.554 146.978 284.422 147.473 282.291 147.891H282.278C282.278 147.891 282.265 147.891 282.252 147.891C282.252 147.891 282.265 147.891 282.278 147.891L281.771 147.5L282.252 147.904L277.65 144.552L273.075 141.174L272.178 140.509L273.309 140.601C279.171 141.07 285.033 141.474 290.895 142.022C296.758 142.557 302.62 143.026 308.469 143.639C314.318 144.226 320.18 144.774 326.016 145.452L330.396 145.935C331.852 146.104 333.321 146.208 334.79 146.456C336.245 146.691 337.714 146.926 339.118 147.46C339.456 147.604 339.82 147.747 340.106 148.073C340.249 148.23 340.301 148.504 340.197 148.699C340.093 148.882 339.937 149.012 339.781 149.13C339.274 149.443 338.728 149.638 338.182 149.821C339.157 150.199 340.457 150.695 342.004 151.321C343.693 152.025 345.695 152.794 347.801 153.707C349.906 154.62 352.155 155.585 354.404 156.55C356.626 157.555 358.862 158.572 360.955 159.524C363.047 160.476 364.958 161.428 366.622 162.197C369.923 163.801 372.094 164.936 372.094 164.936C372.094 164.936 369.793 164.101 366.388 162.732C364.698 162.028 362.696 161.245 360.591 160.345C358.485 159.433 356.236 158.467 353.988 157.502C351.765 156.498 349.529 155.481 347.437 154.529C345.344 153.59 343.433 152.625 341.77 151.855C340.158 151.073 338.832 150.408 337.883 149.925C337.831 149.938 337.792 149.951 337.74 149.977C337.779 149.964 337.831 149.938 337.87 149.925C337.805 149.899 337.753 149.86 337.688 149.834C337.623 149.912 337.571 149.99 337.532 150.03C337.597 150.017 337.675 150.004 337.74 149.977C337.662 150.004 337.571 150.043 337.48 150.069H337.467C337.467 150.069 337.441 150.069 337.402 150.082C336.505 150.408 335.596 150.721 334.673 150.982C333.633 151.269 332.593 151.555 331.54 151.79C329.448 152.286 327.316 152.651 325.197 153.003C320.947 153.72 316.657 154.125 312.355 154.385C311.276 154.451 310.197 154.49 309.106 154.503C308.001 154.503 306.922 154.438 305.843 154.359C303.685 154.19 301.515 153.916 299.396 153.407H299.357ZM335.856 148.478C337.883 148.66 337.961 149.26 337.753 149.677C337.857 149.717 337.987 149.769 338.104 149.808C338.65 149.586 339.196 149.351 339.651 148.999C339.781 148.882 339.911 148.765 339.976 148.621C340.028 148.478 340.002 148.347 339.885 148.23C339.664 147.995 339.313 147.865 338.975 147.747C337.597 147.304 336.129 147.147 334.686 146.991C333.23 146.847 331.761 146.782 330.292 146.652L325.899 146.313C320.037 145.882 314.175 145.322 308.326 144.813C302.464 144.317 296.615 143.691 290.765 143.131C285.267 142.609 279.782 141.97 274.297 141.37L276.507 143.183C281.511 143.626 332.84 148.217 335.856 148.478Z" fill="#E5053D"/>
<path d="M212.634 71.9503C212.115 71.6503 211.608 71.3634 211.101 71.0765C211.101 71.0374 211.101 70.9983 211.101 70.9591C211.062 70.4375 211.036 69.9158 210.958 69.4202C210.958 69.355 210.932 69.2898 210.932 69.2246C211.751 69.7071 212.569 70.2027 213.388 70.6983C215.78 72.1589 218.211 73.737 220.576 75.328C224.801 78.1711 228.921 81.1185 232.82 83.9746C232.859 84.0528 232.898 84.118 232.963 84.2484C233.119 84.5354 233.314 84.9788 233.522 85.4743C229.233 82.4618 224.619 79.3448 219.913 76.3714C217.509 74.8325 215.091 73.3718 212.66 71.9633L212.634 71.9503Z" fill="#E5053D"/>
<path d="M104.322 124.234C106.428 125.46 109.014 126.659 111.874 127.69C113.265 128.185 114.85 128.655 116.358 129.046C117.892 129.45 119.491 129.75 121.076 129.985C122.675 130.22 124.287 130.376 125.873 130.442C127.458 130.494 129.031 130.52 130.552 130.442C131.306 130.402 132.06 130.35 132.788 130.285C133.515 130.233 134.23 130.155 134.919 130.063C136.31 129.894 137.61 129.659 138.793 129.411C141.184 128.916 143.147 128.355 144.525 127.951C145.89 127.507 146.669 127.259 146.669 127.259C146.669 127.259 145.916 127.598 144.603 128.172C143.927 128.42 143.121 128.759 142.172 129.085C141.223 129.411 140.144 129.776 138.949 130.076C137.753 130.389 136.44 130.702 135.049 130.95C133.658 131.211 132.164 131.42 130.617 131.524C129.07 131.654 127.458 131.694 125.834 131.641C124.196 131.589 122.545 131.433 120.907 131.211C119.27 130.95 117.645 130.624 116.059 130.194C114.447 129.776 113.005 129.268 111.51 128.707C108.611 127.585 106.064 126.164 103.984 124.834C101.891 123.503 100.319 122.16 99.2267 121.234C98.1479 120.282 97.5759 119.695 97.5759 119.695C97.5759 119.695 98.2259 120.204 99.3827 121.052C100.539 121.899 102.242 123.034 104.348 124.247L104.322 124.234Z" fill="#E5053D"/>
<path d="M124.56 100.367C123.754 100.159 122.844 99.911 122.09 99.6501C120.518 99.1024 119.088 98.4503 117.905 97.8243C116.722 97.1853 115.747 96.5984 115.097 96.142C115.097 96.142 115.097 96.1419 115.084 96.1289C121.064 96.8071 125.834 97.3548 125.86 97.3548C126.25 97.3939 127.446 98.5677 127.836 98.8546C128.784 99.5719 129.655 100.407 130.578 101.15C129.447 101.124 128.303 101.046 127.16 100.863C126.289 100.733 125.405 100.576 124.573 100.354L124.56 100.367Z" fill="#E5053D"/>
<path d="M104.634 80.4141C102.255 82.7746 99.7467 85.3047 97.1471 87.9912C94.9505 90.2604 92.7018 92.621 90.4532 95.0467C89.3353 96.2595 88.2045 97.4985 87.1127 98.7505C86.5538 99.3765 86.0209 100.016 85.5009 100.655C85.228 100.981 85.02 101.281 84.773 101.58C84.6951 101.672 84.6171 101.789 84.5521 101.907C84.2791 101.333 83.7592 100.185 83.1093 98.6722C82.3294 96.8334 81.3546 94.4598 80.5487 91.9428C85.5009 92.6079 89.1534 93.1165 90.7261 93.3252C91.285 92.7644 91.8309 92.1906 92.3769 91.6428C88.0745 91.056 84.0711 90.5865 79.9897 90.0909C79.8208 89.4388 79.6778 88.7737 79.5478 88.1216C84.669 88.5129 89.9852 88.9041 94.7945 89.2302C95.3924 88.6303 96.0033 88.0173 96.6012 87.4304C99.3178 84.7569 101.943 82.2269 104.426 79.8794C104.504 80.0489 104.569 80.2315 104.647 80.4011L104.634 80.4141Z" fill="#E5053D"/>
<path d="M0.402924 82.3049C1.37778 81.8746 2.4566 81.8224 3.49643 81.705C4.54929 81.6268 5.60211 81.5877 6.65494 81.5746L28.5046 83.7004C35.7835 84.4177 43.0884 85.0306 50.3672 85.6827C57.6591 86.3087 64.951 87.0129 72.2429 87.5737C74.4135 87.7433 76.6882 87.9128 79.0148 88.0954C79.1058 88.7344 79.2228 89.3865 79.3528 90.0386C76.9872 89.7517 74.5955 89.4647 72.0869 89.1517C64.821 88.2128 57.5551 87.4172 50.2763 86.5434C43.0104 85.6957 35.7445 84.8089 28.4656 84.0264L6.64194 81.6659C5.58911 81.6659 4.53629 81.705 3.48343 81.7833C2.4436 81.8876 1.36478 81.9398 0.402924 82.3571C0.181946 82.4614 -0.0780334 82.6831 0.0519409 82.9309C0.168915 83.1657 0.402924 83.3091 0.61087 83.4656C0.636871 83.4787 0.675842 83.4917 0.701843 83.5178C0.181915 83.1918 0.116943 82.8136 1.45575 82.5397L1.57272 82.2528L2.01465 82.4484C2.01465 82.4484 2.07965 82.4354 2.13162 82.4354C5.51111 81.9528 56.2553 88.7083 79.7687 91.8905C80.4706 94.5901 81.3935 97.1331 82.1084 99.1024C82.9532 101.385 83.5901 102.884 83.5901 102.884L84.1491 102.637C84.357 102.571 84.617 102.48 84.851 102.376C85.5789 102.05 86.3197 101.659 87.0476 101.267C88.5034 100.472 89.9332 99.6241 91.3629 98.7764C94.2355 97.081 96.9651 95.4247 99.4607 93.5337C101.982 91.6688 104.322 89.7256 106.532 87.8867C108.728 86.0218 110.795 84.2351 112.667 82.5527C116.436 79.2011 119.504 76.345 121.648 74.3235C122.324 73.6715 122.909 73.1237 123.39 72.6673L121.622 67.3202C121.622 67.3202 120.764 67.4767 119.309 68.1288C118.36 68.5461 116.163 69.9285 114.733 70.8545C113.109 72.2891 111.302 73.9584 109.352 75.8363C108.156 76.984 106.87 78.236 105.57 79.5271C105.505 79.3576 105.427 79.188 105.362 79.0315C106.649 77.8187 107.896 76.6449 109.092 75.5625C110.678 74.1018 112.16 72.7846 113.538 71.5979C115.019 70.0981 116.969 68.6244 118.62 67.5028C119.699 66.7073 120.608 66.1335 121.258 65.7813C121.336 65.7422 121.401 65.7031 121.479 65.677C121.7 65.5466 121.843 65.4553 121.843 65.4553C121.843 65.4553 121.869 65.4944 121.882 65.4814C121.648 64.9206 121.427 64.3468 121.193 63.7599L121.024 63.2122C120.712 62.5731 120.543 61.9732 120.466 61.3994L120.44 61.3081C120.44 61.3081 120.388 61.1516 120.401 61.1646C120.401 61.1516 120.439 61.2559 120.452 61.2951C120.388 60.7212 120.414 60.1865 120.504 59.6909C120.725 58.5303 121.401 57.5391 121.401 57.5391C121.401 57.5391 121.414 57.5652 121.427 57.5652C121.973 56.7436 122.701 56.0524 123.546 55.5307C126.003 54.6308 128.589 54.1613 131.176 53.8353C133.398 53.5614 135.634 53.4441 137.883 53.4049C143.771 47.9927 149.698 42.6196 155.677 37.3117C155.963 37.6117 156.236 37.9377 156.496 38.2768C151.349 43.2065 146.241 48.1883 141.158 53.2093C145.292 50.0924 151.817 45.1627 158.329 40.1808C158.524 40.0243 158.719 39.8678 158.927 39.7244C158.693 39.4896 158.446 39.2158 158.16 38.9158C157.601 38.3289 156.938 37.6769 156.223 36.9987C155.495 36.3336 154.702 35.6163 153.883 34.9642C153.064 34.2991 152.207 33.6862 151.401 33.1123C150.985 32.8515 150.595 32.5646 150.205 32.3298C149.815 32.0951 149.451 31.8603 149.1 31.6517C147.696 30.8431 146.76 30.3084 146.76 30.3084C146.76 30.3084 147.033 30.3606 147.501 30.4519C147.969 30.5562 148.632 30.7257 149.412 31.0126C150.192 31.2865 151.063 31.6908 151.973 32.1864C152.415 32.4602 152.896 32.708 153.324 33.0341C153.779 33.334 154.208 33.6731 154.65 34.0122C155.482 34.7034 156.275 35.4468 156.951 36.2032C157.146 36.0206 157.341 35.851 157.536 35.6815C161.422 32.2646 165.322 28.8608 169.377 25.6395C170.612 24.6484 171.951 23.8268 173.302 22.9791C172.159 24.1006 170.963 25.0527 169.741 26.096C165.829 29.4477 162.059 33.008 158.316 36.5553C158.108 36.7509 157.913 36.9465 157.705 37.1422C158.082 37.6116 158.42 38.0681 158.693 38.5115C158.927 38.8506 159.122 39.1766 159.291 39.4766C162.631 36.9204 165.972 34.3513 169.286 31.743C170.703 30.6344 172.042 29.3172 173.484 28.2739C175.239 27.0089 176.955 25.8482 178.476 24.2832C179.411 23.3312 180.321 22.1053 180.087 20.7881C180.477 21.1793 180.516 21.8184 180.308 22.327C179.905 23.3181 178.554 24.3093 177.761 25.0266C176.695 26.0569 175.122 27.4653 173.211 29.1347C169.585 32.3168 164.75 36.4249 159.836 40.559C159.94 40.7938 160.005 40.9242 160.005 40.9242C160.005 40.9242 159.901 40.8199 159.732 40.6373C159.512 40.8199 159.304 41.0024 159.083 41.185C153.532 45.8539 147.982 50.4706 144.005 53.7571C144.421 53.7962 144.863 53.8483 145.383 53.9005C145.734 53.9396 146.111 53.9788 146.501 54.0179C146.708 54.044 146.864 54.044 147.137 54.0831C147.345 54.1092 147.553 54.1483 147.774 54.1744C148.632 54.3178 149.568 54.4222 150.569 54.6308C151.557 54.8265 152.623 54.996 153.688 55.2438C155.846 55.6872 158.121 56.248 160.382 56.8479C164.906 58.0477 169.364 59.5214 172.678 60.6951C174.329 61.282 175.707 61.8037 176.669 62.1819C177.124 62.3645 177.475 62.5079 177.735 62.6122C177.904 62.5601 178.099 62.5079 178.346 62.4427C179.035 62.2601 180.048 62.0645 181.335 61.8819C182.622 61.7385 184.195 61.582 185.988 61.6341C187.184 61.6341 188.484 61.7254 189.862 61.8819C189.966 61.1646 190.122 60.0039 190.239 58.8302C190.434 56.9392 190.538 55.0351 190.538 55.0351C190.538 55.0351 190.746 56.9261 190.863 58.8432C190.941 60.0691 190.967 61.2951 190.98 62.0254C191.305 62.0645 191.63 62.1036 191.968 62.1558C194.125 62.534 196.452 63.0296 198.817 63.8121C199.415 64.0077 200.013 64.2033 200.624 64.3989C201.222 64.6337 201.82 64.8684 202.431 65.1162C203.666 65.5727 204.862 66.1465 206.096 66.7203C206.98 67.1116 207.838 67.568 208.696 68.0506C208.917 68.5983 209.138 69.1852 209.32 69.8372C209.359 69.9677 209.385 70.0981 209.424 70.2415C209.294 70.1763 209.151 70.0981 209.021 70.0198C207.812 69.4069 206.629 68.7548 205.408 68.2592C204.199 67.7245 203.016 67.1898 201.82 66.7986C201.222 66.5769 200.637 66.3682 200.052 66.1595C199.454 65.99 198.869 65.8074 198.298 65.6379C195.997 64.9336 193.761 64.5294 191.695 64.2164C189.628 63.9686 187.717 63.8382 186.027 63.8773C184.338 63.8773 182.882 64.0599 181.699 64.2294C180.529 64.425 179.632 64.6206 179.035 64.8032C179.151 65.1032 179.372 65.4814 179.762 65.9378C180.204 66.4595 180.867 67.0203 181.686 67.5941C183.233 67.0985 188.419 65.9248 197.921 67.9723C201.521 68.7548 205.771 70.5676 209.892 72.6933C209.918 73.1759 209.97 73.6584 209.957 74.1279C209.931 74.6104 209.957 75.093 209.866 75.5494C209.788 76.0059 209.749 76.4623 209.606 76.8666C209.476 77.2709 209.411 77.6882 209.229 78.0143C209.073 78.3534 208.93 78.6794 208.813 78.9533C208.644 79.2141 208.501 79.4358 208.384 79.6314C208.137 80.0096 208.007 80.2183 208.007 80.2183C208.007 80.2183 208.176 80.0227 208.475 79.6836C208.618 79.5141 208.8 79.3054 209.008 79.0706C209.177 78.8098 209.372 78.5099 209.58 78.1708C209.814 77.8447 209.944 77.4405 210.152 77.0362C210.36 76.6319 210.477 76.1624 210.633 75.6929C210.802 75.2234 210.854 74.7148 210.958 74.1931C211.01 73.8932 211.036 73.5932 211.062 73.2933C219.731 77.91 227.595 83.6221 227.595 83.6221L234.562 88.9952C234.601 89.1778 234.64 89.3474 234.679 89.5299C234.77 89.9864 234.796 90.4559 234.861 90.9384C234.861 91.4079 234.9 91.8905 234.861 92.36C234.809 92.8164 234.822 93.299 234.705 93.7293C234.614 94.1727 234.549 94.6031 234.393 94.9813C234.25 95.3726 234.159 95.7638 233.964 96.0768C233.795 96.4028 233.639 96.7028 233.509 96.9636C233.34 97.2114 233.184 97.4201 233.054 97.5896C232.794 97.9417 232.651 98.1374 232.651 98.1374C232.651 98.1374 232.82 97.9678 233.132 97.6548C233.288 97.4983 233.47 97.3027 233.691 97.094C233.873 96.8462 234.081 96.5593 234.302 96.2594C234.549 95.9594 234.705 95.5812 234.913 95.19C235.147 94.8118 235.277 94.3684 235.446 93.9119C235.641 93.4554 235.706 92.9729 235.836 92.4773C235.953 91.9818 235.992 91.4601 236.057 90.9515C236.057 90.7037 236.083 90.4559 236.096 90.1951L250.914 101.632H255.073H255.281C253.383 100.159 249.991 97.5505 245.636 94.3162C242.777 92.1904 239.475 89.7908 235.94 87.2738C235.901 86.9347 235.862 86.5956 235.797 86.2826C239.488 89.0474 242.92 91.6948 245.87 94.0162C250.186 97.407 253.526 100.12 255.385 101.632L314.578 102.011L344.33 102.219L374.083 102.532L433.575 103.197H433.665H433.73C436.083 103.615 438.358 104.163 440.632 104.919C441.763 105.31 442.894 105.754 443.986 106.367C444.532 106.693 445.078 107.058 445.585 107.553C446.066 108.036 446.599 108.805 446.573 109.757C446.547 110.657 446.092 111.322 445.65 111.805L476 125.629L444.935 112.379C444.636 112.626 444.324 112.848 444.064 113.018C442.907 113.722 441.789 114.139 440.645 114.504C438.371 115.222 436.083 115.704 433.795 116.161C429.207 117.048 424.606 117.687 420.005 118.273C417.041 118.652 414.09 118.978 411.127 119.291C413.272 120.269 415.429 121.234 417.444 122.16C419.537 123.112 421.447 124.064 423.111 124.833C426.413 126.437 428.583 127.572 428.583 127.572C428.583 127.572 426.283 126.737 422.877 125.368C421.187 124.664 419.186 123.881 417.08 122.981C414.974 122.069 412.726 121.103 410.477 120.138C410.009 119.93 409.554 119.721 409.086 119.512C408.111 119.617 407.137 119.721 406.162 119.812C396.92 120.712 387.679 121.39 378.411 121.977L359.018 123.464L387.471 136.492L357.224 123.594L352.467 123.96L350.686 124.142L350.075 121.795C350.374 123.529 350.673 125.251 350.959 126.998C350.283 124.494 349.646 121.99 349.009 119.486C344.499 119.995 339.976 120.464 335.453 120.908L321.597 122.173C316.969 122.551 312.355 122.968 307.728 123.307C303.1 123.647 298.486 124.025 293.859 124.325C289.232 124.638 284.604 124.977 279.977 125.238C278.326 125.342 276.689 125.42 275.038 125.525L279.561 132.28L350.959 127.024L299.318 132.124L297.823 142.348L298.187 132.228L252.356 136.753L253.929 139.727L279.86 150.616C278.846 150.851 277.702 150.995 276.481 151.047C281.524 151.36 286.593 151.477 291.649 151.399C285.397 151.581 279.132 151.451 272.88 151.008C272.659 150.995 272.438 150.982 272.204 150.969C271.957 150.956 271.71 150.942 271.463 150.916C268.11 150.643 264.756 150.251 261.429 149.677C260.155 149.469 258.894 149.169 257.633 148.882L307.832 171.144L238.097 142.465L232.56 140.47L213.622 133.441C211.088 132.489 208.553 131.524 206.018 130.572C205.031 130.754 204.056 130.924 203.146 131.067L205.927 144.043C206.226 143.717 206.564 143.457 206.863 143.17C207.214 142.922 207.526 142.674 207.864 142.479C208.527 142.1 209.151 141.866 209.671 141.735C209.944 141.683 210.178 141.644 210.386 141.605C210.594 141.592 210.776 141.605 210.919 141.605C211.205 141.605 211.361 141.605 211.361 141.605C211.361 141.605 211.205 141.605 210.919 141.631C210.776 141.644 210.594 141.644 210.386 141.67C210.191 141.722 209.957 141.774 209.697 141.839C209.19 141.996 208.592 142.257 207.981 142.674C207.669 142.87 207.383 143.144 207.058 143.391C206.772 143.691 206.447 143.978 206.161 144.343C205.576 145.035 205.031 145.856 204.55 146.782C204.069 147.708 203.653 148.725 203.315 149.808C202.977 150.89 202.704 152.038 202.535 153.212C202.34 154.372 202.262 155.611 202.223 156.785C202.223 158.037 202.275 159.224 202.431 160.385C202.561 161.558 202.808 162.693 203.107 163.762C203.406 164.832 203.783 165.836 204.225 166.723C204.654 167.623 205.161 168.405 205.68 169.07C205.927 169.409 206.226 169.67 206.473 169.957C206.759 170.192 207.006 170.44 207.279 170.609C207.617 170.844 207.942 171.013 208.241 171.144C205.823 168.64 204.316 163.41 204.589 157.424C204.966 149.169 208.605 142.635 212.712 142.818C214.428 142.896 215.936 144.148 217.106 146.156C216.859 145.674 216.586 145.217 216.3 144.8C216.053 144.422 215.754 144.109 215.494 143.77C215.195 143.483 214.935 143.196 214.636 142.961C214.064 142.492 213.492 142.179 212.998 141.97C212.751 141.879 212.517 141.8 212.322 141.735C212.127 141.683 211.945 141.67 211.803 141.644C211.517 141.592 211.361 141.566 211.361 141.566C211.361 141.566 211.517 141.579 211.803 141.605C211.945 141.618 212.127 141.631 212.335 141.67C212.543 141.722 212.777 141.787 213.037 141.866C213.544 142.048 214.155 142.335 214.766 142.778C215.078 143 215.364 143.274 215.702 143.561C215.988 143.887 216.313 144.187 216.599 144.565C217.184 145.309 217.73 146.169 218.198 147.147C218.678 148.112 219.068 149.182 219.393 150.316C219.705 151.451 219.965 152.651 220.095 153.877C220.264 155.116 220.303 156.394 220.303 157.607C220.264 158.898 220.186 160.137 219.978 161.389C219.796 162.628 219.497 163.827 219.146 164.975C218.782 166.123 218.34 167.205 217.821 168.196C217.301 169.188 216.703 170.087 216.053 170.857C215.741 171.248 215.364 171.574 215.052 171.913C214.675 172.213 214.35 172.513 213.986 172.748C213.258 173.23 212.569 173.53 211.919 173.739C211.582 173.83 211.27 173.896 210.997 173.948C209.892 174.091 208.943 173.974 207.903 173.543C207.305 173.296 206.629 172.917 205.953 172.383C205.615 172.122 205.303 171.783 204.966 171.457C204.68 171.092 204.329 170.726 204.056 170.309C203.484 169.474 202.964 168.535 202.535 167.492C202.106 166.462 201.768 165.34 201.508 164.154C201.261 162.98 201.079 161.754 201.014 160.502C200.923 159.328 200.962 158.128 201.014 156.994L175.941 130.193L169.689 128.85L168.246 129.946L140.3 152.26C140.3 152.416 140.287 152.664 140.274 153.003C140.261 153.303 140.261 153.629 140.223 154.085C140.184 154.503 140.131 154.972 140.079 155.481C140.001 155.99 139.911 156.537 139.807 157.124C139.664 157.698 139.56 158.311 139.378 158.924C139.209 159.537 139.014 160.176 138.78 160.815C137.961 162.915 137.168 164.832 135.621 166.527C134.386 167.87 132.762 168.94 130.903 169.057C130.89 169.057 130.877 169.057 130.864 169.057C130.812 169.057 130.786 169.057 130.734 169.057C130.591 169.057 130.448 169.083 130.305 169.083C130.266 169.083 130.227 169.07 130.175 169.07C130.019 169.07 129.928 169.07 129.928 169.07C129.928 169.07 129.993 169.07 130.11 169.07C129.954 169.057 129.798 169.031 129.642 169.005C129.837 169.057 129.928 169.083 129.928 169.083C129.928 169.083 129.733 169.083 129.356 169.083C129.161 169.083 128.927 169.083 128.667 169.018C128.407 168.953 128.069 168.927 127.744 168.783C127.069 168.549 126.276 168.131 125.509 167.466C124.755 166.801 123.949 165.953 123.325 164.897C122.662 163.854 122.051 162.641 121.622 161.284C121.167 159.941 120.803 158.493 120.634 156.955C120.517 156.198 120.492 155.39 120.44 154.581C120.44 154.203 120.44 153.825 120.44 153.433V153.146V152.964V152.807L120.491 152.207C120.582 150.59 120.829 148.96 121.245 147.356C122.103 144.187 123.598 141.031 126.107 138.879C127.354 137.81 128.862 137.053 130.552 136.975H131.059H131.306C131.54 136.975 131.54 137.001 131.657 137.014C132.034 137.053 132.398 137.145 132.749 137.262C133.438 137.497 134.048 137.849 134.581 138.214C135.634 138.983 136.349 139.909 136.869 140.757C137.402 141.605 137.727 142.413 137.974 143.065C138.221 143.717 138.351 144.265 138.442 144.617L141.496 142.87L152.454 125.133L152.116 125.055C152.22 125.003 152.311 124.964 152.428 124.912C152.987 124.651 153.558 124.351 154.156 124.025L153.558 124.925L167.453 128.068L167.674 127.937L171.379 125.277L166.089 119.63V119.682L161.929 118.952C162.566 118.456 163.216 117.96 163.84 117.439C164.178 117.152 164.49 116.852 164.815 116.565C178.177 121.925 197.388 129.815 198.558 130.298L198.636 130.324C198.83 130.363 199.571 130.389 201.898 129.985L201.742 128.902C189.875 124.416 178.034 119.865 166.206 115.3C166.335 115.183 166.478 115.065 166.595 114.948C167.492 114.113 168.311 113.226 169.117 112.379C170.703 110.67 172.055 108.962 173.172 107.475C173.536 107.019 173.848 106.575 174.134 106.145L201.118 117.478L192.539 105.897C192.37 105.78 192.202 105.662 192.033 105.519C191.903 105.415 191.773 105.31 191.643 105.167C191.526 105.075 191.279 104.684 191.266 104.606C191.201 104.423 191.253 104.541 191.227 104.462V104.397L191.201 104.254L191.162 103.98C191.136 103.797 191.162 103.576 191.188 103.38C191.214 103.184 191.305 102.976 191.383 102.767C191.5 102.598 191.617 102.389 191.773 102.258C192.396 101.685 193.111 101.528 193.761 101.424C194.424 101.346 195.048 101.346 195.711 101.424H195.633L210.36 101.45C209.814 101.45 208.852 100.746 208.358 100.511C207.357 100.041 206.343 99.585 205.329 99.1285C202.496 97.8374 199.662 96.5854 196.803 95.3465C189.186 92.0339 181.478 88.8779 173.692 85.9696C172.523 85.5392 171.353 85.1089 170.183 84.6785C167.076 83.5569 163.957 82.4875 160.889 81.5094C160.733 81.7702 160.577 82.0311 160.434 82.2658C159.031 84.4959 157.861 85.8001 157.861 85.8001C157.861 85.8001 158.069 85.4088 158.42 84.7437C158.784 84.0786 159.252 83.1005 159.81 81.9267C159.914 81.705 160.018 81.4833 160.122 81.2486C156.73 80.1792 153.415 79.2141 150.257 78.4186C150.075 78.9533 149.906 79.488 149.685 80.0096C149.256 81.2225 148.697 82.3832 148.151 83.4917C147.852 84.0264 147.54 84.5611 147.254 85.0828C146.942 85.5784 146.643 86.0609 146.345 86.5304C145.747 87.4694 145.188 88.3432 144.668 89.1648C143.069 91.6818 141.886 93.5337 141.418 94.264C141.808 94.3683 142.757 94.6031 145.084 95.1769C145.773 95.3465 146.513 95.5421 147.267 95.7507C147.202 95.8029 147.137 95.8551 147.072 95.9072C146.046 96.6506 145.071 97.3157 144.213 97.8504C143.355 98.3982 142.64 98.8416 142.107 99.1415C141.587 99.4415 141.288 99.6241 141.288 99.6241C141.288 99.6241 140.859 99.7415 140.118 99.9501C139.404 97.9417 139.988 96.1942 140.521 95.1769C139.988 95.0856 139.456 95.0074 138.949 94.9291C137.779 94.8118 136.661 94.6944 135.634 94.5901C135.621 94.5901 135.608 94.5901 135.595 94.5901C136.037 96.8984 136.83 98.9068 137.831 100.498C137.532 100.563 137.207 100.615 136.882 100.68C135.517 100.928 133.905 101.124 132.177 101.176C131.644 100.746 131.111 100.289 130.63 99.7936C130.097 99.2459 129.603 98.659 129.148 98.033L128.823 97.5505L128.667 97.3027L128.589 97.1853L128.55 97.1201L128.472 96.9767L128.004 96.0116C127.926 95.7899 127.835 95.5551 127.757 95.3073C127.757 95.3073 103.295 92.7903 103.308 92.7642C102.528 93.3511 101.735 93.938 100.93 94.5118C105.18 94.9943 110.262 95.5682 114.72 96.0768C114.798 96.155 114.876 96.2333 114.967 96.3246C115.552 96.8593 116.41 97.6418 117.554 98.4243C118.698 99.2068 120.115 100.015 121.726 100.667C122.571 100.993 123.338 101.28 124.261 101.515C125.158 101.763 126.055 101.945 126.978 102.089C128.667 102.324 130.383 102.376 131.995 102.258C133.516 103.393 135.114 104.423 136.856 105.206C138.325 105.871 139.872 106.354 141.405 106.836C142.822 107.279 144.252 107.723 145.669 108.179C146.449 108.427 147.28 108.714 147.995 109.157C147.904 108.649 147.943 108.297 147.943 108.284H148.034C144.759 107.019 141.483 105.754 138.208 104.476L138.273 104.502C137.506 104.241 136.843 103.967 136.167 103.628C135.491 103.302 134.828 102.95 134.204 102.545C133.97 102.402 133.736 102.245 133.516 102.089C133.996 102.024 134.464 101.945 134.906 101.854C135.686 101.711 136.414 101.515 137.077 101.319C137.48 101.202 137.844 101.085 138.195 100.954C138.728 101.724 139.287 102.402 139.885 102.937C141.6 103.628 143.303 104.319 145.019 105.01C142.237 103.38 140.846 101.685 140.223 100.146C140.924 99.8067 141.314 99.611 141.314 99.611C141.314 99.611 141.652 99.5198 142.224 99.3502C142.783 99.1546 143.628 98.8938 144.564 98.4634C145.799 97.9287 147.241 97.1201 148.671 96.142C151.83 97.0549 154.832 98.033 154.832 98.033L156.444 98.7112C157.12 98.959 157.783 99.2068 158.433 99.4545C160.863 100.367 163.112 101.319 165.023 102.141C167.076 103.041 168.714 103.81 169.819 104.332L172.678 105.532C172.847 105.388 173.003 105.232 173.172 105.075C173.276 105.128 173.38 105.18 173.471 105.232C173.302 105.375 173.146 105.519 172.977 105.662L173.588 105.923C173.276 106.275 172.964 106.653 172.627 107.045C171.431 108.453 169.936 109.992 168.324 111.635C167.518 112.444 166.647 113.266 165.777 114.087C165.504 114.335 165.218 114.583 164.945 114.83C159.693 112.809 154.442 110.788 149.191 108.753C149.243 109.392 149.646 110.931 152.35 111.753C153.519 112.105 157.913 113.826 163.554 116.082C163.385 116.226 163.229 116.382 163.047 116.526C162.163 117.282 161.266 118.013 160.356 118.704L158.004 118.286L155.3 122.316C154.676 122.734 154.065 123.125 153.48 123.49L156.834 118.065L87.0866 105.78L88.6984 108.571L149.841 124.012L139.066 121.651L151.726 124.52C151.531 124.638 151.336 124.742 151.141 124.859L86.2937 110.892L86.0858 110.853L85.9558 110.683L81.4585 104.789L32.638 92.386C26.3339 90.795 20.0429 89.1909 13.7519 87.5216L71.437 112.626L7.70779 85.9044C6.05704 85.4349 4.41928 84.9654 2.79456 84.4177L3.53543 84.7046L4.65326 85.1089L4.73123 85.1349C4.73123 85.1349 4.75723 85.135 4.77023 85.148C4.77023 85.148 4.83524 85.1741 4.82224 85.1871L4.75726 85.161C4.75726 85.161 4.73126 85.161 4.71826 85.148L4.64023 85.1219L3.52243 84.7176L2.20963 84.2351C2.20963 84.2351 2.13162 84.209 2.09265 84.196L0.61087 83.6482C0.61087 83.6482 0.519897 83.6091 0.493896 83.6091L0.428894 83.583C0.428894 83.583 0.454895 83.583 0.467896 83.583C0.467896 83.583 0.441895 83.583 0.441895 83.57C0.441895 83.57 0.506897 83.5961 0.532898 83.6091L0.623871 83.6482L1.8327 84.0916C1.41678 83.9221 1.01379 83.7395 0.636871 83.5048C0.415894 83.3613 0.181946 83.2178 0.0649414 82.957C-0.0780334 82.6701 0.207916 82.4223 0.428894 82.318L0.402924 82.3049ZM210.581 158.598C210.581 158.976 210.581 159.341 210.581 159.706C210.607 160.45 210.607 161.193 210.672 161.91C210.737 162.615 210.802 163.306 210.906 163.945C211.01 164.584 211.153 165.184 211.296 165.732C211.465 166.253 211.634 166.749 211.841 167.14C212.036 167.544 212.27 167.857 212.504 168.092C212.738 168.301 212.959 168.483 213.128 168.535C213.31 168.614 213.401 168.653 213.401 168.653C213.401 168.653 213.323 168.653 213.219 168.653C213.297 168.653 213.362 168.692 213.44 168.692C213.635 168.692 213.83 168.679 214.025 168.64C213.895 168.666 213.765 168.666 213.687 168.666C213.505 168.666 213.401 168.666 213.401 168.666C213.401 168.666 213.505 168.653 213.687 168.614C213.882 168.601 214.116 168.47 214.402 168.301C214.675 168.118 215 167.857 215.273 167.466C215.559 167.101 215.806 166.631 216.079 166.123C216.573 165.066 216.976 163.762 217.275 162.328C217.431 161.61 217.535 160.867 217.639 160.098C217.73 159.341 217.795 158.546 217.834 157.789C217.925 156.172 217.86 154.659 217.704 153.186C217.535 151.738 217.262 150.395 216.872 149.299C216.651 148.765 216.456 148.269 216.196 147.878C215.962 147.473 215.676 147.173 215.416 146.965C215.169 146.782 214.948 146.652 214.779 146.613C214.688 146.6 214.597 146.574 214.506 146.561C214.415 146.561 214.324 146.574 214.233 146.587C214.207 146.587 214.207 146.587 214.181 146.6C213.986 146.639 213.765 146.795 213.518 146.991C213.271 147.2 213.011 147.486 212.777 147.878C212.53 148.243 212.322 148.725 212.101 149.234C211.906 149.769 211.725 150.343 211.556 150.969C211.387 151.595 211.257 152.273 211.127 152.977C210.984 153.681 210.919 154.412 210.828 155.155C210.75 155.898 210.698 156.668 210.659 157.424L210.62 158.598H210.581ZM137.519 143.261C136.739 141.97 135.322 140.392 133.723 140.314C130.331 140.157 127.315 145.869 126.99 153.081C126.653 160.293 129.135 166.266 132.515 166.423C134.321 166.501 135.699 164.975 136.583 163.567C137.844 161.545 138.611 159.328 138.858 156.942C138.923 156.381 138.975 155.846 139.027 155.351C139.053 154.855 139.066 154.398 139.092 153.994C139.092 153.72 139.092 153.433 139.092 153.186L138.533 153.629C138.533 153.72 138.52 153.851 138.507 154.007C138.455 154.398 138.416 154.92 138.312 155.559C138.13 156.824 137.766 158.507 137.181 160.111C136.726 161.363 136.102 162.549 135.4 163.436C134.646 164.453 133.775 165.027 132.879 164.988C131.501 164.923 130.331 163.41 129.577 161.076C128.68 158.415 128.342 154.764 128.758 151.164C128.979 149.247 129.408 147.356 130.136 145.661C130.513 144.813 130.955 144.017 131.566 143.365C131.865 143.026 132.216 142.739 132.619 142.518C132.801 142.4 133.087 142.335 133.32 142.257C133.567 142.218 133.619 142.205 133.944 142.192C134.88 142.244 135.556 142.792 135.985 143.261C136.427 143.744 136.713 144.213 136.921 144.604C137.051 144.852 137.155 145.061 137.233 145.243L138.286 144.643C138.117 144.317 137.857 143.835 137.493 143.235L137.519 143.261ZM136.791 146.86C135.842 147.434 134.893 147.995 133.983 148.608C133.814 148.725 133.646 148.843 133.477 148.96C133.308 149.078 133.165 149.26 133.035 149.417C131.982 150.76 131.553 152.012 131.748 153.72L164.841 129.946C163.736 130.611 162.631 131.276 161.526 131.941C158.914 133.519 156.288 135.097 153.675 136.675C150.582 138.54 147.488 140.405 144.395 142.27C141.86 143.796 139.326 145.322 136.791 146.847V146.86ZM153.272 125.303L141.561 142.818L167.05 128.276L153.272 125.303ZM159.927 58.439C157.939 57.826 155.95 57.2652 154.039 56.7696C153.974 57.9043 153.831 59.7953 153.571 62.1558C153.402 63.7077 153.168 65.4814 152.87 67.3594C154.598 67.8941 156.431 68.4548 158.394 69.0548C160.122 69.6677 161.929 70.3067 163.801 70.9719C164.464 68.4027 164.919 65.8987 165.179 63.8903C165.348 62.6122 165.478 61.5298 165.53 60.7734C165.543 60.6039 165.556 60.4604 165.569 60.33C163.762 59.6909 161.864 59.0519 159.94 58.465L159.927 58.439ZM432.6 107.162C440.333 107.436 443.401 109.692 444.285 110.54C444.584 110.214 444.753 109.888 444.74 109.653C444.805 109.184 443.96 108.414 443.063 107.932C442.127 107.423 441.087 107.019 440.022 106.667C437.903 105.988 435.667 105.493 433.471 105.128H432.691L432.6 107.162ZM410.88 117.987L408.605 118.221C408.605 118.221 408.644 118.234 408.67 118.247C409.411 118.156 410.152 118.078 410.88 117.987ZM406.032 118.56C406.279 118.534 406.526 118.508 406.773 118.469C406.734 118.456 406.695 118.43 406.656 118.417L381.232 121.025C389.511 120.308 397.778 119.486 406.032 118.56ZM279.73 107.201H321.09C321.09 107.201 414.155 107.019 430.143 107.123L430.234 105.115L374.057 104.775L344.304 104.593L314.552 104.293L279.86 103.915L279.704 107.201H279.73ZM255.385 147.826C255.788 147.943 256.204 148.073 256.607 148.191C258.01 148.569 259.453 148.882 260.896 149.156C258.881 148.712 256.997 148.243 255.385 147.812V147.826ZM236.239 126.177C236.915 126.49 237.591 126.803 238.279 127.116C237.721 126.881 237.175 126.646 236.616 126.411L240.762 128.941L238.292 127.116L252.083 134.301L277.273 132.45L273.049 125.642C270.735 125.772 268.422 125.916 266.108 126.033L259.154 126.372L252.2 126.672C247.56 126.816 242.933 127.037 238.279 127.103C239.384 126.959 240.489 126.842 241.594 126.711L237.993 126.959L236.109 126.085L236.252 126.164L236.239 126.177ZM203.679 129.672C203.38 129.554 203.081 129.45 202.782 129.333L202.886 129.828C203.133 129.776 203.393 129.737 203.679 129.672ZM169.936 128.655L175.694 129.959L172.575 126.633V126.659L169.923 128.668L169.936 128.655ZM180.62 124.325C178.775 123.568 176.89 122.812 174.992 122.042L200.481 154.738L201.157 155.429C201.196 155.142 201.235 154.868 201.274 154.581L201.235 154.607L181.634 125.668L180.633 124.325H180.62ZM198.674 131.589C198.259 131.576 198.038 131.498 197.921 131.406C197.557 131.25 196.478 130.806 194.918 130.167L194.996 130.95V131.041L194.97 131.093L193.241 133.949L194.554 130.976L194.32 129.946C192.669 129.267 190.538 128.394 188.133 127.416L186.027 131.589L185.741 131.211L186.664 132.476L193.241 133.962L186.729 132.567L201.586 153.016C201.833 151.816 202.197 150.669 202.6 149.586C203.016 148.491 203.51 147.46 204.082 146.534C204.134 146.443 204.199 146.365 204.264 146.274L202.067 131.263C200.416 131.498 199.142 131.641 198.701 131.615L198.674 131.589ZM195.581 102.754H195.542H195.503C194.476 102.624 193.176 102.689 192.604 103.197C192.474 103.315 192.409 103.458 192.37 103.628C192.37 103.732 192.331 103.81 192.357 103.928L192.383 104.097V104.176L192.396 104.215C192.461 104.345 192.422 104.254 192.5 104.358C192.578 104.436 192.669 104.528 192.773 104.619C192.981 104.789 193.202 104.958 193.436 105.128C194.528 105.884 195.698 106.562 196.881 107.227L277.273 107.201L277.429 103.889L255.086 103.654L195.594 102.754H195.581ZM170.599 83.5569C171.769 84.0134 172.925 84.4829 174.095 84.9524C181.881 88.1084 189.537 91.4992 197.154 95.0726C199.948 96.3767 202.743 97.707 205.511 99.0633C206.499 99.5458 207.474 100.028 208.462 100.511C208.917 100.746 209.879 101.476 210.399 101.476L236.811 101.528C236.564 101.398 236.291 101.254 235.992 101.085C234.237 100.12 231.754 98.7373 228.778 97.0288C222.838 93.625 214.961 89.0083 207.084 84.3785C203.146 82.0832 199.194 79.7879 195.503 77.6361C193.644 76.5797 191.851 75.5625 190.148 74.5974C187.171 72.9281 184.013 71.5587 181.101 69.8242C179.84 69.0808 178.788 68.2853 178.008 67.4376C177.215 66.603 176.721 65.7031 176.539 64.9336C176.513 64.8293 176.513 64.7511 176.487 64.6598C176.279 64.5685 176.045 64.4641 175.759 64.3337C174.836 63.9294 173.51 63.3687 171.899 62.7166C170.118 61.9993 167.986 61.1907 165.699 60.3691C165.777 61.1255 165.868 62.3645 165.842 63.9294C165.829 65.2466 165.712 66.7855 165.465 68.4157C165.322 69.3808 165.114 70.3589 164.88 71.3631C167.063 72.2369 169.312 73.1237 171.6 74.0366C173.874 75.0408 176.214 75.9928 178.502 77.0623C182.973 79.1619 187.418 81.3007 191.825 83.5569C196.036 85.7218 199.883 87.8606 203.185 89.7125C209.762 93.4554 214.012 96.155 214.012 96.155C214.012 96.155 209.671 93.5859 203.003 90.0516C199.649 88.304 195.737 86.2826 191.474 84.2612C187.015 82.1484 182.544 80.14 178.008 78.1969C175.694 77.2057 173.341 76.3189 171.054 75.3929C168.805 74.5713 166.595 73.7758 164.464 72.9933C164.425 73.1498 164.386 73.3063 164.347 73.4628C164.074 74.3235 163.814 75.1191 163.502 75.9537C163.203 76.7623 162.865 77.5448 162.527 78.3012C162.228 78.9533 161.916 79.5793 161.604 80.1792C164.581 81.2355 167.596 82.3571 170.586 83.5308L170.599 83.5569ZM160.733 79.8923C161.006 79.2663 161.279 78.6012 161.552 77.91C161.851 77.1666 162.124 76.3711 162.397 75.5755C162.67 74.793 162.943 73.9453 163.177 73.1368C163.229 72.9672 163.268 72.8107 163.32 72.6412C161.422 72.0282 159.564 71.4414 157.809 70.8806C155.937 70.3719 154.169 69.8764 152.506 69.4199C152.09 71.6631 151.583 73.9975 150.933 76.3189C150.894 76.4493 150.855 76.5797 150.803 76.7232C154 77.623 157.341 78.7055 160.733 79.8923ZM149.191 66.4465L150.465 61.9602C150.53 58.8693 150.465 56.6653 150.426 55.935C150.4 55.935 150.374 55.935 150.348 55.9219C149.386 55.6872 148.45 55.5437 147.592 55.3612C147.384 55.322 147.163 55.2829 146.968 55.2438C146.773 55.2177 146.578 55.1916 146.397 55.1525C146.007 55.1003 145.63 55.0482 145.279 54.996C144.577 54.8917 143.966 54.8134 143.459 54.7352C143.238 54.7091 143.056 54.683 142.887 54.6569C141.99 55.3872 141.21 56.0393 140.56 56.574C140.846 57.2261 141.223 58.1781 141.444 59.404C141.678 60.6299 141.743 62.1427 141.418 63.7338C141.353 64.0729 141.249 64.425 141.145 64.7641C141.73 64.8684 142.523 65.0119 143.524 65.1945C144.616 65.4162 145.968 65.5857 147.462 66.003C148.008 66.1465 148.593 66.29 149.191 66.4334V66.4465ZM148.593 68.5461C148.034 68.4288 147.501 68.3114 146.981 68.194C145.5 67.8289 144.187 67.7115 143.121 67.5289C141.691 67.3202 140.677 67.1637 140.157 67.0855C140.131 67.1377 140.105 67.1898 140.079 67.242C139.872 67.6072 139.586 67.9854 139.339 68.3636C139.3 68.4027 139.274 68.4548 139.235 68.494C138.923 69.9155 138.507 71.8587 138.052 74.0497C139.04 74.154 140.066 74.2975 141.132 74.48C142.848 74.7669 144.694 75.1712 146.578 75.6277L148.58 68.5461H148.593ZM135.413 93.5467C135.517 93.5467 135.621 93.5467 135.725 93.5728C136.765 93.7032 137.896 93.8597 139.079 94.0032C139.703 94.1206 140.352 94.251 141.015 94.3684C141.08 94.2771 141.132 94.2249 141.132 94.2249C141.132 94.2249 141.132 94.2249 141.301 94.264L146.059 77.4796C144.239 77.0883 142.471 76.7623 140.82 76.5275C139.703 76.3711 138.624 76.2537 137.623 76.1885C136.349 82.6831 135.036 90.4429 135.413 93.5467ZM130.76 71.4283C131.293 71.2197 131.878 70.9979 132.476 70.7241C133.074 70.4632 133.697 70.1502 134.308 69.7851C135.543 69.0808 136.804 68.194 137.831 67.1246C138.065 66.8507 138.312 66.616 138.546 66.316C138.767 66.003 138.988 65.69 139.209 65.3771C139.586 64.738 139.91 64.0729 140.144 63.4078C140.612 62.0515 140.755 60.6821 140.677 59.5084C140.625 58.4129 140.417 57.513 140.235 56.8479C139.339 57.5913 138.715 58.0999 138.455 58.3085L138.416 58.3607L138.247 58.5694C138.13 58.6998 138 58.8433 137.857 58.9737C137.714 59.1041 137.545 59.2345 137.337 59.3649C137.129 59.4953 136.856 59.6127 136.505 59.6779C136.31 59.6909 136.102 59.704 135.907 59.6779C135.712 59.6257 135.478 59.5475 135.322 59.4562C135.179 59.3519 135.01 59.2345 134.906 59.1171C134.815 59.0128 134.737 58.8954 134.646 58.778C134.555 58.6607 134.542 58.5694 134.477 58.465C134.438 58.3607 134.386 58.2564 134.347 58.1651L134.191 57.6304L133.996 56.9783L134.516 56.5088C135.361 55.7263 136.206 54.9699 137.051 54.1874C136.401 54.1613 135.751 54.1483 135.101 54.1483C133.814 54.1483 132.515 54.1744 131.228 54.2787C129.941 54.383 128.654 54.5395 127.38 54.7613C126.107 54.983 124.833 55.2568 123.624 55.6742C122.805 56.1697 122.064 56.8479 121.518 57.6565C122.285 58.465 127.926 63.9555 137.428 63.8903C137.428 63.8903 134.191 67.5811 131.449 68.8591C128.706 70.1502 126.757 70.1894 126.757 70.1894C126.757 70.1894 122.779 65.9118 121.518 64.099C121.726 64.5294 121.973 64.9597 122.22 65.3771C122.324 65.351 122.389 65.3379 122.389 65.3379C122.389 65.3379 122.324 65.3379 122.22 65.3771C122.831 66.4204 123.533 67.4246 124.287 68.3766C124.989 69.2634 125.73 70.1242 126.549 70.9327C127.016 71.4153 127.523 71.8717 128.03 72.3151C128.069 72.3151 128.095 72.3021 128.134 72.2891C128.771 72.1195 129.694 71.8587 130.773 71.4544L130.76 71.4283ZM127.081 92.7903C127.004 92.386 126.926 91.9687 126.861 91.5644C126.406 88.6431 126.289 85.7479 126.224 82.8657C126.185 80.3096 126.237 77.7795 126.367 75.2364L126.159 75.3929C125.977 74.8974 125.782 74.4148 125.587 73.9323C125.015 74.4539 124.235 75.1712 123.247 76.0581C121.05 78.0404 117.892 80.8443 114.031 84.1177C112.108 85.7609 109.989 87.5085 107.727 89.3343C107.195 89.7647 106.649 90.1951 106.09 90.6254L127.068 92.7773L127.081 92.7903ZM20.6928 89.2561L12.439 86.9868L13.245 87.339C15.7276 87.978 18.1972 88.6301 20.6798 89.2561H20.6928ZM2.05365 84.1699L2.3526 84.2873C3.99036 84.848 5.65411 85.3175 7.31787 85.787L5.83606 85.161L2.8985 84.3525C2.8985 84.3525 1.8847 84.1047 1.1438 83.7656C1.44275 83.9091 1.7417 84.0525 2.05365 84.1829V84.1699Z" fill="#E5053D"/>
<path d="M92.1557 29.6825C90.557 32.1996 88.9062 35.2774 87.2945 38.6421C86.5016 40.3244 85.7347 42.0981 85.0068 43.9108C84.2919 45.7367 83.642 47.6016 83.0441 49.5187C81.8353 53.2877 80.8475 57.161 80.2236 60.8387C79.9116 62.6776 79.6386 64.4643 79.4307 66.1597C79.2227 67.8551 79.0927 69.4722 79.0147 70.972C78.8587 73.9585 78.8197 76.4625 78.8977 78.2101C78.9627 79.9576 79.0017 80.9618 79.0017 80.9618C79.0017 80.9618 78.9627 80.714 78.9107 80.2445C78.8587 79.775 78.7418 79.0969 78.6638 78.2231C78.4948 76.4755 78.2868 73.9716 78.3258 70.9459C78.3518 69.4331 78.4168 67.8029 78.5468 66.0814C78.6898 64.36 78.8588 62.5341 79.1707 60.6692C79.7556 56.9263 80.6785 53.0008 81.8743 49.1405C82.4982 47.2495 83.2001 45.3324 83.941 43.4935C84.6948 41.6547 85.5007 39.881 86.3326 38.1856C88.0093 34.7948 89.868 31.7953 91.5708 29.3174C93.2735 26.8265 94.8853 24.8963 96.0161 23.5661C96.575 22.8879 97.056 22.3923 97.3679 22.0533C97.6799 21.7142 97.8618 21.5186 97.8618 21.5186C97.8618 21.5186 97.2639 22.3141 96.1981 23.7095C95.1452 25.105 93.7285 27.1655 92.1427 29.6956L92.1557 29.6825Z" fill="#E5053D"/>
<path d="M130.344 1.25213C128.927 1.63033 127.316 2.20416 125.6 2.83015C124.742 3.14315 123.871 3.49527 122.987 3.86043C122.103 4.21255 121.207 4.61684 120.336 5.03417C118.555 5.8297 116.839 6.75565 115.227 7.61639C113.642 8.51626 112.134 9.35091 110.912 10.1595C109.677 10.955 108.624 11.5941 107.923 12.0896C107.208 12.5722 106.792 12.833 106.792 12.833C106.792 12.833 107.143 12.4809 107.78 11.894C108.416 11.3202 109.339 10.4855 110.522 9.58566C111.705 8.6858 113.109 7.66856 114.695 6.6774C115.5 6.20791 116.306 5.68625 117.177 5.24283C118.035 4.77334 118.932 4.34297 119.829 3.9126C120.739 3.50831 121.648 3.10402 122.558 2.76494C123.468 2.39978 124.378 2.09983 125.262 1.81291C127.043 1.25213 128.732 0.873924 130.188 0.587011C130.916 0.430512 131.592 0.339222 132.19 0.274014C132.788 0.195765 133.308 0.130557 133.737 0.104474C134.594 0.0392666 135.088 0.0131836 135.088 0.0131836C135.088 0.0131836 134.607 0.143599 133.776 0.339222C132.931 0.534844 131.761 0.860883 130.344 1.26517V1.25213Z" fill="#E5053D"/>
<path d="M177.332 17.4365C176.864 16.8757 176.331 16.3019 175.759 15.702C175.2 15.089 174.55 14.5022 173.926 13.8501C172.627 12.5981 171.197 11.307 169.702 10.0941C168.207 8.88126 166.634 7.77273 165.14 6.76854C164.36 6.31208 163.658 5.79042 162.93 5.38614C162.215 4.95577 161.539 4.56452 160.889 4.23848C159.603 3.56032 158.524 2.98649 157.757 2.64742C156.99 2.29529 156.548 2.06055 156.548 2.06055C156.548 2.06055 157.016 2.17792 157.848 2.41267C158.264 2.53004 158.758 2.68654 159.317 2.88216C159.888 3.06474 160.525 3.28645 161.188 3.59945C161.877 3.87332 162.592 4.2124 163.359 4.57756C164.126 4.92968 164.906 5.37309 165.712 5.82955C166.491 6.32512 167.323 6.79462 168.116 7.36845C168.922 7.91619 169.702 8.52914 170.482 9.11601C171.236 9.75505 171.99 10.381 172.691 11.0592C173.419 11.6982 174.056 12.4155 174.706 13.0806C175.33 13.7718 175.928 14.437 176.435 15.1021C176.968 15.7672 177.462 16.3932 177.878 16.9931C178.32 17.58 178.697 18.1538 179.009 18.6624C179.333 19.171 179.606 19.6014 179.814 19.9796C180.243 20.723 180.477 21.1533 180.477 21.1533C180.477 21.1533 180.152 20.7751 179.619 20.11C179.1 19.4319 178.294 18.5189 177.345 17.4235L177.332 17.4365Z" fill="#E5053D"/>
<path d="M106.285 53.118C106.701 52.0877 107.169 51.1096 107.636 50.1706C108.598 48.2926 109.664 46.6494 110.639 45.28C111.601 43.9106 112.55 42.8673 113.187 42.137C113.849 41.4197 114.252 41.0415 114.252 41.0415C114.252 41.0415 113.928 41.498 113.369 42.2935C112.81 43.076 112.069 44.2497 111.211 45.6582C110.353 47.0667 109.469 48.7882 108.611 50.6531C108.182 51.5921 107.779 52.5702 107.376 53.5744C106.987 54.5916 106.623 55.5958 106.298 56.6652C105.635 58.7388 105.102 60.8777 104.725 62.8861C104.361 64.9075 104.075 66.8116 103.971 68.4678C103.867 70.1111 103.789 71.4935 103.802 72.4716C103.802 73.4497 103.802 73.9974 103.802 73.9974C103.802 73.9974 103.685 73.4497 103.568 72.4846C103.451 71.5195 103.282 70.1241 103.282 68.4417C103.282 66.7594 103.36 64.7901 103.659 62.7035C103.945 60.6168 104.465 58.4259 105.141 56.261C105.492 55.2176 105.882 54.1352 106.285 53.118Z" fill="#E5053D"/>
<path d="M182.7 25.3007C183.09 25.7441 183.649 26.3831 184.182 27.2438C184.728 28.0915 185.3 29.1349 185.807 30.2825C186.339 31.4302 186.781 32.6952 187.197 33.9733C187.587 35.2644 187.938 36.5555 188.172 37.7814C188.445 39.0073 188.601 40.168 188.744 41.1591C188.887 42.1503 188.9 42.998 188.965 43.5718C189.004 44.1587 189.017 44.4847 189.017 44.4847L182.037 24.6616C182.037 24.6616 182.31 24.8572 182.713 25.2876L182.7 25.3007Z" fill="#E5053D"/>
<path d="M388.654 129.333C390.343 130.037 392.345 130.807 394.451 131.72C396.556 132.632 398.805 133.597 401.054 134.563C403.276 135.567 405.512 136.584 407.605 137.536C409.697 138.488 411.608 139.44 413.272 140.21C416.573 141.814 418.744 142.948 418.744 142.948C418.744 142.948 416.443 142.114 413.038 140.744C411.348 140.04 409.346 139.258 407.241 138.358C405.135 137.445 402.886 136.48 400.638 135.515C398.415 134.51 396.179 133.493 394.087 132.541C391.994 131.602 390.083 130.637 388.42 129.868C385.118 128.264 382.947 127.129 382.947 127.129C382.947 127.129 385.248 127.964 388.654 129.333Z" fill="#E5053D"/>
<path d="M213.713 141.749C213.713 141.749 216.014 142.583 219.419 143.953C221.109 144.657 223.111 145.426 225.216 146.339C227.322 147.252 229.571 148.217 231.819 149.182C234.042 150.186 236.278 151.204 238.37 152.156C240.463 153.095 242.374 154.06 244.038 154.829C247.339 156.433 249.51 157.568 249.51 157.568C249.51 157.568 247.209 156.733 243.804 155.364C242.114 154.66 240.112 153.877 238.007 152.977C235.901 152.064 233.652 151.099 231.404 150.134C229.181 149.13 226.945 148.113 224.853 147.161C222.76 146.222 220.849 145.257 219.185 144.487C215.884 142.883 213.713 141.749 213.713 141.749Z" fill="#E5053D"/>
</g>
<defs>
<clipPath id="clip0_0_1127">
<rect width="476" height="174" fill="white" transform="matrix(-1 0 0 1 476 0)"/>
</clipPath>
</defs>
</svg>
