<svg width="24" height="24" viewBox="0 0 24 24" fill="none" xmlns="http://www.w3.org/2000/svg">
<path d="M12 4.7593e-05C8.8173 4.7593e-05 5.7652 1.26438 3.51472 3.51477C1.26434 5.76515 0 8.81764 0 12C0 15.1824 1.26434 18.2348 3.51472 20.4853C5.76511 22.7357 8.81759 24 12 24C15.1824 24 18.2348 22.7357 20.4852 20.4853C22.7356 18.2349 24 15.1824 24 12C24 9.89364 23.4454 7.82425 22.3922 6.00001C21.339 4.17577 19.8241 2.66091 17.9999 1.60772C16.1757 0.554525 14.1063 0 11.9999 0L12 4.7593e-05ZM18.9333 15.8963C18.5168 17.4476 17.3057 18.6598 15.7546 19.0777L11.9999 15.331L8.24521 19.0642C6.69758 18.6489 5.48701 17.4426 5.06644 15.8963L8.82111 12.163L4.92249 8.24559C5.34027 6.69444 6.55249 5.4833 8.10387 5.06682L11.9999 8.96826L15.8959 5.06682C17.4472 5.4833 18.6595 6.69444 19.0773 8.24559L15.1813 12.1496L18.9333 15.8963Z" fill="#0B764F"/>
</svg>
