<svg width="46" height="44" viewBox="0 0 46 44" fill="none" xmlns="http://www.w3.org/2000/svg">
<path d="M42.5181 9.21682C43.2634 9.83088 43.8839 10.5924 44.3349 11.4594C44.4776 11.7337 44.3706 12.0659 44.1077 12.2287L28.4428 21.926C25.0831 24.0058 20.8469 24.0494 17.4451 22.0393L1.67549 12.7209C1.42071 12.5703 1.30377 12.2604 1.41859 11.9877C1.87511 10.9032 2.58657 9.95758 3.47662 9.22247L3.47577 9.21502L3.50643 9.19799C4.16505 8.6599 4.92013 8.2365 5.74113 7.95648L16.0158 2.24832C20.3574 -0.163664 25.6365 -0.163666 29.9781 2.24832L40.2407 7.94979C41.0761 8.23201 41.8436 8.66252 42.5113 9.21123L42.5181 9.21682Z" fill="#FCEDF0"/>
<path d="M0.47289 17.3854C0.51834 16.9348 1.01585 16.6869 1.40576 16.9173L15.5373 25.2677C20.1398 27.9873 25.8712 27.9283 30.4166 25.1145L44.5281 16.3788C44.9162 16.1386 45.4221 16.382 45.4712 16.8357C46.1713 23.3044 46.0369 29.8407 45.0681 36.2834C44.5718 39.5837 41.8783 42.1138 38.5534 42.4028L34.7779 42.731C26.9413 43.4122 19.0603 43.4122 11.2237 42.731L7.44814 42.4028C4.12328 42.1138 1.42976 39.5837 0.933472 36.2834C-0.00792128 30.0231 -0.161449 23.6745 0.47289 17.3854Z" fill="#FCEDF0"/>
</svg>
