<svg width="366" height="134" viewBox="0 0 366 134" fill="none" xmlns="http://www.w3.org/2000/svg">
<g clip-path="url(#clip0_0_137)">
<path d="M135.822 118.141C137.461 117.76 139.07 117.157 140.499 116.223C141.219 115.751 141.859 115.239 142.498 114.676C142.818 114.395 143.118 114.104 143.398 113.783C143.638 113.491 143.867 113.24 144.027 112.838C145.666 113.19 147.305 113.572 148.945 113.893H148.955C148.955 113.893 148.965 113.893 148.975 113.893C148.975 113.893 148.965 113.893 148.955 113.893L149.344 113.592L148.975 113.903L152.513 111.322L156.03 108.721L156.72 108.208L155.851 108.279C151.343 108.64 146.836 108.952 142.328 109.373C137.821 109.785 133.314 110.147 128.816 110.619C124.319 111.071 119.811 111.493 115.324 112.015L111.956 112.386C110.836 112.517 109.707 112.597 108.578 112.788C107.458 112.969 106.329 113.15 105.25 113.562C104.99 113.672 104.71 113.783 104.49 114.034C104.38 114.154 104.34 114.365 104.42 114.516C104.5 114.656 104.62 114.757 104.74 114.847C105.13 115.088 105.549 115.239 105.969 115.379C105.22 115.671 104.22 116.052 103.031 116.534C101.732 117.077 100.193 117.669 98.5734 118.372C96.9544 119.075 95.2254 119.819 93.4964 120.562C91.7873 121.335 90.0683 122.119 88.4593 122.852C86.8502 123.585 85.381 124.318 84.1017 124.911C81.5632 126.146 79.8942 127.02 79.8942 127.02C79.8942 127.02 81.6631 126.377 84.2816 125.322C85.5809 124.78 87.12 124.177 88.7391 123.484C90.3582 122.781 92.0872 122.038 93.8162 121.295C95.5252 120.522 97.2442 119.738 98.8533 119.005C100.462 118.282 101.932 117.539 103.211 116.946C104.45 116.344 105.469 115.831 106.199 115.46C106.239 115.47 106.269 115.48 106.309 115.5C106.279 115.49 106.239 115.47 106.209 115.46C106.259 115.44 106.299 115.41 106.349 115.389C106.399 115.45 106.439 115.51 106.469 115.54C106.419 115.53 106.359 115.52 106.309 115.5C106.369 115.52 106.439 115.55 106.509 115.57H106.519C106.519 115.57 106.539 115.57 106.569 115.58C107.258 115.831 107.958 116.072 108.668 116.273C109.467 116.494 110.267 116.715 111.076 116.896C112.685 117.278 114.324 117.559 115.953 117.83C119.222 118.382 122.52 118.694 125.828 118.895C126.657 118.945 127.487 118.975 128.326 118.985C129.176 118.985 130.005 118.935 130.835 118.875C132.494 118.744 134.163 118.533 135.792 118.141H135.822ZM107.758 114.345C106.199 114.486 106.139 114.948 106.299 115.269C106.219 115.299 106.119 115.339 106.029 115.369C105.609 115.199 105.19 115.018 104.84 114.747C104.74 114.656 104.64 114.566 104.59 114.455C104.55 114.345 104.57 114.245 104.66 114.154C104.83 113.973 105.1 113.873 105.36 113.783C106.419 113.441 107.548 113.321 108.658 113.2C109.777 113.09 110.906 113.039 112.036 112.939L115.414 112.678C119.921 112.346 124.429 111.914 128.926 111.523C133.433 111.141 137.931 110.659 142.428 110.227C146.656 109.825 150.873 109.333 155.091 108.871L153.392 110.267C149.544 110.609 110.077 114.144 107.758 114.345Z" fill="#E5053D"/>
<path d="M202.504 55.4098C202.904 55.1788 203.293 54.9579 203.683 54.7369C203.683 54.7068 203.683 54.6767 203.683 54.6465C203.713 54.2448 203.733 53.843 203.793 53.4614C203.793 53.4112 203.813 53.361 203.813 53.3107C203.183 53.6824 202.554 54.064 201.924 54.4457C200.085 55.5705 198.216 56.7858 196.397 58.0111C193.149 60.2006 189.981 62.4704 186.983 64.6699C186.953 64.7302 186.923 64.7804 186.873 64.8808C186.753 65.1018 186.603 65.4433 186.443 65.8249C189.741 63.5049 193.289 61.1045 196.907 58.8146C198.756 57.6294 200.615 56.5046 202.484 55.4199L202.504 55.4098Z" fill="#E5053D"/>
<path d="M285.786 95.6741C284.167 96.6182 282.178 97.5422 279.979 98.3356C278.91 98.7173 277.691 99.0788 276.531 99.3802C275.352 99.6915 274.123 99.9225 272.903 100.103C271.674 100.284 270.435 100.405 269.216 100.455C267.996 100.495 266.787 100.515 265.618 100.455C265.038 100.425 264.458 100.385 263.899 100.334C263.339 100.294 262.789 100.234 262.26 100.164C261.19 100.033 260.191 99.8522 259.281 99.6614C257.442 99.2797 255.933 98.8479 254.874 98.5365C253.824 98.195 253.225 98.0042 253.225 98.0042C253.225 98.0042 253.804 98.2653 254.814 98.7072C255.334 98.8981 255.953 99.1592 256.683 99.4103C257.412 99.6614 258.242 99.9426 259.161 100.174C260.081 100.415 261.09 100.656 262.16 100.847C263.229 101.047 264.378 101.208 265.568 101.288C266.757 101.389 267.996 101.419 269.246 101.379C270.505 101.339 271.774 101.218 273.033 101.047C274.293 100.847 275.542 100.595 276.761 100.264C278.001 99.9426 279.11 99.5509 280.259 99.119C282.488 98.2553 284.447 97.1606 286.046 96.1361C287.655 95.1117 288.864 94.0772 289.704 93.3641C290.533 92.6309 290.973 92.179 290.973 92.179C290.973 92.179 290.473 92.5707 289.584 93.2235C288.694 93.8763 287.385 94.7501 285.766 95.6842L285.786 95.6741Z" fill="#E5053D"/>
<path d="M270.225 77.2946C270.845 77.1339 271.544 76.943 272.124 76.7422C273.333 76.3203 274.433 75.8182 275.342 75.3361C276.252 74.844 277.001 74.392 277.501 74.0405C277.501 74.0405 277.501 74.0405 277.511 74.0304C272.913 74.5527 269.246 74.9745 269.226 74.9745C268.926 75.0046 268.006 75.9086 267.706 76.1295C266.977 76.6819 266.307 77.3247 265.598 77.8972C266.467 77.8771 267.347 77.8168 268.226 77.6762C268.896 77.5758 269.575 77.4552 270.215 77.2845L270.225 77.2946Z" fill="#E5053D"/>
<path d="M285.546 61.928C287.375 63.7459 289.304 65.6944 291.303 67.7633C292.992 69.5109 294.721 71.3287 296.45 73.1968C297.309 74.1309 298.179 75.085 299.018 76.0492C299.448 76.5313 299.858 77.0234 300.258 77.5155C300.468 77.7666 300.627 77.9976 300.817 78.2286C300.877 78.2989 300.937 78.3893 300.987 78.4797C301.197 78.0378 301.597 77.154 302.097 75.9889C302.696 74.5728 303.446 72.7449 304.065 70.8065C300.258 71.3187 297.449 71.7104 296.24 71.8711C295.81 71.4392 295.39 70.9973 294.971 70.5755C298.279 70.1235 301.357 69.762 304.495 69.3803C304.625 68.8781 304.735 68.3659 304.835 67.8637C300.897 68.165 296.81 68.4663 293.112 68.7174C292.652 68.2554 292.182 67.7834 291.723 67.3314C289.634 65.2725 287.615 63.3241 285.706 61.5163C285.646 61.6468 285.596 61.7874 285.536 61.918L285.546 61.928Z" fill="#E5053D"/>
<path d="M365.69 63.3843C364.941 63.0529 364.111 63.0127 363.312 62.9223C362.502 62.8621 361.693 62.832 360.883 62.8219L344.083 64.459C338.486 65.0114 332.869 65.4834 327.272 65.9856C321.665 66.4677 316.059 67.01 310.452 67.4419C308.783 67.5725 307.034 67.703 305.245 67.8437C305.175 68.3358 305.085 68.838 304.985 69.3401C306.804 69.1192 308.643 68.8982 310.572 68.6572C316.159 67.934 321.745 67.3214 327.342 66.6485C332.929 65.9956 338.516 65.3127 344.113 64.7101L360.893 62.8922C361.703 62.8922 362.512 62.9223 363.322 62.9826C364.121 63.063 364.951 63.1031 365.69 63.4245C365.86 63.5049 366.06 63.6756 365.96 63.8664C365.87 64.0472 365.69 64.1577 365.53 64.2782C365.51 64.2883 365.48 64.2983 365.46 64.3184C365.86 64.0673 365.91 63.776 364.881 63.5651L364.791 63.3442L364.451 63.4948C364.451 63.4948 364.401 63.4848 364.361 63.4848C361.762 63.1132 322.745 68.3157 304.665 70.7663C304.126 72.8453 303.416 74.8038 302.866 76.3203C302.217 78.0779 301.727 79.2329 301.727 79.2329L301.297 79.0421C301.137 78.9919 300.937 78.9216 300.757 78.8412C300.198 78.5902 299.628 78.2889 299.068 77.9876C297.949 77.3749 296.85 76.7221 295.75 76.0692C293.542 74.7636 291.443 73.4881 289.524 72.0318C287.585 70.5956 285.786 69.0991 284.087 67.6829C282.398 66.2467 280.809 64.8708 279.37 63.5752C276.471 60.994 274.113 58.7945 272.464 57.2377C271.944 56.7356 271.494 56.3137 271.124 55.9622L272.484 51.8444C272.484 51.8444 273.143 51.9649 274.263 52.4671C274.992 52.7885 276.681 53.8531 277.781 54.5662C279.03 55.671 280.419 56.9565 281.918 58.4028C282.838 59.2866 283.827 60.2508 284.827 61.2451C284.877 61.1145 284.937 60.984 284.987 60.8634C283.997 59.9294 283.038 59.0255 282.118 58.1919C280.899 57.067 279.759 56.0526 278.7 55.1387C277.561 53.9837 276.062 52.8487 274.792 51.985C273.963 51.3724 273.263 50.9304 272.764 50.6593C272.704 50.6291 272.654 50.599 272.594 50.5789C272.424 50.4785 272.314 50.4082 272.314 50.4082C272.314 50.4082 272.294 50.4383 272.284 50.4283C272.464 49.9964 272.634 49.5545 272.814 49.1025L272.943 48.6807C273.183 48.1886 273.313 47.7266 273.373 47.2847L273.393 47.2144C273.393 47.2144 273.433 47.0938 273.423 47.1039C273.423 47.0938 273.393 47.1742 273.383 47.2043C273.433 46.7624 273.413 46.3506 273.343 45.969C273.173 45.0751 272.654 44.3118 272.654 44.3118C272.654 44.3118 272.644 44.3319 272.634 44.3319C272.214 43.6991 271.654 43.1668 271.005 42.7651C269.116 42.0721 267.127 41.7105 265.138 41.4594C263.429 41.2485 261.71 41.1581 259.981 41.128C255.453 36.96 250.896 32.8221 246.299 28.7344C246.079 28.9654 245.869 29.2165 245.669 29.4776C249.627 33.274 253.555 37.1106 257.462 40.9774C254.284 38.577 249.267 34.7805 244.26 30.9439C244.11 30.8234 243.96 30.7029 243.8 30.5924C243.98 30.4116 244.17 30.2007 244.39 29.9697C244.82 29.5178 245.329 29.0156 245.879 28.4933C246.439 27.9811 247.048 27.4287 247.678 26.9265C248.308 26.4143 248.967 25.9423 249.587 25.5004C249.907 25.2995 250.206 25.0785 250.506 24.8978C250.806 24.717 251.086 24.5362 251.356 24.3755C252.435 23.7528 253.155 23.341 253.155 23.341C253.155 23.341 252.945 23.3812 252.585 23.4515C252.225 23.5319 251.716 23.6624 251.116 23.8834C250.516 24.0943 249.847 24.4056 249.147 24.7873C248.807 24.9982 248.437 25.189 248.108 25.4401C247.758 25.6711 247.428 25.9322 247.088 26.1934C246.449 26.7257 245.839 27.2982 245.319 27.8807C245.169 27.7401 245.019 27.6095 244.87 27.4789C241.881 24.8475 238.883 22.2262 235.765 19.7455C234.815 18.9822 233.786 18.3494 232.746 17.6966C233.626 18.5603 234.545 19.2935 235.485 20.097C238.493 22.6782 241.392 25.42 244.27 28.1518C244.43 28.3025 244.58 28.4532 244.74 28.6038C244.45 28.9654 244.19 29.3169 243.98 29.6584C243.8 29.9195 243.65 30.1706 243.52 30.4016C240.952 28.4331 238.383 26.4545 235.835 24.4458C234.745 23.5921 233.716 22.5777 232.607 21.7742C231.257 20.8 229.938 19.9062 228.769 18.7009C228.049 17.9678 227.35 17.0237 227.529 16.0093C227.23 16.3106 227.2 16.8027 227.36 17.1944C227.669 17.9577 228.709 18.721 229.318 19.2734C230.138 20.0669 231.347 21.1516 232.816 22.4371C235.605 24.8877 239.323 28.0514 243.101 31.2352C243.021 31.416 242.971 31.5164 242.971 31.5164C242.971 31.5164 243.051 31.4361 243.18 31.2955C243.35 31.4361 243.51 31.5767 243.68 31.7173C247.948 35.3128 252.215 38.8682 255.274 41.3992C254.954 41.4293 254.614 41.4695 254.214 41.5097C253.944 41.5398 253.654 41.5699 253.355 41.6001C253.195 41.6201 253.075 41.6201 252.865 41.6503C252.705 41.6704 252.545 41.7005 252.375 41.7206C251.716 41.8311 250.996 41.9114 250.226 42.0721C249.467 42.2228 248.647 42.3533 247.828 42.5441C246.169 42.8856 244.42 43.3175 242.681 43.7795C239.203 44.7035 235.775 45.8384 233.226 46.7423C231.957 47.1943 230.898 47.596 230.158 47.8873C229.808 48.0279 229.538 48.1384 229.338 48.2187C229.209 48.1785 229.059 48.1384 228.869 48.0881C228.339 47.9475 227.559 47.7969 226.57 47.6563C225.581 47.5458 224.371 47.4253 222.992 47.4654C222.073 47.4654 221.073 47.5357 220.014 47.6563C219.934 47.1039 219.814 46.21 219.724 45.3061C219.574 43.8498 219.494 42.3834 219.494 42.3834C219.494 42.3834 219.334 43.8398 219.244 45.3161C219.184 46.2602 219.164 47.2043 219.154 47.7668C218.904 47.7969 218.655 47.827 218.395 47.8672C216.736 48.1584 214.947 48.5401 213.128 49.1427C212.668 49.2934 212.208 49.444 211.739 49.5947C211.279 49.7754 210.819 49.9562 210.349 50.1471C209.4 50.4986 208.48 50.9405 207.531 51.3824C206.851 51.6837 206.192 52.0352 205.532 52.4068C205.362 52.8287 205.192 53.2806 205.052 53.7828C205.022 53.8832 205.002 53.9837 204.972 54.0941C205.072 54.0439 205.182 53.9837 205.282 53.9234C206.212 53.4514 207.121 52.9492 208.061 52.5675C208.99 52.1557 209.9 51.744 210.819 51.4427C211.279 51.2719 211.729 51.1112 212.178 50.9505C212.638 50.82 213.088 50.6794 213.527 50.5488C215.296 50.0064 217.016 49.6951 218.605 49.4541C220.194 49.2632 221.663 49.1628 222.962 49.1929C224.261 49.1929 225.381 49.3335 226.29 49.4641C227.19 49.6147 227.879 49.7654 228.339 49.906C228.249 50.137 228.079 50.4283 227.779 50.7798C227.44 51.1815 226.93 51.6134 226.3 52.0553C225.111 51.6737 221.123 50.7697 213.817 52.3466C211.049 52.9492 207.781 54.3452 204.613 55.9823C204.593 56.3539 204.553 56.7255 204.563 57.0871C204.583 57.4587 204.563 57.8303 204.633 58.1818C204.693 58.5333 204.723 58.8849 204.832 59.1962C204.932 59.5076 204.982 59.829 205.122 60.08C205.242 60.3412 205.352 60.5923 205.442 60.8032C205.572 61.004 205.682 61.1748 205.772 61.3254C205.962 61.6167 206.062 61.7774 206.062 61.7774C206.062 61.7774 205.932 61.6267 205.702 61.3656C205.592 61.235 205.452 61.0743 205.292 60.8936C205.162 60.6927 205.012 60.4617 204.852 60.2006C204.673 59.9495 204.573 59.6381 204.413 59.3268C204.253 59.0154 204.163 58.6539 204.043 58.2923C203.913 57.9307 203.873 57.539 203.793 57.1373C203.753 56.9063 203.733 56.6753 203.713 56.4443C197.047 59.9997 191 64.3987 191 64.3987L185.644 68.5366C185.614 68.6773 185.584 68.8078 185.554 68.9484C185.484 69.3 185.464 69.6615 185.414 70.0331C185.414 70.3947 185.384 70.7663 185.414 71.1279C185.454 71.4794 185.444 71.851 185.534 72.1824C185.604 72.5239 185.654 72.8553 185.773 73.1466C185.883 73.4479 185.953 73.7492 186.103 73.9902C186.233 74.2413 186.353 74.4723 186.453 74.6732C186.583 74.864 186.703 75.0247 186.803 75.1553C187.003 75.4265 187.113 75.5771 187.113 75.5771C187.113 75.5771 186.983 75.4466 186.743 75.2055C186.623 75.085 186.483 74.9343 186.313 74.7736C186.173 74.5828 186.013 74.3619 185.843 74.1309C185.653 73.8999 185.534 73.6086 185.374 73.3073C185.194 73.016 185.094 72.6746 184.964 72.323C184.814 71.9715 184.764 71.5999 184.664 71.2183C184.574 70.8366 184.544 70.4349 184.494 70.0432C184.494 69.8523 184.474 69.6615 184.464 69.4607L173.071 78.2688H169.873H169.713C171.172 77.1339 173.78 75.1252 177.128 72.6344C179.327 70.9973 181.866 69.1493 184.584 67.2109C184.614 66.9498 184.644 66.6887 184.694 66.4476C181.856 68.5768 179.217 70.6156 176.948 72.4034C173.63 75.0147 171.062 77.1037 169.633 78.2688L124.119 78.56L101.242 78.7207L78.3651 78.9618L32.6213 79.474H32.5513H32.5014C30.6924 79.7954 28.9434 80.2172 27.1944 80.7997C26.3249 81.101 25.4554 81.4425 24.6159 81.9145C24.1961 82.1656 23.7764 82.4469 23.3866 82.8285C23.0168 83.2001 22.607 83.7927 22.627 84.5258C22.647 85.2188 22.9968 85.7311 23.3366 86.1027L0 96.7488L23.8863 86.5446C24.1162 86.7354 24.356 86.9062 24.5559 87.0367C25.4454 87.5791 26.3049 87.9005 27.1844 88.1817C28.9334 88.7341 30.6924 89.1057 32.4514 89.4572C35.9794 90.1402 39.5173 90.6323 43.0553 91.0842C45.334 91.3755 47.6027 91.6266 49.8814 91.8676C48.2323 92.6209 46.5733 93.3641 45.0242 94.0772C43.4151 94.8104 41.9459 95.5435 40.6667 96.1361C38.1281 97.3715 36.4591 98.2452 36.4591 98.2452C36.4591 98.2452 38.2281 97.6024 40.8466 96.5479C42.1458 96.0055 43.6849 95.4029 45.304 94.7099C46.9231 94.0069 48.6521 93.2637 50.3811 92.5205C50.7409 92.3598 51.0907 92.1991 51.4505 92.0384C52.2001 92.1187 52.9496 92.1991 53.6992 92.2694C60.8051 92.9624 67.911 93.4846 75.037 93.9366L89.9484 95.0815L68.071 105.115L91.3276 95.182L94.9855 95.4632L96.3547 95.6038L96.8245 93.796C96.5946 95.1318 96.3647 96.4575 96.1448 97.8033C96.6645 95.875 97.1543 93.9466 97.644 92.0183C101.112 92.41 104.59 92.7715 108.068 93.113L118.722 94.0872C122.28 94.3785 125.828 94.6999 129.386 94.961C132.944 95.2221 136.492 95.5134 140.05 95.7444C143.608 95.9855 147.166 96.2466 150.724 96.4474C151.993 96.5278 153.252 96.5881 154.521 96.6684L151.043 101.871L96.1448 97.8234L135.852 101.75L137.001 109.624L136.722 101.831L171.961 105.316L170.752 107.606L150.813 115.992C151.593 116.173 152.473 116.283 153.412 116.323C149.534 116.565 145.636 116.655 141.749 116.595C146.556 116.735 151.373 116.635 156.18 116.293C156.35 116.283 156.52 116.273 156.7 116.263C156.89 116.253 157.08 116.243 157.27 116.223C159.848 116.012 162.427 115.711 164.985 115.269C165.965 115.108 166.934 114.877 167.904 114.656L129.306 131.8L182.925 109.715L187.183 108.178L201.744 102.765C203.693 102.032 205.642 101.288 207.591 100.555C208.35 100.696 209.1 100.826 209.8 100.937L207.661 110.93C207.431 110.679 207.171 110.478 206.941 110.257C206.671 110.066 206.432 109.876 206.172 109.725C205.662 109.434 205.182 109.253 204.783 109.152C204.573 109.112 204.393 109.082 204.233 109.052C204.073 109.042 203.933 109.052 203.823 109.052C203.603 109.052 203.483 109.052 203.483 109.052C203.483 109.052 203.603 109.052 203.823 109.072C203.933 109.082 204.073 109.082 204.233 109.102C204.383 109.142 204.563 109.183 204.763 109.233C205.152 109.353 205.612 109.554 206.082 109.876C206.322 110.026 206.542 110.237 206.791 110.428C207.011 110.659 207.261 110.88 207.481 111.161C207.931 111.693 208.35 112.326 208.72 113.039C209.09 113.752 209.41 114.536 209.67 115.369C209.93 116.203 210.139 117.087 210.269 117.991C210.419 118.885 210.479 119.839 210.509 120.743C210.509 121.707 210.469 122.621 210.349 123.515C210.249 124.419 210.059 125.292 209.83 126.116C209.6 126.939 209.31 127.713 208.97 128.396C208.64 129.089 208.251 129.691 207.851 130.204C207.661 130.465 207.431 130.666 207.241 130.887C207.021 131.067 206.831 131.258 206.621 131.389C206.362 131.569 206.112 131.7 205.882 131.8C207.741 129.872 208.9 125.845 208.69 121.235C208.4 114.877 205.602 109.845 202.444 109.986C201.125 110.046 199.965 111.01 199.066 112.557C199.256 112.186 199.466 111.834 199.685 111.513C199.875 111.221 200.105 110.98 200.305 110.719C200.535 110.498 200.735 110.277 200.965 110.097C201.404 109.735 201.844 109.494 202.224 109.333C202.414 109.263 202.594 109.203 202.744 109.152C202.894 109.112 203.034 109.102 203.143 109.082C203.363 109.042 203.483 109.022 203.483 109.022C203.483 109.022 203.363 109.032 203.143 109.052C203.034 109.062 202.894 109.072 202.734 109.102C202.574 109.142 202.394 109.193 202.194 109.253C201.804 109.393 201.335 109.614 200.865 109.956C200.625 110.127 200.405 110.338 200.145 110.559C199.925 110.81 199.675 111.041 199.456 111.332C199.006 111.904 198.586 112.567 198.226 113.32C197.856 114.064 197.557 114.887 197.307 115.761C197.067 116.635 196.867 117.559 196.767 118.503C196.637 119.457 196.607 120.441 196.607 121.375C196.637 122.37 196.697 123.324 196.857 124.288C196.997 125.242 197.227 126.166 197.497 127.05C197.777 127.934 198.116 128.767 198.516 129.531C198.916 130.294 199.376 130.987 199.875 131.58C200.115 131.881 200.405 132.132 200.645 132.393C200.935 132.624 201.185 132.855 201.464 133.036C202.024 133.407 202.554 133.638 203.054 133.799C203.313 133.869 203.553 133.92 203.763 133.96C204.613 134.07 205.342 133.98 206.142 133.648C206.601 133.458 207.121 133.166 207.641 132.755C207.901 132.554 208.141 132.293 208.4 132.042C208.62 131.76 208.89 131.479 209.1 131.158C209.54 130.515 209.94 129.792 210.269 128.988C210.599 128.195 210.859 127.331 211.059 126.417C211.249 125.513 211.389 124.569 211.439 123.605C211.509 122.701 211.479 121.777 211.439 120.903L230.718 100.264L235.525 99.2295L236.634 100.073L258.122 117.258C258.122 117.378 258.132 117.569 258.142 117.83C258.152 118.061 258.152 118.312 258.182 118.664C258.212 118.985 258.252 119.347 258.292 119.738C258.352 120.13 258.422 120.552 258.502 121.004C258.612 121.446 258.692 121.918 258.832 122.39C258.961 122.862 259.111 123.354 259.291 123.846C259.921 125.463 260.531 126.939 261.72 128.245C262.669 129.28 263.919 130.103 265.348 130.194C265.358 130.194 265.368 130.194 265.378 130.194C265.418 130.194 265.438 130.194 265.478 130.194C265.588 130.194 265.698 130.214 265.807 130.214C265.837 130.214 265.867 130.204 265.907 130.204C266.027 130.204 266.097 130.204 266.097 130.204C266.097 130.204 266.047 130.204 265.957 130.204C266.077 130.194 266.197 130.173 266.317 130.153C266.167 130.194 266.097 130.214 266.097 130.214C266.097 130.214 266.247 130.214 266.537 130.214C266.687 130.214 266.867 130.214 267.067 130.163C267.267 130.113 267.527 130.093 267.776 129.983C268.296 129.802 268.906 129.48 269.495 128.968C270.075 128.456 270.695 127.803 271.174 126.99C271.684 126.186 272.154 125.252 272.484 124.208C272.833 123.173 273.113 122.058 273.243 120.873C273.333 120.291 273.353 119.668 273.393 119.045C273.393 118.754 273.393 118.463 273.393 118.161V117.94V117.8V117.679L273.353 117.217C273.283 115.972 273.093 114.717 272.773 113.481C272.114 111.041 270.965 108.61 269.036 106.953C268.076 106.129 266.917 105.547 265.618 105.487H265.228H265.038C264.858 105.487 264.858 105.507 264.768 105.517C264.478 105.547 264.198 105.617 263.929 105.708C263.399 105.888 262.929 106.159 262.519 106.441C261.71 107.033 261.16 107.746 260.76 108.399C260.351 109.052 260.101 109.675 259.911 110.177C259.721 110.679 259.621 111.101 259.551 111.372L257.202 110.026L248.777 96.3671L249.037 96.3068C248.957 96.2667 248.887 96.2365 248.797 96.1964C248.368 95.9955 247.928 95.7645 247.468 95.5134L247.928 96.2064L237.244 98.6269L237.074 98.5264L234.226 96.4776L238.293 92.1288V92.1689L241.491 91.6065C241.002 91.2248 240.502 90.8432 240.022 90.4415C239.762 90.2205 239.523 89.9895 239.273 89.7685C228.999 93.8964 214.227 99.9727 213.328 100.344L213.268 100.364C213.118 100.395 212.548 100.415 210.759 100.103L210.879 99.2697C220.004 95.8147 229.109 92.3095 238.203 88.7943C238.103 88.7039 237.993 88.6135 237.904 88.5231C237.214 87.8804 236.584 87.1974 235.965 86.5446C234.745 85.2289 233.706 83.9132 232.846 82.7682C232.567 82.4167 232.327 82.0752 232.107 81.7438L211.359 90.4716L217.955 81.553C218.085 81.4626 218.215 81.3722 218.345 81.2617C218.445 81.1814 218.545 81.101 218.645 80.9905C218.735 80.9202 218.924 80.6189 218.934 80.5587C218.984 80.4181 218.944 80.5085 218.964 80.4482V80.398L218.984 80.2875L219.014 80.0766C219.034 79.936 219.014 79.7652 218.994 79.6146C218.974 79.4639 218.904 79.3032 218.844 79.1426C218.755 79.012 218.665 78.8513 218.545 78.7509C218.065 78.3089 217.515 78.1884 217.016 78.1081C216.506 78.0478 216.026 78.0478 215.516 78.1081H215.576L204.253 78.1282C204.673 78.1282 205.412 77.5858 205.792 77.405C206.562 77.0435 207.341 76.6919 208.121 76.3404C210.299 75.3461 212.478 74.3819 214.677 73.4278C220.533 70.8768 226.46 68.4463 232.447 66.2066C233.346 65.8751 234.246 65.5437 235.145 65.2123C237.534 64.3485 239.932 63.525 242.291 62.7717C242.411 62.9726 242.531 63.1734 242.641 63.3542C243.72 65.0717 244.62 66.076 244.62 66.076C244.62 66.076 244.46 65.7747 244.19 65.2625C243.91 64.7503 243.55 63.997 243.121 63.0931C243.041 62.9223 242.961 62.7516 242.881 62.5708C245.489 61.7473 248.038 61.004 250.466 60.3914C250.606 60.8032 250.736 61.215 250.906 61.6167C251.236 62.5507 251.666 63.4446 252.085 64.2983C252.315 64.7101 252.555 65.1219 252.775 65.5236C253.015 65.9053 253.245 66.2769 253.475 66.6384C253.934 67.3616 254.364 68.0345 254.764 68.6672C255.993 70.6056 256.903 72.0318 257.262 72.5942C256.963 72.6746 256.233 72.8553 254.444 73.2973C253.914 73.4278 253.345 73.5785 252.765 73.7392C252.815 73.7793 252.865 73.8195 252.915 73.8597C253.704 74.4322 254.454 74.9444 255.114 75.3562C255.773 75.778 256.323 76.1195 256.733 76.3505C257.133 76.5815 257.362 76.7221 257.362 76.7221C257.362 76.7221 257.692 76.8125 258.262 76.9732C258.812 75.4265 258.362 74.0806 257.952 73.2973C258.362 73.227 258.772 73.1667 259.161 73.1064C260.061 73.016 260.92 72.9256 261.71 72.8453C261.72 72.8453 261.73 72.8453 261.74 72.8453C261.4 74.623 260.79 76.1697 260.021 77.395C260.251 77.4452 260.501 77.4854 260.75 77.5356C261.8 77.7264 263.039 77.8771 264.368 77.9173C264.778 77.5858 265.188 77.2343 265.558 76.8526C265.967 76.4308 266.347 75.9789 266.697 75.4968L266.947 75.1252L267.067 74.9343L267.127 74.8439L267.157 74.7937L267.217 74.6833L267.577 73.94C267.636 73.7693 267.706 73.5885 267.766 73.3977C267.766 73.3977 286.576 71.4593 286.566 71.4392C287.165 71.8912 287.775 72.3431 288.395 72.785C285.126 73.1566 281.219 73.5986 277.791 73.9902C277.731 74.0505 277.671 74.1108 277.601 74.1811C277.151 74.5929 276.491 75.1955 275.612 75.7981C274.732 76.4007 273.643 77.0234 272.404 77.5256C271.754 77.7766 271.164 77.9976 270.455 78.1784C269.765 78.3692 269.076 78.5098 268.366 78.6203C267.067 78.8011 265.748 78.8413 264.508 78.7509C263.339 79.6246 262.11 80.4181 260.77 81.0207C259.641 81.5329 258.452 81.9045 257.272 82.2761C256.183 82.6176 255.084 82.9591 253.994 83.3106C253.395 83.5014 252.755 83.7224 252.205 84.0638C252.275 83.6721 252.245 83.401 252.245 83.3909H252.175C254.694 82.4167 257.212 81.4425 259.731 80.4582L259.681 80.4783C260.271 80.2775 260.78 80.0666 261.3 79.8054C261.82 79.5543 262.329 79.2832 262.809 78.9718C262.989 78.8613 263.169 78.7408 263.339 78.6203C262.969 78.5701 262.609 78.5098 262.27 78.4395C261.67 78.329 261.11 78.1784 260.6 78.0277C260.291 77.9373 260.011 77.8469 259.741 77.7465C259.331 78.3391 258.901 78.8613 258.442 79.2731C257.122 79.8054 255.813 80.3377 254.494 80.87C256.633 79.6146 257.702 78.3089 258.182 77.1238C257.642 76.8627 257.342 76.712 257.342 76.712C257.342 76.712 257.083 76.6417 256.643 76.5112C256.213 76.3605 255.563 76.1596 254.844 75.8282C253.894 75.4164 252.785 74.7937 251.686 74.0405C249.257 74.7435 246.948 75.4968 246.948 75.4968L245.709 76.019C245.189 76.2099 244.68 76.4007 244.18 76.5915C242.311 77.2946 240.582 78.0277 239.113 78.6605C237.534 79.3535 236.274 79.946 235.425 80.3478L233.226 81.2718C233.096 81.1613 232.976 81.0408 232.846 80.9202C232.766 80.9604 232.687 81.0006 232.617 81.0408C232.746 81.1512 232.866 81.2617 232.996 81.3722L232.527 81.5731C232.766 81.8442 233.006 82.1355 233.266 82.4368C234.186 83.5215 235.335 84.7066 236.574 85.9721C237.194 86.5948 237.864 87.2275 238.533 87.8603C238.743 88.0511 238.963 88.2419 239.173 88.4328C243.21 86.876 247.248 85.3193 251.286 83.7525C251.246 84.2446 250.936 85.4298 248.857 86.0625C247.958 86.3337 244.58 87.6594 240.242 89.3969C240.372 89.5074 240.492 89.6279 240.632 89.7384C241.312 90.3209 242.001 90.8834 242.701 91.4157L244.51 91.0943L246.589 94.1977C247.068 94.5191 247.538 94.8204 247.988 95.1016L245.409 90.9235L299.038 81.4626L297.799 83.6119L250.786 95.5034L259.071 93.6855L249.337 95.8951C249.487 95.9855 249.637 96.0658 249.787 96.1562L299.648 85.3996L299.808 85.3695L299.908 85.2389L303.366 80.6993L340.904 71.1479C345.752 69.9226 350.589 68.6873 355.426 67.4017L311.072 86.7354L360.073 66.1563C361.343 65.7948 362.602 65.4332 363.851 65.0114L363.282 65.2323L362.422 65.5437L362.362 65.5638C362.362 65.5638 362.342 65.5638 362.332 65.5738C362.332 65.5738 362.282 65.5939 362.292 65.604L362.342 65.5839C362.342 65.5839 362.362 65.5839 362.372 65.5738L362.432 65.5537L363.292 65.2424L364.301 64.8708C364.301 64.8708 364.361 64.8507 364.391 64.8406L365.53 64.4188C365.53 64.4188 365.6 64.3887 365.62 64.3887L365.67 64.3686C365.67 64.3686 365.65 64.3686 365.64 64.3686C365.64 64.3686 365.66 64.3686 365.66 64.3586C365.66 64.3586 365.61 64.3787 365.59 64.3887L365.52 64.4188L364.591 64.7603C364.911 64.6297 365.22 64.4891 365.51 64.3083C365.68 64.1979 365.86 64.0874 365.95 63.8865C366.06 63.6656 365.84 63.4747 365.67 63.3944L365.69 63.3843ZM204.083 122.139C204.083 122.43 204.083 122.711 204.083 122.992C204.063 123.565 204.063 124.137 204.013 124.69C203.963 125.232 203.913 125.764 203.833 126.256C203.753 126.749 203.643 127.211 203.533 127.632C203.403 128.034 203.273 128.416 203.113 128.717C202.964 129.028 202.784 129.27 202.604 129.45C202.424 129.611 202.254 129.752 202.124 129.792C201.984 129.852 201.914 129.882 201.914 129.882C201.914 129.882 201.974 129.882 202.054 129.882C201.994 129.882 201.944 129.912 201.884 129.912C201.734 129.912 201.584 129.902 201.434 129.872C201.534 129.892 201.634 129.892 201.694 129.892C201.834 129.892 201.914 129.892 201.914 129.892C201.914 129.892 201.834 129.882 201.694 129.852C201.544 129.842 201.364 129.742 201.145 129.611C200.935 129.47 200.685 129.27 200.475 128.968C200.255 128.687 200.065 128.325 199.855 127.934C199.476 127.12 199.166 126.116 198.936 125.011C198.816 124.459 198.736 123.886 198.656 123.294C198.586 122.711 198.536 122.098 198.506 121.516C198.436 120.271 198.486 119.106 198.606 117.971C198.736 116.856 198.946 115.821 199.246 114.978C199.416 114.566 199.566 114.184 199.765 113.883C199.945 113.572 200.165 113.341 200.365 113.18C200.555 113.039 200.725 112.939 200.855 112.909C200.925 112.899 200.995 112.879 201.065 112.869C201.135 112.869 201.205 112.879 201.275 112.889C201.295 112.889 201.295 112.889 201.314 112.899C201.464 112.929 201.634 113.049 201.824 113.2C202.014 113.361 202.214 113.582 202.394 113.883C202.584 114.164 202.744 114.536 202.914 114.927C203.064 115.339 203.203 115.781 203.333 116.263C203.463 116.745 203.563 117.268 203.663 117.81C203.773 118.352 203.823 118.915 203.893 119.487C203.953 120.06 203.993 120.652 204.023 121.235L204.053 122.139H204.083ZM260.261 110.328C260.86 109.333 261.95 108.118 263.179 108.058C265.788 107.937 268.106 112.336 268.356 117.89C268.616 123.444 266.707 128.044 264.108 128.165C262.719 128.225 261.66 127.05 260.98 125.965C260.011 124.408 259.421 122.701 259.231 120.863C259.181 120.431 259.141 120.019 259.101 119.638C259.081 119.256 259.071 118.905 259.051 118.593C259.051 118.382 259.051 118.161 259.051 117.971L259.481 118.312C259.481 118.382 259.491 118.483 259.501 118.603C259.541 118.905 259.571 119.306 259.651 119.799C259.791 120.773 260.071 122.068 260.521 123.304C260.87 124.268 261.35 125.182 261.89 125.865C262.469 126.648 263.139 127.09 263.829 127.06C264.888 127.01 265.788 125.845 266.367 124.047C267.057 121.998 267.317 119.186 266.997 116.414C266.827 114.937 266.497 113.481 265.937 112.176C265.648 111.523 265.308 110.91 264.838 110.408C264.608 110.147 264.338 109.926 264.029 109.755C263.889 109.665 263.669 109.614 263.489 109.554C263.299 109.524 263.259 109.514 263.009 109.504C262.29 109.544 261.77 109.966 261.44 110.328C261.1 110.699 260.88 111.061 260.72 111.362C260.62 111.553 260.541 111.714 260.481 111.854L259.671 111.392C259.801 111.141 260.001 110.769 260.281 110.307L260.261 110.328ZM260.82 113.1C261.55 113.541 262.28 113.973 262.979 114.445C263.109 114.536 263.239 114.626 263.369 114.717C263.499 114.807 263.609 114.948 263.709 115.068C264.518 116.103 264.848 117.067 264.698 118.382L239.253 100.073C240.102 100.585 240.952 101.098 241.801 101.61C243.81 102.825 245.829 104.04 247.838 105.256C250.216 106.692 252.595 108.128 254.974 109.564C256.923 110.739 258.871 111.914 260.82 113.089V113.1ZM248.148 96.4977L257.152 109.986L237.554 98.7876L248.148 96.4977ZM243.031 45.0048C244.56 44.5328 246.089 44.1009 247.558 43.7192C247.608 44.593 247.718 46.0493 247.918 47.8672C248.048 49.0624 248.228 50.4283 248.457 51.8745C247.128 52.2863 245.719 52.7182 244.21 53.1802C242.881 53.6522 241.491 54.1444 240.052 54.6566C239.543 52.678 239.193 50.7497 238.993 49.203C238.863 48.2187 238.763 47.3851 238.723 46.8026C238.713 46.672 238.703 46.5615 238.693 46.4611C240.082 45.969 241.541 45.4768 243.021 45.0249L243.031 45.0048ZM33.3709 82.5272C27.4243 82.7381 25.0656 84.4756 24.386 85.1285C24.1561 84.8774 24.0262 84.6263 24.0362 84.4455C23.9862 84.0839 24.6359 83.4914 25.3255 83.1198C26.0451 82.7281 26.8446 82.4167 27.6641 82.1455C29.2932 81.6233 31.0122 81.2416 32.7012 80.9604H33.3009L33.3709 82.5272ZM50.0713 90.8633L51.8203 91.0441C51.8203 91.0441 51.7903 91.0541 51.7703 91.0641C51.2006 90.9938 50.631 90.9336 50.0713 90.8633ZM53.7991 91.3052C53.6092 91.2851 53.4194 91.265 53.2295 91.2349C53.2594 91.2248 53.2894 91.2048 53.3194 91.1947L72.8682 93.2034C66.5019 92.651 60.1455 92.0183 53.7991 91.3052ZM150.913 82.5573H119.112C119.112 82.5573 47.5527 82.4167 35.2598 82.4971L35.1898 80.9504L78.385 80.6892L101.262 80.5486L124.139 80.3176L150.813 80.0264L150.933 82.5573H150.913ZM169.633 113.843C169.323 113.933 169.003 114.034 168.693 114.124C167.614 114.415 166.504 114.656 165.395 114.867C166.944 114.526 168.393 114.164 169.633 113.833V113.843ZM184.354 97.1706C183.835 97.4116 183.315 97.6527 182.785 97.8937C183.215 97.7129 183.635 97.5321 184.064 97.3514L180.876 99.2998L182.775 97.8937L172.171 103.428L152.802 102.001L156.05 96.7588C157.829 96.8592 159.608 96.9697 161.387 97.0601L166.734 97.3212L172.081 97.5522C175.649 97.6627 179.207 97.8334 182.785 97.8837C181.936 97.7732 181.086 97.6828 180.237 97.5824L183.005 97.7732L184.454 97.1003L184.344 97.1605L184.354 97.1706ZM209.39 99.8622C209.62 99.7718 209.85 99.6915 210.079 99.6011L210 99.9827C209.81 99.9426 209.61 99.9124 209.39 99.8622ZM235.335 99.0788L230.908 100.083L233.306 97.5221V97.5422L235.345 99.0889L235.335 99.0788ZM227.12 95.7444C228.539 95.1619 229.988 94.5794 231.447 93.9868L211.848 119.166L211.329 119.698C211.299 119.477 211.269 119.266 211.239 119.045L211.269 119.065L226.34 96.7789L227.11 95.7444H227.12ZM213.238 101.339C213.557 101.329 213.727 101.268 213.817 101.198C214.097 101.077 214.927 100.736 216.126 100.244L216.066 100.846V100.917L216.086 100.957L217.415 103.156L216.406 100.867L216.586 100.073C217.855 99.5509 219.494 98.878 221.343 98.1247L222.962 101.339L223.182 101.047L222.472 102.022L217.415 103.167L222.422 102.092L210.999 117.84C210.809 116.916 210.529 116.032 210.219 115.199C209.9 114.355 209.52 113.562 209.08 112.848C209.04 112.778 208.99 112.718 208.94 112.648L210.629 101.088C211.898 101.268 212.878 101.379 213.218 101.359L213.238 101.339ZM215.616 79.1325H215.646H215.676C216.466 79.0321 217.465 79.0823 217.905 79.474C218.005 79.5644 218.055 79.6749 218.085 79.8054C218.085 79.8858 218.115 79.946 218.095 80.0364L218.075 80.167V80.2272L218.065 80.2574C218.015 80.3578 218.045 80.2875 217.985 80.3679C217.925 80.4281 217.855 80.4984 217.775 80.5687C217.615 80.6993 217.445 80.8298 217.265 80.9604C216.426 81.5429 215.526 82.0652 214.617 82.5774L152.802 82.5573L152.682 80.0063L169.863 79.8255L215.606 79.1325H215.616ZM234.825 64.3485C233.926 64.7 233.036 65.0616 232.137 65.4232C226.15 67.8537 220.264 70.465 214.407 73.2169C212.258 74.2213 210.109 75.2457 207.981 76.2902C207.221 76.6618 206.472 77.0334 205.712 77.405C205.362 77.5858 204.623 78.1482 204.223 78.1482L183.915 78.1884C184.104 78.088 184.314 77.9775 184.544 77.8469C185.893 77.1037 187.802 76.0391 190.091 74.7234C194.658 72.1021 200.715 68.5467 206.771 64.9813C209.8 63.2136 212.838 61.446 215.676 59.7888C217.105 58.9753 218.485 58.1919 219.794 57.4487C222.083 56.1631 224.511 55.1085 226.75 53.7727C227.719 53.2003 228.529 52.5876 229.129 51.9348C229.738 51.292 230.118 50.599 230.258 50.0064C230.278 49.9261 230.278 49.8658 230.298 49.7955C230.458 49.7252 230.638 49.6449 230.858 49.5444C231.567 49.2331 232.587 48.8012 233.826 48.2991C235.195 47.7467 236.834 47.124 238.593 46.4912C238.533 47.0737 238.463 48.0279 238.483 49.2331C238.493 50.2475 238.583 51.4326 238.773 52.688C238.883 53.4313 239.043 54.1845 239.223 54.9579C237.544 55.6308 235.815 56.3137 234.056 57.0168C232.307 57.7901 230.508 58.5233 228.749 59.3469C225.311 60.9639 221.893 62.611 218.505 64.3485C215.267 66.0157 212.308 67.6629 209.77 69.089C204.713 71.9715 201.444 74.0505 201.444 74.0505C201.444 74.0505 204.783 72.072 209.91 69.3502C212.488 68.0043 215.496 66.4476 218.774 64.8909C222.203 63.2638 225.641 61.7171 229.129 60.2207C230.908 59.4573 232.716 58.7744 234.475 58.0613C236.204 57.4286 237.904 56.8159 239.543 56.2133C239.573 56.3338 239.603 56.4544 239.633 56.5749C239.842 57.2377 240.042 57.8504 240.282 58.4932C240.512 59.1159 240.772 59.7185 241.032 60.301C241.262 60.8032 241.501 61.2853 241.741 61.7473C239.453 62.5608 237.134 63.4245 234.835 64.3284L234.825 64.3485ZM242.411 61.5263C242.201 61.0442 241.991 60.532 241.781 59.9997C241.551 59.4272 241.342 58.8146 241.132 58.2019C240.922 57.5993 240.712 56.9465 240.532 56.3238C240.492 56.1932 240.462 56.0727 240.422 55.9421C241.881 55.4701 243.31 55.0181 244.66 54.5863C246.099 54.1946 247.458 53.8129 248.737 53.4614C249.057 55.1889 249.447 56.9867 249.947 58.7744C249.977 58.8748 250.007 58.9753 250.047 59.0857C247.588 59.7787 245.019 60.6123 242.411 61.5263ZM251.286 51.1715L250.306 47.7165C250.256 45.3362 250.306 43.6389 250.336 43.0764C250.356 43.0764 250.376 43.0764 250.396 43.0664C251.136 42.8856 251.856 42.7751 252.515 42.6345C252.675 42.6044 252.845 42.5743 252.995 42.5441C253.145 42.5241 253.295 42.504 253.435 42.4738C253.734 42.4337 254.024 42.3935 254.294 42.3533C254.834 42.273 255.304 42.2127 255.693 42.1525C255.863 42.1324 256.003 42.1123 256.133 42.0922C256.823 42.6546 257.422 43.1568 257.922 43.5686C257.702 44.0708 257.412 44.8039 257.242 45.748C257.063 46.6921 257.013 47.8571 257.262 49.0824C257.312 49.3436 257.392 49.6147 257.472 49.8759C257.023 49.9562 256.413 50.0667 255.643 50.2073C254.804 50.3781 253.764 50.5086 252.615 50.83C252.195 50.9405 251.746 51.051 251.286 51.1614V51.1715ZM251.746 52.7885C252.175 52.6981 252.585 52.6077 252.985 52.5173C254.124 52.2361 255.134 52.1457 255.953 52.0051C257.053 51.8444 257.832 51.7239 258.232 51.6636C258.252 51.7038 258.272 51.744 258.292 51.7841C258.452 52.0654 258.672 52.3566 258.862 52.6479C258.891 52.678 258.911 52.7182 258.941 52.7483C259.181 53.843 259.501 55.3395 259.851 57.0268C259.091 57.1072 258.302 57.2177 257.482 57.3583C256.163 57.5792 254.744 57.8906 253.295 58.2421L251.756 52.7885H251.746ZM261.88 72.0418C261.8 72.0418 261.72 72.0418 261.64 72.0619C260.84 72.1623 259.971 72.2829 259.061 72.3933C258.582 72.4837 258.082 72.5842 257.572 72.6746C257.522 72.6043 257.482 72.5641 257.482 72.5641C257.482 72.5641 257.482 72.5641 257.352 72.5942L253.694 59.6683C255.094 59.367 256.453 59.1159 257.722 58.9351C258.582 58.8146 259.411 58.7242 260.181 58.674C261.16 63.6756 262.17 69.6515 261.88 72.0418ZM265.458 55.0081C265.048 54.8474 264.598 54.6767 264.138 54.4657C263.679 54.2649 263.199 54.0238 262.729 53.7426C261.78 53.2003 260.81 52.5173 260.021 51.6937C259.841 51.4828 259.651 51.302 259.471 51.071C259.301 50.83 259.131 50.589 258.961 50.3479C258.672 49.8558 258.422 49.3436 258.242 48.8314C257.882 47.7868 257.772 46.7323 257.832 45.8284C257.872 44.9847 258.032 44.2917 258.172 43.7795C258.862 44.352 259.341 44.7437 259.541 44.9044L259.571 44.9445L259.701 45.1052C259.791 45.2057 259.891 45.3161 260.001 45.4166C260.111 45.517 260.241 45.6174 260.401 45.7179C260.561 45.8183 260.77 45.9087 261.04 45.9589C261.19 45.969 261.35 45.979 261.5 45.9589C261.65 45.9187 261.83 45.8585 261.95 45.7882C262.06 45.7078 262.19 45.6174 262.27 45.5271C262.34 45.4467 262.399 45.3563 262.469 45.2659C262.539 45.1755 262.549 45.1052 262.599 45.0249C262.629 44.9445 262.669 44.8642 262.699 44.7939L262.819 44.3821L262.969 43.8799L262.569 43.5184C261.92 42.9158 261.27 42.3332 260.62 41.7306C261.12 41.7105 261.62 41.7005 262.12 41.7005C263.109 41.7005 264.108 41.7206 265.098 41.8009C266.087 41.8813 267.077 42.0018 268.056 42.1725C269.036 42.3433 270.015 42.5542 270.945 42.8756C271.574 43.2572 272.144 43.7795 272.564 44.4022C271.974 45.0249 267.636 49.2532 260.331 49.203C260.331 49.203 262.819 52.0453 264.928 53.0295C267.037 54.0238 268.536 54.054 268.536 54.054C268.536 54.054 271.594 50.7597 272.564 49.3637C272.404 49.6951 272.214 50.0265 272.024 50.3479C271.944 50.3278 271.894 50.3178 271.894 50.3178C271.894 50.3178 271.944 50.3178 272.024 50.3479C271.554 51.1514 271.015 51.9247 270.435 52.6579C269.895 53.3409 269.326 54.0037 268.696 54.6264C268.336 54.998 267.946 55.3496 267.557 55.691C267.527 55.691 267.507 55.681 267.477 55.671C266.987 55.5404 266.277 55.3395 265.448 55.0282L265.458 55.0081ZM268.286 71.4593C268.346 71.1479 268.406 70.8266 268.456 70.5152C268.806 68.2655 268.896 66.0358 268.946 63.8162C268.976 61.8477 268.936 59.8993 268.836 57.9408L268.996 58.0613C269.136 57.6797 269.286 57.308 269.435 56.9364C269.875 57.3382 270.475 57.8906 271.234 58.5735C272.923 60.1001 275.352 62.2595 278.32 64.7804C279.799 66.0459 281.429 67.3917 283.168 68.7978C283.577 69.1292 283.997 69.4606 284.427 69.7921L268.296 71.4493L268.286 71.4593ZM350.089 68.7375L356.436 66.9899L355.816 67.2611C353.907 67.7533 352.008 68.2554 350.099 68.7375H350.089ZM364.421 64.8206L364.191 64.9109C362.932 65.3428 361.653 65.7044 360.373 66.066L361.513 65.5839L363.771 64.9612C363.771 64.9612 364.551 64.7703 365.121 64.5092C364.891 64.6197 364.661 64.7302 364.421 64.8306V64.8206Z" fill="#E5053D"/>
<path d="M295.141 22.8589C296.37 24.7973 297.639 27.1676 298.878 29.7588C299.488 31.0544 300.078 32.4203 300.637 33.8164C301.187 35.2225 301.687 36.6587 302.147 38.1351C303.076 41.0376 303.836 44.0205 304.315 46.8528C304.555 48.2689 304.765 49.6449 304.925 50.9505C305.085 52.2562 305.185 53.5016 305.245 54.6566C305.365 56.9565 305.395 58.8849 305.335 60.2307C305.285 61.5765 305.255 62.3499 305.255 62.3499C305.255 62.3499 305.285 62.159 305.325 61.7975C305.365 61.4359 305.455 60.9137 305.515 60.2407C305.645 58.8949 305.805 56.9666 305.775 54.6365C305.755 53.4715 305.705 52.216 305.605 50.8903C305.495 49.5645 305.365 48.1585 305.125 46.7222C304.675 43.8398 303.966 40.8167 303.046 37.8438C302.566 36.3875 302.027 34.9111 301.457 33.495C300.877 32.0789 300.258 30.7129 299.618 29.4073C298.329 26.796 296.9 24.486 295.59 22.5777C294.281 20.6594 293.042 19.173 292.172 18.1486C291.743 17.6263 291.373 17.2446 291.133 16.9835C290.893 16.7224 290.753 16.5717 290.753 16.5717C290.753 16.5717 291.213 17.1844 292.032 18.259C292.842 19.3337 293.931 20.9206 295.151 22.869L295.141 22.8589Z" fill="#E5053D"/>
<path d="M265.778 0.96417C266.867 1.25543 268.106 1.69734 269.425 2.17943C270.085 2.42047 270.755 2.69165 271.434 2.97286C272.114 3.24404 272.804 3.55539 273.473 3.87678C274.842 4.48943 276.162 5.20251 277.401 5.86538C278.62 6.55838 279.78 7.20117 280.719 7.82386C281.668 8.43651 282.478 8.92864 283.018 9.31029C283.567 9.6819 283.887 9.88277 283.887 9.88277C283.887 9.88277 283.617 9.6116 283.128 9.15964C282.638 8.71773 281.928 8.07495 281.019 7.38195C280.109 6.68895 279.03 5.90556 277.811 5.14225C277.191 4.78069 276.571 4.37895 275.902 4.03747C275.242 3.67591 274.553 3.34447 273.863 3.01304C273.163 2.70169 272.464 2.39034 271.764 2.12921C271.065 1.848 270.365 1.617 269.685 1.39604C268.316 0.96417 267.017 0.672909 265.897 0.451953C265.338 0.331431 264.818 0.261127 264.358 0.21091C263.899 0.150649 263.499 0.100432 263.169 0.0803446C262.509 0.0301272 262.13 0.0100403 262.13 0.0100403C262.13 0.0100403 262.499 0.110475 263.139 0.261127C263.789 0.411779 264.688 0.662866 265.778 0.974214V0.96417Z" fill="#E5053D"/>
<path d="M229.648 13.4281C230.008 12.9963 230.418 12.5543 230.858 12.0923C231.287 11.6203 231.787 11.1683 232.267 10.6662C233.266 9.70199 234.366 8.70769 235.515 7.77365C236.664 6.8396 237.874 5.98591 239.023 5.21256C239.623 4.86104 240.162 4.4593 240.722 4.14795C241.272 3.81652 241.791 3.51521 242.291 3.26413C243.28 2.74187 244.11 2.29995 244.7 2.03882C245.289 1.76765 245.629 1.58687 245.629 1.58687C245.629 1.58687 245.269 1.67726 244.63 1.85804C244.31 1.94843 243.93 2.06895 243.5 2.21961C243.061 2.36022 242.571 2.53095 242.061 2.772C241.531 2.98291 240.982 3.24404 240.392 3.52526C239.802 3.79643 239.203 4.13791 238.583 4.48943C237.983 4.87108 237.344 5.23265 236.734 5.67456C236.115 6.09639 235.515 6.56843 234.915 7.02039C234.336 7.51252 233.756 7.9946 233.216 8.51686C232.657 9.00899 232.167 9.56138 231.667 10.0736C231.187 10.6059 230.728 11.1181 230.338 11.6303C229.928 12.1426 229.548 12.6246 229.228 13.0866C228.889 13.5386 228.599 13.9805 228.359 14.3722C228.109 14.7639 227.899 15.0953 227.739 15.3866C227.41 15.9591 227.23 16.2905 227.23 16.2905C227.23 16.2905 227.479 15.9993 227.889 15.487C228.289 14.9648 228.909 14.2617 229.638 13.4181L229.648 13.4281Z" fill="#E5053D"/>
<path d="M284.277 40.9071C283.957 40.1136 283.597 39.3604 283.237 38.6372C282.498 37.191 281.678 35.9255 280.929 34.8709C280.189 33.8164 279.46 33.0129 278.97 32.4505C278.46 31.8981 278.15 31.6068 278.15 31.6068C278.15 31.6068 278.4 31.9583 278.83 32.571C279.26 33.1736 279.829 34.0775 280.489 35.1622C281.149 36.2469 281.828 37.5726 282.488 39.0089C282.818 39.732 283.128 40.4852 283.437 41.2586C283.737 42.042 284.017 42.8153 284.267 43.6389C284.777 45.2358 285.186 46.8829 285.476 48.4296C285.756 49.9864 285.976 51.4527 286.056 52.7282C286.136 53.9937 286.196 55.0583 286.186 55.8116C286.186 56.5648 286.186 56.9867 286.186 56.9867C286.186 56.9867 286.276 56.5648 286.366 55.8216C286.456 55.0784 286.586 54.0038 286.586 52.7081C286.586 51.4125 286.526 49.896 286.296 48.289C286.076 46.6821 285.676 44.9948 285.156 43.3275C284.887 42.5241 284.587 41.6905 284.277 40.9071Z" fill="#E5053D"/>
<path d="M225.521 19.4843C225.221 19.8258 224.791 20.3179 224.381 20.9808C223.962 21.6336 223.522 22.4371 223.132 23.3209C222.722 24.2048 222.382 25.179 222.063 26.1632C221.763 27.1575 221.493 28.1518 221.313 29.0959C221.103 30.04 220.983 30.9339 220.873 31.6972C220.763 32.4605 220.753 33.1133 220.703 33.5552C220.673 34.0072 220.663 34.2583 220.663 34.2583L226.03 18.9922C226.03 18.9922 225.82 19.1429 225.511 19.4743L225.521 19.4843Z" fill="#E5053D"/>
<path d="M67.1615 99.6011C65.8622 100.143 64.3231 100.736 62.7041 101.439C61.085 102.142 59.356 102.885 57.627 103.629C55.918 104.402 54.1989 105.185 52.5899 105.918C50.9808 106.652 49.5116 107.385 48.2324 107.977C45.6938 109.213 44.0248 110.087 44.0248 110.087C44.0248 110.087 45.7938 109.444 48.4123 108.389C49.7115 107.847 51.2506 107.244 52.8697 106.551C54.4888 105.848 56.2178 105.105 57.9468 104.362C59.6558 103.588 61.3748 102.805 62.9839 102.072C64.593 101.349 66.0621 100.605 67.3414 100.013C69.8799 98.7776 71.549 97.9038 71.549 97.9038C71.549 97.9038 69.78 98.5466 67.1615 99.6011Z" fill="#E5053D"/>
<path d="M201.674 109.163C201.674 109.163 199.905 109.805 197.287 110.86C195.988 111.402 194.449 111.995 192.829 112.698C191.21 113.401 189.481 114.144 187.752 114.887C186.043 115.661 184.324 116.444 182.715 117.177C181.106 117.9 179.637 118.644 178.358 119.236C175.819 120.471 174.15 121.345 174.15 121.345C174.15 121.345 175.919 120.702 178.538 119.648C179.837 119.106 181.376 118.503 182.995 117.81C184.614 117.107 186.343 116.364 188.072 115.62C189.781 114.847 191.5 114.064 193.109 113.331C194.718 112.607 196.188 111.864 197.467 111.272C200.005 110.036 201.674 109.163 201.674 109.163Z" fill="#E5053D"/>
</g>
<defs>
<clipPath id="clip0_0_137">
<rect width="366" height="134" fill="white"/>
</clipPath>
</defs>
</svg>
