<svg width="227" height="110" viewBox="0 0 227 110" fill="none" xmlns="http://www.w3.org/2000/svg">
<g clip-path="url(#clip0_0_151)">
<path d="M108.083 41.6136C99.2993 40.1561 93.1332 39.1057 93.1332 39.1057C96.3106 39.8669 101.61 40.7285 108.083 41.6136Z" fill="#E5053D"/>
<path d="M113.3 32.9747C113.417 33.0986 113.559 33.2107 113.671 33.3523C113.789 33.488 113.907 33.6238 114.001 33.7772C114.054 33.8539 114.101 33.9247 114.148 34.0014C114.19 34.0781 114.231 34.1607 114.272 34.2375C114.361 34.3909 114.42 34.5502 114.473 34.6977C114.532 34.8512 114.579 34.9987 114.602 35.1344C114.62 35.2288 114.644 35.3114 114.661 35.394C114.667 35.4354 114.679 35.4767 114.685 35.518C114.697 35.636 114.702 35.7363 114.714 35.8189C114.714 35.8897 114.726 35.9428 114.726 35.9841L122.702 36.887C122.708 36.8457 122.714 36.7926 122.725 36.7277C122.737 36.6451 122.755 36.5447 122.767 36.4267C122.784 36.3323 122.784 36.232 122.79 36.1199C122.79 36.1199 122.79 36.0668 122.79 36.0373C122.79 35.8956 122.814 35.7363 122.796 35.5711C122.784 35.4059 122.784 35.2288 122.761 35.0518C122.731 34.8748 122.714 34.6859 122.666 34.4971C122.613 34.3142 122.584 34.1135 122.507 33.9306C122.384 33.5529 122.213 33.193 122.024 32.8625C122.012 32.8448 122 32.8271 121.989 32.8035C118.906 32.4141 115.793 32.2193 112.763 32.3255C112.663 32.3255 112.563 32.3432 112.462 32.355C112.61 32.4436 112.757 32.538 112.916 32.656C113.046 32.7504 113.176 32.8625 113.305 32.9747H113.3Z" fill="#E5053D"/>
<path d="M203.815 49.0902C203.839 49.1728 203.874 49.2554 203.886 49.3439C203.886 49.4324 203.892 49.5268 203.898 49.6213C203.874 49.7098 203.851 49.8042 203.827 49.8986C203.786 49.9871 203.733 50.0756 203.686 50.1642C203.202 50.831 202.33 51.2499 201.387 51.6512C201.151 51.7574 200.897 51.84 200.644 51.9403C200.385 52.0289 200.113 52.0997 199.842 52.1823C199.282 52.3121 198.699 52.4301 198.074 52.5068C196.836 52.6839 195.492 52.7901 194.048 52.855C191.165 52.9907 187.911 52.9966 184.362 52.914C180.814 52.8314 176.976 52.6662 172.914 52.4419C170.887 52.3298 168.8 52.1941 166.672 52.0584C165.605 51.9816 164.532 51.9108 163.447 51.8341C162.551 51.7574 161.643 51.6748 160.736 51.5981L151.693 72.5878V72.6055C151.593 72.7885 151.516 73.0068 151.487 73.2251C151.451 73.4435 151.457 73.6677 151.51 73.886C151.604 74.3227 151.899 74.7004 152.265 74.9777C152.624 75.261 153.055 75.4616 153.485 75.6209C153.921 75.7803 154.375 75.8983 154.835 75.9927C154.375 75.916 153.915 75.8216 153.467 75.6799C153.019 75.5383 152.577 75.3554 152.188 75.078C151.799 74.8066 151.457 74.4171 151.327 73.9392C151.263 73.7031 151.245 73.4494 151.268 73.2074C151.298 72.9596 151.363 72.7295 151.481 72.4934V72.5111L158.242 54.6902C157.959 54.6194 157.57 54.5427 157.022 54.466C155.843 54.2948 154.693 55.5989 154.116 56.3779L153.615 57.9829C152.742 60.7682 151.846 63.5476 150.897 66.3151C150.425 67.6959 149.93 69.0709 149.429 70.4458C148.928 71.8207 148.398 73.1838 147.826 74.5352C147.537 75.2138 147.236 75.8865 146.9 76.5474C146.729 76.8837 146.547 77.2083 146.311 77.5387L146.11 77.7866L145.916 77.9872L145.515 78.3826C145.244 78.6422 144.967 78.8901 144.672 79.1261C144.525 79.2441 144.377 79.3621 144.23 79.4743C144.083 79.5864 143.912 79.6985 143.817 79.7811C143.77 79.8224 143.735 79.8696 143.723 79.8873C143.694 79.9464 143.711 79.9109 143.699 79.9463C143.694 79.9641 143.688 79.9877 143.688 80.0113C143.682 80.1057 143.711 80.1883 143.747 80.2178C143.865 80.3299 144.177 80.3417 144.324 80.2001L144.366 80.1647L144.425 80.1411C146.264 79.4507 148.109 78.778 149.96 78.1111C151.793 77.4679 153.615 76.8011 155.46 76.1815L155.53 76.1284C155.53 76.1284 155.961 76.1638 156.709 76.2346C157.458 76.3113 158.531 76.3999 159.816 76.5415C161.101 76.6831 162.604 76.8247 164.208 77.0195C165.811 77.2142 167.521 77.3971 169.236 77.6155C170.946 77.8574 172.649 78.1525 174.235 78.4593C174.683 78.5478 175.125 78.6363 175.549 78.7307L175.797 78.7603C175.797 78.7603 175.856 78.7839 175.944 78.8193C176.133 78.8606 176.328 78.9019 176.516 78.9491C177.235 79.1143 177.931 79.2736 178.544 79.4979C179.157 79.7162 179.711 79.9818 180.13 80.324C180.336 80.4951 180.513 80.6899 180.613 80.9082C180.719 81.1206 180.749 81.3508 180.713 81.5455C180.637 81.935 180.442 82.1769 180.313 82.3303C180.177 82.4838 180.1 82.5546 180.1 82.5546C180.1 82.5546 180.171 82.472 180.295 82.3126C180.413 82.1533 180.584 81.8937 180.637 81.5337C180.69 81.1619 180.448 80.743 180.035 80.4479C179.623 80.147 179.075 79.9168 178.467 79.7221C178.108 79.6041 177.725 79.5097 177.324 79.4271C178.432 79.9464 179.723 80.6722 179.658 81.1856C179.546 82.0766 176.882 83.4043 172.166 83.9531C167.45 84.5019 147.531 81.817 147.531 81.817L100.49 73.9392C100.49 73.9392 100.72 73.6913 101.186 73.2901C100.867 73.5084 100.573 73.7208 100.301 73.9215C99.9712 74.1634 99.6824 74.3994 99.4289 74.6119C99.4171 74.6355 99.3994 74.665 99.3876 74.6886C99.3346 74.7948 99.2815 74.8892 99.2285 74.9895L160.47 84.9858C162.145 85.1038 163.825 85.1746 165.499 85.21C166.336 85.2277 167.179 85.2336 168.016 85.2277C168.859 85.2218 169.696 85.1923 170.533 85.1569L171.789 85.0802L173.044 84.9622C173.457 84.9032 173.875 84.856 174.288 84.7851C174.695 84.6966 175.119 84.6494 175.52 84.5255L176.127 84.3603L176.728 84.1714C177.129 84.0475 177.53 83.9236 177.931 83.7879C178.715 83.5046 179.505 83.1506 180.1 82.5487C179.511 83.1565 178.721 83.5223 177.937 83.8115C177.542 83.959 177.141 84.0829 176.74 84.2068L176.139 84.4016L175.532 84.5727C175.131 84.7025 174.712 84.7556 174.3 84.8442C173.887 84.9209 173.469 84.9681 173.05 85.033L171.794 85.1628L170.533 85.2513C169.69 85.2985 168.853 85.328 168.01 85.3457C167.167 85.3575 166.33 85.3634 165.487 85.3575C163.807 85.3398 162.121 85.2808 160.441 85.1805L98.7687 75.7508C98.7451 75.7921 98.7156 75.8393 98.692 75.8806C98.4798 76.1992 98.2971 76.4412 98.1851 76.6123C98.0672 76.7834 98.0023 76.8719 98.0023 76.8719L97.8903 76.7834L96.9295 84.0593L97.1417 90.692L96.5404 84.0593V84.0475V84.0239L97.0533 77.0608C95.2789 77.1139 93.9467 77.6627 93.0035 78.2823L94.1825 84.3839C93.6637 84.4901 93.1568 84.6435 92.7795 84.7851C92.6793 84.8205 92.5908 84.856 92.5142 84.8855L90.5748 80.5659L78.0953 83.9472C77.777 84.1537 77.4705 84.3308 77.1934 84.4783C77.1816 84.4842 77.1698 84.4901 77.1522 84.496L83.7308 93.8726C83.7957 93.8136 83.8664 93.7546 83.9313 93.6897C84.1494 93.4714 84.3675 93.253 84.5856 93.0288C84.8096 92.8105 84.9982 92.5567 85.2105 92.3266L85.5229 91.9666L85.8117 91.589C86.0004 91.3352 86.2067 91.0933 86.3835 90.8277C86.5604 90.5681 86.7372 90.3026 86.9141 90.0488C87.0909 89.7892 87.2383 89.5177 87.3975 89.2522C87.5566 88.9925 87.7099 88.727 87.8455 88.4615C87.981 88.1959 88.1225 87.9363 88.2522 87.6825C88.376 87.4229 88.4939 87.1691 88.6059 86.9213C88.8476 86.4315 89.0303 85.9417 89.2072 85.4992C89.3958 85.0566 89.5196 84.6376 89.6552 84.2777C89.7908 83.9118 89.891 83.5872 89.9676 83.3217L90.2211 82.4838C90.2211 82.4838 90.1386 82.7906 90.003 83.3335C89.9323 83.605 89.8497 83.9354 89.7259 84.3013C89.6021 84.673 89.496 85.0979 89.3133 85.5464C89.1423 85.9949 88.9714 86.4846 88.7415 86.9862C88.6295 87.24 88.5175 87.4937 88.3996 87.7592C88.2699 88.0189 88.1343 88.2785 87.9987 88.55C87.869 88.8214 87.7158 89.087 87.5566 89.3525C87.3975 89.618 87.2501 89.8954 87.0732 90.155C86.8964 90.4147 86.7195 90.6802 86.5427 90.9458C86.3659 91.2113 86.1595 91.4591 85.9709 91.7188L85.6761 92.1024L85.3578 92.4623C85.1456 92.6983 84.9452 92.9521 84.7212 93.1704C84.4972 93.3947 84.2732 93.613 84.0551 93.8313C83.9843 93.9021 83.9077 93.9671 83.8311 94.032L86.3187 97.5785L83.7485 94.1087C83.6188 94.2208 83.495 94.327 83.3654 94.4391C83.1413 94.6398 82.9115 94.8227 82.6757 94.9938C82.4399 95.165 82.2217 95.342 81.9918 95.4895C81.5203 95.7787 81.0958 96.0796 80.6596 96.2861C80.4474 96.3983 80.2411 96.5045 80.0524 96.6048C79.8579 96.6992 79.6634 96.7759 79.4806 96.8526C79.121 97.0061 78.8086 97.1418 78.5434 97.2185C78.0128 97.3955 77.7122 97.4958 77.7122 97.4958C77.7122 97.4958 78.0128 97.3837 78.5316 97.1831C78.7968 97.0946 79.1034 96.947 79.4512 96.7818C79.628 96.6992 79.8166 96.6166 80.0053 96.5163C80.1939 96.4101 80.3943 96.2979 80.6007 96.1799C81.0251 95.9616 81.4436 95.6547 81.9034 95.3597C82.1274 95.2063 82.3456 95.0233 82.5695 94.8522C82.6816 94.7637 82.7995 94.6752 82.9115 94.5867C82.935 94.563 82.9586 94.5453 82.9881 94.5217C82.5342 93.8785 79.8108 90.0429 78.4903 88.3198C77.0461 86.4315 76.2031 86.2663 75.6018 86.5672C75.1007 86.8151 74.5112 87.7946 74.3226 88.131C74.6292 88.8037 74.9887 89.919 74.9769 91.3942C75.0123 92.0492 74.9887 92.7633 74.8649 93.5304C74.7471 94.2916 74.5289 95.0941 74.2047 95.9026L77.1109 104.282L74.075 96.2153C74.0455 96.2802 74.022 96.3511 73.9925 96.416C73.5445 97.3955 72.9255 98.3692 72.0943 99.2071C71.2632 100.045 70.2021 100.735 68.9936 101.078C68.3865 101.231 67.7439 101.302 67.1073 101.243C66.9481 101.231 66.789 101.196 66.6357 101.166L66.3999 101.125L66.1641 101.054C66.0167 101.007 65.8694 100.966 65.722 100.912L65.274 100.706C64.7081 100.399 64.1834 100.016 63.7649 99.5317C63.535 99.3133 63.3699 99.036 63.1754 98.7941C63.0221 98.5226 62.8335 98.2689 62.7097 97.9797C62.1615 96.8585 61.8726 95.6488 61.8196 94.4745C61.7547 93.2943 61.908 92.1614 62.191 91.1169C62.4739 90.0901 62.8866 89.1401 63.3699 88.3434C64.3367 86.7266 65.6041 85.7234 66.5591 85.2277C66.901 85.0448 67.2075 84.9268 67.4551 84.8442C67.6437 84.7674 67.8029 84.7202 67.9326 84.6848C67.4374 84.5314 66.9245 84.3426 66.4117 84.1006C64.3544 83.1683 62.2204 81.5042 60.4579 79.2972C59.5736 78.1997 58.7778 76.9664 58.0822 75.6563C57.3984 74.3404 56.8148 72.9478 56.3609 71.5139C55.9188 70.0799 55.6005 68.5929 55.4177 67.1235C55.2468 65.666 55.1996 64.2144 55.2999 62.8158C55.2999 62.8158 55.2939 62.8158 55.288 62.8158L55.2527 62.922C55.2527 62.922 52.9006 62.1313 49.3696 60.9452C47.607 60.3492 45.5438 59.6588 43.3391 58.9153C42.6848 58.7029 42.0187 58.4668 41.3467 58.2249C41.3408 58.4255 41.3349 58.632 41.329 58.8445C41.2995 59.7591 41.3113 60.7918 41.3408 61.9189C41.3879 63.046 41.4587 64.2616 41.606 65.5421C41.7475 66.8226 41.942 68.1739 42.2132 69.5547C42.4844 70.9356 42.8027 72.3577 43.2094 73.7739C43.6103 75.1961 44.0642 76.6241 44.5947 78.0285C45.0958 79.4448 45.6971 80.8197 46.3043 82.1651C46.9468 83.4928 47.5952 84.797 48.3085 86.0067C49.0041 87.2341 49.7527 88.367 50.4778 89.4292C50.8492 89.9544 51.2206 90.4619 51.5861 90.9458C51.9633 91.4178 52.317 91.8899 52.6766 92.3207C53.3958 93.1881 54.0855 93.9553 54.7104 94.6221C55.0287 94.9466 55.3293 95.2535 55.6064 95.5367C55.8893 95.8141 56.1546 96.056 56.3963 96.2861C56.8679 96.7464 57.2687 97.0651 57.534 97.3011C57.7993 97.5312 57.9407 97.6552 57.9407 97.6552C57.9407 97.6552 57.7993 97.5371 57.5281 97.307C57.2628 97.0769 56.8502 96.7582 56.3727 96.3097C56.131 96.0855 55.854 95.8495 55.571 95.5721C55.2881 95.2948 54.9815 94.9938 54.6573 94.6693C54.3331 94.3447 54.0089 93.9848 53.6552 93.6071C53.3015 93.2294 52.9655 92.8105 52.5882 92.3856C52.2227 91.9548 51.869 91.4887 51.4859 91.0166C51.1204 90.5327 50.7431 90.0252 50.3658 89.5C49.629 88.4379 48.8744 87.299 48.167 86.0775C47.442 84.8678 46.7817 83.5636 46.1333 82.23C45.5143 80.8846 44.9072 79.5038 44.3943 78.0875C43.8697 76.6772 43.4217 75.2374 43.0267 73.8093C42.6259 72.3813 42.3193 70.9533 42.054 69.5665C41.7888 68.1798 41.606 66.8285 41.4704 65.5421C41.329 64.2557 41.27 63.0342 41.2229 61.9071C41.1993 60.78 41.1993 59.7414 41.2465 58.8268C41.2523 58.6084 41.2641 58.396 41.2759 58.1895C40.8338 58.0301 40.3917 57.8708 39.9496 57.6938C38.8119 57.2453 37.6624 56.7496 36.5895 56.0946C36.0589 55.7642 35.5461 55.3747 35.157 54.8731C34.9743 54.6194 34.8092 54.3184 34.7385 54.0175C34.656 53.6929 34.6913 53.3448 34.8564 53.0556C35.0215 52.7665 35.2867 52.5658 35.5638 52.4301C35.8585 52.2885 36.1474 52.2354 36.4362 52.1469C37.0139 51.9875 37.5916 51.8577 38.1693 51.7456C39.3129 51.5155 40.433 51.3679 41.4999 51.2794C42.5669 51.1968 43.5749 51.1909 44.5063 51.2086C46.3691 51.2499 47.9136 51.3857 48.9982 51.4919C49.6702 51.5568 50.1595 51.6158 50.4366 51.6453C50.2774 51.3856 50.1124 51.126 49.9532 50.8664C49.6643 50.412 49.3814 49.9576 49.0984 49.5091C48.9569 49.2849 48.8155 49.0666 48.674 48.8482L48.5679 48.683L48.5443 48.6417L48.5148 48.5886L48.4677 48.506C48.4028 48.3939 48.3439 48.2817 48.279 48.1696C47.7839 47.2845 47.3476 46.4524 46.9586 45.7384C46.5695 45.0303 46.2689 44.4225 46.0508 44.0035C45.9093 43.7262 45.815 43.5315 45.7619 43.4252C45.4613 43.797 45.1724 44.1688 44.8895 44.5523C44.6832 44.8238 44.4945 45.1011 44.3 45.3785C44.1762 45.5614 44.0583 45.7502 43.9463 45.9391C43.7577 46.3698 43.6103 46.7829 43.4688 47.1488C43.2979 47.5795 43.1682 47.9572 43.068 48.2758C42.8616 48.9072 42.7437 49.2672 42.7437 49.2672C42.7437 49.2672 42.8499 48.9013 43.0326 48.2699C43.121 47.9513 43.2389 47.5677 43.3922 47.1311C43.5455 46.6944 43.6987 46.1987 43.9227 45.6735C44.0288 45.408 44.1349 45.1306 44.2528 44.8474C44.3707 44.5641 44.5122 44.2809 44.6419 43.9799C44.9013 43.378 45.2373 42.7761 45.5615 42.1447C45.7324 41.832 45.927 41.5251 46.1097 41.2065C46.2041 41.0472 46.2984 40.8878 46.3927 40.7285C46.4988 40.5751 46.599 40.4216 46.7051 40.2623C46.8525 40.0322 47.0116 39.8138 47.1708 39.5955C46.9173 39.1411 43.9168 33.8067 43.1446 32.2488C42.337 30.626 40.5685 30.0359 39.6843 30.4726C39.3719 30.6319 39.4544 31.2928 39.6961 32.0836L45.0604 42.4339L37.4678 30.4608C37.3558 30.4195 37.2497 30.3782 37.1436 30.3369C36.9785 30.272 36.8135 30.1953 36.6484 30.1186C36.3183 29.9651 35.9941 29.794 35.6758 29.5875C35.3575 29.375 35.0332 29.139 34.7385 28.7849C34.5911 28.6079 34.4496 28.4014 34.3494 28.1417C34.2964 28.0119 34.261 27.8644 34.2374 27.7169C34.2256 27.6342 34.2198 27.5516 34.2198 27.469C31.119 26.6252 27.8828 25.7341 24.6465 24.8313C20.7264 23.7396 16.8181 22.6302 13.1573 21.5621C11.3299 21.0252 9.56146 20.4941 7.89322 19.9748C6.22498 19.4555 4.64514 18.948 3.21268 18.411C2.85899 18.2635 2.51707 18.1337 2.17519 17.9803C1.84506 17.8209 1.52675 17.6498 1.2261 17.4669C0.937256 17.2721 0.648422 17.0715 0.424423 16.8178C0.200409 16.5699 0.0117798 16.2631 0.0176697 15.9267C0.0176697 15.5904 0.200394 15.3071 0.394928 15.0888C0.595352 14.8704 0.831146 14.7052 1.05516 14.5577C1.51495 14.2685 1.96886 14.0679 2.3815 13.9027C2.8354 13.7257 3.23627 13.5899 3.58997 13.4837C4.17946 13.2123 4.65103 13.0352 4.65103 13.0352L10.9998 12.8051L11.5775 12.7756L14.8374 12.6163C15.3797 12.5868 15.922 12.575 16.4703 12.5573C17.0185 12.5691 17.5608 12.5632 18.1091 12.6045C20.2902 12.7284 22.4536 12.9998 24.6052 13.3244C26.7568 13.6548 28.9026 14.0325 31.0424 14.4633L31.8441 14.6285C32.1271 14.6875 32.3746 14.7642 32.6458 14.8291L34.2256 15.2363L37.3853 16.0565L43.7046 17.697L56.3432 20.978L81.6028 27.5988L106.827 34.2433L107.151 34.2787C107.493 33.966 107.847 33.6591 108.212 33.37C108.466 33.1694 108.725 32.9746 108.99 32.7917C109.256 32.6088 109.527 32.4258 109.822 32.2901C111.012 31.759 112.303 31.5289 113.577 31.3401C114.856 31.1689 116.153 31.0745 117.444 31.045C118.741 31.0155 120.032 31.045 121.322 31.1276C123.633 31.2869 125.92 31.6351 128.196 32.001C126.557 31.5997 124.918 31.1925 123.285 30.7677C122.024 30.4372 120.768 30.1068 119.519 29.7409C119.206 29.6524 118.894 29.5521 118.581 29.4517C118.275 29.3514 117.951 29.2334 117.662 29.0682C117.508 28.9738 117.361 28.8734 117.243 28.7141C117.114 28.5725 117.066 28.307 117.161 28.1181C117.338 27.7464 117.644 27.5693 117.951 27.4041L117.921 27.4218C118.44 27.1032 118.959 26.9792 119.501 26.8612C120.037 26.7491 120.58 26.6901 121.128 26.6606C122.213 26.5957 123.303 26.6311 124.382 26.7255C124.924 26.7668 125.455 26.8317 125.991 26.8907L127.595 27.0796L130.801 27.4867C134.957 28.0355 139.101 28.6256 143.251 29.2334L145.315 23.6806L150.703 9.17011L150.738 9.06979L150.809 8.97538C150.879 8.88096 150.938 8.81605 150.997 8.73934C151.062 8.66853 151.121 8.59771 151.186 8.5269C151.316 8.39118 151.445 8.25546 151.587 8.13154C151.864 7.87779 152.164 7.63586 152.506 7.42932C152.589 7.37621 152.683 7.329 152.772 7.2818C152.86 7.23459 152.954 7.18738 153.055 7.14607C153.243 7.05756 153.455 6.99855 153.668 6.93954C153.774 6.91594 153.892 6.90413 154.004 6.88643C154.11 6.86873 154.245 6.86283 154.387 6.86873C154.517 6.86873 154.682 6.88053 154.741 6.89823L154.988 6.93954L155.059 6.95724L155.436 7.10477C155.56 7.15788 155.666 7.22279 155.778 7.2818C155.896 7.34081 155.99 7.41162 156.085 7.48243C156.185 7.55324 156.285 7.62405 156.368 7.70077C156.733 7.99581 157.028 8.32627 157.311 8.65672C157.588 8.99308 157.835 9.34124 158.065 9.69529C158.183 9.87232 158.289 10.0553 158.395 10.2382C158.501 10.427 158.602 10.5981 158.702 10.8047L158.725 10.8578V10.8814C158.902 11.3771 159.026 11.8314 159.15 12.3094C159.274 12.7815 159.386 13.2536 159.498 13.7198C159.71 14.6639 159.899 15.6081 160.07 16.5581C160.235 17.5082 160.394 18.4582 160.523 19.4083C160.659 20.3583 160.783 21.3143 160.883 22.2644C160.995 23.2085 161.089 24.1881 161.107 25.144C161.131 26.1059 161.107 27.0737 161.042 28.0296C160.924 29.7763 160.659 31.4994 160.311 33.2048C162.068 33.4526 163.884 33.7063 165.699 33.9601C166.937 34.1371 168.169 34.3082 169.389 34.4853C170.61 34.6623 171.8 34.8924 172.956 35.1108C175.255 35.5711 177.383 36.0726 179.198 36.5447C181.014 37.0109 182.511 37.4476 183.555 37.778C184.073 37.9432 184.48 38.079 184.751 38.1911C184.887 38.2383 184.993 38.2855 185.058 38.3209C185.129 38.3563 185.158 38.374 185.158 38.374C185.158 38.374 185.123 38.3563 185.052 38.3268C184.981 38.2914 184.881 38.2501 184.74 38.2088C184.463 38.1144 184.05 37.9904 183.525 37.8488C182.47 37.5597 180.961 37.1879 179.134 36.7985C177.306 36.409 175.166 35.9959 172.861 35.6301C171.706 35.4589 170.515 35.2819 169.301 35.158C168.081 35.0341 166.843 34.916 165.599 34.7921C163.117 34.5502 160.63 34.3082 158.307 34.0781C157.146 33.966 156.02 33.8539 154.953 33.7477L154.752 33.7299H154.741H154.699H154.611C154.487 33.7299 154.363 33.7299 154.239 33.7299C153.992 33.7358 153.744 33.7477 153.503 33.7654C153.019 33.7949 152.548 33.8539 152.1 33.9129C151.204 34.0368 150.396 34.2138 149.695 34.4086C148.987 34.5974 148.398 34.8157 147.914 35.0046C147.437 35.2111 147.065 35.3704 146.824 35.5061C146.777 35.5297 146.735 35.5533 146.7 35.5711C146.706 35.6006 146.712 35.636 146.724 35.6773C146.724 35.6891 146.729 35.7009 146.735 35.7068C147.166 35.872 147.855 36.0372 148.61 36.2025C149.382 36.3677 150.26 36.5329 151.227 36.704C155.088 37.3885 160.288 38.1439 165.493 38.8402C166.141 38.9287 166.796 39.0113 167.444 39.0998L167.927 39.1647L168.051 39.1824L168.193 39.2061L168.428 39.2533C168.747 39.3123 169.065 39.3713 169.383 39.4244C170.651 39.6486 171.906 39.8493 173.121 40.0263C174.335 40.1974 175.514 40.3508 176.634 40.4571C177.754 40.5574 178.815 40.64 179.794 40.6223C180.283 40.6105 180.749 40.5987 181.185 40.5161C181.621 40.4571 182.04 40.339 182.423 40.2446C183.195 40.044 183.855 39.8139 184.368 39.566C184.875 39.3241 185.282 39.0526 185.364 38.7576C185.406 38.6042 185.317 38.4979 185.264 38.4507C185.199 38.4035 185.17 38.374 185.17 38.374C185.17 38.374 185.205 38.3976 185.264 38.4448C185.323 38.492 185.418 38.5982 185.382 38.7635C185.306 39.0821 184.899 39.3654 184.398 39.6368C183.885 39.9083 183.231 40.162 182.464 40.398C182.075 40.5102 181.674 40.6459 181.226 40.7226C180.778 40.8229 180.301 40.8524 179.806 40.8878C178.815 40.9409 177.742 40.8996 176.611 40.8465C175.479 40.7875 174.288 40.6813 173.062 40.5574C171.836 40.4335 170.568 40.28 169.283 40.103C168.959 40.0558 168.641 40.0145 168.316 39.9673L168.075 39.9319L167.975 39.9142L167.851 39.9024L167.361 39.8611C166.707 39.802 166.053 39.7371 165.398 39.6781C163.347 39.4834 161.302 39.2828 159.333 39.0762C159.162 39.6368 159.014 40.0676 158.914 40.3626L178.462 42.6994C182.441 43.201 186.414 43.7498 190.375 44.393C192.356 44.7176 194.331 45.0598 196.294 45.4729C197.272 45.6794 198.257 45.8977 199.223 46.1574C200.184 46.4288 201.175 46.6885 202.029 47.2137C201.163 46.7003 200.172 46.4583 199.212 46.2046C198.239 45.9627 197.26 45.762 196.276 45.5673C194.307 45.1896 192.326 44.8769 190.346 44.5877C189.809 44.511 189.273 44.4402 188.736 44.3635L197.384 45.9036C197.384 45.9036 201.009 46.6531 202.029 48.2345C203.049 49.816 202.678 50.0048 200.727 50.7483C198.775 51.4919 179.151 51.2853 164.09 49.9694C154.027 49.0902 125.767 44.5405 108.1 41.6136C134.999 45.3077 182.228 49.5268 182.228 49.5268L187.439 45.5319L166.66 41.8025L154.511 40.4689L142.556 39.1411L130.607 37.7839L123.946 37.0286C123.946 36.9755 123.946 36.8988 123.934 36.7926C123.934 36.704 123.922 36.5919 123.916 36.4621C123.916 36.4503 123.916 36.4444 123.916 36.4385C123.916 36.3028 123.881 36.1493 123.863 35.9841C123.834 35.8189 123.822 35.636 123.769 35.453C123.722 35.2642 123.68 35.0695 123.616 34.8688C123.545 34.6741 123.48 34.4676 123.392 34.2669C123.291 34.0722 123.221 33.8657 123.097 33.6768C122.938 33.3877 122.749 33.128 122.555 32.8802C123.893 33.0572 125.219 33.2697 126.539 33.5057C131.297 34.3732 135.771 35.6301 140.664 35.2524C142.927 35.0754 144.242 32.8507 145.049 30.8739C145.886 28.8262 148.221 23.2439 148.221 23.2439L148.25 23.2793L152.884 10.2146L150.078 25.5689L149.913 25.5453L155 32.4789L155.124 32.4966C156.185 32.6442 157.305 32.8035 158.466 32.9628C159.067 33.0454 159.686 33.1339 160.305 33.2225C160.553 31.4994 160.712 29.7704 160.724 28.0355C160.73 27.0855 160.7 26.1354 160.618 25.1912C160.541 24.2412 160.394 23.3206 160.229 22.3765C160.07 21.4323 159.893 20.5059 159.704 19.5676C159.515 18.6353 159.309 17.7088 159.085 16.7824C158.861 15.8618 158.619 14.9413 158.354 14.0384C158.219 13.584 158.083 13.1356 157.936 12.6871C157.794 12.2622 157.641 11.8255 157.488 11.4361C157.405 11.3004 157.305 11.141 157.211 10.9935C157.104 10.8342 156.998 10.6808 156.886 10.5332C156.662 10.2323 156.432 9.93723 156.179 9.67759C155.931 9.41205 155.672 9.16421 155.401 8.97538C155.336 8.92227 155.265 8.88096 155.2 8.83965C155.136 8.79835 155.065 8.75114 155 8.72753C154.935 8.69803 154.87 8.65672 154.805 8.63902C154.746 8.62132 154.693 8.60361 154.64 8.58591L154.446 8.5446C154.34 8.5151 154.34 8.5446 154.304 8.5387C154.275 8.5387 154.245 8.5328 154.186 8.5387C154.133 8.5446 154.08 8.5446 154.027 8.55641C153.915 8.58591 153.803 8.60952 153.691 8.66262C153.632 8.68033 153.573 8.70983 153.52 8.73934C153.461 8.76884 153.402 8.79245 153.343 8.83375C153.108 8.96357 152.878 9.1406 152.66 9.32943C152.548 9.42385 152.442 9.52417 152.341 9.63038C152.288 9.68349 152.241 9.7366 152.194 9.78971L152.123 9.87232L146.417 24.1173L143.528 31.3224C143.234 31.9656 142.833 32.5498 142.326 33.0454C141.825 33.5411 141.212 33.9365 140.54 34.1725C139.874 34.4027 139.154 34.5089 138.465 34.444C138.376 34.444 138.294 34.444 138.2 34.4263L137.958 34.3968L137.48 34.3377L136.508 34.1902C133.949 33.7595 131.432 33.2107 128.903 32.7268C126.374 32.2429 123.84 31.7767 121.287 31.5348C120.014 31.4168 118.723 31.3578 117.444 31.3578C116.159 31.3578 114.873 31.4109 113.6 31.5525C112.333 31.7059 111.042 31.9065 109.863 32.3963C109.568 32.5203 109.297 32.6914 109.032 32.8684C108.76 33.0454 108.501 33.2343 108.242 33.4231C107.876 33.7004 107.517 33.9896 107.169 34.2905L108.295 34.4204C108.949 33.8539 110.458 32.6973 112.144 32.3963C112.315 32.5498 112.498 32.7268 112.669 32.9333C112.769 33.0454 112.857 33.1753 112.946 33.2992C113.022 33.4349 113.117 33.5588 113.188 33.7004C113.258 33.8362 113.329 33.9719 113.376 34.1135C113.4 34.1843 113.429 34.2492 113.453 34.32C113.471 34.3909 113.488 34.4558 113.506 34.5266C113.547 34.6564 113.559 34.7921 113.571 34.916C113.577 34.9573 113.571 34.9928 113.577 35.0341C113.583 35.1108 113.594 35.1934 113.588 35.2642C113.588 35.3704 113.588 35.4707 113.577 35.5533C113.565 35.6419 113.553 35.7127 113.541 35.7776C113.541 35.8012 113.541 35.813 113.535 35.8366L106.709 35.0636H106.68L106.65 35.0518L105.365 34.7095L85.6408 36.0844L102.205 33.8657L81.4142 28.3483L62.6449 23.3442L53.944 25.026L59.3732 22.4709L56.1782 21.6212H56.1664L45.5556 25.1794L78.2781 35.3586L32.9052 24.9788C32.9052 24.9788 2.22824 16.1037 1.39117 15.3602C0.878311 14.9 2.22235 14.1269 3.34238 13.6017C3.05353 13.7021 2.74699 13.8142 2.40509 13.9558C1.99834 14.1269 1.55034 14.3394 1.10233 14.6285C0.884216 14.7819 0.660202 14.9413 0.471573 15.1596C0.288834 15.372 0.135559 15.6376 0.135559 15.9267C0.135559 16.2218 0.306503 16.4991 0.524628 16.7293C0.736832 16.9653 1.01981 17.1541 1.30865 17.343C1.60339 17.52 1.91582 17.6793 2.24593 17.8327C2.57014 17.9744 2.92973 18.0983 3.28342 18.2399C4.71588 18.7474 6.29572 19.2195 7.96985 19.7092C9.6499 20.1931 11.4243 20.6888 13.2576 21.1904C16.936 22.1876 20.8678 23.2203 24.8056 24.2412C32.6812 26.2711 40.5685 28.242 46.487 29.7055C52.4113 31.163 56.355 32.1367 56.355 32.1367L56.3138 32.3019C56.6026 32.1957 56.8679 32.0954 57.0919 32.0128C57.4279 31.8888 57.6637 31.8298 57.8346 31.7767C58.0056 31.7236 58.094 31.7 58.094 31.7L58.1471 31.8888L58.4595 31.818L58.654 32.7327C59.1905 32.8684 61.3657 33.429 64.8201 34.32C65.3211 34.4499 65.8517 34.5856 66.3999 34.7272C66.677 34.798 66.9599 34.8688 67.2488 34.9455C67.3843 34.981 67.5612 35.0282 67.6673 35.0518C67.8147 35.0813 67.9679 35.1167 68.1212 35.1521C69.3414 35.4176 70.656 35.7009 72.0649 36.0018C74.8826 36.6096 78.06 37.2941 81.5262 38.0436C83.2592 38.4153 85.069 38.8048 86.9377 39.2119C88.8122 39.566 90.7516 39.9319 92.7441 40.3095C96.7408 41.0412 100.956 41.8143 105.318 42.6168C109.68 43.4016 114.19 44.1983 118.782 44.989C123.368 45.7797 128.031 46.5705 132.7 47.314C135.034 47.6975 137.368 48.0634 139.697 48.4175C142.025 48.7833 144.348 49.1138 146.647 49.4501C148.946 49.7924 151.239 50.0756 153.497 50.3884C154.629 50.5241 155.754 50.6598 156.869 50.7956C157.983 50.9313 159.097 51.067 160.199 51.1614C161.302 51.2676 162.392 51.368 163.477 51.4742C164.561 51.5568 165.64 51.6453 166.701 51.7279C168.829 51.8872 170.91 52.0407 172.938 52.1646C176.994 52.4242 180.831 52.6249 184.374 52.7311C187.917 52.8373 191.171 52.8609 194.048 52.7488C195.486 52.6957 196.83 52.6012 198.068 52.436C198.687 52.3652 199.27 52.2472 199.83 52.1233C200.102 52.0407 200.373 51.9757 200.632 51.8872C200.886 51.7928 201.139 51.7102 201.375 51.604C202.318 51.2145 203.191 50.8015 203.668 50.1523C203.91 49.8278 203.933 49.4147 203.804 49.102C203.756 48.9426 203.662 48.801 203.586 48.6712C203.491 48.5532 203.409 48.4293 203.314 48.3289C203.12 48.1283 202.955 47.9513 202.784 47.8215C202.625 47.6798 202.489 47.5677 202.371 47.4851C202.489 47.5677 202.631 47.6798 202.79 47.8156C202.955 47.9454 203.132 48.1224 203.326 48.3171C203.42 48.4175 203.503 48.5414 203.603 48.6594C203.68 48.7951 203.774 48.9308 203.827 49.0961L203.815 49.0902ZM177.819 43.0299L187.876 44.2514C184.722 43.8206 181.562 43.4429 178.403 43.0948L177.819 43.0299ZM156.008 40.0263L158.053 40.2682C158.142 40.0145 158.289 39.5778 158.478 38.9936C157.877 38.9287 157.287 38.8638 156.709 38.7989L156.014 40.0204L156.008 40.0263ZM128.726 32.1131C128.815 32.1249 128.903 32.1426 128.992 32.1544C131.538 32.5734 134.073 33.0572 136.608 33.4231L137.551 33.5411L138.034 33.5883L138.276 33.6119C138.341 33.6119 138.424 33.6119 138.494 33.6119C139.096 33.6532 139.679 33.547 140.221 33.3464C141.3 32.9392 142.161 32.0069 142.615 30.927L142.945 30.0359C138.872 29.3573 134.792 28.6905 130.707 28.065L127.518 27.5929L125.92 27.3746C125.39 27.3097 124.848 27.233 124.323 27.1799C123.262 27.0678 122.195 27.0028 121.134 27.05C120.603 27.0678 120.073 27.1209 119.554 27.2153C119.047 27.3097 118.505 27.4454 118.092 27.6874L118.063 27.7051C117.803 27.829 117.514 28.0237 117.414 28.2479C117.302 28.4604 117.526 28.6964 117.774 28.8439C118.051 29.0092 118.34 29.1154 118.646 29.2275C118.953 29.3337 119.259 29.4399 119.566 29.5344C120.804 29.9238 122.053 30.2838 123.303 30.6319C125.107 31.1394 126.911 31.6233 128.726 32.1013V32.1131ZM95.5442 41.7671V43.0535C97.0179 42.8528 98.415 42.6699 99.7001 42.4929C98.2912 42.245 96.9059 42.0031 95.5442 41.7671ZM94.1707 41.5251L94.3357 47.668L94.5361 50.6067C94.5361 50.6067 95.0726 51.1024 95.5678 50.949C95.9922 50.8192 96.5109 50.6303 96.6524 50.5772C99.258 48.205 101.793 45.7325 104.357 43.3072C103.709 43.1951 103.06 43.083 102.418 42.9709C102.141 43.0063 101.846 43.0476 101.551 43.0889L95.3555 50.1228L95.2435 43.7734L95.1374 41.6963C94.8132 41.6372 94.4831 41.5841 94.1648 41.5251H94.1707ZM89.7023 43.915C91.8363 43.5905 93.3395 43.3544 93.7698 43.2895L93.6637 41.4366C93.2982 41.3717 92.921 41.3068 92.5614 41.2419C91.3234 41.0176 90.115 40.7993 88.9183 40.5869L89.4017 42.7525L89.7023 43.9209V43.915ZM89.16 44.9772C88.9183 44.9418 88.6884 44.9005 88.4703 44.8828C88.3171 44.871 88.1697 44.8592 88.0282 44.8533C87.3503 44.9418 86.637 45.0303 85.8884 45.1247C86.1359 45.4316 86.4307 45.7974 86.749 46.2164C87.1086 46.6826 87.5036 47.2137 87.9044 47.8156C88.3112 48.4116 88.7415 49.0725 89.16 49.7865C89.5903 50.4946 90.0207 51.2617 90.4333 52.0643C90.846 52.8727 91.2645 53.7106 91.6418 54.584C92.0249 55.4573 92.3904 56.3543 92.7264 57.2571C93.0624 58.1659 93.3572 59.0805 93.6401 59.9952C93.6519 60.0247 93.6578 60.0542 93.6637 60.0837L99.6942 58.455C99.9712 59.4346 100.237 60.8921 100.319 63.0224C100.461 66.6692 99.9771 69.8144 99.7178 71.207C99.7708 71.0654 99.818 70.9238 99.8651 70.7762C99.9889 70.4458 100.071 70.0917 100.172 69.7318C100.278 69.3718 100.349 69 100.425 68.6224C100.514 68.2447 100.567 67.8553 100.62 67.4599C100.685 67.0645 100.714 66.6633 100.749 66.2561C100.797 65.8489 100.797 65.4359 100.808 65.0228C100.832 64.6097 100.808 64.1908 100.797 63.7777C100.797 63.3587 100.749 62.9457 100.714 62.5326C100.69 62.1195 100.62 61.7064 100.567 61.2993C100.519 60.8921 100.431 60.4908 100.354 60.1014C100.313 59.9067 100.278 59.706 100.237 59.5113C100.183 59.3166 100.136 59.1218 100.089 58.933C99.9005 58.16 99.6765 57.4459 99.4466 56.7555C99.2167 56.071 98.975 55.4278 98.7392 54.8436C98.2676 53.6693 97.796 52.7252 97.4482 52.0761C97.1594 51.545 96.9648 51.2086 96.9 51.1024C96.8234 51.2322 96.6642 51.3738 96.4579 51.4801C96.2339 51.604 95.9509 51.6984 95.6444 51.7574C95.4911 51.7869 95.332 51.8105 95.1669 51.8164C95.0136 51.8282 94.8309 51.8223 94.6658 51.8164C94.3298 51.7869 93.9938 51.7279 93.6873 51.5686C93.5399 51.4919 93.3808 51.3856 93.3041 51.185C93.2157 50.949 93.3513 50.7838 93.4515 50.6893C93.6696 50.5123 93.8818 50.4769 94.0174 50.4415C94.0823 50.4297 94.1294 50.4238 94.1648 50.4179L93.9938 47.5028C93.9526 47.4674 93.9054 47.4261 93.8406 47.3671C93.6696 47.2137 93.4161 47.0071 93.0978 46.7711C92.4729 46.299 91.571 45.7384 90.5984 45.3726C90.3508 45.284 90.1091 45.1955 89.8615 45.1306C89.6139 45.0598 89.3722 45.0067 89.1305 44.9595L89.16 44.9772ZM85.1574 39.867L83.0883 44.93C83.8546 44.812 84.5974 44.6999 85.3225 44.5877C85.0808 44.2278 84.9452 44.0271 84.9452 44.0271C84.9452 44.0271 85.0218 44.1157 85.1751 44.2868C85.2399 44.3635 85.3284 44.4638 85.4286 44.57C86.4425 44.4166 87.4034 44.2691 88.2935 44.1334L88.1048 43.437L87.032 40.2446C86.9318 40.2269 86.8256 40.2092 86.7254 40.1915C86.1949 40.0794 85.682 39.9732 85.1633 39.867H85.1574ZM78.8676 45.5791C79.6457 45.4611 80.4238 45.3431 81.1901 45.225L81.7148 43.9976L83.3595 39.5011C82.6639 39.3595 81.9742 39.212 81.3021 39.0762C79.2271 38.6455 77.2524 38.2383 75.4014 37.8547L76.934 41.3186L78.8735 45.5909L78.8676 45.5791ZM58.9252 34.084L62.5034 51.0021L62.5859 50.9785C62.5859 50.9785 62.6036 50.9785 62.6095 50.9726C62.9396 50.8605 63.1164 50.8074 63.1164 50.8074C63.1164 50.8074 63.0398 50.8369 62.9042 50.89L63.4465 50.7247C63.2343 50.7779 63.1164 50.8074 63.1164 50.8074C63.1164 50.8074 63.2933 50.7542 63.6293 50.6539C63.7118 50.6303 63.8061 50.6067 63.9064 50.5831L64.2719 50.471V50.5005C64.5253 50.4533 64.8083 50.412 65.1266 50.3825C65.7809 50.3176 66.5826 50.3294 67.4904 50.471C68.3983 50.6126 69.4004 50.9077 70.4261 51.3797C72.4834 52.3121 74.6174 53.9762 76.3799 56.1831C77.2642 57.2807 78.06 58.514 78.7556 59.824C79.4394 61.14 80.023 62.5326 80.4769 63.9665C80.919 65.4005 81.2373 66.8875 81.42 68.3568C81.591 69.8262 81.6382 71.2955 81.5379 72.7C81.4613 73.8211 81.2845 74.8951 81.031 75.916C81.1076 75.6622 81.1784 75.4026 81.2491 75.1312C82.9881 68.345 80.2352 62.031 80.2352 62.031L81.7266 61.2875C81.4259 60.5735 81.0958 59.8712 80.7244 59.1985C79.9758 57.8413 79.1328 56.5549 78.172 55.4337C77.2229 54.3007 76.1795 53.3153 75.1007 52.495C74.022 51.6748 72.9019 51.0375 71.8173 50.5654C70.2493 49.8868 68.7637 49.6036 67.5376 49.5386L66.6062 49.6154H65.5628C65.498 49.6213 65.4272 49.6331 65.3683 49.639L64.8083 49.7334C64.7493 49.7452 64.6845 49.757 64.6314 49.7688C64.2659 49.8573 64.0714 49.8986 64.0714 49.8986C64.0714 49.8986 64.1716 49.8632 64.3661 49.8042L64.0773 49.8514C63.7472 50.1169 63.4996 50.353 63.3522 50.5241C63.199 50.7011 63.1341 50.8074 63.1341 50.8074C63.1341 50.8074 63.199 50.6952 63.3463 50.5182C63.4878 50.3471 63.7118 50.1228 64.0125 49.8632L63.8946 49.8809C63.8946 49.8809 64.0478 49.7865 64.3013 49.6331C64.6078 49.4029 64.9674 49.1551 65.3919 48.919C65.6572 48.7597 65.9519 48.624 66.2584 48.4647C66.5768 48.3289 66.901 48.1637 67.2547 48.0339C67.3313 48.0044 67.4138 47.9749 67.4964 47.9395C67.5494 47.9159 67.6084 47.8923 67.6614 47.8687C67.8324 47.7979 68.0622 47.7211 68.3275 47.6385C68.3393 47.6385 68.3511 47.6267 68.3629 47.6267C68.7461 47.4969 69.1469 47.3671 69.5713 47.255C69.7777 47.196 69.9899 47.137 70.208 47.0779C70.4261 47.0248 70.6442 46.9776 70.8623 46.9245C71.0863 46.8714 71.3103 46.8242 71.5343 46.7711C71.7642 46.7298 71.9941 46.6826 72.224 46.6413C73.1495 46.4524 74.1163 46.3285 75.0948 46.1751C75.8907 46.0512 76.6924 45.9273 77.5 45.8033L73.4855 37.4535C72.9255 37.3354 72.3773 37.2233 71.8468 37.1171C70.4379 36.8221 69.1174 36.5506 67.8913 36.2969C67.738 36.2674 67.5848 36.232 67.4374 36.2025C67.2429 36.1611 67.1309 36.1257 66.9717 36.0903C66.6828 36.0195 66.3999 35.9487 66.1228 35.8779C65.5687 35.7422 65.0382 35.6065 64.5371 35.4825C61.8372 34.8098 59.9214 34.3377 58.9488 34.0958L58.9252 34.084ZM77.4705 45.7915C77.4705 45.7915 77.5117 45.7856 77.5353 45.7797L76.6747 43.9327L77.4705 45.7856V45.7915ZM77.8772 61.7478C78.2545 61.5825 78.732 61.3642 79.0032 61.2462C78.8145 60.8213 78.62 60.4023 78.4078 59.9952C77.7299 58.7029 76.9576 57.4873 76.0911 56.4015C75.2245 55.3216 74.299 54.342 73.3146 53.5336C72.336 52.7193 71.3221 52.0643 70.32 51.5863C69.3179 51.1083 68.3452 50.7837 67.461 50.6185C66.5767 50.4533 65.7809 50.4179 65.1325 50.4592C64.8142 50.4769 64.5253 50.5123 64.2777 50.5477L64.3721 51.4034C65.386 51.3561 68.074 51.3916 70.3907 52.9081C73.7449 55.0974 76.3033 58.101 77.8831 61.7478H77.8772ZM43.345 29.9592L47.7839 38.7576C47.8664 38.6514 47.9489 38.5451 48.0314 38.4389C48.5325 37.8606 49.0218 37.2705 49.5641 36.7512C49.8294 36.4798 50.0947 36.2143 50.3776 35.9782C50.6606 35.7363 50.9258 35.4825 51.2088 35.2642C51.4977 35.0459 51.7747 34.8334 52.0518 34.621C52.3288 34.4086 52.6236 34.2374 52.8947 34.0545C53.4371 33.6709 54.003 33.3995 54.504 33.1103C54.5807 33.0749 54.6514 33.0395 54.728 33.0041C53.1128 32.5734 50.0947 31.7649 46.2099 30.7323C45.3021 30.4903 44.3472 30.2307 43.3509 29.9651L43.345 29.9592ZM45.9565 42.8529C46.3632 42.31 46.7876 41.7848 47.218 41.2596C47.6483 40.7344 48.0786 40.2151 48.5266 39.7017L48.6681 39.5365L48.7742 39.7371C49.8117 41.6786 50.802 43.6436 51.8219 45.5968C52.8417 47.55 53.8261 49.515 54.8224 51.4801L56.3138 54.4247L57.1037 56.0238C57.2098 55.8173 57.3218 55.6166 57.4338 55.4219C58.0056 54.4483 58.6599 53.6339 59.326 53.0025C59.9922 52.3711 60.6465 51.9049 61.2183 51.5863C61.5897 51.3738 61.9198 51.2263 62.1968 51.1083L57.7816 32.6206C57.6401 32.656 57.481 32.6973 57.31 32.7563C57.0035 32.8566 56.6321 32.9864 56.2018 33.128C56.1605 33.1458 56.1074 33.1694 56.0603 33.1871L56.0249 33.3346C56.0249 33.3346 55.9542 33.3169 55.8304 33.2815C55.5121 33.4113 55.1702 33.5529 54.8106 33.7181C54.3213 33.9837 53.7613 34.2256 53.2307 34.5738C52.9596 34.7449 52.6707 34.8983 52.3937 35.099C52.1166 35.2937 51.8396 35.4943 51.5566 35.695C51.2736 35.9015 51.0084 36.1375 50.7254 36.3618C50.4425 36.586 50.1713 36.8339 49.906 37.0876C49.3578 37.5774 48.8567 38.138 48.3498 38.6868C47.8723 39.2651 47.3889 39.8375 46.9645 40.4512C46.8584 40.5987 46.7464 40.7521 46.6403 40.8996C46.5401 41.0531 46.4398 41.2065 46.3455 41.3599C46.151 41.6668 45.9506 41.9618 45.7678 42.2687C45.42 42.8824 45.0663 43.4725 44.7893 44.0566C44.6478 44.3458 44.5004 44.629 44.3707 44.9064C44.2469 45.1837 44.129 45.4552 44.017 45.7148C44.017 45.7266 44.0112 45.7325 44.0052 45.7443C44.0819 45.6145 44.1467 45.4788 44.2293 45.349C44.3118 45.2014 44.412 45.0657 44.5004 44.9182C44.5889 44.7766 44.6832 44.6349 44.7834 44.4933C45.1607 43.9327 45.5615 43.3839 45.9682 42.841L45.9565 42.8529ZM75.8317 67.5838C76.2502 72.0154 74.3875 76.1107 74.3875 76.1107L69.8779 72.3577C69.7718 72.5465 69.6598 72.7177 69.5596 72.8534L74.2165 77.6627C76.4625 74.6945 77.1227 69.7849 75.5782 64.8458C74.9593 62.8571 74.0455 61.0809 72.955 59.588C73.9984 61.4586 75.5605 64.6805 75.8376 67.5897L75.8317 67.5838ZM58.8427 64.5684C58.8427 64.5684 57.7285 67.9143 59.6444 71.2247C59.438 70.8057 59.2848 70.3632 59.1374 69.9088C58.9959 69.3541 58.8603 68.7522 58.8427 68.1621C58.8073 67.873 58.8427 67.5779 58.8368 67.2947C58.8721 67.0114 58.878 66.7223 58.937 66.4508C59.0195 65.902 59.1964 65.3887 59.3909 64.9166C59.5088 64.6923 59.5972 64.4563 59.7328 64.2616C59.7976 64.1613 59.8566 64.0609 59.9155 63.9606C59.9863 63.8662 60.0511 63.7777 60.1219 63.6892C60.2692 63.4944 60.4284 63.3233 60.5816 63.1758L59.0961 60.4318C58.8604 60.0011 58.6304 59.5644 58.4005 59.1277C57.8877 60.1899 57.5281 61.3937 57.3336 62.6978L58.8545 64.5743L58.8427 64.5684ZM60.6524 69.1476C61.4069 70.2156 62.4209 70.9887 63.7118 71.0654C64.8849 71.1303 66.5119 70.788 66.5944 69.3423C66.6829 67.8258 65.6277 65.5008 65.6277 65.5008C66.8951 68.0382 67.0778 70.4222 66.0816 73.1071C65.946 73.4789 65.7809 73.8565 65.4744 74.1103C65.3919 74.1752 65.3035 74.2283 65.2091 74.2755C65.3211 74.2696 65.4272 74.2578 65.5157 74.246C65.6041 74.2401 65.6866 74.2224 65.7633 74.2047V74.187C65.7633 74.187 65.8045 74.1693 65.887 74.1339C65.9755 74.1103 66.0934 74.0395 66.2407 73.9451C66.3115 73.892 66.3822 73.8211 66.4648 73.7503C66.5414 73.6677 66.618 73.5733 66.7005 73.473C66.8479 73.2487 67.0012 72.9832 67.1132 72.6527C67.2429 72.3282 67.3195 71.9505 67.3844 71.5493C67.4374 71.1421 67.4727 70.7054 67.461 70.2511C67.461 69.7967 67.4138 69.3246 67.3372 68.8525C67.3077 68.6106 67.2487 68.3804 67.2075 68.1444C67.1544 67.9084 67.0837 67.6546 67.0307 67.4245C66.8892 66.9524 66.7359 66.4862 66.5414 66.0437C66.3527 65.6011 66.1405 65.1703 65.9047 64.775C65.6866 64.3973 65.439 64.055 65.1855 63.7423H65.162L65.1561 63.701C65.1561 63.7246 65.1679 63.7364 65.1679 63.7364C65.1679 63.7364 65.0735 63.6066 64.9085 63.4236C64.8672 63.3764 64.8201 63.3233 64.7788 63.282C64.7611 63.2643 64.7375 63.2407 64.7198 63.2171C64.5843 63.0814 64.4487 62.9575 64.3013 62.8453C64.0184 62.6093 63.7177 62.4441 63.4465 62.3201C63.3051 62.2729 63.1754 62.2198 63.0457 62.1844C62.916 62.1608 62.7981 62.1372 62.692 62.1254H62.6861C62.639 62.1254 62.5918 62.1254 62.5446 62.1372C62.1497 62.2198 61.8137 62.3556 61.5366 62.509C61.3716 62.6152 61.1947 62.7391 61.0061 62.8925C60.8823 63.0047 60.7526 63.1227 60.6288 63.2584L60.6642 63.3292L60.6288 63.2643C60.4873 63.4118 60.3517 63.583 60.2221 63.7659C60.1631 63.8544 60.0983 63.9429 60.0334 64.0373C59.9804 64.1376 59.9214 64.238 59.8684 64.3383C59.7446 64.5389 59.6679 64.7631 59.5677 64.9874C59.4616 65.2883 59.3614 65.607 59.2907 65.9433C59.5854 67.0763 59.9863 68.1975 60.6583 69.1476H60.6524ZM66.8538 65.8961C67.013 66.2207 67.1485 66.557 67.2841 66.8993L69.5124 66.0732C69.3591 65.6424 69.1764 65.2175 68.976 64.8163C68.7578 64.4032 68.5338 64.0019 68.2804 63.642C68.0269 63.282 67.7616 62.9398 67.4787 62.6506C67.2016 62.3556 66.901 62.1136 66.6121 61.913C66.3115 61.73 66.0285 61.5707 65.7574 61.4822C65.6395 61.4409 65.5275 61.4114 65.4213 61.3878L65.5628 63.8603C65.7633 64.1022 65.9637 64.3501 66.1405 64.6333C66.4058 65.0287 66.6475 65.4536 66.8656 65.902L66.8538 65.8961ZM63.1047 54.9085C63.0221 54.9321 62.9337 54.9498 62.8512 54.9793C62.5152 55.0856 62.1969 55.2154 61.8903 55.3688C60.5816 56.0179 59.5147 57.0978 58.7307 58.4727L60.7821 62.0959C60.7821 62.0959 62.1379 61.4822 63.0634 61.6002C64.2011 61.7419 64.7729 62.6919 65.0205 63.2761C65.0441 63.2997 65.0677 63.3233 65.0912 63.3469L64.6373 61.3465V61.3111L64.431 60.4318L63.1106 54.9144L63.1047 54.9085ZM67.8441 72.6646C67.8265 72.7354 67.8088 72.8062 67.7852 72.8711C67.6791 73.2546 67.5081 73.5969 67.3313 73.892C67.2311 74.0336 67.1368 74.1634 67.0365 74.2814C66.9422 74.3699 66.8597 74.4585 66.7772 74.5293L68.8404 80.4833C69.477 80.4774 70.1078 80.3771 70.7209 80.1883C71.4341 79.9641 72.0826 79.6218 72.6779 79.1851L67.8441 72.6646ZM67.7498 80.4125C67.8795 80.4302 68.0033 80.4479 68.133 80.4597L66.0639 74.9659C66.0639 74.9659 66.0285 74.9718 66.0108 74.9777C65.9814 74.9777 65.946 74.9895 65.9165 74.9954L67.7557 80.4184L67.7498 80.4125ZM69.7541 83.1152C70.6088 83.1329 71.4518 83.0149 72.2653 82.7611C73.067 82.5074 73.8156 82.1297 74.4995 81.6399L73.1731 79.8519C72.8194 80.1175 72.4422 80.3535 72.0472 80.5482C71.7053 80.7194 71.3457 80.8669 70.9684 80.9849C70.3671 81.1738 69.7541 81.28 69.1292 81.3095L69.7541 83.1152ZM71.8468 58.2367C69.7541 55.9707 67.1957 54.643 64.714 54.6843L65.3978 61.258C65.5215 61.2698 65.6512 61.2934 65.7927 61.3288C66.0875 61.3937 66.4058 61.5294 66.73 61.7123C67.0483 61.9071 67.3784 62.1431 67.685 62.4323C68.0033 62.7155 68.298 63.0519 68.5751 63.4236C68.8522 63.7954 69.1057 64.2026 69.3356 64.6274C69.5537 65.0582 69.76 65.5067 69.9191 65.9729C70.0842 66.4449 70.2139 66.9052 70.32 67.3832C70.4261 67.8612 70.485 68.3332 70.5145 68.7935C70.5381 69.0886 70.5381 69.3718 70.5263 69.6492C71.0333 65.9728 68.7519 63.0932 68.7519 63.0932L71.8468 58.2308V58.2367ZM62.9101 54.1001L62.6272 52.914C62.3324 53.0202 62.0377 53.1382 61.7547 53.2799C60.1042 54.106 58.7425 55.5104 57.7698 57.3869C57.87 57.5876 57.9643 57.7882 58.0645 57.9888C59.1374 56.1536 60.6819 54.7905 62.6036 54.1886C62.7038 54.1591 62.8099 54.1296 62.9101 54.106V54.1001ZM62.5269 52.5068L62.2027 51.1555C61.9316 51.2794 61.6133 51.4447 61.2537 51.663C60.6936 51.9935 60.0629 52.4773 59.4263 53.1205C58.7896 53.7637 58.1765 54.584 57.6224 55.5458C57.481 55.7878 57.3513 56.0415 57.2216 56.3012L57.5281 56.9267C58.7248 54.761 60.4402 53.2327 62.5152 52.5068H62.5269ZM47.8369 51.427C48.9688 51.5273 50.0475 51.6512 50.4307 51.6925C50.4248 51.6807 50.413 51.6689 50.4071 51.6512C50.13 51.6217 49.6407 51.5686 48.9687 51.5096C48.6386 51.4801 48.2554 51.4506 47.8428 51.4211L47.8369 51.427ZM54.787 61.2816C55.011 60.125 55.5356 57.8059 56.2843 56.4664L47.8251 40.9586L47.8664 40.8937C47.2651 41.5782 46.6756 42.2628 46.0979 42.9709C45.9741 43.1243 45.8503 43.2777 45.7265 43.4252C45.7914 43.5197 45.9093 43.7085 46.0802 43.9681C46.3278 44.3694 46.6992 44.93 47.1236 45.6263C47.5422 46.3167 48.0432 47.1192 48.5561 47.9867C48.6209 48.0929 48.6858 48.205 48.7506 48.3171L48.7978 48.3998L48.8155 48.4293L48.8449 48.4706L48.957 48.6299C49.0984 48.8482 49.2458 49.0666 49.3932 49.2908C49.682 49.7393 49.9709 50.1937 50.2656 50.648C50.8315 51.5686 51.3915 52.495 51.869 53.392C52.1107 53.8405 52.3347 54.2771 52.5233 54.7079C52.6236 54.9144 52.7061 55.1387 52.7886 55.3452C52.8535 55.5517 52.9301 55.7583 52.9655 55.9589C53.1482 56.7614 53.1187 57.4636 53.048 57.9298C52.9773 58.4019 52.8535 58.6497 52.8535 58.6497C52.8535 58.6497 52.936 58.3901 52.9655 57.9239C52.9714 57.8236 52.9714 57.7115 52.9714 57.5994C52.9301 58.1777 52.8358 58.6202 52.8358 58.6202C52.8358 58.6202 51.8572 56.3661 50.3304 54.7433C48.8037 53.1205 44.6478 51.2971 44.6478 51.2971C44.6655 51.2912 44.695 51.2853 44.7244 51.2794C44.6419 51.2794 44.5594 51.2794 44.4709 51.2794C43.5396 51.2676 42.5315 51.2794 41.4704 51.3797C40.4094 51.4742 39.2952 51.6394 38.1634 51.8754C37.5975 51.9935 37.0198 52.1351 36.448 52.2944C36.171 52.3829 35.8585 52.4478 35.6051 52.5717C35.4636 52.6426 35.3339 52.7311 35.216 52.8373C35.269 53.1618 35.5638 54.4542 37.1672 55.5399C37.6741 55.8822 39.2717 56.4782 41.3231 57.1686C41.3408 56.9208 41.3643 56.6788 41.3879 56.4605C41.4469 55.8055 41.5176 55.2921 41.5648 54.9439C41.6119 54.5958 41.6355 54.4069 41.6355 54.4069C41.6355 54.4069 41.6119 54.5958 41.5707 54.9439C41.5294 55.2921 41.4704 55.8055 41.4174 56.4605C41.3938 56.6847 41.382 56.9267 41.3643 57.1804C45.8916 58.697 52.6059 60.6502 54.7811 61.2757L54.787 61.2816ZM56.7323 71.1834C55.4531 67.0881 55.3706 62.8866 56.5024 59.352C56.7441 58.5907 57.0388 57.8826 57.3807 57.2276L57.0742 56.6493C56.7618 57.3338 56.4906 58.0714 56.2725 58.8563C55.9247 60.0778 55.7184 61.4114 55.6181 62.7981C55.5238 64.1849 55.5828 65.6247 55.7596 67.0704C55.9542 68.5221 56.2725 69.9619 56.7146 71.384C56.7618 71.5316 56.8148 71.6732 56.862 71.8207L56.9091 71.7204C56.8502 71.5434 56.7912 71.3663 56.7323 71.1893V71.1834ZM69.1115 83.0798L68.4454 81.3154C66.5944 81.2446 64.6904 80.5069 62.8983 79.1438C60.3282 77.1788 58.3003 74.1398 57.1921 70.5874C55.7596 66.0083 56.1487 61.4468 57.9054 58.2426C57.8052 58.0537 57.7049 57.8708 57.6106 57.682C57.3395 58.2426 57.0978 58.8445 56.8914 59.4818C55.7891 62.9398 55.8716 67.0527 57.1214 71.0654C58.377 75.078 60.6465 78.5065 63.5232 80.7194C65.3329 82.112 67.2429 82.9145 69.1056 83.0916L69.1115 83.0798ZM71.5402 89.5472L71.0863 88.3493C71.0569 88.4379 71.0156 88.5736 70.9566 88.7565C70.8446 89.0811 70.6973 89.5531 70.4909 90.1019C70.2846 90.6566 70.0606 91.3057 69.7953 91.9902C69.6598 92.3325 69.5242 92.6865 69.3827 93.0465C69.312 93.2235 69.2412 93.4065 69.1646 93.5894L69.0585 93.8608C69.0585 93.8608 69.029 93.9553 69.029 93.973C69.029 94.0025 69.0231 94.0261 69.029 94.0733C69.029 94.3978 69.1823 94.7578 69.4299 94.8699C69.6716 94.9938 70.0253 94.8581 70.3141 94.6811C70.4674 94.5985 70.5853 94.4804 70.7032 94.3742C70.821 94.2562 70.9272 94.1264 71.0274 93.9966C71.0392 93.9848 71.0451 93.9671 71.0568 93.9553C71.0568 93.9376 71.0569 93.9199 71.0627 93.9081C71.0038 93.9789 70.9507 94.0438 70.8918 94.0969C70.2787 94.6929 70.2021 94.5395 69.7777 94.4627C69.3532 94.386 69.3945 93.79 69.3945 93.79L71.5343 89.5472H71.5402ZM71.0745 93.8962C71.0745 93.908 71.0745 93.9258 71.0686 93.9376C71.2514 93.6897 71.4046 93.4419 71.5402 93.2058C71.8291 92.6983 72.0649 92.2676 72.2122 91.9607C72.2653 91.8486 72.3125 91.766 72.3478 91.6893L72.336 91.6598C72.1769 92.002 71.5815 93.253 71.0745 93.8844V93.8962ZM68.7932 93.436C68.8698 93.253 68.9406 93.076 69.0172 92.899C69.1174 92.6629 69.2177 92.4328 69.312 92.2027C69.1351 92.2971 68.917 92.4741 68.7343 92.7515C68.634 92.899 68.5515 93.0701 68.4808 93.2589C68.41 93.436 68.3452 93.6661 68.3216 93.8726C68.298 94.0261 68.3039 94.1854 68.3216 94.3447L68.6458 94.2149C68.6458 94.1677 68.6282 94.1264 68.6282 94.0792C68.6282 94.0261 68.6282 93.9553 68.6458 93.8844C68.6635 93.8077 68.6635 93.8018 68.693 93.7133L68.805 93.4419L68.7932 93.436ZM73.4148 93.7074C73.4148 93.7074 73.4148 93.6779 73.4207 93.6661C73.4678 93.4596 73.5091 93.1468 73.5327 92.7515C73.5622 92.3561 73.5327 91.8722 73.4502 91.3293C73.3794 90.934 73.2615 90.4973 73.0611 90.0665C72.9137 90.5032 72.7664 90.934 72.6013 91.3647L73.4148 93.7074ZM72.0708 88.7329C71.9175 88.5972 71.7466 88.4792 71.5638 88.3729L71.8527 89.2109L72.0708 88.7329ZM71.2926 99.39C71.216 99.4432 71.1394 99.4904 71.0568 99.5376C69.0762 100.671 66.9245 101.072 65.0971 99.5376C63.2756 97.9974 62.7922 95.9734 62.4857 94.3034C62.1792 92.6275 62.8394 88.8391 64.7434 86.7856C65.1679 86.3253 65.5746 85.9712 65.9519 85.6821C65.1443 86.2663 64.2483 87.1868 63.5232 88.4556C63.0693 89.2522 62.692 90.1668 62.4385 91.1936C62.1968 92.2027 62.073 93.312 62.1379 94.445C62.1968 95.578 62.4857 96.7405 63.0162 97.7968C63.1341 98.0682 63.3169 98.3043 63.4642 98.5639C63.6529 98.7941 63.8062 99.0478 64.0243 99.2543C64.4133 99.7028 64.9085 100.051 65.4213 100.328L65.8104 100.517C65.9519 100.57 66.0992 100.612 66.2466 100.665L66.4529 100.73L66.6711 100.771C66.8184 100.794 66.9599 100.83 67.1073 100.842C67.6968 100.895 68.2863 100.842 68.8522 100.7C69.7541 100.446 70.5853 99.986 71.2868 99.4018L71.2926 99.39ZM73.1201 93.7546C73.0906 93.8254 72.3419 95.7787 71.776 96.4396C71.1983 97.1123 70.5853 97.4191 69.9899 97.667C69.3945 97.9148 68.1271 97.6847 67.3961 97.0887C66.2702 96.1622 65.9578 94.6103 66.0698 93.2176C66.0875 92.9757 66.111 92.7397 66.1582 92.5036C66.2113 92.2617 66.2879 92.0256 66.3645 91.7955C66.3999 91.6952 66.4294 91.589 66.4648 91.4827C66.565 91.1582 66.6652 90.8218 66.8538 90.5445C66.8892 90.4914 67.3726 90.0134 67.3667 89.9898C67.3667 89.9898 68.1861 92.0846 68.3806 92.5803C68.3983 92.5567 68.41 92.5331 68.4277 92.5095C68.6871 92.1791 68.9995 91.9843 69.2294 91.8958C69.3296 91.8545 69.4122 91.8368 69.477 91.825C69.76 91.1582 70.0488 90.5386 70.2846 90.0075C70.5263 89.4705 70.7444 89.0279 70.8918 88.7211C70.9861 88.5323 71.051 88.4024 71.0863 88.3198L71.0392 88.1959H71.0333V88.1841L71.0097 88.1192C70.3554 87.9068 69.6126 87.9363 68.9347 88.2077C68.1742 88.5146 67.5022 89.0751 66.9835 89.7656C66.7241 90.1078 66.4942 90.4855 66.3174 90.8868C66.1228 91.2821 66.0049 91.6893 65.8811 92.1378C65.6807 92.9757 65.61 93.8844 65.7574 94.7342C65.8988 95.5839 66.229 96.3983 66.7595 97.0238C67.0189 97.3424 67.349 97.5844 67.685 97.7732C67.7734 97.8145 67.8559 97.8617 67.9444 97.8971L68.2273 97.9974C68.4042 98.0446 68.5987 98.0918 68.7814 98.1036C69.5419 98.1804 70.261 97.9384 70.8387 97.6021C71.0569 97.4781 71.2455 97.3306 71.4282 97.1831C72.1946 96.4927 72.6956 95.6606 72.9845 95.0528C73.1201 94.7401 73.2144 94.4804 73.2674 94.2975C73.2792 94.268 73.2851 94.2385 73.291 94.2149L73.1201 93.7605V93.7546ZM73.3205 89.2345C73.2438 89.4764 73.1731 89.7243 73.0906 89.9662C73.2969 90.4324 73.4207 90.8927 73.4914 91.3175C73.574 91.8663 73.5916 92.3502 73.5504 92.7515C73.5209 93.1468 73.4738 93.4596 73.4266 93.6661C73.4266 93.6838 73.4207 93.7015 73.4148 93.7192L74.022 95.4777C74.2872 94.7991 74.4759 94.1264 74.5938 93.4773C74.5938 93.4478 74.5997 93.4124 74.6056 93.3829C74.6351 92.6806 74.6527 91.3765 74.4169 90.6566C74.1281 89.7833 73.4914 89.3407 73.3205 89.2345ZM76.6452 84.5609L75.9555 83.6286C75.8199 83.7112 75.6902 83.7938 75.5605 83.8646C74.9887 84.1891 74.5113 84.378 74.1811 84.496C73.851 84.6081 73.6742 84.6612 73.6742 84.6612C73.6742 84.6612 73.851 84.5963 74.1752 84.4724C74.4995 84.3426 74.9651 84.1242 75.5193 83.7879C75.6431 83.7171 75.7669 83.6286 75.8966 83.5459L74.7294 81.9704C74.3639 82.23 73.9866 82.4602 73.5917 82.6608C73.2026 82.8555 72.7899 83.0208 72.3714 83.1506C71.5638 83.4043 70.7267 83.5223 69.8838 83.5223L70.3907 84.9799C70.8505 85.0153 71.2809 85.0212 71.6581 84.9976C72.3066 84.9563 72.8135 84.8678 73.1554 84.7911C73.4973 84.7084 73.6742 84.6612 73.6742 84.6612C73.6742 84.6612 73.4973 84.7143 73.1613 84.8147C72.8253 84.9032 72.3183 85.0212 71.664 85.0802C71.2985 85.1156 70.8859 85.1274 70.4379 85.1038L71.2985 87.5822L72.2948 85.3398L71.3811 87.8242L71.4813 88.1133C72.1297 88.4615 72.5836 88.9984 72.8902 89.5472C72.9314 89.618 72.9609 89.6889 72.9963 89.7597C73.2026 89.1814 73.3971 88.5972 73.574 88.013C73.8392 87.3934 74.1635 86.7974 74.5584 86.2545C74.7588 85.983 74.9711 85.7234 75.2304 85.5051C75.3306 85.4165 75.4368 85.3339 75.5429 85.2631C75.702 85.1392 75.8494 85.0507 75.9909 84.974C75.8612 85.0212 75.7433 85.0625 75.6431 85.0979C75.2835 85.21 75.0889 85.269 75.0889 85.269C75.0889 85.269 75.2776 85.1982 75.6254 85.0566C75.8848 84.9504 76.2326 84.7851 76.6511 84.5609H76.6452ZM76.4625 79.6749C76.5921 79.492 76.7218 79.3031 76.8515 79.1143C77.4233 78.2292 77.8949 77.2201 78.2604 76.093C79.3627 72.635 79.2802 68.5221 78.0305 64.5094C76.7749 60.4967 74.5054 57.0683 71.6286 54.8613C68.7755 52.6662 65.6748 51.9403 62.8983 52.8078C62.8866 52.8078 62.8807 52.8137 62.8689 52.8196L63.1283 54.0411C68.2863 52.8491 74.1281 57.4459 76.3563 64.5861C78.2309 70.5933 76.9812 76.5769 73.6093 79.492L74.8944 81.3272C75.4721 80.861 75.9968 80.3063 76.4625 79.6749ZM97.1888 75.798C96.6111 75.6327 94.4242 75.0898 92.4906 75.798C90.2447 76.6241 89.4901 78.8724 89.4901 78.8724L80.1232 82.2182C79.8343 82.5133 79.5455 82.7906 79.2566 83.0385C78.9088 83.3335 78.5669 83.5872 78.2427 83.8115L90.056 79.4153C90.5748 78.6127 92.7028 75.8511 97.1888 75.8039V75.798ZM93.6342 62.8748C93.4043 62.0074 93.1391 61.1341 92.8561 60.2312C92.5732 59.3402 92.2666 58.4373 91.9306 57.5463C91.6064 56.6493 91.2586 55.7642 90.8872 54.9026C90.5217 54.0411 90.1504 53.1972 89.7613 52.3888C89.3663 51.5863 88.9891 50.8074 88.6 50.0874C88.4114 49.7216 88.2168 49.3734 88.0282 49.0371C87.8455 48.6948 87.6568 48.3762 87.48 48.0634C87.3031 47.7506 87.1263 47.4615 86.9553 47.1783C86.7903 46.895 86.6311 46.6295 86.472 46.3816C86.1713 45.8977 85.9002 45.4788 85.6703 45.1365C83.3241 45.4316 80.695 45.7679 78.06 46.1043C77.0696 46.2282 76.0793 46.358 75.1007 46.4819C73.8157 46.8065 71.4459 47.4261 70.8211 47.7388C70.1019 48.0988 69.0113 49.0135 68.6517 49.3203C68.6812 49.3203 68.7048 49.3203 68.7284 49.3203C69.7128 49.4206 70.821 49.6449 71.9588 50.0933C73.0965 50.5359 74.2872 51.1437 75.425 51.9639C76.5686 52.7783 77.6827 53.7696 78.6848 54.9262C79.6987 56.0769 80.6066 57.3751 81.3847 58.7855C82.1628 60.1958 82.7936 61.7064 83.2946 63.2584C83.7662 64.8045 84.1081 66.4331 84.2673 68.0205C84.4323 69.6196 84.4205 71.2129 84.2437 72.7295C84.0786 74.2519 83.7249 75.7036 83.2533 77.0195C82.7877 78.3472 82.1569 79.5274 81.4672 80.5364C81.2137 80.9141 80.9426 81.2623 80.6655 81.5868C82.4752 79.8283 86.2185 74.5765 83.5953 62.7804L88.883 61.3524C89.2013 62.149 89.555 63.1699 89.8438 64.3737C90.5925 67.454 91.1407 69.9383 91.1407 69.9383C91.1407 69.9383 90.7811 67.8671 90.3567 65.7486C90.2859 65.4241 90.1975 65.0582 90.0973 64.6451C89.7495 63.223 89.219 61.3465 88.5587 59.5113C88.2345 58.5907 87.8808 57.682 87.5212 56.844C87.1617 56.0061 86.8139 55.2272 86.4955 54.5663C85.8648 53.2504 85.3873 52.3947 85.3873 52.3947C85.3873 52.3947 85.5111 52.6012 85.7351 52.973C85.9532 53.3448 86.2597 53.87 86.6016 54.5191C86.9377 55.1682 87.3208 55.9353 87.6863 56.7791C88.0518 57.6171 88.4173 58.5258 88.7533 59.4464C88.9596 60.0424 89.1541 60.6384 89.3369 61.2285L92.3727 60.4141C92.9092 62.0428 93.6342 64.4386 94.2178 67.0291C95.2789 71.7263 95.3143 72.9891 95.3143 72.9891C95.3143 72.9891 95.3202 72.104 95.2553 70.8057C95.1433 69.9914 94.9606 68.9056 94.7189 67.631C94.4477 66.2207 94.0881 64.592 93.6165 62.8689L93.6342 62.8748ZM117.326 66.1263C119.13 65.6188 120.821 65.1939 122.277 64.8576C124.948 64.2321 126.822 63.8839 127.117 63.8308C129.062 62.7922 131.02 61.795 133 60.8331L136.013 59.3815C136.508 59.1336 137.003 58.9035 137.486 58.6379C137.97 58.3724 138.453 58.1069 138.925 57.8177C139.402 57.5404 139.868 57.2453 140.339 56.9503C140.811 56.6611 141.271 56.3484 141.736 56.0474C142.662 55.4278 143.57 54.7964 144.478 54.1532C145.385 53.5159 146.281 52.855 147.177 52.1882C147.985 51.5804 148.793 50.9667 149.594 50.3412C148.575 50.2114 147.555 50.0815 146.535 49.9399C145.998 49.8691 145.462 49.7924 144.926 49.7157L148.121 50.2232C141.495 55.6403 132.929 61.7832 124.252 62.5031C120.108 62.8453 115.964 63.1876 111.82 63.5299C111.637 63.5476 111.449 63.5593 111.266 63.5535L104.994 64.4563L109.757 62.7509C109.721 62.7155 109.686 62.6801 109.651 62.6388C105.96 58.6852 101.681 53.7873 97.0179 50.9018C96.9943 50.9549 96.9589 51.008 96.8941 51.0788C96.8941 51.0847 96.8823 51.0906 96.8823 51.0965C96.9472 51.1968 97.1653 51.5214 97.4777 52.0407C97.855 52.678 98.3737 53.5985 98.8984 54.7551C99.1636 55.3334 99.4348 55.9648 99.7001 56.6434C99.9594 57.3161 100.231 58.0537 100.449 58.815C100.508 59.0038 100.567 59.1926 100.626 59.3874C100.679 59.5821 100.726 59.7827 100.779 59.9834C100.879 60.3846 100.985 60.7918 101.05 61.2049C101.127 61.6179 101.215 62.031 101.262 62.4559C101.315 62.8807 101.386 63.2997 101.404 63.7305C101.433 64.1553 101.474 64.5861 101.474 65.011C101.48 65.4359 101.498 65.8666 101.474 66.2856C101.457 66.7105 101.445 67.1294 101.398 67.5425C101.357 67.9556 101.321 68.3627 101.25 68.764C101.186 69.1653 101.133 69.5606 101.038 69.9383C100.956 70.3219 100.879 70.6936 100.767 71.0477C100.578 71.7676 100.337 72.4344 100.101 73.0422C99.9712 73.3432 99.8474 73.6323 99.7295 73.9038C99.6293 74.0985 99.535 74.2814 99.4466 74.4643C99.6765 74.2637 99.93 74.0513 100.213 73.827C100.685 73.4494 101.239 73.0422 101.863 72.6232C102.235 72.3695 102.636 72.1158 103.054 71.8561C103.62 71.4903 104.286 71.1067 105.047 70.7231C105.1 70.6936 105.153 70.67 105.2 70.6405C105.229 70.6228 105.259 70.611 105.288 70.5992C105.619 70.4281 105.955 70.257 106.302 70.0858C107.145 69.6846 108.035 69.2833 108.943 68.9233C109.857 68.5575 110.788 68.2034 111.732 67.8789C112.203 67.7077 112.675 67.5484 113.146 67.395C113.618 67.2416 114.089 67.0822 114.561 66.9406C115.498 66.6456 116.43 66.38 117.326 66.1204V66.1263ZM154.534 51.6689C154.322 51.3207 153.998 51.0493 153.632 50.8487C153.556 50.8428 153.485 50.831 153.408 50.8251C152.159 50.6657 150.897 50.5064 149.63 50.3471C148.044 51.7751 146.388 53.1323 144.713 54.4542C143.841 55.1505 142.939 55.8055 142.037 56.4664C141.577 56.785 141.129 57.1155 140.664 57.4282C140.198 57.741 139.732 58.0537 139.255 58.3488C138.783 58.6556 138.3 58.9389 137.81 59.2162C137.327 59.4995 136.82 59.7591 136.325 60.0129L133.342 61.5058C131.403 62.4972 129.457 63.4944 127.547 64.5271L125.891 67.9143L125.03 69.661L124.924 69.8793L124.842 70.0799L124.753 70.3042L124.712 70.4871C124.671 70.6051 124.683 70.729 124.671 70.853C124.688 70.9651 124.7 71.0831 124.753 71.1834C124.918 71.5906 125.467 71.8679 126.032 71.9859C126.103 72.0036 126.174 72.0154 126.245 72.0213L126.486 72.0508L126.97 72.1158L127.937 72.2456L131.804 72.7708C134.38 73.1248 136.956 73.4907 139.526 73.8683L143.381 74.4525C143.517 74.4702 143.652 74.4939 143.788 74.5175L146.747 74.8774C146.847 74.6473 146.948 74.4171 147.042 74.187C147.602 72.8534 148.109 71.4844 148.628 70.1271C149.14 68.764 149.63 67.395 150.125 66.0201L153.066 57.7764L153.815 55.717C154.057 55.0324 154.334 54.342 154.587 53.6693C154.64 53.5041 154.711 53.3389 154.735 53.1677L154.782 52.9081C154.794 52.8196 154.788 52.737 154.794 52.6485C154.799 52.3062 154.723 51.9521 154.54 51.6571L154.534 51.6689Z" fill="#E5053D"/>
<path d="M155.271 76.2406L155.401 76.1875L155.418 76.1757C155.371 76.1993 155.318 76.217 155.271 76.2406Z" fill="#E5053D"/>
<path d="M60.5994 63.164L60.3341 62.6506L60.5876 63.1758C60.5876 63.1758 60.5935 63.1699 60.5994 63.164Z" fill="#E5053D"/>
<path d="M69.7718 72.2692C69.7011 72.4226 69.6303 72.5642 69.5596 72.6999C69.6303 72.576 69.7011 72.4344 69.7718 72.2751V72.2692Z" fill="#E5053D"/>
<path d="M73.3146 94.2267C73.3146 94.2267 73.3028 94.2739 73.291 94.3093C73.2674 94.4096 73.2261 94.5335 73.179 94.6752C73.2674 94.4627 73.3146 94.3211 73.3264 94.268L73.3146 94.2326V94.2267Z" fill="#E5053D"/>
<path d="M45.6558 64.4681C45.7029 65.2116 45.7737 66.2797 45.9505 67.5425C46.1274 68.8112 46.3867 70.2805 46.7758 71.8384C46.9703 72.6114 47.1885 73.4139 47.436 74.2165C47.6895 75.019 47.9548 75.8274 48.2554 76.63C48.5561 77.4325 48.8803 78.2173 49.2222 78.9845C49.5641 79.7516 49.9237 80.501 50.2892 81.2091C50.6546 81.9172 51.0319 82.5959 51.4092 83.2273C51.7806 83.8587 52.1519 84.4429 52.5115 84.9739C52.8593 85.5109 53.2071 85.983 53.5137 86.402C53.8202 86.8209 54.1031 87.175 54.333 87.4701C54.5629 87.7651 54.7575 87.9834 54.8813 88.1369C55.011 88.2903 55.0758 88.3729 55.0758 88.3729C55.0758 88.3729 55.011 88.2903 54.8872 88.131C54.7693 87.9716 54.5806 87.7474 54.3566 87.4465C54.1326 87.1455 53.8615 86.7855 53.5667 86.3607C53.272 85.9358 52.9419 85.4519 52.5999 84.9149C51.2147 82.7729 49.6171 79.7516 48.4441 76.5592C48.1434 75.7625 47.8723 74.96 47.6188 74.1634C47.3653 73.3608 47.1472 72.5701 46.9468 71.7971C46.5518 70.251 46.2571 68.7935 46.0625 67.5307C45.868 66.2679 45.7501 65.2116 45.6853 64.4681C45.6204 63.7246 45.5968 63.2997 45.5968 63.2997C45.5968 63.2997 45.6027 63.7246 45.6499 64.4681H45.6558Z" fill="#E5053D"/>
<path d="M72.5188 103.881C72.112 103.845 71.6404 103.78 71.1335 103.704C70.6265 103.633 70.0901 103.527 69.5596 103.415C69.029 103.302 68.4985 103.173 68.0033 103.037C67.514 102.895 67.0542 102.771 66.6652 102.636C66.2761 102.506 65.9519 102.405 65.7279 102.323C65.5039 102.246 65.3742 102.199 65.3742 102.199C65.3742 102.199 65.498 102.258 65.7161 102.358C65.9342 102.459 66.2466 102.6 66.6298 102.742C67.3961 103.049 68.4454 103.379 69.5183 103.615C70.0547 103.721 70.597 103.816 71.1099 103.881C71.6227 103.946 72.1002 103.975 72.5129 103.993C73.3382 104.022 73.8805 103.981 73.8805 103.981C73.8805 103.981 73.7449 103.969 73.5032 103.957C73.2615 103.946 72.9255 103.916 72.5188 103.875V103.881Z" fill="#E5053D"/>
<path d="M96.5875 90.6448C96.9117 90.6566 97.1239 90.6802 97.1239 90.6802C97.1239 90.6802 96.9117 90.7097 96.5993 90.7747C96.5462 90.7865 96.4814 90.7983 96.4225 90.816L96.8351 93.1114C97.1122 92.9757 97.3892 92.8518 97.6722 92.7515C99.0634 92.2558 100.608 92.3384 101.799 92.9226C102.3 93.1409 102.712 93.4478 103.09 93.7783C104.528 94.9584 105.412 96.9412 105.506 99.2189C105.518 99.3783 105.536 99.5317 105.536 99.6851C105.536 99.8858 105.542 100.075 105.548 100.258C105.536 100.44 105.53 100.612 105.518 100.777C105.512 101.107 105.459 101.396 105.424 101.65C105.394 101.904 105.347 102.116 105.312 102.287C105.241 102.63 105.2 102.819 105.2 102.819C105.2 102.819 105.235 102.636 105.306 102.287C105.341 102.116 105.389 101.904 105.412 101.65C105.442 101.396 105.489 101.107 105.495 100.777C105.512 100.535 105.518 100.263 105.512 99.9861C105.489 100.759 105.377 101.556 105.165 102.364C104.929 103.273 104.581 104.117 104.157 104.884C104.528 104.17 104.834 103.391 105.053 102.547C105.53 100.724 105.524 98.9475 105.123 97.4664C105.123 97.4546 105.117 97.4369 105.112 97.4251C105.094 97.366 105.076 97.3129 105.058 97.2598C104.876 96.6992 104.628 96.1268 104.28 95.578C104.245 95.519 104.204 95.46 104.168 95.401C103.567 94.5749 102.777 93.9907 101.822 93.7664C100.065 93.3593 98.185 94.2621 96.7349 95.9793C96.8882 95.8141 97.0532 95.6548 97.2183 95.5072C97.6957 95.1119 98.2145 94.7696 98.7745 94.5218C99.3404 94.2916 99.9358 94.1559 100.531 94.1618C101.127 94.15 101.692 94.327 102.176 94.569C103.196 95.0824 103.803 95.9734 104.198 96.8113C104.575 97.667 104.758 98.5108 104.829 99.2544C104.888 100.004 104.882 100.659 104.829 101.196C104.775 101.733 104.711 102.152 104.64 102.429C104.581 102.712 104.546 102.86 104.546 102.86C104.546 102.86 104.575 102.706 104.634 102.429C104.699 102.146 104.758 101.727 104.805 101.196C104.852 100.659 104.852 100.004 104.758 99.2662C104.652 98.5285 104.457 97.6965 104.027 96.894C103.602 96.1091 102.942 95.3007 102.028 94.9112C101.563 94.7165 101.056 94.5926 100.537 94.6339C100.018 94.6634 99.5055 94.8109 99.0162 95.047C98.0494 95.5485 97.2301 96.3747 96.5875 97.3306C96.281 97.8204 95.9862 98.3279 95.7622 98.8708C95.6384 99.1363 95.5441 99.4137 95.4498 99.6851C95.3496 99.9566 95.2847 100.269 95.1963 100.558C94.9193 101.68 94.8249 102.889 94.9311 104.04C94.99 104.618 95.1138 105.179 95.2847 105.716C95.4675 106.247 95.7092 106.749 96.0157 107.197C96.334 107.634 96.729 108.005 97.1652 108.271L97.4953 108.448L97.8785 108.59C97.9787 108.637 98.1202 108.643 98.2381 108.672L98.4208 108.708L98.6095 108.72C99.6175 108.808 100.567 108.395 101.309 107.899C102.064 107.386 102.624 106.743 103.06 106.141C103.485 105.527 103.791 104.949 103.997 104.453C104.204 103.957 104.345 103.562 104.422 103.279C104.504 103.001 104.546 102.854 104.546 102.854C104.546 102.854 104.504 103.001 104.428 103.279C104.357 103.556 104.221 103.957 104.021 104.459C103.821 104.961 103.52 105.539 103.119 106.176C102.706 106.802 102.158 107.463 101.421 108.047C100.761 108.548 99.9181 109.003 98.9396 109.079C98.2322 109.221 97.5189 109.221 96.8115 109.056C95.1963 108.678 93.9407 107.528 93.1803 105.946C93.4573 106.636 93.8228 107.274 94.2885 107.828C94.707 108.354 95.2553 108.761 95.8094 109.068C95.9509 109.138 96.0806 109.215 96.2338 109.28C96.393 109.333 96.5521 109.392 96.7054 109.445C96.8351 109.498 97.0061 109.516 97.1593 109.552C97.3126 109.587 97.4658 109.616 97.625 109.622C98.244 109.705 98.857 109.605 99.4347 109.475C99.7177 109.386 100.001 109.316 100.26 109.186C100.39 109.127 100.525 109.074 100.649 109.015C100.773 108.944 100.897 108.879 101.015 108.808C101.981 108.253 102.724 107.504 103.284 106.79C103.838 106.07 104.251 105.374 104.504 104.766C104.652 104.471 104.746 104.193 104.834 103.952C104.929 103.715 104.994 103.503 105.041 103.338C105.141 103.001 105.194 102.819 105.194 102.819C105.194 102.819 105.141 103.001 105.047 103.338C105 103.509 104.941 103.715 104.846 103.957C104.758 104.193 104.669 104.477 104.522 104.772C104.451 104.919 104.381 105.079 104.304 105.244C104.215 105.403 104.121 105.568 104.027 105.745C103.933 105.922 103.826 106.099 103.709 106.277C103.591 106.454 103.479 106.648 103.331 106.825C102.789 107.569 102.058 108.33 101.103 108.956C100.979 109.032 100.861 109.109 100.738 109.186C100.608 109.256 100.478 109.316 100.343 109.386C100.083 109.534 99.7884 109.622 99.4996 109.729C98.9042 109.894 98.2617 110.035 97.5896 109.982C97.4187 109.982 97.2536 109.959 97.0886 109.935C96.9176 109.9 96.7585 109.9 96.5757 109.841C96.4166 109.793 96.2574 109.746 96.0982 109.699C95.9391 109.646 95.7681 109.563 95.6031 109.493C94.9605 109.18 94.3534 108.767 93.8582 108.212C93.363 107.669 92.9209 107.05 92.6026 106.359C92.2901 105.675 92.0367 104.943 91.907 104.182C91.8186 103.804 91.795 103.42 91.7478 103.037C91.736 102.653 91.7065 102.264 91.736 101.874C91.7478 101.095 91.8893 100.328 92.0485 99.5671C92.1723 99.1717 92.243 98.8413 92.3904 98.4636L92.6026 97.9089C92.6792 97.726 92.7676 97.5549 92.8443 97.3778C92.9975 97.0179 93.2039 96.6933 93.3925 96.3511C93.4927 96.1858 93.6106 96.0324 93.7167 95.8731C93.8228 95.7138 93.9348 95.5544 94.0645 95.4128C94.2001 95.2358 94.3416 95.0706 94.4889 94.9112L94.1824 91.5182C93.9879 91.589 93.8582 91.6421 93.8582 91.6421L93.646 90.8396C93.646 90.8396 93.6578 90.8396 93.6754 90.8396L93.3453 89.1283C93.3159 89.2109 93.2864 89.2935 93.2569 89.3761C93.0624 89.9839 92.803 90.6212 92.5141 91.2939C92.3845 91.6362 92.2076 91.9667 92.0426 92.3148C91.8716 92.663 91.7124 93.017 91.5061 93.3593C91.3057 93.7074 91.1053 94.0615 90.9049 94.4156C90.6808 94.7578 90.4509 95.1119 90.221 95.46C89.9911 95.8141 89.72 96.1386 89.4665 96.4809C89.2189 96.8291 88.936 97.1477 88.653 97.4723C88.37 97.7968 88.0871 98.1155 87.7806 98.4105C87.474 98.7056 87.1911 99.0242 86.861 99.2898C86.5426 99.5671 86.2302 99.8445 85.9001 100.098C85.5641 100.34 85.234 100.582 84.9098 100.818C84.2377 101.255 83.5834 101.674 82.9173 101.987C82.2747 102.341 81.6145 102.577 81.025 102.819C80.4237 103.031 79.8578 103.19 79.3627 103.332C78.8616 103.462 78.4195 103.538 78.054 103.603C77.6885 103.662 77.3997 103.692 77.2051 103.715C77.0106 103.733 76.9045 103.745 76.9045 103.745C76.9045 103.745 77.3172 103.651 78.0186 103.444C78.3723 103.338 78.7968 103.202 79.2742 103.031C79.7458 102.842 80.2764 102.624 80.8482 102.382C81.4023 102.099 82.0213 101.827 82.6225 101.45C83.2474 101.113 83.8546 100.665 84.4912 100.228C84.7978 99.992 85.1043 99.7441 85.4167 99.5022C85.7174 99.2425 86.0121 98.9652 86.3186 98.6997C86.6311 98.44 86.8963 98.1273 87.1911 97.844C87.4858 97.5608 87.757 97.248 88.0223 96.9294C88.2993 96.6225 88.5705 96.3157 88.8181 95.9793C89.0656 95.6489 89.3368 95.3361 89.5608 94.9998C89.7907 94.6634 90.0206 94.3329 90.2505 94.0025C90.4627 93.6602 90.6691 93.3239 90.8695 92.9934C91.0817 92.6689 91.2467 92.3207 91.4354 91.9962C91.6122 91.6657 91.8068 91.353 91.9541 91.0225C92.2666 90.3793 92.5731 89.7715 92.8148 89.1932C92.9386 88.904 93.0624 88.6326 93.1744 88.3671C93.1744 88.3553 93.1862 88.3376 93.1921 88.3258L92.6792 85.6585C92.7676 85.5936 92.8973 85.511 93.0506 85.4166C93.3571 85.2277 93.7815 84.9976 94.2355 84.8088L94.3298 85.2868C94.3298 85.2868 94.3298 85.2868 94.3298 85.2927L95.3673 90.6743H95.3791C95.8212 90.6507 96.2515 90.6448 96.5757 90.6566L96.5875 90.6448ZM93.4573 89.264L93.699 90.8219C93.699 90.8219 93.7167 90.8219 93.7226 90.8219L93.4514 89.264H93.4573ZM96.4107 90.816C96.1277 90.8809 95.7976 90.9694 95.4675 91.0697C95.2435 91.1346 95.0254 91.2113 94.8249 91.2762L95.4439 94.0084C95.5264 93.9376 95.6149 93.8668 95.6974 93.796C95.945 93.6071 96.2102 93.4419 96.4755 93.2885L96.4048 90.8101L96.4107 90.816Z" fill="#E5053D"/>
<path d="M104.133 99.6733C104.092 99.0478 103.968 98.3397 103.697 97.602C103.549 97.2421 103.373 96.8644 103.107 96.5222C102.854 96.174 102.53 95.8554 102.093 95.6252C101.687 95.4069 101.203 95.2594 100.696 95.2771C100.195 95.2889 99.6883 95.4246 99.2226 95.6488C98.751 95.8672 98.3383 96.1858 97.9493 96.534C97.5602 96.888 97.2419 97.307 96.9295 97.7378C96.6406 98.1803 96.3694 98.6465 96.1749 99.1422C96.0629 99.3841 95.9745 99.6438 95.8861 99.8975C95.7976 100.151 95.7387 100.393 95.6621 100.641C95.4145 101.709 95.3201 102.771 95.4321 103.828C95.5559 104.878 95.8743 105.911 96.4873 106.749C96.7998 107.162 97.177 107.516 97.6192 107.764L97.9728 107.929L98.303 108.023C98.4385 108.07 98.5505 108.064 98.6684 108.088C98.7863 108.112 98.9042 108.112 99.0221 108.106C99.4937 108.106 99.9417 107.976 100.325 107.787C100.72 107.61 101.05 107.356 101.351 107.109C101.934 106.583 102.37 106.017 102.701 105.48C103.019 104.937 103.255 104.441 103.42 104.028C103.579 103.609 103.691 103.273 103.75 103.037C103.815 102.807 103.844 102.683 103.844 102.683C103.844 102.683 103.809 102.807 103.744 103.037C103.685 103.267 103.567 103.603 103.402 104.022C103.231 104.435 102.995 104.931 102.647 105.45C102.294 105.964 101.846 106.518 101.239 106.973C100.932 107.191 100.596 107.404 100.219 107.539C99.8474 107.687 99.4407 107.769 99.028 107.74C98.9278 107.74 98.8217 107.734 98.7215 107.705C98.6272 107.681 98.5034 107.669 98.4326 107.634L98.1143 107.516L97.8549 107.362C97.5071 107.132 97.2006 106.802 96.9648 106.43C96.4873 105.669 96.2692 104.725 96.1867 103.769C96.1395 102.813 96.2221 101.804 96.4579 100.877C96.5286 100.635 96.5875 100.37 96.6642 100.145C96.7467 99.9211 96.8116 99.691 96.9177 99.4668C97.0945 99.0124 97.3303 98.5875 97.572 98.1685C98.0848 97.3601 98.7215 96.6284 99.4937 96.174C99.8828 95.9557 100.295 95.8082 100.72 95.7609C101.138 95.7137 101.563 95.8082 101.94 95.9734C102.123 96.0442 102.288 96.1681 102.459 96.2802C102.606 96.416 102.771 96.5399 102.895 96.6992C103.166 96.9942 103.361 97.3424 103.532 97.6788C103.856 98.3633 103.997 99.0655 104.068 99.6792C104.133 100.299 104.115 100.848 104.074 101.296C104.027 101.745 103.974 102.093 103.921 102.329C103.874 102.565 103.844 102.689 103.844 102.689C103.844 102.689 103.874 102.565 103.927 102.329C103.986 102.093 104.045 101.745 104.092 101.302C104.139 100.853 104.162 100.311 104.133 99.6792V99.6733Z" fill="#E5053D"/>
<path d="M100.472 100.01C100.166 100.134 99.9123 100.352 99.7236 100.612C99.6293 100.741 99.5468 100.877 99.4819 101.025C99.4466 101.095 99.4171 101.178 99.3876 101.255C99.3581 101.337 99.3463 101.39 99.3228 101.461C99.2461 101.798 99.2285 102.104 99.2756 102.423C99.3287 102.742 99.4466 103.049 99.6588 103.302C99.7649 103.432 99.9005 103.533 100.054 103.603L100.183 103.651L100.278 103.668C100.378 103.686 100.443 103.686 100.519 103.674C100.82 103.639 101.032 103.474 101.186 103.32C101.486 102.996 101.616 102.671 101.704 102.441C101.787 102.211 101.816 102.075 101.816 102.075C101.816 102.075 101.787 102.211 101.693 102.435C101.598 102.647 101.415 102.966 101.074 103.178C100.908 103.279 100.702 103.35 100.525 103.302C100.484 103.302 100.431 103.273 100.413 103.261L100.331 103.22C100.331 103.22 100.307 103.196 100.295 103.184C100.236 103.125 100.189 103.049 100.148 102.96C100.066 102.783 100.042 102.565 100.042 102.341C100.042 102.122 100.077 101.874 100.13 101.668C100.148 101.603 100.166 101.526 100.183 101.479L100.236 101.326C100.272 101.213 100.325 101.113 100.372 101.013C100.478 100.818 100.602 100.635 100.755 100.517C100.908 100.405 101.068 100.334 101.256 100.393C101.421 100.429 101.581 100.594 101.681 100.753C101.881 101.095 101.899 101.461 101.881 101.697C101.863 101.939 101.822 102.069 101.822 102.069C101.822 102.069 101.858 101.933 101.893 101.697C101.922 101.455 101.958 101.107 101.84 100.676C101.769 100.47 101.669 100.228 101.404 100.051C101.174 99.8798 100.773 99.8562 100.472 99.986V100.01Z" fill="#E5053D"/>
<path d="M35.1865 9.19373L15.7983 12.8523L15.9162 13.4306L35.1865 9.19373Z" fill="#E5053D"/>
<path d="M50.1831 8.37347L23.1669 13.9322L23.2258 14.2213L50.1831 8.37347Z" fill="#E5053D"/>
<path d="M181.662 2.02991L154.64 7.58862L154.699 7.87777L181.662 2.02991Z" fill="#E5053D"/>
<path d="M225.473 44.6467L198.457 50.2054L198.516 50.4946L225.473 44.6467Z" fill="#E5053D"/>
<path d="M227 44.4048L199.978 49.9635L200.043 50.2526L227 44.4048Z" fill="#E5053D"/>
<path d="M198.899 77.6037L171.883 83.1624L171.942 83.4516L198.899 77.6037Z" fill="#E5053D"/>
<path d="M187.322 75.9691L173.775 78.6836L173.834 78.9727L187.322 75.9691Z" fill="#E5053D"/>
<path d="M170.462 6.08392L156.916 8.79247L156.981 9.08162L170.462 6.08392Z" fill="#E5053D"/>
<path d="M98.2382 0C98.2382 0 95.0726 0.761225 90.3331 1.90601C85.5936 3.08031 79.2802 4.64406 72.9609 6.20782C66.6534 7.81879 60.3518 9.42975 55.6241 10.6395C50.9023 11.8787 47.7544 12.6989 47.7544 12.6989C47.7544 12.6989 50.92 11.9377 55.6594 10.7929C60.3989 9.61858 66.7123 8.05482 73.0317 6.49107C79.3392 4.8801 85.6408 3.26914 90.3685 2.05944C95.0903 0.820235 98.2382 0 98.2382 0Z" fill="#E5053D"/>
<path d="M91.9955 14.5341C91.9955 14.5341 90.0089 15.0003 87.032 15.6966C85.5465 16.0566 83.8134 16.4755 81.9565 16.9299C80.0996 17.3902 78.1248 17.88 76.1442 18.3698C74.1694 18.8713 72.1946 19.3788 70.3436 19.8509C68.4926 20.3348 66.7654 20.7832 65.2858 21.1668C62.3325 21.9634 60.3636 22.4886 60.3636 22.4886C60.3636 22.4886 62.3501 22.0225 65.327 21.3261C66.8126 20.9662 68.5457 20.5472 70.4025 20.0928C72.2594 19.6326 74.2342 19.1428 76.2149 18.653C78.1897 18.1514 80.1645 17.6439 82.0155 17.1719C83.8664 16.688 85.5936 16.2395 87.0733 15.8559C90.0266 15.0593 91.9955 14.5341 91.9955 14.5341Z" fill="#E5053D"/>
<path d="M113.064 11.7725C113.064 11.7725 111.077 12.2386 108.1 12.935C106.615 13.2949 104.882 13.7139 103.025 14.1683C101.168 14.6285 99.1931 15.1183 97.2124 15.6081C95.2376 16.1097 93.2628 16.6172 91.4118 17.0892C89.5608 17.5731 87.8336 18.0216 86.354 18.4052C83.4007 19.2018 81.4318 19.727 81.4318 19.727C81.4318 19.727 83.4184 19.2608 86.3953 18.5645C87.8808 18.2045 89.6139 17.7856 91.4708 17.3312C93.3277 16.8709 95.3024 16.3811 97.2831 15.8913C99.2579 15.3898 101.233 14.8823 103.084 14.4102C104.935 13.9263 106.662 13.4778 108.136 13.0943C111.089 12.2976 113.058 11.7725 113.058 11.7725H113.064Z" fill="#E5053D"/>
<path d="M78.2722 7.15198C78.2722 7.15198 76.2856 7.61815 73.3087 8.31447C71.8232 8.67443 70.0901 9.0934 68.2332 9.54777C66.3763 10.008 64.4015 10.4978 62.4208 10.9876C60.4461 11.4892 58.4713 11.9967 56.6203 12.4688C54.7693 12.9526 53.0421 13.4011 51.5684 13.7847C48.615 14.5813 46.6461 15.1065 46.6461 15.1065C46.6461 15.1065 48.6327 14.6403 51.6096 13.944C53.0951 13.584 54.8282 13.1651 56.6851 12.7107C58.542 12.2504 60.5168 11.7606 62.4975 11.2709C64.4723 10.7693 66.447 10.2618 68.298 9.78971C70.149 9.30583 71.8762 8.85736 73.3558 8.47379C76.3092 7.67716 78.2781 7.15198 78.2781 7.15198H78.2722Z" fill="#E5053D"/>
<path d="M191.418 68.6578C191.418 68.6578 189.432 69.124 186.455 69.8203C184.969 70.1802 183.236 70.5992 181.379 71.0536C179.523 71.5138 177.548 72.0036 175.567 72.4934C173.592 72.995 171.618 73.5025 169.767 73.9746C167.916 74.4584 166.188 74.9069 164.709 75.2905C161.755 76.0871 159.787 76.6123 159.787 76.6123C159.787 76.6123 161.773 76.1461 164.75 75.4498C166.236 75.0898 167.969 74.6709 169.826 74.2165C171.682 73.7562 173.657 73.2664 175.638 72.7767C177.613 72.2751 179.587 71.7676 181.438 71.2955C183.289 70.8116 185.017 70.3632 186.49 69.9796C189.444 69.183 191.413 68.6578 191.413 68.6578H191.418Z" fill="#E5053D"/>
</g>
<defs>
<clipPath id="clip0_0_151">
<rect width="227" height="110" fill="white" transform="matrix(-1 0 0 1 227 0)"/>
</clipPath>
</defs>
</svg>
