<svg width="367" height="177" viewBox="0 0 367 177" fill="none" xmlns="http://www.w3.org/2000/svg">
<g clip-path="url(#clip0_0_52)">
<path d="M192.259 66.9603C206.459 64.615 216.428 62.9248 216.428 62.9248C211.291 64.1497 202.723 65.536 192.259 66.9603Z" fill="#E5053D"/>
<path d="M183.824 53.059C183.633 53.2584 183.405 53.4388 183.224 53.6667C183.033 53.885 182.842 54.1034 182.69 54.3503C182.604 54.4737 182.528 54.5877 182.452 54.7111C182.385 54.8346 182.318 54.9675 182.252 55.0909C182.109 55.3378 182.013 55.5942 181.928 55.8316C181.832 56.0784 181.756 56.3158 181.718 56.5342C181.689 56.6861 181.651 56.8191 181.623 56.952C181.613 57.0185 181.594 57.0849 181.584 57.1514C181.565 57.3413 181.556 57.5027 181.537 57.6356C181.537 57.7496 181.518 57.835 181.518 57.9015L168.623 59.3543C168.613 59.2878 168.604 59.2024 168.585 59.0979C168.566 58.965 168.537 58.8036 168.518 58.6137C168.49 58.4617 168.49 58.3003 168.48 58.1199C168.48 58.1199 168.48 58.0344 168.48 57.987C168.48 57.7591 168.442 57.5027 168.47 57.2368C168.49 56.971 168.49 56.6861 168.528 56.4013C168.575 56.1164 168.604 55.8126 168.68 55.5087C168.766 55.2144 168.814 54.8915 168.937 54.5972C169.138 53.9895 169.414 53.4103 169.719 52.8786C169.738 52.8501 169.757 52.8216 169.776 52.7836C174.761 52.1569 179.793 51.8436 184.691 52.0145C184.853 52.0145 185.015 52.043 185.177 52.062C184.939 52.2044 184.701 52.3563 184.444 52.5462C184.234 52.6981 184.024 52.8786 183.815 53.059H183.824Z" fill="#E5053D"/>
<path d="M37.4834 78.9905C37.4453 79.1235 37.3881 79.2564 37.369 79.3988C37.369 79.5413 37.3595 79.6932 37.35 79.8451C37.3881 79.9875 37.4262 80.1395 37.4643 80.2914C37.5311 80.4338 37.6168 80.5762 37.6931 80.7187C38.4746 81.7916 39.8851 82.4658 41.41 83.1115C41.7912 83.2824 42.201 83.4153 42.6108 83.5767C43.0301 83.7191 43.4685 83.8331 43.907 83.966C44.8123 84.1749 45.7559 84.3648 46.7661 84.4883C48.7675 84.7731 50.9405 84.944 53.2754 85.0485C57.9358 85.2669 63.1967 85.2764 68.934 85.1434C74.6714 85.0105 80.8757 84.7446 87.4422 84.3838C90.7207 84.2034 94.0945 83.985 97.535 83.7666C99.26 83.6432 100.995 83.5292 102.748 83.4058C104.197 83.2824 105.665 83.1494 107.132 83.026L121.752 116.8V116.829C121.914 117.123 122.038 117.475 122.086 117.826C122.143 118.177 122.133 118.538 122.047 118.889C121.895 119.592 121.418 120.2 120.828 120.646C120.246 121.102 119.55 121.425 118.855 121.681C118.149 121.937 117.416 122.127 116.672 122.279C117.416 122.156 118.159 122.004 118.883 121.776C119.608 121.548 120.322 121.254 120.951 120.807C121.58 120.371 122.133 119.744 122.343 118.975C122.448 118.595 122.476 118.187 122.438 117.797C122.391 117.399 122.286 117.028 122.095 116.648V116.677L111.164 88.0015C111.621 87.8875 112.25 87.7641 113.136 87.6407C115.043 87.3653 116.901 89.4637 117.835 90.7171L118.645 93.2998C120.056 97.7815 121.504 102.254 123.039 106.707C123.801 108.929 124.602 111.141 125.412 113.354C126.222 115.566 127.08 117.759 128.004 119.934C128.471 121.026 128.957 122.108 129.5 123.172C129.777 123.713 130.072 124.235 130.453 124.767L130.777 125.166L131.092 125.489L131.74 126.125C132.178 126.542 132.626 126.941 133.103 127.321C133.341 127.511 133.579 127.701 133.818 127.881C134.056 128.062 134.332 128.242 134.485 128.375C134.561 128.442 134.618 128.517 134.637 128.546C134.685 128.641 134.656 128.584 134.675 128.641C134.685 128.669 134.694 128.707 134.694 128.745C134.704 128.897 134.656 129.03 134.599 129.078C134.408 129.258 133.903 129.277 133.665 129.049L133.598 128.992L133.503 128.954C130.53 127.843 127.547 126.761 124.554 125.688C121.59 124.653 118.645 123.58 115.662 122.583L115.548 122.498C115.548 122.498 114.852 122.555 113.642 122.668C112.431 122.792 110.697 122.934 108.619 123.162C106.541 123.39 104.111 123.618 101.519 123.931C98.9265 124.245 96.1626 124.539 93.3892 124.89C90.6254 125.28 87.8711 125.754 85.3074 126.248C84.5831 126.391 83.8683 126.533 83.1821 126.685L82.7818 126.732C82.7818 126.732 82.6865 126.77 82.5435 126.827C82.2386 126.894 81.9241 126.96 81.6191 127.036C80.4564 127.302 79.3318 127.558 78.3406 127.919C77.3494 128.271 76.4536 128.698 75.7769 129.249C75.4433 129.524 75.1574 129.837 74.9954 130.189C74.8239 130.53 74.7762 130.901 74.8334 131.214C74.9573 131.841 75.2718 132.23 75.4815 132.477C75.7007 132.724 75.8246 132.838 75.8246 132.838C75.8246 132.838 75.7102 132.705 75.5101 132.449C75.3194 132.192 75.0431 131.774 74.9573 131.195C74.8715 130.597 75.2623 129.923 75.9294 129.448C76.5965 128.964 77.4829 128.593 78.4645 128.28C79.0459 128.09 79.6653 127.938 80.3134 127.805C78.5217 128.641 76.4345 129.809 76.5393 130.635C76.7204 132.069 81.0282 134.205 88.6526 135.088C96.277 135.971 128.48 131.651 128.48 131.651L204.534 118.975C204.534 118.975 204.162 118.576 203.409 117.93C203.924 118.282 204.4 118.623 204.839 118.946C205.372 119.336 205.839 119.715 206.249 120.057C206.268 120.095 206.297 120.143 206.316 120.181C206.402 120.352 206.488 120.504 206.573 120.665L107.561 136.75C104.854 136.94 102.138 137.054 99.4316 137.111C98.0782 137.139 96.7154 137.149 95.3621 137.139C93.9992 137.13 92.6459 137.082 91.2925 137.025L89.2625 136.902L87.2325 136.712C86.5654 136.617 85.8887 136.541 85.2216 136.427C84.564 136.285 83.8778 136.209 83.2297 136.009L82.2481 135.743L81.276 135.439C80.6279 135.24 79.9798 135.041 79.3318 134.822C78.0642 134.367 76.7871 133.797 75.8246 132.828C76.7776 133.806 78.0547 134.395 79.3222 134.86C79.9608 135.098 80.6089 135.297 81.2569 135.496L82.229 135.81L83.2107 136.085C83.8588 136.294 84.5354 136.38 85.2026 136.522C85.8697 136.645 86.5464 136.721 87.223 136.826L89.253 137.035L91.2925 137.177C92.6554 137.253 94.0087 137.301 95.3716 137.329C96.7344 137.348 98.0878 137.358 99.4506 137.348C102.167 137.32 104.893 137.225 107.609 137.063L207.317 121.89C207.355 121.956 207.402 122.032 207.441 122.099C207.784 122.611 208.079 123.001 208.26 123.276C208.451 123.551 208.556 123.694 208.556 123.694L208.737 123.551L210.29 135.259L209.947 145.932L210.919 135.259V135.24V135.202L210.09 123.998C212.959 124.083 215.113 124.966 216.638 125.963L214.731 135.781C215.57 135.952 216.39 136.199 217 136.427C217.162 136.484 217.305 136.541 217.429 136.588L220.564 129.638L240.74 135.079C241.255 135.411 241.75 135.696 242.198 135.933C242.217 135.943 242.236 135.952 242.265 135.962L231.629 151.05C231.524 150.955 231.41 150.86 231.305 150.755C230.952 150.404 230.6 150.053 230.247 149.692C229.885 149.34 229.58 148.932 229.237 148.562L228.732 147.983L228.265 147.375C227.96 146.967 227.626 146.577 227.34 146.15C227.054 145.732 226.768 145.305 226.482 144.897C226.197 144.479 225.958 144.042 225.701 143.615C225.444 143.197 225.196 142.77 224.977 142.343C224.757 141.915 224.529 141.497 224.319 141.089C224.119 140.671 223.928 140.263 223.747 139.864C223.357 139.076 223.061 138.288 222.775 137.576C222.47 136.864 222.27 136.19 222.051 135.61C221.832 135.022 221.67 134.499 221.546 134.072L221.136 132.724C221.136 132.724 221.269 133.218 221.489 134.091C221.603 134.528 221.736 135.06 221.936 135.648C222.137 136.247 222.308 136.93 222.604 137.652C222.88 138.374 223.156 139.162 223.528 139.969C223.709 140.377 223.89 140.785 224.081 141.213C224.29 141.63 224.51 142.048 224.729 142.485C224.939 142.922 225.186 143.349 225.444 143.776C225.701 144.204 225.939 144.65 226.225 145.068C226.511 145.485 226.797 145.913 227.083 146.34C227.369 146.767 227.702 147.166 228.007 147.584L228.484 148.201L228.999 148.78C229.342 149.16 229.666 149.568 230.028 149.92C230.39 150.28 230.752 150.632 231.105 150.983C231.219 151.097 231.343 151.202 231.467 151.306L227.445 157.013L231.6 151.429C231.81 151.61 232.01 151.781 232.22 151.961C232.582 152.284 232.954 152.578 233.335 152.854C233.716 153.129 234.069 153.414 234.44 153.651C235.203 154.117 235.889 154.601 236.594 154.933C236.937 155.114 237.271 155.284 237.576 155.446C237.89 155.598 238.205 155.721 238.5 155.845C239.082 156.092 239.587 156.31 240.016 156.433C240.874 156.718 241.36 156.88 241.36 156.88C241.36 156.88 240.874 156.699 240.035 156.376C239.606 156.234 239.11 155.997 238.548 155.731C238.262 155.598 237.957 155.465 237.652 155.303C237.347 155.133 237.023 154.952 236.69 154.762C236.003 154.411 235.327 153.917 234.583 153.442C234.221 153.196 233.869 152.901 233.506 152.626C233.325 152.483 233.135 152.341 232.954 152.199C232.916 152.161 232.877 152.132 232.83 152.094C233.564 151.059 237.967 144.887 240.102 142.115C242.437 139.076 243.799 138.81 244.771 139.295C245.582 139.693 246.535 141.27 246.84 141.811C246.344 142.893 245.763 144.688 245.782 147.062C245.725 148.116 245.763 149.265 245.963 150.499C246.153 151.724 246.506 153.015 247.03 154.316L242.332 167.799L247.24 154.819C247.288 154.924 247.326 155.038 247.373 155.142C248.098 156.718 249.098 158.285 250.442 159.633C251.786 160.982 253.501 162.093 255.455 162.643C256.437 162.89 257.476 163.004 258.505 162.909C258.762 162.89 259.02 162.833 259.267 162.786L259.649 162.719L260.03 162.605C260.268 162.529 260.506 162.463 260.745 162.377L261.469 162.045C262.384 161.551 263.232 160.934 263.909 160.156C264.28 159.804 264.547 159.358 264.862 158.969C265.11 158.532 265.415 158.124 265.615 157.658C266.501 155.854 266.968 153.908 267.054 152.018C267.159 150.119 266.911 148.296 266.453 146.615C265.996 144.963 265.329 143.434 264.547 142.153C262.984 139.551 260.935 137.937 259.391 137.139C258.839 136.845 258.343 136.655 257.943 136.522C257.638 136.399 257.38 136.323 257.171 136.266C257.971 136.019 258.8 135.715 259.63 135.326C262.956 133.825 266.406 131.148 269.255 127.596C270.685 125.83 271.972 123.846 273.096 121.738C274.202 119.62 275.145 117.38 275.879 115.072C276.594 112.765 277.108 110.372 277.404 108.008C277.68 105.663 277.757 103.327 277.594 101.076C277.594 101.076 277.604 101.076 277.614 101.076L277.671 101.247C277.671 101.247 281.473 99.9749 287.182 98.0664C290.032 97.1074 293.367 95.9964 296.932 94.8C297.99 94.4582 299.067 94.0784 300.153 93.6891C300.163 94.0119 300.172 94.3443 300.182 94.6861C300.229 96.1579 300.21 97.8195 300.163 99.6331C300.086 101.447 299.972 103.403 299.734 105.463C299.505 107.524 299.191 109.698 298.752 111.92C298.314 114.142 297.799 116.43 297.142 118.709C296.493 120.997 295.76 123.295 294.902 125.555C294.092 127.834 293.12 130.046 292.138 132.211C291.099 134.348 290.051 136.446 288.898 138.393C287.773 140.368 286.563 142.191 285.39 143.9C284.79 144.745 284.19 145.561 283.599 146.34C282.989 147.1 282.417 147.859 281.836 148.552C280.673 149.948 279.558 151.183 278.548 152.255C278.033 152.778 277.547 153.271 277.099 153.727C276.641 154.174 276.213 154.563 275.822 154.933C275.059 155.674 274.411 156.187 273.982 156.566C273.554 156.937 273.325 157.136 273.325 157.136C273.325 157.136 273.554 156.946 273.992 156.576C274.421 156.205 275.088 155.693 275.86 154.971C276.251 154.61 276.699 154.23 277.156 153.784C277.614 153.338 278.109 152.854 278.633 152.331C279.157 151.809 279.682 151.23 280.254 150.622C280.825 150.015 281.369 149.34 281.979 148.657C282.569 147.964 283.141 147.214 283.761 146.454C284.352 145.675 284.962 144.859 285.572 144.014C286.763 142.305 287.983 140.472 289.126 138.506C290.299 136.56 291.366 134.461 292.414 132.316C293.415 130.151 294.397 127.929 295.226 125.65C296.074 123.381 296.798 121.064 297.437 118.766C298.085 116.468 298.581 114.17 299.009 111.939C299.438 109.707 299.734 107.533 299.953 105.463C300.182 103.393 300.277 101.428 300.353 99.6141C300.391 97.8005 300.391 96.1294 300.315 94.6576C300.306 94.3063 300.287 93.9645 300.268 93.6321C300.982 93.3758 301.697 93.1194 302.412 92.8345C304.251 92.1129 306.11 91.3153 307.844 90.2613C308.702 89.7296 309.531 89.1029 310.16 88.2958C310.456 87.8875 310.722 87.4033 310.837 86.919C310.97 86.3968 310.913 85.8366 310.646 85.3713C310.379 84.906 309.951 84.5832 309.503 84.3648C309.026 84.1369 308.559 84.0515 308.092 83.909C307.158 83.6527 306.224 83.4438 305.29 83.2634C303.441 82.8931 301.63 82.6557 299.905 82.5133C298.18 82.3803 296.551 82.3708 295.045 82.3993C292.033 82.4658 289.536 82.6842 287.783 82.8551C286.696 82.9595 285.905 83.0545 285.457 83.102C285.714 82.6842 285.981 82.2664 286.239 81.8486C286.706 81.1175 287.163 80.3863 287.621 79.6647C287.849 79.3039 288.078 78.9526 288.307 78.6012L288.478 78.3354L288.516 78.2689L288.564 78.1834L288.64 78.0505C288.745 77.8701 288.84 77.6897 288.945 77.5093C289.746 76.085 290.451 74.7462 291.08 73.5973C291.709 72.4578 292.195 71.4798 292.548 70.8057C292.777 70.3594 292.929 70.0461 293.015 69.8751C293.501 70.4733 293.968 71.0715 294.425 71.6887C294.759 72.1255 295.064 72.5718 295.378 73.0181C295.579 73.3124 295.769 73.6162 295.95 73.9201C296.255 74.6132 296.493 75.2779 296.722 75.8666C296.999 76.5598 297.208 77.1674 297.37 77.6802C297.704 78.6962 297.894 79.2754 297.894 79.2754C297.894 79.2754 297.723 78.6867 297.427 77.6707C297.284 77.158 297.094 76.5408 296.846 75.8381C296.598 75.1355 296.351 74.3379 295.988 73.4928C295.817 73.0655 295.645 72.6193 295.455 72.1635C295.264 71.7077 295.035 71.2519 294.826 70.7677C294.406 69.7992 293.863 68.8307 293.339 67.8147C293.062 67.3114 292.748 66.8177 292.453 66.305C292.3 66.0486 292.148 65.7922 291.995 65.5358C291.824 65.289 291.662 65.0421 291.49 64.7857C291.252 64.4154 290.994 64.0641 290.737 63.7128C291.147 62.9816 295.998 54.398 297.246 51.8912C298.552 49.2801 301.411 48.3305 302.841 49.0332C303.346 49.2896 303.212 50.353 302.822 51.6254L294.149 68.28L306.424 49.0142C306.605 48.9477 306.777 48.8813 306.948 48.8148C307.215 48.7103 307.482 48.5869 307.749 48.4635C308.283 48.2166 308.807 47.9412 309.322 47.6089C309.836 47.2671 310.36 46.8873 310.837 46.3176C311.075 46.0327 311.304 45.7004 311.466 45.2826C311.552 45.0737 311.609 44.8363 311.647 44.5989C311.666 44.466 311.676 44.3331 311.676 44.2001C316.689 42.8423 321.921 41.4085 327.153 39.9558C333.491 38.1992 339.81 36.4141 345.728 34.6954C348.682 33.8314 351.542 32.9768 354.239 32.1412C356.936 31.3056 359.49 30.4891 361.806 29.625C362.378 29.3876 362.931 29.1787 363.483 28.9318C364.017 28.6755 364.532 28.4001 365.018 28.1058C365.485 27.7924 365.952 27.4696 366.314 27.0613C366.676 26.6625 366.981 26.1687 366.971 25.6275C366.971 25.0863 366.676 24.6305 366.361 24.2792C366.037 23.9279 365.656 23.662 365.294 23.4246C364.551 22.9594 363.817 22.6365 363.15 22.3707C362.416 22.0858 361.768 21.8674 361.196 21.6965C360.243 21.2597 359.48 20.9749 359.48 20.9749L349.216 20.6046L348.282 20.5571L343.012 20.3007C342.135 20.2532 341.258 20.2342 340.372 20.2058C339.486 20.2248 338.609 20.2153 337.722 20.2817C334.196 20.4811 330.698 20.9179 327.22 21.4401C323.741 21.9719 320.272 22.5796 316.812 23.2727L315.516 23.5386C315.059 23.6335 314.659 23.757 314.22 23.8614L311.666 24.5166L306.558 25.8364L296.341 28.4761L275.908 33.7554L235.069 44.409L194.289 55.1006L193.764 55.1576C193.212 54.6543 192.64 54.1606 192.049 53.6953C191.639 53.3725 191.22 53.0591 190.791 52.7648C190.362 52.4704 189.924 52.1761 189.447 51.9577C187.522 51.1031 185.435 50.7328 183.376 50.429C181.308 50.1536 179.211 50.0017 177.124 49.9542C175.027 49.9067 172.94 49.9542 170.853 50.0872C167.117 50.3435 163.419 50.9037 159.74 51.4924C162.39 50.8468 165.039 50.1916 167.679 49.5079C169.719 48.9762 171.749 48.4445 173.769 47.8558C174.274 47.7134 174.78 47.5519 175.285 47.3905C175.78 47.2291 176.304 47.0392 176.771 46.7733C177.019 46.6214 177.258 46.46 177.448 46.2036C177.658 45.9757 177.734 45.5484 177.582 45.2446C177.296 44.6464 176.8 44.3615 176.304 44.0957L176.352 44.1242C175.513 43.6114 174.675 43.412 173.798 43.2221C172.931 43.0417 172.054 42.9468 171.168 42.8993C169.414 42.7948 167.651 42.8518 165.907 43.0037C165.03 43.0702 164.172 43.1746 163.305 43.2696L160.713 43.5734L155.528 44.2286C148.809 45.1117 142.109 46.0612 135.4 47.0392L132.064 38.1042L123.353 14.7555L123.296 14.5941L123.182 14.4422C123.067 14.2903 122.972 14.1858 122.877 14.0624C122.772 13.9484 122.676 13.8345 122.572 13.7205C122.362 13.5021 122.152 13.2838 121.924 13.0844C121.476 12.6761 120.99 12.2868 120.437 11.9544C120.303 11.869 120.151 11.793 120.008 11.7171C119.865 11.6411 119.712 11.5651 119.55 11.4987C119.245 11.3562 118.902 11.2613 118.559 11.1663C118.388 11.1284 118.197 11.1094 118.016 11.0809C117.844 11.0524 117.625 11.0429 117.397 11.0524C117.187 11.0524 116.92 11.0714 116.825 11.0999L116.424 11.1663L116.31 11.1948L115.7 11.4322C115.5 11.5177 115.328 11.6221 115.147 11.7171C114.957 11.812 114.804 11.9259 114.652 12.0399C114.49 12.1538 114.328 12.2678 114.194 12.3912C113.603 12.866 113.127 13.3977 112.669 13.9294C112.221 14.4707 111.821 15.0309 111.45 15.6006C111.259 15.8854 111.087 16.1798 110.916 16.4741C110.744 16.778 110.582 17.0534 110.42 17.3857L110.382 17.4711V17.5091C110.096 18.3067 109.896 19.0379 109.696 19.807C109.496 20.5666 109.315 21.3262 109.134 22.0763C108.791 23.5955 108.486 25.1148 108.209 26.6435C107.942 28.1722 107.685 29.701 107.475 31.2297C107.256 32.7584 107.056 34.2966 106.894 35.8254C106.713 37.3446 106.56 38.9208 106.532 40.459C106.494 42.0067 106.532 43.5639 106.637 45.1022C106.827 47.9128 107.256 50.6853 107.818 53.4295C104.978 53.8283 102.043 54.2366 99.1075 54.6448C97.1061 54.9297 95.1143 55.2051 93.1415 55.4899C91.1686 55.7748 89.2435 56.1451 87.3755 56.4964C83.6586 57.237 80.2181 58.0441 77.2827 58.8037C74.3473 59.5539 71.9266 60.2565 70.2397 60.7882C69.401 61.0541 68.7434 61.2725 68.305 61.4529C68.0858 61.5289 67.9143 61.6048 67.8094 61.6618C67.6951 61.7188 67.6474 61.7473 67.6474 61.7473C67.6474 61.7473 67.7046 61.7188 67.8189 61.6713C67.9333 61.6143 68.0953 61.5479 68.3241 61.4814C68.772 61.3295 69.4391 61.1301 70.2873 60.9022C71.9933 60.4369 74.4331 59.8387 77.3876 59.212C80.342 58.5854 83.8016 57.9207 87.528 57.332C89.396 57.0566 91.3211 56.7718 93.2844 56.5724C95.2572 56.373 97.2586 56.1831 99.2696 55.9837C103.282 55.5944 107.304 55.2051 111.059 54.8348C112.936 54.6543 114.757 54.4739 116.482 54.303L116.806 54.2745H116.825H116.891H117.034C117.235 54.2745 117.435 54.2745 117.635 54.2745C118.035 54.284 118.435 54.303 118.826 54.3315C119.608 54.379 120.37 54.4739 121.094 54.5689C122.543 54.7683 123.849 55.0531 124.983 55.3665C126.126 55.6703 127.08 56.0216 127.861 56.3255C128.633 56.6578 129.233 56.9142 129.624 57.1326C129.7 57.1706 129.767 57.2085 129.824 57.237C129.815 57.2845 129.805 57.3415 129.786 57.4079C129.786 57.4269 129.777 57.4459 129.767 57.4554C129.071 57.7213 127.956 57.9872 126.736 58.253C125.488 58.5189 124.068 58.7848 122.505 59.0601C116.262 60.1616 107.857 61.3769 99.4411 62.4974C98.3927 62.6398 97.3349 62.7727 96.2865 62.9152L95.505 63.0196L95.3049 63.0481L95.0761 63.0861L94.6949 63.162C94.1803 63.257 93.6656 63.3519 93.151 63.4374C91.1019 63.7982 89.0719 64.1211 87.1087 64.4059C85.1454 64.6813 83.2393 64.9281 81.4285 65.0991C79.6177 65.2605 77.9022 65.3934 76.3201 65.3649C75.5291 65.3459 74.7762 65.327 74.0709 65.194C73.3657 65.0991 72.689 64.9092 72.0695 64.7572C70.8211 64.4344 69.7536 64.0641 68.9245 63.6653C68.1049 63.276 67.4473 62.8392 67.3138 62.3644C67.2471 62.1176 67.3901 61.9467 67.4759 61.8707C67.5807 61.7947 67.6283 61.7473 67.6283 61.7473C67.6283 61.7473 67.5712 61.7852 67.4759 61.8612C67.3805 61.9372 67.2281 62.1081 67.2852 62.3739C67.4091 62.8867 68.0667 63.3424 68.8768 63.7792C69.706 64.216 70.7639 64.6243 72.0028 65.0041C72.6318 65.1845 73.2799 65.4029 74.0042 65.5263C74.7285 65.6878 75.5005 65.7352 76.3011 65.7922C77.9022 65.8777 79.6368 65.8112 81.4666 65.7257C83.2965 65.6308 85.2216 65.4599 87.204 65.2605C89.1863 65.0611 91.2354 64.8142 93.313 64.5293C93.8372 64.4534 94.3518 64.3869 94.876 64.311L95.2668 64.254L95.4288 64.2255L95.6289 64.2065L96.4199 64.14C97.4778 64.0451 98.5357 63.9406 99.5936 63.8457C102.91 63.5324 106.217 63.2095 109.4 62.8772C109.677 63.7792 109.915 64.4724 110.077 64.9471L78.474 68.7072C72.0409 69.5143 65.6174 70.3974 59.2129 71.4324C56.0107 71.9546 52.818 72.5053 49.6443 73.17C48.0622 73.5023 46.4707 73.8536 44.9077 74.2714C43.3542 74.7082 41.7531 75.126 40.3711 75.9711C41.7721 75.145 43.3732 74.7557 44.9267 74.3474C46.4992 73.9581 48.0813 73.6352 49.6729 73.3219C52.8561 72.7142 56.0583 72.211 59.2606 71.7457C60.1278 71.6223 60.9951 71.5083 61.8624 71.3849L47.8812 73.8631C47.8812 73.8631 42.0199 75.069 40.3711 77.6137C38.7224 80.1584 39.3228 80.4623 42.4774 81.6587C45.632 82.8551 77.359 82.5227 101.709 80.4053C117.978 78.9905 163.667 71.6697 192.23 66.9601C148.742 72.9041 72.384 79.6932 72.384 79.6932L63.9591 73.2649L97.5541 67.264L117.196 65.1181L136.524 62.9816L155.843 60.7977L166.612 59.5824C166.612 59.4969 166.612 59.3735 166.631 59.2025C166.631 59.0601 166.65 58.8797 166.66 58.6708C166.66 58.6518 166.66 58.6423 166.66 58.6328C166.66 58.4144 166.717 58.1676 166.745 57.9017C166.793 57.6358 166.812 57.3415 166.898 57.0471C166.974 56.7433 167.041 56.4299 167.146 56.1071C167.26 55.7938 167.365 55.4614 167.508 55.1386C167.67 54.8253 167.784 54.4929 167.984 54.1891C168.242 53.7238 168.547 53.306 168.861 52.9072C166.698 53.1921 164.553 53.5339 162.419 53.9137C154.727 55.3095 147.494 57.332 139.584 56.7243C135.924 56.4394 133.799 52.8597 132.493 49.6789C131.14 46.384 127.365 37.4016 127.365 37.4016L127.318 37.4585L119.827 16.4362L124.363 41.1427L124.63 41.1047L116.405 52.2616L116.205 52.29C114.49 52.5274 112.679 52.7838 110.801 53.0402C109.829 53.1731 108.829 53.3155 107.828 53.4579C107.428 50.6853 107.17 47.9033 107.151 45.1117C107.142 43.5829 107.189 42.0542 107.323 40.535C107.447 39.0063 107.685 37.525 107.952 36.0058C108.209 34.4865 108.495 32.9958 108.8 31.4861C109.105 29.9858 109.439 28.4951 109.801 27.0043C110.163 25.5231 110.554 24.0418 110.983 22.5891C111.202 21.8579 111.421 21.1363 111.659 20.4147C111.888 19.731 112.136 19.0284 112.383 18.4017C112.517 18.1833 112.679 17.9269 112.831 17.6895C113.003 17.4332 113.175 17.1863 113.356 16.9489C113.718 16.4647 114.089 15.9899 114.499 15.5721C114.9 15.1448 115.319 14.746 115.757 14.4422C115.862 14.3567 115.977 14.2903 116.081 14.2238C116.186 14.1573 116.301 14.0814 116.405 14.0434C116.51 13.9959 116.615 13.9294 116.72 13.9009C116.815 13.8725 116.901 13.844 116.987 13.8155L117.301 13.749C117.473 13.7015 117.473 13.749 117.53 13.7395C117.578 13.7395 117.625 13.73 117.721 13.7395C117.806 13.749 117.892 13.749 117.978 13.768C118.159 13.8155 118.34 13.8535 118.521 13.9389C118.616 13.9674 118.712 14.0149 118.798 14.0624C118.893 14.1098 118.988 14.1478 119.083 14.2143C119.465 14.4232 119.836 14.708 120.189 15.0119C120.37 15.1638 120.542 15.3252 120.704 15.4961C120.789 15.5816 120.866 15.6671 120.942 15.7525L121.056 15.8854L130.282 38.8069L134.952 50.4005C135.428 51.4355 136.076 52.3755 136.896 53.1731C137.706 53.9707 138.697 54.6069 139.784 54.9867C140.861 55.357 142.023 55.5279 143.138 55.4235C143.281 55.4235 143.415 55.4235 143.567 55.395L143.958 55.3475L144.73 55.2525L146.303 55.0152C150.439 54.322 154.508 53.439 158.597 52.6604C162.685 51.8817 166.784 51.1316 170.91 50.7423C172.969 50.5524 175.056 50.4575 177.124 50.4575C179.202 50.4575 181.279 50.5429 183.338 50.7708C185.387 51.0177 187.474 51.3405 189.38 52.1286C189.857 52.328 190.295 52.6034 190.724 52.8882C191.163 53.1731 191.582 53.4769 192.001 53.7808C192.592 54.2271 193.173 54.6923 193.736 55.1766L191.915 55.3855C190.858 54.4739 188.418 52.6129 185.692 52.1286C185.416 52.3755 185.12 52.6604 184.844 52.9927C184.682 53.1731 184.539 53.382 184.396 53.5814C184.272 53.7998 184.119 53.9992 184.005 54.2271C183.891 54.4454 183.776 54.6638 183.7 54.8917C183.662 55.0057 183.614 55.1101 183.576 55.2241C183.548 55.338 183.519 55.4424 183.49 55.5564C183.424 55.7653 183.405 55.9837 183.386 56.1831C183.376 56.2495 183.386 56.3065 183.376 56.373C183.367 56.4964 183.348 56.6293 183.357 56.7433C183.357 56.9142 183.357 57.0756 183.376 57.2085C183.395 57.351 183.414 57.4649 183.433 57.5694C183.433 57.6073 183.433 57.6263 183.443 57.6643L194.479 56.4204H194.527L194.574 56.4015L196.652 55.8507L228.541 58.0631L201.76 54.4929L235.374 45.6149L265.72 37.563L279.787 40.2691L271.009 36.1577L276.174 34.7904H276.194L293.348 40.516L240.445 56.8952L313.801 40.1932C313.801 40.1932 363.397 25.9124 364.751 24.716C365.58 23.9754 363.407 22.7315 361.596 21.8864C362.063 22.0478 362.559 22.2282 363.112 22.4561C363.769 22.7315 364.493 23.0733 365.218 23.5386C365.57 23.7855 365.933 24.0418 366.238 24.3931C366.533 24.735 366.781 25.1623 366.781 25.6275C366.781 26.1023 366.504 26.5486 366.152 26.9189C365.809 27.2987 365.351 27.6025 364.884 27.9064C364.408 28.1912 363.903 28.4476 363.369 28.6945C362.845 28.9224 362.263 29.1218 361.692 29.3496C359.376 30.1662 356.821 30.9258 354.115 31.7139C351.399 32.4925 348.53 33.2901 345.566 34.0972C339.619 35.7019 333.262 37.3636 326.896 39.0063C314.163 42.2726 301.411 45.444 291.843 47.7988C282.264 50.1441 275.889 51.7108 275.889 51.7108L275.955 51.9767C275.488 51.8058 275.059 51.6444 274.697 51.5114C274.154 51.312 273.773 51.2171 273.496 51.1316C273.22 51.0462 273.077 51.0082 273.077 51.0082L272.991 51.312L272.486 51.1981L272.172 52.6698C271.304 52.8882 267.788 53.7903 262.203 55.2241C261.393 55.4329 260.535 55.6513 259.649 55.8792C259.201 55.9932 258.743 56.1071 258.276 56.2305C258.057 56.2875 257.771 56.3635 257.6 56.4015C257.361 56.4489 257.113 56.5059 256.866 56.5629C254.893 56.9902 252.768 57.4459 250.49 57.9302C245.934 58.9082 240.797 60.0096 235.193 61.2155C232.391 61.8137 229.466 62.4404 226.444 63.0956C223.414 63.6653 220.278 64.254 217.057 64.8617C210.595 66.0391 203.781 67.283 196.728 68.5743C189.676 69.8372 182.385 71.119 174.961 72.3914C167.546 73.6637 160.007 74.9361 152.459 76.1325C148.685 76.7497 144.911 77.3384 141.147 77.9081C137.382 78.4968 133.627 79.0285 129.91 79.5697C126.193 80.1205 122.486 80.5762 118.836 81.0795C117.006 81.2979 115.185 81.5163 113.384 81.7346C111.583 81.953 109.782 82.1714 107.999 82.3233C106.217 82.4943 104.454 82.6557 102.701 82.8266C100.947 82.9595 99.2028 83.102 97.4874 83.2349C94.0468 83.4913 90.6826 83.7381 87.4041 83.9375C80.8471 84.3553 74.6428 84.6782 68.9149 84.8491C63.1871 85.02 57.9263 85.058 53.2754 84.8776C50.95 84.7921 48.777 84.6402 46.7756 84.3743C45.7749 84.2604 44.8314 84.0705 43.926 83.8711C43.4876 83.7381 43.0492 83.6337 42.6299 83.4913C42.2201 83.3393 41.8102 83.2064 41.429 83.0355C39.9041 82.4088 38.4936 81.7441 37.7217 80.6997C37.3309 80.1774 37.2928 79.5128 37.5025 79.0095C37.5787 78.7532 37.7312 78.5253 37.8551 78.3164C38.0076 78.1265 38.141 77.9271 38.2935 77.7657C38.608 77.4428 38.8749 77.158 39.1512 76.9491C39.4086 76.7212 39.6278 76.5408 39.8184 76.4078C39.6278 76.5408 39.399 76.7212 39.1417 76.9396C38.8749 77.1485 38.5889 77.4333 38.2744 77.7467C38.1219 77.9081 37.9885 78.1075 37.8265 78.2974C37.7026 78.5158 37.5501 78.7342 37.4643 79L37.4834 78.9905ZM79.5129 69.239L63.2538 71.2045C68.3527 70.5113 73.461 69.9036 78.5693 69.3434L79.5129 69.239ZM114.776 64.4059L111.469 64.7952C111.326 64.3869 111.087 63.6843 110.782 62.7443C111.754 62.6398 112.708 62.5354 113.642 62.4309L114.766 64.3964L114.776 64.4059ZM158.883 51.6728C158.74 51.6918 158.597 51.7203 158.454 51.7393C154.337 52.4135 150.239 53.1921 146.14 53.7808L144.616 53.9707L143.834 54.0466L143.443 54.0846C143.339 54.0846 143.205 54.0846 143.091 54.0846C142.119 54.1511 141.175 53.9802 140.298 53.6573C138.554 53.0022 137.163 51.5019 136.429 49.7643L135.895 48.3305C142.481 47.2386 149.076 46.1656 155.681 45.1591L160.836 44.3995L163.419 44.0482C164.277 43.9438 165.154 43.8203 166.002 43.7349C167.718 43.5545 169.443 43.45 171.158 43.526C172.016 43.5545 172.874 43.6399 173.712 43.7918C174.532 43.9438 175.409 44.1621 176.076 44.5514L176.123 44.5799C176.543 44.7793 177.01 45.0927 177.172 45.4535C177.353 45.7953 176.991 46.1751 176.59 46.4125C176.142 46.6784 175.675 46.8493 175.18 47.0297C174.684 47.2006 174.189 47.3715 173.693 47.5234C171.692 48.1501 169.671 48.7293 167.651 49.2896C164.734 50.1061 161.818 50.8848 158.883 51.6539V51.6728ZM212.53 67.207V69.2769C210.147 68.9541 207.889 68.6598 205.811 68.3749C208.089 67.9761 210.328 67.5868 212.53 67.207ZM214.75 66.8177L214.484 76.7022L214.16 81.4308C214.16 81.4308 213.292 82.2284 212.492 81.9815C211.806 81.7726 210.967 81.4688 210.738 81.3833C206.526 77.5663 202.428 73.5878 198.282 69.6852C199.33 69.5048 200.378 69.3244 201.417 69.144C201.865 69.201 202.342 69.2674 202.818 69.3339L212.835 80.6522L213.016 70.4354L213.187 67.0931C213.712 66.9981 214.245 66.9126 214.76 66.8177H214.75ZM221.975 70.6632C218.525 70.141 216.094 69.7612 215.399 69.6568L215.57 66.6753C216.161 66.5708 216.771 66.4664 217.352 66.3619C219.354 66.0011 221.307 65.6498 223.242 65.308L222.461 68.7927L221.975 70.6727V70.6632ZM222.851 72.3724C223.242 72.3154 223.614 72.2489 223.966 72.2205C224.214 72.2015 224.452 72.1825 224.681 72.173C225.777 72.3154 226.93 72.4578 228.141 72.6098C227.741 73.1035 227.264 73.6922 226.749 74.3664C226.168 75.1165 225.529 75.9711 224.881 76.9396C224.224 77.8986 223.528 78.9621 222.851 80.111C222.156 81.2504 221.46 82.4848 220.793 83.7761C220.126 85.077 219.449 86.4253 218.839 87.8306C218.22 89.2359 217.629 90.6791 217.085 92.1319C216.542 93.5941 216.066 95.0659 215.608 96.5377C215.589 96.5851 215.58 96.6326 215.57 96.6801L205.82 94.0594C205.372 95.6356 204.944 97.9809 204.81 101.409C204.581 107.277 205.363 112.338 205.782 114.579C205.697 114.351 205.62 114.123 205.544 113.885C205.344 113.354 205.21 112.784 205.048 112.205C204.877 111.626 204.763 111.027 204.639 110.42C204.496 109.812 204.41 109.185 204.324 108.549C204.219 107.913 204.172 107.267 204.114 106.612C204.038 105.957 204.038 105.292 204.019 104.628C203.981 103.963 204.019 103.289 204.038 102.624C204.038 101.95 204.114 101.285 204.172 100.621C204.21 99.9559 204.324 99.2913 204.41 98.6361C204.486 97.9809 204.629 97.3353 204.753 96.7086C204.82 96.3952 204.877 96.0724 204.944 95.759C205.029 95.4457 205.106 95.1324 205.182 94.8285C205.487 93.5847 205.849 92.4357 206.221 91.3248C206.592 90.2234 206.983 89.1884 207.364 88.2484C208.127 86.3588 208.889 84.8396 209.452 83.7951C209.919 82.9405 210.233 82.3993 210.338 82.2284C210.462 82.4373 210.719 82.6652 211.053 82.8361C211.415 83.0355 211.872 83.1874 212.368 83.2824C212.616 83.3298 212.873 83.3678 213.14 83.3773C213.388 83.3963 213.683 83.3868 213.95 83.3773C214.493 83.3298 215.036 83.2349 215.532 82.9785C215.77 82.8551 216.028 82.6842 216.151 82.3613C216.294 81.9815 216.075 81.7157 215.913 81.5637C215.561 81.2789 215.217 81.2219 214.998 81.1649C214.893 81.1459 214.817 81.1365 214.76 81.127L215.036 76.4363C215.103 76.3794 215.179 76.3129 215.284 76.2179C215.561 75.9711 215.97 75.6387 216.485 75.2589C217.495 74.4993 218.953 73.5973 220.526 73.0086C220.926 72.8661 221.317 72.7237 221.717 72.6193C222.118 72.5053 222.508 72.4199 222.899 72.3439L222.851 72.3724ZM229.323 64.1495L232.668 72.2964C231.429 72.1065 230.228 71.9261 229.056 71.7457C229.446 71.1665 229.666 70.8437 229.666 70.8437C229.666 70.8437 229.542 70.9861 229.294 71.2614C229.189 71.3849 229.046 71.5463 228.884 71.7172C227.245 71.4703 225.691 71.233 224.252 71.0146L224.557 69.8941L226.292 64.7572C226.454 64.7287 226.625 64.7003 226.787 64.6718C227.645 64.4914 228.474 64.3205 229.313 64.1495H229.323ZM239.492 73.3409C238.234 73.151 236.976 72.9611 235.737 72.7712L234.888 70.7962L232.229 63.5608C233.354 63.333 234.469 63.0956 235.556 62.8772C238.91 62.184 242.103 61.5289 245.096 60.9117L242.618 66.4854L239.482 73.3599L239.492 73.3409ZM271.733 54.8442L265.948 82.067L265.815 82.029C265.815 82.029 265.786 82.029 265.777 82.0195C265.243 81.8391 264.957 81.7536 264.957 81.7536C264.957 81.7536 265.081 81.8011 265.3 81.8866L264.423 81.6207C264.766 81.7062 264.957 81.7536 264.957 81.7536C264.957 81.7536 264.671 81.6682 264.128 81.5068C263.995 81.4688 263.842 81.4308 263.68 81.3928L263.089 81.2124V81.2599C262.679 81.1839 262.222 81.1175 261.707 81.07C260.649 80.9655 259.353 80.9845 257.885 81.2124C256.418 81.4403 254.798 81.9151 253.139 82.6747C249.813 84.1749 246.363 86.8526 243.513 90.4038C242.084 92.1699 240.797 94.1544 239.673 96.2623C238.567 98.3797 237.624 100.621 236.89 102.928C236.175 105.235 235.66 107.628 235.365 109.992C235.089 112.357 235.012 114.721 235.174 116.981C235.298 118.785 235.584 120.513 235.994 122.156C235.87 121.747 235.756 121.33 235.641 120.893C232.83 109.973 237.281 99.8135 237.281 99.8135L234.869 98.6171C235.355 97.4682 235.889 96.3383 236.49 95.2558C237.7 93.0719 239.063 91.002 240.616 89.1979C242.151 87.3748 243.838 85.7891 245.582 84.4693C247.326 83.1494 249.136 82.1239 250.89 81.3643C253.425 80.2724 255.827 79.8166 257.809 79.7122L259.315 79.8356H261.002C261.107 79.8451 261.221 79.8641 261.316 79.8736L262.222 80.0255C262.317 80.0445 262.422 80.0635 262.508 80.0825C263.099 80.2249 263.413 80.2914 263.413 80.2914C263.413 80.2914 263.251 80.2344 262.937 80.1395L263.404 80.2154C263.937 80.6427 264.338 81.0225 264.576 81.2979C264.824 81.5827 264.928 81.7536 264.928 81.7536C264.928 81.7536 264.824 81.5732 264.585 81.2884C264.357 81.013 263.994 80.6522 263.508 80.2344L263.699 80.2629C263.699 80.2629 263.451 80.111 263.041 79.8641C262.546 79.4938 261.965 79.095 261.278 78.7152C260.849 78.4588 260.373 78.2404 259.877 77.984C259.363 77.7656 258.839 77.4998 258.267 77.2909C258.143 77.2434 258.009 77.1959 257.876 77.139C257.79 77.101 257.695 77.063 257.609 77.025C257.333 76.9111 256.961 76.7877 256.532 76.6547C256.513 76.6547 256.494 76.6357 256.475 76.6357C255.855 76.4268 255.207 76.2179 254.521 76.0375C254.188 75.9426 253.845 75.8476 253.492 75.7527C253.139 75.6672 252.787 75.5912 252.434 75.5058C252.072 75.4203 251.71 75.3444 251.348 75.2589C250.976 75.1925 250.604 75.1165 250.232 75.05C248.736 74.7462 247.173 74.5468 245.591 74.2999C244.305 74.1005 243.008 73.9011 241.703 73.7017L248.193 60.266C249.098 60.0761 249.985 59.8957 250.842 59.7248C253.12 59.25 255.255 58.8132 257.237 58.4049C257.485 58.3575 257.733 58.3005 257.971 58.253C258.286 58.1866 258.467 58.1296 258.724 58.0726C259.191 57.9587 259.649 57.8447 260.097 57.7308C260.992 57.5124 261.85 57.294 262.66 57.0946C267.025 56.0122 270.123 55.2525 271.695 54.8632L271.733 54.8442ZM241.75 73.6827C241.75 73.6827 241.684 73.6732 241.646 73.6637L243.037 70.6917L241.75 73.6732V73.6827ZM241.093 99.3577C240.483 99.0919 239.711 98.7405 239.272 98.5506C239.577 97.867 239.892 97.1928 240.235 96.5377C241.331 94.4582 242.579 92.5022 243.98 90.7551C245.381 89.0175 246.878 87.4413 248.469 86.1404C250.051 84.8301 251.691 83.7761 253.311 83.007C254.931 82.2379 256.504 81.7157 257.933 81.4498C259.363 81.1839 260.649 81.127 261.698 81.1934C262.212 81.2219 262.679 81.2789 263.08 81.3359L262.927 82.7127C261.288 82.6367 256.942 82.6937 253.196 85.1339C247.774 88.6566 243.637 93.4897 241.083 99.3577H241.093ZM296.922 48.2071L289.746 62.3644C289.612 62.1935 289.479 62.0226 289.346 61.8517C288.536 60.9212 287.744 59.9717 286.868 59.1361C286.439 58.6993 286.01 58.272 285.552 57.8922C285.095 57.5029 284.666 57.0946 284.209 56.7433C283.742 56.392 283.294 56.0501 282.846 55.7083C282.398 55.3665 281.921 55.0911 281.483 54.7968C280.606 54.1796 279.691 53.7428 278.881 53.2775C278.757 53.2206 278.643 53.1636 278.519 53.1066C281.13 52.4135 286.01 51.1126 292.291 49.451C293.758 49.0617 295.302 48.6439 296.913 48.2166L296.922 48.2071ZM292.7 68.9541C292.043 68.0806 291.357 67.2355 290.661 66.3904C289.965 65.5453 289.269 64.7098 288.545 63.8837L288.316 63.6178L288.145 63.9406C286.467 67.0646 284.866 70.2265 283.218 73.3694C281.569 76.5123 279.977 79.6742 278.366 82.8361L275.955 87.5742L274.678 90.1474C274.507 89.8151 274.326 89.4922 274.144 89.1789C273.22 87.6122 272.162 86.3018 271.085 85.2859C270.008 84.2699 268.95 83.5197 268.026 83.007C267.425 82.6652 266.892 82.4278 266.444 82.2379L273.582 52.4894C273.811 52.5464 274.068 52.6129 274.345 52.7078C274.84 52.8692 275.441 53.0781 276.136 53.306C276.203 53.3345 276.289 53.3725 276.365 53.401L276.422 53.6384C276.422 53.6384 276.537 53.6099 276.737 53.5529C277.251 53.7618 277.804 53.9897 278.386 54.2555C279.177 54.6828 280.082 55.0721 280.94 55.6323C281.378 55.9077 281.845 56.1546 282.293 56.4774C282.741 56.7908 283.189 57.1136 283.646 57.4364C284.104 57.7688 284.533 58.1486 284.99 58.5094C285.448 58.8702 285.886 59.269 286.315 59.6773C287.201 60.4654 288.011 61.3674 288.831 62.2505C289.603 63.181 290.384 64.1021 291.071 65.0896C291.242 65.3269 291.423 65.5738 291.595 65.8112C291.757 66.0581 291.919 66.3049 292.071 66.5518C292.386 67.0456 292.71 67.5203 293.005 68.0141C293.568 69.0016 294.139 69.9511 294.587 70.8911C294.816 71.3564 295.054 71.8122 295.264 72.2584C295.464 72.7047 295.655 73.1415 295.836 73.5593C295.836 73.5783 295.845 73.5878 295.855 73.6068C295.731 73.3979 295.626 73.1795 295.493 72.9706C295.359 72.7332 295.197 72.5148 295.054 72.2774C294.911 72.0495 294.759 71.8217 294.597 71.5938C293.987 70.6917 293.339 69.8087 292.681 68.9351L292.7 68.9541ZM244.4 108.748C243.723 115.879 246.735 122.469 246.735 122.469L254.026 116.43C254.197 116.734 254.378 117.009 254.54 117.228L247.011 124.966C243.38 120.19 242.313 112.29 244.81 104.343C245.81 101.143 247.288 98.2848 249.051 95.8825C247.364 98.8925 244.838 104.077 244.39 108.758L244.4 108.748ZM271.867 103.896C271.867 103.896 273.668 109.28 270.571 114.607C270.904 113.933 271.152 113.221 271.39 112.49C271.619 111.597 271.838 110.629 271.867 109.679C271.924 109.214 271.867 108.739 271.876 108.283C271.819 107.827 271.81 107.362 271.714 106.925C271.581 106.042 271.295 105.216 270.98 104.457C270.79 104.096 270.647 103.716 270.428 103.403C270.323 103.241 270.227 103.08 270.132 102.918C270.018 102.767 269.913 102.624 269.799 102.482C269.56 102.168 269.303 101.893 269.055 101.656L271.457 97.2403C271.838 96.5472 272.21 95.8445 272.581 95.1419C273.411 96.851 273.992 98.788 274.306 100.886L271.848 103.906L271.867 103.896ZM268.941 111.265C267.721 112.983 266.082 114.227 263.995 114.351C262.098 114.455 259.467 113.904 259.334 111.578C259.191 109.138 260.897 105.397 260.897 105.397C258.848 109.48 258.553 113.316 260.163 117.636C260.382 118.234 260.649 118.842 261.145 119.25C261.278 119.355 261.421 119.44 261.574 119.516C261.393 119.507 261.221 119.488 261.078 119.469C260.935 119.459 260.802 119.431 260.678 119.402V119.374C260.678 119.374 260.611 119.345 260.478 119.288C260.335 119.25 260.144 119.136 259.906 118.984C259.792 118.899 259.677 118.785 259.544 118.671C259.42 118.538 259.296 118.386 259.163 118.225C258.924 117.864 258.676 117.437 258.495 116.905C258.286 116.383 258.162 115.775 258.057 115.129C257.971 114.474 257.914 113.771 257.933 113.04C257.933 112.309 258.009 111.55 258.133 110.79C258.181 110.401 258.276 110.03 258.343 109.651C258.429 109.271 258.543 108.862 258.629 108.492C258.858 107.732 259.105 106.982 259.42 106.27C259.725 105.558 260.068 104.865 260.449 104.229C260.802 103.621 261.202 103.07 261.612 102.567H261.65L261.66 102.501C261.66 102.539 261.64 102.558 261.64 102.558C261.64 102.558 261.793 102.349 262.06 102.054C262.127 101.978 262.203 101.893 262.269 101.826C262.298 101.798 262.336 101.76 262.365 101.722C262.584 101.504 262.803 101.304 263.041 101.124C263.499 100.744 263.985 100.478 264.423 100.279C264.652 100.203 264.862 100.117 265.071 100.06C265.281 100.022 265.472 99.9844 265.643 99.9654H265.653C265.729 99.9654 265.805 99.9654 265.882 99.9844C266.52 100.117 267.063 100.336 267.511 100.583C267.778 100.754 268.064 100.953 268.369 101.2C268.569 101.38 268.779 101.57 268.979 101.789L268.922 101.902L268.979 101.798C269.208 102.035 269.427 102.311 269.637 102.605C269.732 102.748 269.837 102.89 269.942 103.042C270.027 103.203 270.123 103.365 270.208 103.526C270.409 103.849 270.532 104.21 270.694 104.571C270.866 105.055 271.028 105.568 271.142 106.109C270.666 107.932 270.018 109.736 268.931 111.265H268.941ZM258.915 106.033C258.657 106.555 258.438 107.096 258.219 107.647L254.617 106.318C254.864 105.625 255.16 104.941 255.484 104.295C255.836 103.631 256.199 102.985 256.608 102.406C257.018 101.826 257.447 101.276 257.905 100.811C258.352 100.336 258.839 99.9464 259.305 99.6236C259.792 99.3292 260.249 99.0729 260.687 98.9305C260.878 98.864 261.059 98.8165 261.231 98.7785L261.002 102.757C260.678 103.146 260.354 103.545 260.068 104.001C259.639 104.637 259.248 105.321 258.896 106.042L258.915 106.033ZM264.976 88.3528C265.11 88.3908 265.253 88.4193 265.386 88.4667C265.929 88.6376 266.444 88.8465 266.939 89.0934C269.055 90.1379 270.78 91.8755 272.048 94.0879L268.731 99.918C268.731 99.918 266.539 98.9305 265.043 99.1204C263.203 99.3482 262.279 100.877 261.879 101.817C261.841 101.855 261.802 101.893 261.764 101.931L262.498 98.7121V98.6551L262.832 97.2403L264.967 88.3623L264.976 88.3528ZM257.314 116.924C257.342 117.038 257.371 117.152 257.409 117.256C257.58 117.873 257.857 118.424 258.143 118.899C258.305 119.127 258.457 119.336 258.619 119.526C258.772 119.668 258.905 119.81 259.039 119.924L255.703 129.505C254.674 129.495 253.654 129.334 252.663 129.03C251.51 128.669 250.461 128.119 249.499 127.416L257.314 116.924ZM257.466 129.391C257.256 129.42 257.056 129.448 256.847 129.467L260.192 120.627C260.192 120.627 260.249 120.636 260.278 120.646C260.325 120.646 260.382 120.665 260.43 120.674L257.457 129.401L257.466 129.391ZM254.226 133.74C252.844 133.768 251.481 133.578 250.166 133.17C248.87 132.762 247.659 132.154 246.554 131.366L248.698 128.489C249.27 128.916 249.88 129.296 250.518 129.609C251.071 129.885 251.653 130.122 252.262 130.312C253.235 130.616 254.226 130.787 255.236 130.834L254.226 133.74ZM250.842 93.7081C254.226 90.0619 258.362 87.9255 262.374 87.992L261.269 98.5696C261.069 98.5886 260.859 98.6266 260.63 98.6836C260.154 98.788 259.639 99.0064 259.115 99.3008C258.6 99.6141 258.067 99.9939 257.571 100.459C257.056 100.915 256.58 101.456 256.132 102.054C255.684 102.653 255.274 103.308 254.902 103.991C254.55 104.685 254.216 105.406 253.959 106.156C253.692 106.916 253.482 107.657 253.311 108.426C253.139 109.195 253.044 109.954 252.996 110.695C252.958 111.17 252.958 111.626 252.977 112.072C252.158 106.156 255.846 101.523 255.846 101.523L250.842 93.6986V93.7081ZM265.291 87.052L265.748 85.1434C266.225 85.3143 266.701 85.5042 267.159 85.7321C269.827 87.0615 272.029 89.3213 273.601 92.3408C273.439 92.6636 273.287 92.9865 273.125 93.3093C271.39 90.3563 268.893 88.1629 265.786 87.1944C265.624 87.1469 265.453 87.0994 265.291 87.0615V87.052ZM265.91 84.4883L266.434 82.3139C266.873 82.5133 267.387 82.7791 267.969 83.1304C268.874 83.6622 269.894 84.4408 270.923 85.4758C271.952 86.5107 272.944 87.8306 273.839 89.3783C274.068 89.7676 274.278 90.1759 274.488 90.5937L273.992 91.6002C272.057 88.1154 269.284 85.6562 265.929 84.4883H265.91ZM289.66 82.7506C287.83 82.912 286.086 83.1115 285.467 83.1779C285.476 83.1589 285.495 83.1399 285.505 83.1115C285.953 83.064 286.744 82.9785 287.83 82.8836C288.364 82.8361 288.983 82.7886 289.651 82.7411L289.66 82.7506ZM278.424 98.6076C278.062 96.7466 277.213 93.0149 276.003 90.8595L289.679 65.9062L289.612 65.8017C290.585 66.9032 291.538 68.0046 292.472 69.144C292.672 69.3909 292.872 69.6378 293.072 69.8751C292.967 70.0271 292.777 70.3309 292.5 70.7487C292.1 71.3944 291.499 72.2964 290.813 73.4169C290.137 74.5278 289.327 75.8191 288.497 77.2149C288.393 77.3858 288.288 77.5663 288.183 77.7467L288.107 77.8796L288.078 77.9271L288.03 77.9935L287.849 78.2499C287.621 78.6012 287.382 78.9526 287.144 79.3134C286.677 80.035 286.21 80.7661 285.734 81.4973C284.819 82.9785 283.913 84.4693 283.141 85.9125C282.751 86.6342 282.388 87.3368 282.083 88.03C281.921 88.3623 281.788 88.7231 281.654 89.0554C281.55 89.3878 281.426 89.7201 281.369 90.0429C281.073 91.3343 281.121 92.4642 281.235 93.2143C281.35 93.974 281.55 94.3728 281.55 94.3728C281.55 94.3728 281.416 93.955 281.369 93.2048C281.359 93.0434 281.359 92.863 281.359 92.6826C281.426 93.6131 281.578 94.3253 281.578 94.3253C281.578 94.3253 283.16 90.6981 285.629 88.0869C288.097 85.4758 294.816 82.5417 294.816 82.5417C294.788 82.5322 294.74 82.5228 294.692 82.5133C294.826 82.5133 294.959 82.5133 295.102 82.5133C296.608 82.4943 298.238 82.5133 299.953 82.6747C301.669 82.8266 303.47 83.0925 305.3 83.4723C306.215 83.6622 307.149 83.8901 308.073 84.1464C308.521 84.2889 309.026 84.3933 309.436 84.5927C309.665 84.7066 309.874 84.8491 310.065 85.02C309.979 85.5422 309.503 87.6217 306.91 89.3688C306.091 89.9195 303.508 90.8785 300.191 91.9895C300.163 91.5907 300.125 91.2014 300.086 90.85C299.991 89.7961 299.877 88.97 299.801 88.4098C299.724 87.8496 299.686 87.5457 299.686 87.5457C299.686 87.5457 299.724 87.8496 299.791 88.4098C299.858 88.97 299.953 89.7961 300.039 90.85C300.077 91.2109 300.096 91.6002 300.125 92.0085C292.805 94.4487 281.95 97.5916 278.433 98.5981L278.424 98.6076ZM275.279 114.541C277.347 107.951 277.48 101.19 275.65 95.5027C275.26 94.2778 274.783 93.1384 274.23 92.0844L274.726 91.1539C275.231 92.2553 275.669 93.4422 276.022 94.7051C276.584 96.6706 276.918 98.8165 277.08 101.048C277.232 103.279 277.137 105.596 276.851 107.922C276.537 110.258 276.022 112.575 275.307 114.863C275.231 115.101 275.145 115.329 275.069 115.566L274.993 115.405C275.088 115.12 275.183 114.835 275.279 114.55V114.541ZM255.265 133.683L256.342 130.844C259.334 130.73 262.412 129.543 265.31 127.35C269.465 124.188 272.743 119.298 274.535 113.582C276.851 106.213 276.222 98.8735 273.382 93.7176C273.544 93.4137 273.706 93.1194 273.859 92.8155C274.297 93.7176 274.688 94.6861 275.021 95.7116C276.803 101.276 276.67 107.894 274.65 114.351C272.62 120.807 268.95 126.324 264.299 129.885C261.374 132.126 258.286 133.417 255.274 133.702L255.265 133.683ZM251.338 144.09L252.072 142.162C252.12 142.305 252.186 142.523 252.282 142.817C252.463 143.34 252.701 144.099 253.034 144.982C253.368 145.875 253.73 146.919 254.159 148.021C254.378 148.571 254.597 149.141 254.826 149.72C254.941 150.005 255.055 150.299 255.179 150.594L255.35 151.031C255.35 151.031 255.398 151.183 255.398 151.211C255.398 151.258 255.408 151.296 255.398 151.372C255.398 151.895 255.15 152.474 254.75 152.654C254.359 152.854 253.787 152.635 253.32 152.35C253.073 152.218 252.882 152.028 252.691 151.857C252.501 151.667 252.329 151.458 252.167 151.249C252.148 151.23 252.139 151.202 252.12 151.183C252.12 151.154 252.12 151.126 252.11 151.107C252.205 151.221 252.291 151.325 252.386 151.41C253.378 152.369 253.501 152.123 254.188 151.999C254.874 151.876 254.807 150.917 254.807 150.917L251.348 144.09H251.338ZM252.091 151.088C252.091 151.107 252.091 151.135 252.1 151.154C251.805 150.755 251.557 150.356 251.338 149.977C250.871 149.16 250.49 148.467 250.252 147.973C250.166 147.793 250.09 147.66 250.032 147.536L250.051 147.489C250.309 148.04 251.271 150.053 252.091 151.069V151.088ZM255.779 150.347C255.655 150.053 255.541 149.768 255.417 149.483C255.255 149.103 255.093 148.733 254.941 148.362C255.226 148.514 255.579 148.799 255.875 149.246C256.037 149.483 256.17 149.758 256.284 150.062C256.399 150.347 256.504 150.717 256.542 151.05C256.58 151.296 256.57 151.553 256.542 151.809L256.017 151.6C256.017 151.524 256.046 151.458 256.046 151.382C256.046 151.296 256.046 151.183 256.017 151.069C255.989 150.945 255.989 150.936 255.941 150.793L255.76 150.356L255.779 150.347ZM248.307 150.784C248.307 150.784 248.307 150.736 248.298 150.717C248.222 150.385 248.155 149.882 248.117 149.246C248.069 148.609 248.117 147.831 248.25 146.957C248.365 146.321 248.555 145.618 248.879 144.925C249.117 145.628 249.356 146.321 249.623 147.014L248.307 150.784ZM250.48 142.779C250.728 142.561 251.004 142.371 251.3 142.2L250.833 143.548L250.48 142.779ZM251.738 159.928C251.862 160.013 251.986 160.089 252.12 160.165C255.322 161.988 258.8 162.634 261.755 160.165C264.7 157.687 265.481 154.43 265.977 151.743C266.472 149.046 265.405 142.95 262.327 139.646C261.64 138.905 260.983 138.336 260.373 137.87C261.679 138.81 263.127 140.292 264.299 142.333C265.033 143.615 265.643 145.087 266.053 146.739C266.444 148.362 266.644 150.148 266.539 151.971C266.444 153.794 265.977 155.664 265.119 157.364C264.928 157.801 264.633 158.18 264.395 158.598C264.09 158.969 263.842 159.377 263.489 159.709C262.86 160.431 262.06 160.991 261.231 161.437L260.602 161.741C260.373 161.827 260.135 161.893 259.896 161.979L259.563 162.083L259.21 162.149C258.972 162.187 258.743 162.244 258.505 162.263C257.552 162.349 256.599 162.263 255.684 162.036C254.226 161.627 252.882 160.887 251.748 159.947L251.738 159.928ZM248.784 150.86C248.831 150.974 250.042 154.117 250.957 155.18C251.891 156.262 252.882 156.756 253.845 157.155C254.807 157.554 256.856 157.184 258.038 156.224C259.858 154.734 260.363 152.237 260.182 149.996C260.154 149.606 260.116 149.227 260.039 148.847C259.954 148.457 259.83 148.078 259.706 147.707C259.649 147.546 259.601 147.375 259.544 147.204C259.382 146.682 259.22 146.141 258.915 145.694C258.858 145.609 258.076 144.84 258.086 144.802C258.086 144.802 256.761 148.173 256.446 148.97C256.418 148.932 256.399 148.894 256.37 148.856C255.951 148.324 255.446 148.011 255.074 147.869C254.912 147.802 254.779 147.774 254.674 147.755C254.216 146.682 253.749 145.685 253.368 144.83C252.977 143.966 252.625 143.254 252.386 142.76C252.234 142.456 252.129 142.248 252.072 142.115L252.148 141.915H252.158V141.896L252.196 141.792C253.254 141.45 254.454 141.497 255.551 141.934C256.78 142.428 257.866 143.33 258.705 144.441C259.124 144.992 259.496 145.599 259.782 146.245C260.097 146.881 260.287 147.536 260.487 148.258C260.811 149.606 260.926 151.069 260.687 152.436C260.459 153.803 259.925 155.114 259.067 156.12C258.648 156.633 258.114 157.022 257.571 157.326C257.428 157.392 257.295 157.468 257.152 157.525L256.694 157.687C256.408 157.763 256.094 157.839 255.798 157.858C254.569 157.981 253.406 157.592 252.472 157.051C252.12 156.851 251.815 156.614 251.519 156.376C250.28 155.265 249.47 153.927 249.003 152.949C248.784 152.445 248.631 152.028 248.546 151.733C248.527 151.686 248.517 151.638 248.507 151.6L248.784 150.869V150.86ZM248.46 143.586C248.584 143.976 248.698 144.374 248.831 144.764C248.498 145.514 248.298 146.255 248.183 146.938C248.05 147.821 248.021 148.6 248.088 149.246C248.136 149.882 248.212 150.385 248.288 150.717C248.288 150.746 248.298 150.774 248.307 150.803L247.326 153.632C246.897 152.54 246.592 151.458 246.401 150.413C246.401 150.366 246.392 150.309 246.382 150.262C246.335 149.132 246.306 147.033 246.687 145.875C247.154 144.469 248.183 143.757 248.46 143.586ZM243.085 136.066L244.2 134.566C244.419 134.699 244.629 134.832 244.838 134.946C245.763 135.468 246.535 135.772 247.068 135.962C247.602 136.142 247.888 136.228 247.888 136.228C247.888 136.228 247.602 136.123 247.078 135.924C246.554 135.715 245.801 135.364 244.905 134.822C244.705 134.708 244.505 134.566 244.295 134.433L246.182 131.898C246.773 132.316 247.383 132.686 248.021 133.009C248.65 133.322 249.318 133.588 249.994 133.797C251.3 134.205 252.653 134.395 254.016 134.395L253.196 136.74C252.453 136.797 251.757 136.807 251.147 136.769C250.099 136.702 249.279 136.56 248.727 136.436C248.174 136.304 247.888 136.228 247.888 136.228C247.888 136.228 248.174 136.313 248.717 136.474C249.26 136.617 250.08 136.807 251.138 136.902C251.729 136.959 252.396 136.978 253.12 136.94L251.729 140.928L250.118 137.32L251.595 141.317L251.433 141.782C250.385 142.343 249.651 143.207 249.156 144.09C249.089 144.204 249.041 144.318 248.984 144.431C248.65 143.501 248.336 142.561 248.05 141.621C247.621 140.624 247.097 139.665 246.458 138.791C246.134 138.355 245.791 137.937 245.372 137.585C245.21 137.443 245.038 137.31 244.867 137.196C244.609 136.997 244.371 136.854 244.143 136.731C244.352 136.807 244.543 136.873 244.705 136.93C245.286 137.111 245.601 137.206 245.601 137.206C245.601 137.206 245.296 137.092 244.733 136.864C244.314 136.693 243.752 136.427 243.075 136.066H243.085ZM243.38 128.204C243.17 127.91 242.961 127.606 242.751 127.302C241.827 125.878 241.064 124.254 240.473 122.441C238.691 116.876 238.824 110.258 240.845 103.801C242.875 97.3447 246.544 91.828 251.195 88.2768C255.808 84.7446 260.821 83.5767 265.31 84.9725C265.329 84.9725 265.338 84.982 265.357 84.9915L264.938 86.957C256.599 85.039 247.154 92.4357 243.552 103.925C240.521 113.591 242.541 123.219 247.993 127.91L245.915 130.863C244.981 130.113 244.133 129.22 243.38 128.204ZM209.871 121.966C210.805 121.7 214.341 120.826 217.467 121.966C221.098 123.295 222.318 126.913 222.318 126.913L237.462 132.297C237.929 132.771 238.396 133.218 238.863 133.616C239.425 134.091 239.978 134.499 240.502 134.86L221.403 127.786C220.564 126.495 217.124 122.051 209.871 121.975V121.966ZM215.618 101.171C215.989 99.7755 216.418 98.3702 216.876 96.9175C217.333 95.4837 217.829 94.0309 218.372 92.5972C218.896 91.1539 219.459 89.7296 220.059 88.3433C220.65 86.957 221.25 85.5992 221.879 84.2983C222.518 83.007 223.128 81.7536 223.757 80.5952C224.062 80.0065 224.376 79.4463 224.681 78.9051C224.977 78.3544 225.282 77.8416 225.568 77.3384C225.853 76.8351 226.139 76.3699 226.416 75.9141C226.683 75.4583 226.94 75.031 227.197 74.6322C227.683 73.8536 228.122 73.1795 228.493 72.6287C232.287 73.1035 236.537 73.6447 240.797 74.186C242.398 74.3854 244 74.5943 245.582 74.7937C247.659 75.3159 251.491 76.3129 252.501 76.8161C253.663 77.3953 255.427 78.8671 256.008 79.3608C255.96 79.3608 255.922 79.3608 255.884 79.3608C254.292 79.5223 252.501 79.8831 250.661 80.6047C248.822 81.3169 246.897 82.2949 245.057 83.6147C243.209 84.925 241.407 86.5202 239.787 88.3813C238.148 90.2328 236.68 92.3218 235.422 94.5911C234.164 96.8605 233.144 99.2913 232.334 101.789C231.572 104.276 231.019 106.897 230.762 109.451C230.495 112.024 230.514 114.588 230.8 117.028C231.067 119.478 231.639 121.814 232.401 123.931C233.154 126.068 234.174 127.967 235.289 129.59C235.698 130.198 236.137 130.758 236.585 131.281C233.659 128.451 227.607 120 231.848 101.019L223.299 98.7216C222.785 100.003 222.213 101.646 221.746 103.583C220.535 108.54 219.649 112.537 219.649 112.537C219.649 112.537 220.23 109.204 220.917 105.795C221.031 105.273 221.174 104.685 221.336 104.02C221.898 101.732 222.756 98.7121 223.824 95.759C224.348 94.2778 224.919 92.8155 225.501 91.4672C226.082 90.1189 226.645 88.8655 227.159 87.8021C228.179 85.6846 228.951 84.3078 228.951 84.3078C228.951 84.3078 228.751 84.6402 228.389 85.2384C228.036 85.8366 227.54 86.6816 226.988 87.7261C226.444 88.7706 225.825 90.005 225.234 91.3628C224.643 92.7111 224.052 94.1734 223.509 95.6546C223.175 96.6136 222.861 97.5726 222.565 98.5222L217.657 97.2118C216.79 99.8325 215.618 103.688 214.674 107.856C212.959 115.414 212.902 117.446 212.902 117.446C212.902 117.446 212.892 116.022 212.997 113.933C213.178 112.623 213.473 110.875 213.864 108.824C214.303 106.555 214.884 103.934 215.646 101.162L215.618 101.171ZM177.315 106.403C174.398 105.587 171.663 104.903 169.309 104.362C164.992 103.355 161.961 102.795 161.485 102.71C158.34 101.038 155.175 99.4337 151.973 97.886L147.103 95.5502C146.303 95.1514 145.502 94.7811 144.72 94.3538C143.939 93.9265 143.157 93.4992 142.395 93.0339C141.623 92.5877 140.87 92.1129 140.108 91.6381C139.345 91.1729 138.602 90.6696 137.849 90.1854C136.353 89.1884 134.885 88.1724 133.417 87.1374C131.95 86.1119 130.501 85.0485 129.052 83.9755C127.747 82.9975 126.441 82.01 125.145 81.0035C126.794 80.7946 128.442 80.5857 130.091 80.3578C130.958 80.2439 131.826 80.1205 132.693 79.997L127.527 80.8136C138.24 89.5302 152.088 99.4147 166.116 100.573C172.816 101.124 179.516 101.675 186.216 102.225C186.512 102.254 186.817 102.273 187.112 102.263L197.253 103.716L189.552 100.972C189.609 100.915 189.666 100.858 189.723 100.792C195.689 94.4297 202.609 86.5487 210.147 81.9056C210.185 81.991 210.243 82.0765 210.347 82.1904C210.347 82.1999 210.366 82.2094 210.366 82.2189C210.262 82.3803 209.909 82.9026 209.404 83.7381C208.794 84.7636 207.955 86.2449 207.107 88.1059C206.678 89.0365 206.24 90.0524 205.811 91.1444C205.392 92.2268 204.953 93.4137 204.6 94.6386C204.505 94.9425 204.41 95.2463 204.315 95.5597C204.229 95.873 204.153 96.1958 204.067 96.5187C203.905 97.1643 203.733 97.8195 203.628 98.4842C203.505 99.1488 203.362 99.8135 203.285 100.497C203.2 101.181 203.085 101.855 203.057 102.548C203.009 103.232 202.942 103.925 202.942 104.609C202.933 105.292 202.904 105.985 202.942 106.66C202.971 107.343 202.99 108.017 203.066 108.682C203.133 109.347 203.19 110.002 203.304 110.648C203.409 111.293 203.495 111.929 203.647 112.537C203.781 113.154 203.905 113.752 204.086 114.322C204.391 115.481 204.782 116.554 205.163 117.532C205.372 118.016 205.573 118.481 205.763 118.918C205.925 119.231 206.078 119.526 206.221 119.82C205.849 119.497 205.439 119.155 204.982 118.794C204.219 118.187 203.323 117.532 202.313 116.857C201.713 116.449 201.065 116.041 200.388 115.623C199.473 115.034 198.396 114.417 197.167 113.8C197.081 113.752 196.995 113.714 196.919 113.667C196.871 113.639 196.824 113.62 196.776 113.601C196.242 113.325 195.699 113.05 195.137 112.774C193.774 112.129 192.335 111.483 190.867 110.904C189.39 110.315 187.884 109.745 186.359 109.223C185.597 108.948 184.834 108.692 184.072 108.445C183.309 108.198 182.547 107.941 181.785 107.714C180.269 107.239 178.763 106.811 177.315 106.394V106.403ZM117.158 83.1399C117.501 82.5797 118.026 82.1429 118.616 81.8201C118.74 81.8106 118.855 81.7916 118.979 81.7821C120.999 81.5257 123.039 81.2694 125.088 81.013C127.651 83.3108 130.329 85.4947 133.036 87.6217C134.447 88.7421 135.905 89.7961 137.363 90.8595C138.106 91.3723 138.831 91.904 139.584 92.4072C140.336 92.9105 141.089 93.4137 141.861 93.8885C142.624 94.3822 143.405 94.838 144.196 95.2843C144.978 95.7401 145.797 96.1579 146.598 96.5661L151.42 98.9684C154.556 100.564 157.701 102.168 160.789 103.83L163.467 109.28L164.858 112.091L165.03 112.442L165.163 112.765L165.306 113.126L165.373 113.42C165.44 113.61 165.421 113.809 165.44 114.009C165.411 114.189 165.392 114.379 165.306 114.541C165.039 115.196 164.153 115.642 163.238 115.832C163.124 115.86 163.009 115.879 162.895 115.889L162.504 115.936L161.723 116.041L160.16 116.25L153.908 117.095C149.743 117.664 145.578 118.253 141.423 118.861L135.19 119.801C134.971 119.829 134.752 119.867 134.532 119.905L129.748 120.485C129.586 120.114 129.424 119.744 129.272 119.374C128.366 117.228 127.547 115.025 126.708 112.841C125.879 110.648 125.088 108.445 124.287 106.232L119.531 92.9675L118.321 89.6536C117.93 88.5522 117.482 87.4413 117.073 86.3588C116.987 86.0929 116.872 85.8271 116.834 85.5517L116.758 85.1339C116.739 84.9915 116.748 84.8586 116.739 84.7161C116.729 84.1654 116.853 83.5957 117.149 83.1209L117.158 83.1399Z" fill="#E5053D"/>
<path d="M115.967 122.678L115.757 122.593L115.729 122.574C115.805 122.612 115.891 122.64 115.967 122.678Z" fill="#E5053D"/>
<path d="M269.027 101.637L269.455 100.811L269.046 101.656C269.046 101.656 269.036 101.646 269.027 101.637Z" fill="#E5053D"/>
<path d="M254.197 116.288C254.312 116.534 254.426 116.762 254.54 116.981C254.426 116.781 254.312 116.553 254.197 116.297V116.288Z" fill="#E5053D"/>
<path d="M248.469 151.619C248.469 151.619 248.488 151.695 248.507 151.752C248.546 151.914 248.612 152.113 248.689 152.341C248.546 151.999 248.469 151.771 248.45 151.686L248.469 151.629V151.619Z" fill="#E5053D"/>
<path d="M293.186 103.735C293.11 104.931 292.996 106.65 292.71 108.682C292.424 110.723 292.005 113.088 291.376 115.595C291.061 116.838 290.708 118.13 290.308 119.421C289.898 120.712 289.47 122.013 288.983 123.305C288.497 124.596 287.973 125.859 287.42 127.093C286.868 128.328 286.286 129.533 285.695 130.673C285.105 131.812 284.495 132.904 283.885 133.92C283.284 134.936 282.684 135.876 282.102 136.731C281.54 137.595 280.978 138.355 280.482 139.029C279.987 139.703 279.529 140.273 279.158 140.747C278.786 141.222 278.471 141.573 278.271 141.82C278.062 142.067 277.957 142.2 277.957 142.2C277.957 142.2 278.062 142.067 278.262 141.811C278.452 141.554 278.757 141.194 279.119 140.709C279.482 140.225 279.92 139.646 280.396 138.962C280.873 138.279 281.407 137.5 281.959 136.636C284.199 133.189 286.782 128.328 288.678 123.191C289.165 121.909 289.603 120.617 290.013 119.336C290.423 118.044 290.775 116.772 291.099 115.528C291.738 113.04 292.214 110.695 292.529 108.663C292.843 106.631 293.034 104.931 293.139 103.735C293.244 102.539 293.282 101.855 293.282 101.855C293.282 101.855 293.272 102.539 293.196 103.735H293.186Z" fill="#E5053D"/>
<path d="M249.756 167.153C250.414 167.096 251.176 166.992 251.996 166.869C252.815 166.755 253.683 166.584 254.54 166.403C255.398 166.223 256.256 166.014 257.056 165.796C257.847 165.568 258.591 165.368 259.22 165.15C259.849 164.941 260.373 164.78 260.735 164.647C261.097 164.523 261.307 164.447 261.307 164.447C261.307 164.447 261.107 164.542 260.754 164.704C260.402 164.865 259.896 165.093 259.277 165.321C258.038 165.815 256.342 166.346 254.607 166.726C253.74 166.897 252.863 167.049 252.034 167.153C251.205 167.258 250.433 167.305 249.766 167.334C248.431 167.381 247.554 167.315 247.554 167.315C247.554 167.315 247.774 167.296 248.164 167.277C248.555 167.258 249.098 167.21 249.756 167.144V167.153Z" fill="#E5053D"/>
<path d="M210.843 145.856C210.319 145.875 209.976 145.913 209.976 145.913C209.976 145.913 210.319 145.96 210.824 146.064C210.91 146.083 211.015 146.102 211.11 146.131L210.443 149.825C209.995 149.606 209.547 149.407 209.089 149.245C206.84 148.448 204.343 148.581 202.418 149.521C201.608 149.872 200.941 150.366 200.331 150.898C198.005 152.797 196.576 155.987 196.423 159.652C196.404 159.908 196.376 160.155 196.376 160.402C196.376 160.725 196.366 161.029 196.357 161.323C196.376 161.618 196.385 161.893 196.404 162.159C196.414 162.691 196.5 163.156 196.557 163.564C196.604 163.972 196.681 164.314 196.738 164.59C196.852 165.14 196.919 165.444 196.919 165.444C196.919 165.444 196.862 165.15 196.747 164.59C196.69 164.314 196.614 163.972 196.576 163.564C196.528 163.156 196.452 162.691 196.442 162.159C196.414 161.77 196.404 161.333 196.414 160.886C196.452 162.13 196.633 163.412 196.976 164.713C197.357 166.175 197.92 167.533 198.606 168.768C198.005 167.619 197.51 166.365 197.157 165.007C196.385 162.073 196.395 159.215 197.043 156.832C197.043 156.813 197.052 156.785 197.062 156.766C197.091 156.671 197.119 156.585 197.148 156.5C197.443 155.598 197.843 154.677 198.406 153.794C198.463 153.699 198.53 153.604 198.587 153.509C199.559 152.179 200.836 151.239 202.38 150.879C205.22 150.223 208.26 151.676 210.605 154.439C210.357 154.173 210.09 153.917 209.823 153.68C209.051 153.043 208.213 152.493 207.307 152.094C206.392 151.724 205.43 151.505 204.467 151.515C203.505 151.496 202.59 151.781 201.808 152.17C200.159 152.996 199.178 154.43 198.539 155.778C197.929 157.155 197.634 158.513 197.519 159.709C197.424 160.915 197.434 161.969 197.519 162.833C197.605 163.697 197.71 164.371 197.824 164.818C197.92 165.273 197.977 165.511 197.977 165.511C197.977 165.511 197.929 165.264 197.834 164.818C197.729 164.362 197.634 163.688 197.558 162.833C197.481 161.969 197.481 160.915 197.634 159.728C197.805 158.541 198.12 157.202 198.816 155.911C199.502 154.648 200.569 153.347 202.046 152.721C202.799 152.407 203.619 152.208 204.458 152.274C205.296 152.322 206.125 152.559 206.916 152.939C208.479 153.746 209.804 155.075 210.843 156.614C211.339 157.402 211.815 158.218 212.177 159.092C212.377 159.519 212.53 159.965 212.682 160.402C212.844 160.839 212.949 161.342 213.092 161.808C213.54 163.612 213.693 165.558 213.521 167.41C213.426 168.34 213.226 169.242 212.949 170.106C212.654 170.961 212.263 171.768 211.767 172.49C211.253 173.192 210.614 173.79 209.909 174.218L209.375 174.503L208.756 174.73C208.594 174.806 208.365 174.816 208.174 174.863L207.879 174.92L207.574 174.939C205.944 175.082 204.41 174.417 203.209 173.62C201.989 172.793 201.084 171.758 200.379 170.79C199.692 169.802 199.197 168.872 198.863 168.074C198.53 167.277 198.301 166.641 198.177 166.185C198.044 165.739 197.977 165.501 197.977 165.501C197.977 165.501 198.044 165.739 198.167 166.185C198.282 166.631 198.501 167.277 198.825 168.084C199.149 168.891 199.635 169.821 200.283 170.847C200.95 171.853 201.837 172.917 203.028 173.857C204.095 174.664 205.458 175.395 207.04 175.519C208.184 175.746 209.337 175.746 210.481 175.481C213.092 174.873 215.122 173.021 216.352 170.477C215.904 171.588 215.313 172.613 214.56 173.506C213.883 174.351 212.997 175.006 212.101 175.5C211.872 175.614 211.663 175.737 211.415 175.841C211.158 175.927 210.9 176.022 210.652 176.107C210.443 176.193 210.166 176.221 209.919 176.278C209.671 176.335 209.423 176.383 209.166 176.392C208.165 176.525 207.174 176.364 206.24 176.155C205.782 176.012 205.325 175.898 204.906 175.69C204.696 175.595 204.477 175.509 204.277 175.414C204.076 175.3 203.876 175.196 203.686 175.082C202.123 174.189 200.922 172.983 200.016 171.834C199.121 170.676 198.453 169.556 198.044 168.578C197.805 168.103 197.653 167.657 197.51 167.267C197.357 166.887 197.253 166.546 197.176 166.28C197.014 165.739 196.929 165.444 196.929 165.444C196.929 165.444 197.014 165.739 197.167 166.28C197.243 166.555 197.338 166.887 197.491 167.277C197.634 167.657 197.777 168.112 198.015 168.587C198.129 168.824 198.244 169.081 198.368 169.347C198.511 169.603 198.663 169.869 198.816 170.154C198.968 170.439 199.14 170.724 199.33 171.008C199.521 171.293 199.702 171.607 199.94 171.891C200.817 173.088 201.999 174.313 203.543 175.319C203.743 175.443 203.933 175.566 204.134 175.69C204.343 175.803 204.553 175.898 204.772 176.012C205.191 176.25 205.668 176.392 206.135 176.563C207.098 176.829 208.136 177.057 209.223 176.971C209.499 176.971 209.766 176.933 210.033 176.895C210.309 176.838 210.567 176.838 210.862 176.743C211.119 176.668 211.377 176.592 211.634 176.516C211.891 176.43 212.168 176.297 212.435 176.183C213.473 175.68 214.455 175.015 215.256 174.123C216.056 173.249 216.771 172.252 217.286 171.141C217.791 170.04 218.201 168.862 218.41 167.638C218.553 167.03 218.591 166.413 218.668 165.796C218.687 165.178 218.734 164.552 218.687 163.925C218.668 162.672 218.439 161.437 218.181 160.212C217.981 159.576 217.867 159.044 217.629 158.437L217.286 157.544C217.162 157.25 217.019 156.974 216.895 156.69C216.647 156.11 216.314 155.588 216.009 155.037C215.847 154.772 215.656 154.525 215.484 154.268C215.313 154.012 215.132 153.756 214.922 153.528C214.703 153.243 214.474 152.977 214.236 152.721L214.731 147.261C215.046 147.375 215.256 147.46 215.256 147.46L215.599 146.169C215.599 146.169 215.58 146.169 215.551 146.169L216.085 143.415C216.132 143.548 216.18 143.681 216.228 143.814C216.542 144.792 216.962 145.818 217.429 146.9C217.638 147.451 217.924 147.983 218.191 148.543C218.467 149.103 218.725 149.673 219.058 150.223C219.382 150.784 219.706 151.353 220.03 151.923C220.393 152.474 220.764 153.043 221.136 153.604C221.508 154.173 221.946 154.696 222.356 155.246C222.756 155.807 223.214 156.319 223.671 156.842C224.129 157.364 224.586 157.877 225.082 158.351C225.577 158.826 226.035 159.339 226.568 159.766C227.083 160.212 227.588 160.659 228.122 161.067C228.665 161.456 229.199 161.846 229.723 162.225C230.809 162.928 231.867 163.602 232.944 164.105C233.983 164.675 235.05 165.055 236.004 165.444C236.976 165.786 237.891 166.042 238.691 166.27C239.501 166.479 240.216 166.603 240.807 166.707C241.398 166.802 241.865 166.849 242.179 166.887C242.494 166.916 242.665 166.935 242.665 166.935C242.665 166.935 241.998 166.783 240.864 166.451C240.292 166.28 239.606 166.061 238.834 165.786C238.072 165.482 237.214 165.131 236.289 164.742C235.394 164.286 234.393 163.849 233.421 163.241C232.411 162.7 231.429 161.978 230.4 161.276C229.904 160.896 229.408 160.497 228.903 160.108C228.417 159.69 227.941 159.244 227.445 158.817C226.94 158.399 226.511 157.896 226.035 157.44C225.558 156.984 225.12 156.481 224.691 155.968C224.243 155.474 223.804 154.98 223.404 154.439C223.004 153.908 222.566 153.404 222.203 152.863C221.832 152.322 221.46 151.79 221.088 151.258C220.745 150.708 220.412 150.166 220.088 149.635C219.745 149.112 219.478 148.552 219.173 148.03C218.887 147.498 218.572 146.995 218.334 146.463C217.829 145.428 217.333 144.45 216.943 143.52C216.742 143.055 216.542 142.618 216.361 142.19C216.361 142.171 216.342 142.143 216.333 142.124L217.162 137.832C217.019 137.728 216.809 137.595 216.561 137.443C216.066 137.139 215.38 136.769 214.646 136.465L214.493 137.234C214.493 137.234 214.493 137.234 214.493 137.243L212.816 145.903H212.797C212.082 145.865 211.386 145.856 210.862 145.875L210.843 145.856ZM215.904 143.634L215.513 146.14C215.513 146.14 215.484 146.14 215.475 146.14L215.913 143.634H215.904ZM211.129 146.131C211.586 146.235 212.12 146.378 212.654 146.539C213.016 146.644 213.369 146.767 213.693 146.872L212.692 151.268C212.559 151.154 212.416 151.04 212.282 150.926C211.882 150.622 211.453 150.356 211.024 150.109L211.138 146.121L211.129 146.131Z" fill="#E5053D"/>
<path d="M198.644 160.383C198.711 159.377 198.911 158.237 199.349 157.051C199.587 156.471 199.873 155.864 200.302 155.313C200.712 154.753 201.236 154.24 201.941 153.87C202.599 153.518 203.381 153.281 204.2 153.309C205.01 153.328 205.83 153.547 206.583 153.908C207.345 154.259 208.012 154.772 208.641 155.332C209.27 155.902 209.785 156.576 210.29 157.269C210.757 157.981 211.196 158.731 211.51 159.529C211.691 159.918 211.834 160.336 211.977 160.744C212.12 161.152 212.215 161.542 212.339 161.941C212.74 163.659 212.892 165.368 212.711 167.068C212.511 168.758 211.996 170.42 211.005 171.768C210.5 172.433 209.89 173.002 209.175 173.401L208.603 173.667L208.07 173.819C207.85 173.895 207.669 173.886 207.479 173.924C207.288 173.961 207.097 173.961 206.907 173.952C206.144 173.952 205.42 173.743 204.801 173.439C204.162 173.154 203.628 172.746 203.142 172.347C202.199 171.502 201.494 170.591 200.96 169.727C200.445 168.853 200.064 168.055 199.797 167.391C199.54 166.717 199.359 166.175 199.263 165.796C199.159 165.425 199.111 165.226 199.111 165.226C199.111 165.226 199.168 165.425 199.273 165.796C199.368 166.166 199.559 166.707 199.826 167.381C200.102 168.046 200.483 168.844 201.046 169.679C201.617 170.505 202.342 171.398 203.323 172.129C203.819 172.48 204.362 172.822 204.972 173.04C205.573 173.278 206.23 173.411 206.897 173.363C207.059 173.363 207.231 173.354 207.393 173.306C207.545 173.268 207.746 173.249 207.86 173.192L208.375 173.002L208.794 172.756C209.356 172.385 209.852 171.854 210.233 171.255C211.005 170.03 211.358 168.511 211.491 166.973C211.567 165.435 211.434 163.811 211.053 162.32C210.938 161.931 210.843 161.504 210.719 161.143C210.586 160.782 210.481 160.412 210.309 160.051C210.023 159.32 209.642 158.636 209.251 157.962C208.422 156.661 207.393 155.484 206.144 154.753C205.515 154.401 204.848 154.164 204.162 154.088C203.485 154.012 202.799 154.164 202.189 154.43C201.894 154.544 201.627 154.743 201.351 154.924C201.112 155.142 200.845 155.341 200.645 155.598C200.207 156.073 199.892 156.633 199.616 157.174C199.092 158.275 198.863 159.405 198.749 160.393C198.644 161.39 198.673 162.273 198.739 162.995C198.815 163.716 198.901 164.276 198.987 164.656C199.063 165.036 199.111 165.235 199.111 165.235C199.111 165.235 199.063 165.036 198.978 164.656C198.882 164.276 198.787 163.716 198.711 163.004C198.634 162.282 198.596 161.409 198.644 160.393V160.383Z" fill="#E5053D"/>
<path d="M204.562 160.925C205.058 161.124 205.468 161.475 205.773 161.893C205.925 162.102 206.059 162.32 206.164 162.558C206.221 162.672 206.268 162.805 206.316 162.928C206.364 163.061 206.383 163.147 206.421 163.261C206.545 163.802 206.573 164.295 206.497 164.808C206.411 165.321 206.221 165.815 205.878 166.223C205.706 166.432 205.487 166.593 205.239 166.707L205.029 166.783L204.877 166.812C204.715 166.84 204.61 166.84 204.486 166.821C204 166.764 203.657 166.498 203.409 166.251C202.923 165.729 202.713 165.207 202.571 164.837C202.437 164.466 202.389 164.248 202.389 164.248C202.389 164.248 202.437 164.466 202.59 164.827C202.742 165.169 203.038 165.682 203.59 166.024C203.857 166.185 204.191 166.299 204.477 166.223C204.543 166.223 204.629 166.176 204.658 166.157L204.791 166.09C204.791 166.09 204.829 166.052 204.848 166.033C204.944 165.938 205.02 165.815 205.087 165.672C205.22 165.387 205.258 165.036 205.258 164.675C205.258 164.324 205.201 163.925 205.115 163.593C205.087 163.488 205.058 163.365 205.029 163.289L204.944 163.042C204.886 162.862 204.801 162.7 204.724 162.539C204.553 162.226 204.353 161.931 204.105 161.741C203.857 161.561 203.6 161.447 203.295 161.542C203.028 161.599 202.771 161.865 202.609 162.121C202.285 162.672 202.256 163.261 202.285 163.64C202.313 164.03 202.38 164.239 202.38 164.239C202.38 164.239 202.323 164.02 202.266 163.64C202.218 163.251 202.161 162.691 202.351 161.998C202.466 161.665 202.628 161.276 203.057 160.991C203.428 160.716 204.076 160.678 204.562 160.887V160.925Z" fill="#E5053D"/>
<path d="M310.113 14.7935L341.458 20.6805L341.268 21.611L310.113 14.7935Z" fill="#E5053D"/>
<path d="M285.867 13.4736L329.545 22.4181L329.45 22.8834L285.867 13.4736Z" fill="#E5053D"/>
<path d="M73.299 3.26611L116.987 12.2106L116.891 12.6759L73.299 3.26611Z" fill="#E5053D"/>
<path d="M2.46838 71.8408L46.1466 80.7853L46.0513 81.2506L2.46838 71.8408Z" fill="#E5053D"/>
<path d="M0 71.4512L43.6878 80.3956L43.5829 80.8609L0 71.4512Z" fill="#E5053D"/>
<path d="M45.4319 124.872L89.1101 133.816L89.0148 134.281L45.4319 124.872Z" fill="#E5053D"/>
<path d="M64.1497 122.241L86.0507 126.609L85.9554 127.074L64.1497 122.241Z" fill="#E5053D"/>
<path d="M91.4069 9.78955L113.308 14.1478L113.203 14.6131L91.4069 9.78955Z" fill="#E5053D"/>
<path d="M208.174 0C208.174 0 213.292 1.22488 220.955 3.06695C228.617 4.95649 238.824 7.47272 249.041 9.98895C259.239 12.5811 269.427 15.1733 277.07 17.1198C284.704 19.1138 289.794 20.4337 289.794 20.4337C289.794 20.4337 284.676 19.2088 277.013 17.3667C269.351 15.4772 259.143 12.9609 248.927 10.4447C238.729 7.85253 228.541 5.26034 220.898 3.31382C213.264 1.31983 208.174 0 208.174 0Z" fill="#E5053D"/>
<path d="M218.267 23.3867C218.267 23.3867 221.479 24.1368 226.292 25.2573C228.694 25.8365 231.496 26.5106 234.498 27.2418C237.5 27.9824 240.692 28.7705 243.895 29.5586C247.087 30.3657 250.28 31.1823 253.273 31.9419C256.265 32.7205 259.058 33.4421 261.45 34.0593C266.225 35.3412 269.408 36.1862 269.408 36.1862C269.408 36.1862 266.196 35.4361 261.383 34.3157C258.981 33.7365 256.179 33.0623 253.177 32.3312C250.175 31.5906 246.983 30.8025 243.78 30.0144C240.588 29.2073 237.395 28.3907 234.402 27.6311C231.41 26.8525 228.617 26.1308 226.225 25.5136C221.45 24.2318 218.267 23.3867 218.267 23.3867Z" fill="#E5053D"/>
<path d="M184.205 18.9429C184.205 18.9429 187.417 19.693 192.23 20.8134C194.632 21.3926 197.434 22.0668 200.436 22.7979C203.438 23.5385 206.631 24.3266 209.833 25.1148C213.026 25.9218 216.218 26.7384 219.211 27.498C222.203 28.2766 224.996 28.9983 227.388 29.6155C232.163 30.8973 235.346 31.7424 235.346 31.7424C235.346 31.7424 232.134 30.9923 227.321 29.8718C224.92 29.2926 222.118 28.6185 219.116 27.8873C216.113 27.1467 212.921 26.3586 209.718 25.5705C206.526 24.7634 203.333 23.9468 200.34 23.1872C197.348 22.4086 194.555 21.687 192.173 21.0698C187.398 19.7879 184.215 18.9429 184.215 18.9429H184.205Z" fill="#E5053D"/>
<path d="M240.454 11.5083C240.454 11.5083 243.666 12.2584 248.479 13.3789C250.881 13.9581 253.683 14.6322 256.685 15.3634C259.687 16.104 262.879 16.8921 266.082 17.6802C269.274 18.4873 272.467 19.3039 275.46 20.0635C278.452 20.8421 281.245 21.5637 283.627 22.1809C288.402 23.4628 291.585 24.3078 291.585 24.3078C291.585 24.3078 288.374 23.5577 283.561 22.4373C281.159 21.8581 278.357 21.1839 275.355 20.4528C272.353 19.7122 269.16 18.9241 265.958 18.1359C262.765 17.3289 259.572 16.5123 256.58 15.7527C253.587 14.974 250.795 14.2524 248.403 13.6352C243.628 12.3534 240.445 11.5083 240.445 11.5083H240.454Z" fill="#E5053D"/>
<path d="M57.526 110.477C57.526 110.477 60.7378 111.227 65.5507 112.347C67.9524 112.926 70.7543 113.6 73.7564 114.332C76.7585 115.072 79.9512 115.86 83.1535 116.648C86.3462 117.456 89.5389 118.272 92.5315 119.032C95.5241 119.81 98.3165 120.532 100.709 121.149C105.483 122.431 108.667 123.276 108.667 123.276C108.667 123.276 105.455 122.526 100.642 121.406C98.2402 120.826 95.4383 120.152 92.4362 119.421C89.4341 118.68 86.2414 117.892 83.0391 117.104C79.8464 116.297 76.6537 115.481 73.6611 114.721C70.6685 113.942 67.8761 113.221 65.4935 112.603C60.7187 111.322 57.5355 110.477 57.5355 110.477H57.526Z" fill="#E5053D"/>
</g>
<defs>
<clipPath id="clip0_0_52">
<rect width="367" height="177" fill="white"/>
</clipPath>
</defs>
</svg>
