<svg width="775" height="774" viewBox="0 0 775 774" fill="none" xmlns="http://www.w3.org/2000/svg">
<path d="M413.263 773.724L387.745 388.107V388.144L387.545 387.561V387.506H387.581L387.654 387.397H387.636C387.636 387.397 387.636 387.397 387.618 387.378L387.545 387.451V387.415C387.545 387.415 387.545 387.378 387.527 387.36H387.472C387.472 387.36 387.472 387.36 387.454 387.36H387.417H387.363L387.381 387.342L387.472 387.269C387.472 387.269 387.472 387.269 387.472 387.251C387.472 387.251 387.472 387.251 387.472 387.215C387.472 387.215 387.49 387.215 387.508 387.215C387.508 387.215 387.527 387.215 387.545 387.215C387.545 387.215 387.545 387.233 387.545 387.251H387.6C387.6 387.251 387.6 387.251 387.618 387.251L387.709 387.196H387.673L387.691 387.16H387.709L387.745 387.087V387.142L673.142 125.583C686.138 139.755 698.186 155.021 708.921 170.943L388.183 387.032L387.727 387.196L387.818 387.233H387.873H387.837H387.891L388.019 387.196L771.075 332.108C773.791 351.054 775.103 370.4 774.994 389.601V390.02L388.784 387.706L770.255 447.895C767.247 466.968 762.763 485.969 756.931 504.368L389.076 387.852L735.259 558.254C726.747 575.523 716.868 592.301 705.859 608.113L388.42 387.706H388.001L669.46 652.927C656.282 666.899 641.938 679.997 626.846 691.857L387.891 387.998L388.019 388.581L578.818 724.101C562.013 733.646 544.369 741.99 526.324 748.912L388.128 389.091L470.605 765.599C451.813 769.716 432.511 772.448 413.281 773.724H413.263ZM355.757 773.286C336.528 771.72 317.262 768.678 298.525 764.269L386.998 388.581L243.133 746.744C225.235 739.567 207.737 730.968 191.096 721.168L387.071 388.326L387.199 387.816L143.596 688.231C128.669 676.154 114.543 662.837 101.565 648.664L387.089 387.561H387.217L387.199 387.779L387.253 387.542H387.399L387.18 387.816L387.144 388.162L387.18 388.107L387.144 388.18L355.739 773.25L355.757 773.286ZM65.8405 603.304C55.0684 587.31 45.4264 570.368 37.1696 552.952L386.16 387.779L16.3181 498.702C10.7771 480.23 6.58491 461.157 3.85088 442.029L386.324 387.67L387.107 387.306L386.506 387.652H386.634L65.8587 603.286L65.8405 603.304ZM387.199 387.269H387.144L386.397 386.887L386.634 386.923L68.9026 166.789C79.857 151.014 92.069 135.912 105.247 121.921L387.089 386.978H387.253L387.29 387.142L387.308 387.178L387.217 387.251L387.199 387.269ZM387.107 387.269L0.00500488 384.555C0.132593 365.336 1.71833 346.008 4.67109 327.08L386.269 386.85L387.089 387.251L387.107 387.269ZM387.472 387.215V387.142L387.399 387.196C387.399 387.16 387.381 387.16 387.381 387.16L387.436 387.051V387.014L387.235 386.504L387.399 386.777L361.28 0.869445C380.345 -0.405741 399.83 -0.278222 418.768 1.252L387.782 386.358L387.709 386.559L387.782 386.431V386.741L387.545 387.014L387.673 387.178H387.636L387.6 387.16L387.508 387.051L387.472 387.123C387.472 387.123 387.472 387.142 387.472 387.16L387.436 387.251L387.472 387.215ZM388.839 386.832L737.629 221.222C745.922 238.692 752.976 256.927 758.553 275.435L388.839 386.832ZM386.178 386.796L17.9403 270.59C23.7546 252.172 31.0272 234.028 39.5573 216.686L386.16 386.796H386.178ZM387.855 386.65L387.964 386.158L583.52 53.1521C600.107 62.8799 616.11 73.9559 631.074 86.0519L387.837 386.632L387.855 386.65ZM387.162 386.54L147.825 82.955C162.953 71.0411 179.102 60.1838 195.816 50.6564L387.071 386.176L387.162 386.559V386.54ZM386.998 385.812L248.255 25.7902C266.318 18.8314 285.055 13.2023 303.956 9.04886L386.98 385.794L386.998 385.812ZM388.074 385.703L476.018 10.1783C494.847 14.5868 513.511 20.4709 531.483 27.6484L388.074 385.684V385.703Z" fill="url(#paint0_radial_0_50)"/>
<defs>
<radialGradient id="paint0_radial_0_50" cx="0" cy="0" r="1" gradientUnits="userSpaceOnUse" gradientTransform="translate(387.518 386.746) rotate(0.339815) scale(387.248 387.037)">
<stop stop-color="#130D2C"/>
<stop offset="1" stop-color="#130D2C" stop-opacity="0"/>
</radialGradient>
</defs>
</svg>
