<svg width="353" height="317" viewBox="0 0 353 317" fill="none" xmlns="http://www.w3.org/2000/svg">
<path d="M164.766 9.29687e-06L176.389 174.437L176.389 174.42L176.481 174.684L176.481 174.709L176.464 174.709L176.431 174.758L176.439 174.758C176.439 174.758 176.439 174.758 176.447 174.766L176.481 174.733L176.481 174.75C176.481 174.75 176.481 174.766 176.489 174.775L176.514 174.775C176.514 174.775 176.514 174.775 176.522 174.775L176.539 174.775L176.564 174.775L176.555 174.783L176.514 174.816C176.514 174.816 176.514 174.816 176.514 174.824C176.514 174.824 176.514 174.824 176.514 174.84C176.514 174.84 176.506 174.84 176.497 174.84C176.497 174.84 176.489 174.84 176.481 174.84C176.481 174.84 176.481 174.832 176.481 174.824L176.456 174.824C176.456 174.824 176.456 174.824 176.447 174.824L176.406 174.849L176.423 174.849L176.414 174.865L176.406 174.865L176.389 174.898L176.389 174.873L46.395 293.192C40.4756 286.78 34.9879 279.875 30.098 272.673L176.19 174.923L176.398 174.849L176.356 174.832L176.331 174.832L176.348 174.832L176.323 174.832L176.265 174.849L1.7878 199.768C0.550791 191.198 -0.0469548 182.446 0.00285863 173.761L0.00285865 173.571L175.916 174.618L2.16141 147.391C3.53126 138.763 5.57358 130.168 8.23025 121.845L175.783 174.552L18.1014 97.4696C21.9785 89.6575 26.4783 82.0679 31.4927 74.9151L176.082 174.618L176.273 174.618L48.072 54.6433C54.0745 48.3228 60.6082 42.3978 67.4824 37.0332L176.323 174.486L176.265 174.222L89.3584 22.4474C97.013 18.1293 105.049 14.3551 113.268 11.2237L176.215 173.992L138.648 3.67532C147.207 1.81295 155.999 0.576849 164.758 9.29614e-06L164.766 9.29687e-06ZM190.96 0.197803C199.718 0.906493 208.494 2.28266 217.028 4.27688L176.73 174.222L242.258 12.2043C250.411 15.4511 258.381 19.3407 265.961 23.7741L176.697 174.338L176.638 174.569L287.596 38.6731C294.395 44.1366 300.83 50.1605 306.741 56.5716L176.688 174.684L176.63 174.684L176.638 174.585L176.614 174.692L176.547 174.692L176.647 174.569L176.663 174.412L176.647 174.437L176.663 174.404L190.968 0.214275L190.96 0.197803ZM323.013 77.0907C327.919 84.3259 332.311 91.9896 336.072 99.8676L177.112 174.585L345.57 124.408C348.093 132.764 350.003 141.392 351.248 150.045L177.037 174.634L176.68 174.799L176.954 174.643L176.896 174.643L323.005 77.0989L323.013 77.0907ZM176.638 174.816L176.663 174.816L177.004 174.989L176.896 174.972L321.618 274.551C316.628 281.688 311.066 288.519 305.064 294.848L176.688 174.948L176.614 174.948L176.597 174.873L176.589 174.857L176.63 174.824L176.638 174.816ZM176.68 174.816L353 176.044C352.942 184.737 352.22 193.481 350.875 202.043L177.062 175.005L176.688 174.824L176.68 174.816ZM176.514 174.84L176.514 174.873L176.547 174.849C176.547 174.865 176.555 174.865 176.555 174.865L176.53 174.915L176.53 174.931L176.622 175.162L176.547 175.038L188.444 349.607C179.76 350.184 170.885 350.126 162.259 349.434L176.373 175.228L176.406 175.137L176.373 175.195L176.373 175.055L176.481 174.931L176.423 174.857L176.439 174.857L176.456 174.865L176.497 174.915L176.514 174.882C176.514 174.882 176.514 174.873 176.514 174.865L176.53 174.824L176.514 174.84ZM175.891 175.013L17.0222 249.929C13.2447 242.026 10.0318 233.777 7.49134 225.405L175.891 175.013ZM177.103 175.03L344.831 227.597C342.182 235.928 338.87 244.135 334.984 251.981L177.112 175.03L177.103 175.03ZM176.34 175.096L176.29 175.318L87.2164 325.956C79.6615 321.556 72.3723 316.545 65.5563 311.074L176.348 175.104L176.34 175.096ZM176.655 175.145L285.67 312.475C278.779 317.864 271.424 322.775 263.81 327.085L176.697 175.31L176.655 175.137L176.655 175.145ZM176.73 175.475L239.925 338.334C231.698 341.481 223.163 344.028 214.554 345.907L176.738 175.483L176.73 175.475ZM176.24 175.524L136.182 345.396C127.606 343.402 119.105 340.74 110.919 337.493L176.24 175.533L176.24 175.524Z" fill="url(#paint0_radial_0_1283)"/>
<defs>
<radialGradient id="paint0_radial_0_1283" cx="0" cy="0" r="1" gradientUnits="userSpaceOnUse" gradientTransform="translate(176.493 175.052) rotate(-179.663) scale(176.386 175.079)">
<stop stop-color="#130D2C"/>
<stop offset="1" stop-color="#130D2C" stop-opacity="0"/>
</radialGradient>
</defs>
</svg>
