<svg width="24" height="24" viewBox="0 0 24 24" fill="none" xmlns="http://www.w3.org/2000/svg">
<path d="M12.75 1.5H3.75C3.15326 1.5 2.58097 1.73705 2.15901 2.15901C1.73705 2.58097 1.5 3.15326 1.5 3.75V21.75C1.5 21.9489 1.57902 22.1397 1.71967 22.2803C1.86032 22.421 2.05109 22.5 2.25 22.5H6V17.25C6 17.0511 6.07902 16.8603 6.21967 16.7197C6.36032 16.579 6.55109 16.5 6.75 16.5H9.75C9.94891 16.5 10.1397 16.579 10.2803 16.7197C10.421 16.8603 10.5 17.0511 10.5 17.25V22.5H15V3.75C15 3.15326 14.7629 2.58097 14.341 2.15901C13.919 1.73705 13.3467 1.5 12.75 1.5ZM6.75 14.25H5.25C5.05109 14.25 4.86032 14.171 4.71967 14.0303C4.57902 13.8897 4.5 13.6989 4.5 13.5C4.5 13.3011 4.57902 13.1103 4.71967 12.9697C4.86032 12.829 5.05109 12.75 5.25 12.75H6.75C6.94891 12.75 7.13968 12.829 7.28033 12.9697C7.42098 13.1103 7.5 13.3011 7.5 13.5C7.5 13.6989 7.42098 13.8897 7.28033 14.0303C7.13968 14.171 6.94891 14.25 6.75 14.25ZM6.75 10.5H5.25C5.05109 10.5 4.86032 10.421 4.71967 10.2803C4.57902 10.1397 4.5 9.94891 4.5 9.75C4.5 9.55109 4.57902 9.36032 4.71967 9.21967C4.86032 9.07902 5.05109 9 5.25 9H6.75C6.94891 9 7.13968 9.07902 7.28033 9.21967C7.42098 9.36032 7.5 9.55109 7.5 9.75C7.5 9.94891 7.42098 10.1397 7.28033 10.2803C7.13968 10.421 6.94891 10.5 6.75 10.5ZM6.75 6.75H5.25C5.05109 6.75 4.86032 6.67098 4.71967 6.53033C4.57902 6.38968 4.5 6.19891 4.5 6C4.5 5.80109 4.57902 5.61032 4.71967 5.46967C4.86032 5.32902 5.05109 5.25 5.25 5.25H6.75C6.94891 5.25 7.13968 5.32902 7.28033 5.46967C7.42098 5.61032 7.5 5.80109 7.5 6C7.5 6.19891 7.42098 6.38968 7.28033 6.53033C7.13968 6.67098 6.94891 6.75 6.75 6.75ZM11.25 14.25H9.75C9.55109 14.25 9.36032 14.171 9.21967 14.0303C9.07902 13.8897 9 13.6989 9 13.5C9 13.3011 9.07902 13.1103 9.21967 12.9697C9.36032 12.829 9.55109 12.75 9.75 12.75H11.25C11.4489 12.75 11.6397 12.829 11.7803 12.9697C11.921 13.1103 12 13.3011 12 13.5C12 13.6989 11.921 13.8897 11.7803 14.0303C11.6397 14.171 11.4489 14.25 11.25 14.25ZM11.25 10.5H9.75C9.55109 10.5 9.36032 10.421 9.21967 10.2803C9.07902 10.1397 9 9.94891 9 9.75C9 9.55109 9.07902 9.36032 9.21967 9.21967C9.36032 9.07902 9.55109 9 9.75 9H11.25C11.4489 9 11.6397 9.07902 11.7803 9.21967C11.921 9.36032 12 9.55109 12 9.75C12 9.94891 11.921 10.1397 11.7803 10.2803C11.6397 10.421 11.4489 10.5 11.25 10.5ZM11.25 6.75H9.75C9.55109 6.75 9.36032 6.67098 9.21967 6.53033C9.07902 6.38968 9 6.19891 9 6C9 5.80109 9.07902 5.61032 9.21967 5.46967C9.36032 5.32902 9.55109 5.25 9.75 5.25H11.25C11.4489 5.25 11.6397 5.32902 11.7803 5.46967C11.921 5.61032 12 5.80109 12 6C12 6.19891 11.921 6.38968 11.7803 6.53033C11.6397 6.67098 11.4489 6.75 11.25 6.75Z" fill="url(#paint0_linear_20_3666)"/>
<path d="M12.75 1.5H3.75C3.15326 1.5 2.58097 1.73705 2.15901 2.15901C1.73705 2.58097 1.5 3.15326 1.5 3.75V21.75C1.5 21.9489 1.57902 22.1397 1.71967 22.2803C1.86032 22.421 2.05109 22.5 2.25 22.5H6V17.25C6 17.0511 6.07902 16.8603 6.21967 16.7197C6.36032 16.579 6.55109 16.5 6.75 16.5H9.75C9.94891 16.5 10.1397 16.579 10.2803 16.7197C10.421 16.8603 10.5 17.0511 10.5 17.25V22.5H15V3.75C15 3.15326 14.7629 2.58097 14.341 2.15901C13.919 1.73705 13.3467 1.5 12.75 1.5ZM6.75 14.25H5.25C5.05109 14.25 4.86032 14.171 4.71967 14.0303C4.57902 13.8897 4.5 13.6989 4.5 13.5C4.5 13.3011 4.57902 13.1103 4.71967 12.9697C4.86032 12.829 5.05109 12.75 5.25 12.75H6.75C6.94891 12.75 7.13968 12.829 7.28033 12.9697C7.42098 13.1103 7.5 13.3011 7.5 13.5C7.5 13.6989 7.42098 13.8897 7.28033 14.0303C7.13968 14.171 6.94891 14.25 6.75 14.25ZM6.75 10.5H5.25C5.05109 10.5 4.86032 10.421 4.71967 10.2803C4.57902 10.1397 4.5 9.94891 4.5 9.75C4.5 9.55109 4.57902 9.36032 4.71967 9.21967C4.86032 9.07902 5.05109 9 5.25 9H6.75C6.94891 9 7.13968 9.07902 7.28033 9.21967C7.42098 9.36032 7.5 9.55109 7.5 9.75C7.5 9.94891 7.42098 10.1397 7.28033 10.2803C7.13968 10.421 6.94891 10.5 6.75 10.5ZM6.75 6.75H5.25C5.05109 6.75 4.86032 6.67098 4.71967 6.53033C4.57902 6.38968 4.5 6.19891 4.5 6C4.5 5.80109 4.57902 5.61032 4.71967 5.46967C4.86032 5.32902 5.05109 5.25 5.25 5.25H6.75C6.94891 5.25 7.13968 5.32902 7.28033 5.46967C7.42098 5.61032 7.5 5.80109 7.5 6C7.5 6.19891 7.42098 6.38968 7.28033 6.53033C7.13968 6.67098 6.94891 6.75 6.75 6.75ZM11.25 14.25H9.75C9.55109 14.25 9.36032 14.171 9.21967 14.0303C9.07902 13.8897 9 13.6989 9 13.5C9 13.3011 9.07902 13.1103 9.21967 12.9697C9.36032 12.829 9.55109 12.75 9.75 12.75H11.25C11.4489 12.75 11.6397 12.829 11.7803 12.9697C11.921 13.1103 12 13.3011 12 13.5C12 13.6989 11.921 13.8897 11.7803 14.0303C11.6397 14.171 11.4489 14.25 11.25 14.25ZM11.25 10.5H9.75C9.55109 10.5 9.36032 10.421 9.21967 10.2803C9.07902 10.1397 9 9.94891 9 9.75C9 9.55109 9.07902 9.36032 9.21967 9.21967C9.36032 9.07902 9.55109 9 9.75 9H11.25C11.4489 9 11.6397 9.07902 11.7803 9.21967C11.921 9.36032 12 9.55109 12 9.75C12 9.94891 11.921 10.1397 11.7803 10.2803C11.6397 10.421 11.4489 10.5 11.25 10.5ZM11.25 6.75H9.75C9.55109 6.75 9.36032 6.67098 9.21967 6.53033C9.07902 6.38968 9 6.19891 9 6C9 5.80109 9.07902 5.61032 9.21967 5.46967C9.36032 5.32902 9.55109 5.25 9.75 5.25H11.25C11.4489 5.25 11.6397 5.32902 11.7803 5.46967C11.921 5.61032 12 5.80109 12 6C12 6.19891 11.921 6.38968 11.7803 6.53033C11.6397 6.67098 11.4489 6.75 11.25 6.75Z" fill="url(#paint1_radial_20_3666)"/>
<path d="M3.75 2H12.75C13.2141 2 13.6592 2.18437 13.9874 2.51256C14.3156 2.84075 14.5 3.28587 14.5 3.75V22H11V17.25C11 16.9185 10.8683 16.6005 10.6339 16.3661C10.3995 16.1317 10.0815 16 9.75 16H6.75C6.41848 16 6.10054 16.1317 5.86612 16.3661C5.6317 16.6005 5.5 16.9185 5.5 17.25V22H2.25C2.1837 22 2.12011 21.9737 2.07322 21.9268C2.02634 21.8799 2 21.8163 2 21.75V3.75C2 3.28587 2.18437 2.84075 2.51256 2.51256C2.84075 2.18437 3.28587 2 3.75 2ZM5.25 14.75H6.75C7.08152 14.75 7.39946 14.6183 7.63388 14.3839C7.8683 14.1495 8 13.8315 8 13.5C8 13.1685 7.8683 12.8505 7.63388 12.6161C7.39946 12.3817 7.08152 12.25 6.75 12.25H5.25C4.91848 12.25 4.60054 12.3817 4.36612 12.6161C4.1317 12.8505 4 13.1685 4 13.5C4 13.8315 4.1317 14.1495 4.36612 14.3839C4.60054 14.6183 4.91848 14.75 5.25 14.75ZM5.25 11H6.75C7.08152 11 7.39946 10.8683 7.63388 10.6339C7.8683 10.3995 8 10.0815 8 9.75C8 9.41848 7.8683 9.10054 7.63388 8.86612C7.39946 8.6317 7.08152 8.5 6.75 8.5H5.25C4.91848 8.5 4.60054 8.6317 4.36612 8.86612C4.1317 9.10054 4 9.41848 4 9.75C4 10.0815 4.1317 10.3995 4.36612 10.6339C4.60054 10.8683 4.91848 11 5.25 11ZM5.25 7.25H6.75C7.08152 7.25 7.39946 7.1183 7.63388 6.88388C7.8683 6.64946 8 6.33152 8 6C8 5.66848 7.8683 5.35054 7.63388 5.11612C7.39946 4.8817 7.08152 4.75 6.75 4.75H5.25C4.91848 4.75 4.60054 4.8817 4.36612 5.11612C4.1317 5.35054 4 5.66848 4 6C4 6.33152 4.1317 6.64946 4.36612 6.88388C4.60054 7.1183 4.91848 7.25 5.25 7.25ZM9.75 14.75H11.25C11.5815 14.75 11.8995 14.6183 12.1339 14.3839C12.3683 14.1495 12.5 13.8315 12.5 13.5C12.5 13.1685 12.3683 12.8505 12.1339 12.6161C11.8995 12.3817 11.5815 12.25 11.25 12.25H9.75C9.41848 12.25 9.10054 12.3817 8.86612 12.6161C8.6317 12.8505 8.5 13.1685 8.5 13.5C8.5 13.8315 8.6317 14.1495 8.86612 14.3839C9.10054 14.6183 9.41848 14.75 9.75 14.75ZM9.75 11H11.25C11.5815 11 11.8995 10.8683 12.1339 10.6339C12.3683 10.3995 12.5 10.0815 12.5 9.75C12.5 9.41848 12.3683 9.10054 12.1339 8.86612C11.8995 8.6317 11.5815 8.5 11.25 8.5H9.75C9.41848 8.5 9.10054 8.6317 8.86612 8.86612C8.6317 9.10054 8.5 9.41848 8.5 9.75C8.5 10.0815 8.6317 10.3995 8.86612 10.6339C9.10054 10.8683 9.41848 11 9.75 11ZM9.75 7.25H11.25C11.5815 7.25 11.8995 7.1183 12.1339 6.88388C12.3683 6.64946 12.5 6.33152 12.5 6C12.5 5.66848 12.3683 5.35054 12.1339 5.11612C11.8995 4.8817 11.5815 4.75 11.25 4.75H9.75C9.41848 4.75 9.10054 4.8817 8.86612 5.11612C8.6317 5.35054 8.5 5.66848 8.5 6C8.5 6.33152 8.6317 6.64946 8.86612 6.88388C9.10054 7.1183 9.41848 7.25 9.75 7.25Z" stroke="url(#paint2_linear_20_3666)" stroke-opacity="0.3"/>
<path d="M20.25 5.25H16.5V9H18.75C18.9489 9 19.1397 9.07902 19.2803 9.21967C19.421 9.36032 19.5 9.55109 19.5 9.75C19.5 9.94891 19.421 10.1397 19.2803 10.2803C19.1397 10.421 18.9489 10.5 18.75 10.5H16.5V12.75H18.75C18.9489 12.75 19.1397 12.829 19.2803 12.9697C19.421 13.1103 19.5 13.3011 19.5 13.5C19.5 13.6989 19.421 13.8897 19.2803 14.0303C19.1397 14.171 18.9489 14.25 18.75 14.25H16.5V16.5H18.75C18.9489 16.5 19.1397 16.579 19.2803 16.7197C19.421 16.8603 19.5 17.0511 19.5 17.25C19.5 17.4489 19.421 17.6397 19.2803 17.7803C19.1397 17.921 18.9489 18 18.75 18H16.5V22.5H21.75C21.9489 22.5 22.1397 22.421 22.2803 22.2803C22.421 22.1397 22.5 21.9489 22.5 21.75V7.5C22.5 6.90326 22.2629 6.33097 21.841 5.90901C21.419 5.48705 20.8467 5.25 20.25 5.25Z" fill="url(#paint3_linear_20_3666)"/>
<path d="M20.25 5.25H16.5V9H18.75C18.9489 9 19.1397 9.07902 19.2803 9.21967C19.421 9.36032 19.5 9.55109 19.5 9.75C19.5 9.94891 19.421 10.1397 19.2803 10.2803C19.1397 10.421 18.9489 10.5 18.75 10.5H16.5V12.75H18.75C18.9489 12.75 19.1397 12.829 19.2803 12.9697C19.421 13.1103 19.5 13.3011 19.5 13.5C19.5 13.6989 19.421 13.8897 19.2803 14.0303C19.1397 14.171 18.9489 14.25 18.75 14.25H16.5V16.5H18.75C18.9489 16.5 19.1397 16.579 19.2803 16.7197C19.421 16.8603 19.5 17.0511 19.5 17.25C19.5 17.4489 19.421 17.6397 19.2803 17.7803C19.1397 17.921 18.9489 18 18.75 18H16.5V22.5H21.75C21.9489 22.5 22.1397 22.421 22.2803 22.2803C22.421 22.1397 22.5 21.9489 22.5 21.75V7.5C22.5 6.90326 22.2629 6.33097 21.841 5.90901C21.419 5.48705 20.8467 5.25 20.25 5.25Z" fill="url(#paint4_radial_20_3666)"/>
<path d="M17 8.5V5.75H20.25C20.7141 5.75 21.1592 5.93437 21.4874 6.26256C21.8156 6.59075 22 7.03587 22 7.5V21.75C22 21.8163 21.9737 21.8799 21.9268 21.9268C21.8799 21.9737 21.8163 22 21.75 22H17V18.5H18.75C19.0815 18.5 19.3995 18.3683 19.6339 18.1339C19.8683 17.8995 20 17.5815 20 17.25C20 16.9185 19.8683 16.6005 19.6339 16.3661C19.3995 16.1317 19.0815 16 18.75 16H17V14.75H18.75C19.0815 14.75 19.3995 14.6183 19.6339 14.3839C19.8683 14.1495 20 13.8315 20 13.5C20 13.1685 19.8683 12.8505 19.6339 12.6161C19.3995 12.3817 19.0815 12.25 18.75 12.25H17V11H18.75C19.0815 11 19.3995 10.8683 19.6339 10.6339C19.8683 10.3995 20 10.0815 20 9.75C20 9.41848 19.8683 9.10054 19.6339 8.86612C19.3995 8.6317 19.0815 8.5 18.75 8.5H17Z" stroke="url(#paint5_linear_20_3666)" stroke-opacity="0.3"/>
<defs>
<linearGradient id="paint0_linear_20_3666" x1="8.25" y1="1.5" x2="8.25" y2="22.5" gradientUnits="userSpaceOnUse">
<stop stop-color="#E32CC4"/>
<stop offset="1" stop-color="#E9305E"/>
</linearGradient>
<radialGradient id="paint1_radial_20_3666" cx="0" cy="0" r="1" gradientUnits="userSpaceOnUse" gradientTransform="translate(8.25 1.5) rotate(90) scale(21 13.5)">
<stop stop-color="white" stop-opacity="0.3"/>
<stop offset="1" stop-color="white" stop-opacity="0"/>
</radialGradient>
<linearGradient id="paint2_linear_20_3666" x1="1.5" y1="12" x2="15" y2="12" gradientUnits="userSpaceOnUse">
<stop stop-color="white" stop-opacity="0"/>
<stop offset="1" stop-color="white"/>
</linearGradient>
<linearGradient id="paint3_linear_20_3666" x1="19.5" y1="5.25" x2="19.5" y2="22.5" gradientUnits="userSpaceOnUse">
<stop stop-color="#E32CC4"/>
<stop offset="1" stop-color="#E9305E"/>
</linearGradient>
<radialGradient id="paint4_radial_20_3666" cx="0" cy="0" r="1" gradientUnits="userSpaceOnUse" gradientTransform="translate(19.5 5.25) rotate(90) scale(17.25 6)">
<stop stop-color="white" stop-opacity="0.3"/>
<stop offset="1" stop-color="white" stop-opacity="0"/>
</radialGradient>
<linearGradient id="paint5_linear_20_3666" x1="16.5" y1="13.875" x2="22.5" y2="13.875" gradientUnits="userSpaceOnUse">
<stop stop-color="white" stop-opacity="0"/>
<stop offset="1" stop-color="white"/>
</linearGradient>
</defs>
</svg>
