<svg width="24" height="24" viewBox="0 0 24 24" fill="none" xmlns="http://www.w3.org/2000/svg">
<g clip-path="url(#clip0_20_3671)">
<path d="M6.50197 6.42188H6.20103L5.63867 9.23438H7.06433L6.50197 6.42188Z" fill="url(#paint0_linear_20_3671)"/>
<path d="M6.50197 6.42188H6.20103L5.63867 9.23438H7.06433L6.50197 6.42188Z" fill="url(#paint1_radial_20_3671)"/>
<path d="M6.45446 8.73438H6.24854L6.3515 8.21947L6.45446 8.73438Z" stroke="url(#paint2_linear_20_3671)" stroke-opacity="0.3"/>
<path d="M17.877 12.0469C18.1806 12.8625 18.5844 13.5226 19.0313 14.0844C19.4782 13.5226 19.9289 12.8624 20.2325 12.0469H17.877Z" fill="url(#paint3_linear_20_3671)"/>
<path d="M17.877 12.0469C18.1806 12.8625 18.5844 13.5226 19.0313 14.0844C19.4782 13.5226 19.9289 12.8624 20.2325 12.0469H17.877Z" fill="url(#paint4_radial_20_3671)"/>
<path d="M19.4606 12.5469C19.3306 12.7926 19.1874 13.0229 19.0368 13.2409C18.8951 13.0249 18.7613 12.7945 18.6378 12.5469H19.4606Z" stroke="url(#paint5_linear_20_3671)" stroke-opacity="0.3"/>
<path d="M21.8908 4.26562H13.1588L14.9795 18.8756C15.0117 19.4731 14.8483 20.0357 14.4583 20.4762L11.375 24H21.8908C23.054 24 24.0002 23.0538 24.0002 21.8906V6.42188C24.0002 5.25872 23.054 4.26562 21.8908 4.26562ZM21.8908 12.0469H21.703C21.3029 13.3305 20.6685 14.3348 20.0091 15.1267C20.5257 15.5989 21.078 15.9862 21.6271 16.4201C21.9299 16.6625 21.9794 17.1047 21.7363 17.4082C21.4943 17.7113 21.0504 17.7604 20.7482 17.5174C20.1515 17.0464 19.5915 16.6522 19.0314 16.1383C18.4714 16.6522 17.9582 17.0464 17.3615 17.5174C17.0593 17.7604 16.6154 17.7113 16.3734 17.4082C16.1303 17.1047 16.1798 16.6625 16.4826 16.4201C17.0317 15.9862 17.5372 15.5989 18.0537 15.1267C17.3944 14.3349 16.8067 13.3305 16.4067 12.0469H16.2189C15.8303 12.0469 15.5158 11.7324 15.5158 11.3438C15.5158 10.9551 15.8303 10.6406 16.2189 10.6406H18.3283V9.9375C18.3283 9.54886 18.6428 9.23438 19.0314 9.23438C19.4201 9.23438 19.7345 9.54886 19.7345 9.9375V10.6406H21.8908C22.2794 10.6406 22.5939 10.9551 22.5939 11.3438C22.5939 11.7324 22.2794 12.0469 21.8908 12.0469Z" fill="url(#paint6_linear_20_3671)"/>
<path d="M21.8908 4.26562H13.1588L14.9795 18.8756C15.0117 19.4731 14.8483 20.0357 14.4583 20.4762L11.375 24H21.8908C23.054 24 24.0002 23.0538 24.0002 21.8906V6.42188C24.0002 5.25872 23.054 4.26562 21.8908 4.26562ZM21.8908 12.0469H21.703C21.3029 13.3305 20.6685 14.3348 20.0091 15.1267C20.5257 15.5989 21.078 15.9862 21.6271 16.4201C21.9299 16.6625 21.9794 17.1047 21.7363 17.4082C21.4943 17.7113 21.0504 17.7604 20.7482 17.5174C20.1515 17.0464 19.5915 16.6522 19.0314 16.1383C18.4714 16.6522 17.9582 17.0464 17.3615 17.5174C17.0593 17.7604 16.6154 17.7113 16.3734 17.4082C16.1303 17.1047 16.1798 16.6625 16.4826 16.4201C17.0317 15.9862 17.5372 15.5989 18.0537 15.1267C17.3944 14.3349 16.8067 13.3305 16.4067 12.0469H16.2189C15.8303 12.0469 15.5158 11.7324 15.5158 11.3438C15.5158 10.9551 15.8303 10.6406 16.2189 10.6406H18.3283V9.9375C18.3283 9.54886 18.6428 9.23438 19.0314 9.23438C19.4201 9.23438 19.7345 9.54886 19.7345 9.9375V10.6406H21.8908C22.2794 10.6406 22.5939 10.9551 22.5939 11.3438C22.5939 11.7324 22.2794 12.0469 21.8908 12.0469Z" fill="url(#paint7_radial_20_3671)"/>
<path d="M15.4788 18.8487L15.4778 18.8312L15.4757 18.8137L13.725 4.76562H21.8908C22.7637 4.76562 23.5002 5.52051 23.5002 6.42188V21.8906C23.5002 22.7776 22.7778 23.5 21.8908 23.5H12.4769L14.8327 20.8076C14.833 20.8072 14.8334 20.8068 14.8337 20.8064C15.3234 20.2527 15.5169 19.5554 15.4788 18.8487ZM21.9396 16.0298L21.9371 16.0278C21.7556 15.8844 21.5806 15.7509 21.4104 15.6211C21.1645 15.4335 20.9287 15.2536 20.6981 15.0628C21.221 14.3713 21.7118 13.5386 22.0678 12.534C22.6486 12.4485 23.0939 11.9484 23.0939 11.3438C23.0939 10.679 22.5556 10.1406 21.8908 10.1406H20.2345V9.9375C20.2345 9.27272 19.6962 8.73438 19.0314 8.73438C18.3666 8.73438 17.8283 9.27272 17.8283 9.9375V10.1406H16.2189C15.5541 10.1406 15.0158 10.679 15.0158 11.3438C15.0158 11.9481 15.4606 12.4479 16.0409 12.5338C16.3895 13.5333 16.8502 14.3672 17.3688 15.0646C17.0549 15.3331 16.7383 15.5823 16.3988 15.8496C16.3245 15.908 16.2492 15.9673 16.1726 16.0278L16.1726 16.0278L16.1701 16.0298C15.6519 16.4446 15.5673 17.2015 15.9832 17.7208C16.3973 18.2388 17.155 18.3232 17.6728 17.9087C17.7418 17.8542 17.8099 17.8006 17.8775 17.7474C18.2738 17.4355 18.6478 17.1411 19.0338 16.8061C19.3394 17.0645 19.6478 17.3006 19.9523 17.5338C20.1152 17.6586 20.2771 17.7826 20.4369 17.9087C20.955 18.3234 21.713 18.2387 22.127 17.7202C22.5424 17.2009 22.4577 16.4445 21.9396 16.0298Z" stroke="url(#paint8_linear_20_3671)" stroke-opacity="0.3"/>
<path d="M11.4452 1.84777C11.314 0.794437 10.4138 0 9.35231 0H2.10938C0.946219 0 0 0.946219 0 2.10938V17.6719C0 18.835 0.946219 19.7812 2.10938 19.7812C6.31266 19.7812 9.33642 19.7812 13.1977 19.7812C13.4028 19.5468 13.5748 19.4 13.582 19.0939C13.5838 19.0172 11.4547 1.92389 11.4452 1.84777ZM8.62238 13.4394C8.24953 13.5161 7.87186 13.2741 7.79498 12.888L7.34559 10.6406H5.35758L4.90819 12.888C4.83267 13.2684 4.46597 13.5183 4.0808 13.4394C3.70041 13.3632 3.45319 12.9931 3.52941 12.612L4.93561 5.58075C5.00152 5.25253 5.28994 5.01562 5.625 5.01562H7.07812C7.41319 5.01562 7.70161 5.25253 7.76752 5.58075L9.17377 12.612C9.24998 12.9931 9.00281 13.3632 8.62238 13.4394Z" fill="url(#paint9_linear_20_3671)"/>
<path d="M11.4452 1.84777C11.314 0.794437 10.4138 0 9.35231 0H2.10938C0.946219 0 0 0.946219 0 2.10938V17.6719C0 18.835 0.946219 19.7812 2.10938 19.7812C6.31266 19.7812 9.33642 19.7812 13.1977 19.7812C13.4028 19.5468 13.5748 19.4 13.582 19.0939C13.5838 19.0172 11.4547 1.92389 11.4452 1.84777ZM8.62238 13.4394C8.24953 13.5161 7.87186 13.2741 7.79498 12.888L7.34559 10.6406H5.35758L4.90819 12.888C4.83267 13.2684 4.46597 13.5183 4.0808 13.4394C3.70041 13.3632 3.45319 12.9931 3.52941 12.612L4.93561 5.58075C5.00152 5.25253 5.28994 5.01562 5.625 5.01562H7.07812C7.41319 5.01562 7.70161 5.25253 7.76752 5.58075L9.17377 12.612C9.24998 12.9931 9.00281 13.3632 8.62238 13.4394Z" fill="url(#paint10_radial_20_3671)"/>
<path d="M4.44532 5.4827L4.44539 5.48232C4.55809 4.9211 5.05119 4.51562 5.625 4.51562H7.07812C7.65193 4.51562 8.14504 4.9211 8.25773 5.48232L8.25781 5.48269L9.66406 12.5139C9.79448 13.166 9.37144 13.7993 8.7206 13.9296C8.08004 14.06 7.43617 13.646 7.30463 12.9857L7.30469 12.986L7.79498 12.888L7.30461 12.9856L4.44532 5.4827ZM4.44532 5.4827L3.03912 12.5139C2.90883 13.1654 3.33087 13.7979 3.98041 13.9292L4.44532 5.4827ZM10.949 1.90955L10.949 1.90978C10.9538 1.94764 11.4884 6.23982 12.0217 10.5323C12.2883 12.6784 12.5545 14.8246 12.754 16.4389C12.8538 17.246 12.9368 17.9201 12.9948 18.3947C13.0238 18.632 13.0466 18.8191 13.062 18.9479C13.0697 19.0124 13.0755 19.0616 13.0794 19.095L13.0806 19.1064C13.0772 19.1372 13.0677 19.1575 13.0481 19.187C13.0322 19.2109 13.0095 19.2398 12.9735 19.2812H12.9724H12.95H12.9276H12.9052H12.8828H12.8604H12.8381H12.8158H12.7935H12.7712H12.7489H12.7267H12.7044H12.6822H12.66H12.6378H12.6157H12.5935H12.5714H12.5493H12.5272H12.5051H12.483H12.461H12.439H12.4169H12.3949H12.3729H12.351H12.329H12.3071H12.2852H12.2633H12.2414H12.2195H12.1976H12.1758H12.154H12.1321H12.1103H12.0886H12.0668H12.045H12.0233H12.0016H11.9798H11.9581H11.9365H11.9148H11.8931H11.8715H11.8498H11.8282H11.8066H11.785H11.7635H11.7419H11.7204H11.6988H11.6773H11.6558H11.6343H11.6128H11.5913H11.5699H11.5484H11.527H11.5056H11.4842H11.4628H11.4414H11.42H11.3986H11.3773H11.356H11.3346H11.3133H11.292H11.2707H11.2494H11.2282H11.2069H11.1857H11.1644H11.1432H11.122H11.1008H11.0796H11.0584H11.0372H11.0161H10.9949H10.9738H10.9526H10.9315H10.9104H10.8893H10.8682H10.8471H10.826H10.805H10.7839H10.7629H10.7418H10.7208H10.6998H10.6788H10.6577H10.6368H10.6158H10.5948H10.5738H10.5529H10.5319H10.511H10.49H10.4691H10.4482H10.4273H10.4064H10.3855H10.3646H10.3437H10.3228H10.3019H10.2811H10.2602H10.2394H10.2185H10.1977H10.1769H10.156H10.1352H10.1144H10.0936H10.0728H10.052H10.0312H10.0105H9.9897H9.96893H9.94817H9.92742H9.90667H9.88592H9.86518H9.84445H9.82372H9.803H9.78228H9.76156H9.74085H9.72015H9.69945H9.67875H9.65806H9.63737H9.61669H9.59601H9.57534H9.55467H9.534H9.51334H9.49268H9.47202H9.45137H9.43072H9.41007H9.38943H9.36879H9.34816H9.32752H9.30689H9.28626H9.26564H9.24502H9.2244H9.20378H9.18316H9.16255H9.14194H9.12133H9.10072H9.08012H9.05951H9.03891H9.01831H8.99771H8.97711H8.95652H8.93592H8.91533H8.89474H8.87415H8.85355H8.83296H8.81238H8.79179H8.7712H8.75061H8.73002H8.70944H8.68885H8.66826H8.64767H8.62709H8.6065H8.58591H8.56532H8.54474H8.52415H8.50356H8.48297H8.46237H8.44178H8.42119H8.40059H8.38H8.3594H8.3388H8.3182H8.2976H8.277H8.25639H8.23579H8.21518H8.19457H8.17395H8.15334H8.13272H8.1121H8.09148H8.07086H8.05023H8.0296H8.00896H7.98833H7.96769H7.94705H7.9264H7.90575H7.8851H7.86445H7.84379H7.82313H7.80246H7.78179H7.76112H7.74044H7.71976H7.69907H7.67838H7.65768H7.63698H7.61628H7.59557H7.57486H7.55414H7.53342H7.51269H7.49196H7.47122H7.45047H7.42973H7.40897H7.38821H7.36745H7.34667H7.3259H7.30511H7.28433H7.26353H7.24273H7.22192H7.20111H7.18029H7.15946H7.13863H7.11779H7.09694H7.07609H7.05523H7.03436H7.01348H6.9926H6.97171H6.95082H6.92991H6.909H6.88808H6.86715H6.84622H6.82527H6.80432H6.78336H6.76239H6.74142H6.72043H6.69944H6.67844H6.65743H6.63641H6.61538H6.59434H6.5733H6.55224H6.53118H6.5101H6.48902H6.46793H6.44683H6.42571H6.40459H6.38346H6.36232H6.34117H6.32H6.29883H6.27765H6.25646H6.23525H6.21404H6.19282H6.17158H6.15033H6.12908H6.10781H6.08653H6.06524H6.04394H6.02262H6.0013H5.97996H5.95862H5.93726H5.91588H5.8945H5.87311H5.8517H5.83028H5.80885H5.7874H5.76594H5.74448H5.72299H5.7015H5.67999H5.65847H5.63694H5.61539H5.59383H5.57226H5.55067H5.52907H5.50745H5.48583H5.46419H5.44253H5.42086H5.39918H5.37748H5.35577H5.33405H5.31231H5.29055H5.26878H5.247H5.2252H5.20339H5.18156H5.15972H5.13786H5.11599H5.0941H5.07219H5.05027H5.02834H5.00639H4.98442H4.96244H4.94044H4.91843H4.8964H4.87435H4.85229H4.83021H4.80811H4.786H4.76387H4.74173H4.71957H4.69739H4.67519H4.65298H4.63075H4.6085H4.58624H4.56395H4.54165H4.51934H4.497H4.47465H4.45228H4.42989H4.40748H4.38506H4.36261H4.34015H4.31767H4.29517H4.27266H4.25012H4.22757H4.20499H4.1824H4.15979H4.13716H4.11451H4.09184H4.06915H4.04644H4.02371H4.00097H3.9782H3.95541H3.93261H3.90978H3.88693H3.86406H3.84118H3.81827H3.79534H3.77239H3.74942H3.72643H3.70342H3.68038H3.65733H3.63426H3.61116H3.58804H3.5649H3.54174H3.51856H3.49536H3.47213H3.44888H3.42562H3.40232H3.37901H3.35568H3.33232H3.30894H3.28553H3.26211H3.23866H3.21519H3.1917H3.16818H3.14464H3.12108H3.09749H3.07388H3.05025H3.02659H3.00292H2.97921H2.95548H2.93173H2.90796H2.88416H2.86034H2.83649H2.81262H2.78872H2.7648H2.74086H2.71689H2.69289H2.66887H2.64483H2.62076H2.59667H2.57255H2.5484H2.52423H2.50004H2.47582H2.45157H2.4273H2.403H2.37868H2.35433H2.32995H2.30555H2.28112H2.25666H2.23218H2.20767H2.18314H2.15858H2.13399H2.10938C1.22236 19.2812 0.5 18.5589 0.5 17.6719V2.10938C0.5 1.22236 1.22236 0.5 2.10938 0.5H9.35231C10.1618 0.5 10.8491 1.10675 10.949 1.90955ZM6.93568 11.1406H7.34559V10.6406L6.8553 10.7387L6.93568 11.1406ZM5.35758 10.6406V11.1406H5.7675L5.84787 10.7387L5.35758 10.6406ZM5.39862 12.9854L4.90819 12.888L5.39848 12.986L5.39862 12.9854Z" stroke="url(#paint11_linear_20_3671)" stroke-opacity="0.3"/>
<path d="M8.21533 21.1875L8.33599 22.1522C8.41643 22.7983 8.84571 23.4571 9.55183 23.7861C10.8844 22.3192 10.0782 23.2066 11.9124 21.1875H8.21533Z" fill="url(#paint12_linear_20_3671)"/>
<path d="M8.21533 21.1875L8.33599 22.1522C8.41643 22.7983 8.84571 23.4571 9.55183 23.7861C10.8844 22.3192 10.0782 23.2066 11.9124 21.1875H8.21533Z" fill="url(#paint13_radial_20_3671)"/>
<path d="M8.83216 22.0905L8.83212 22.0902L8.78176 21.6875H10.7827L9.45638 23.1476C9.09559 22.8723 8.87975 22.4727 8.83216 22.0905Z" stroke="url(#paint14_linear_20_3671)" stroke-opacity="0.3"/>
</g>
<defs>
<linearGradient id="paint0_linear_20_3671" x1="6.3515" y1="6.42187" x2="6.3515" y2="9.23437" gradientUnits="userSpaceOnUse">
<stop stop-color="#E32CC4"/>
<stop offset="1" stop-color="#E9305E"/>
</linearGradient>
<radialGradient id="paint1_radial_20_3671" cx="0" cy="0" r="1" gradientUnits="userSpaceOnUse" gradientTransform="translate(6.3515 6.42188) rotate(90) scale(2.8125 1.42566)">
<stop stop-color="white" stop-opacity="0.3"/>
<stop offset="1" stop-color="white" stop-opacity="0"/>
</radialGradient>
<linearGradient id="paint2_linear_20_3671" x1="5.63867" y1="7.82812" x2="7.06433" y2="7.82812" gradientUnits="userSpaceOnUse">
<stop stop-color="white" stop-opacity="0"/>
<stop offset="1" stop-color="white"/>
</linearGradient>
<linearGradient id="paint3_linear_20_3671" x1="19.0547" y1="12.0469" x2="19.0547" y2="14.0844" gradientUnits="userSpaceOnUse">
<stop stop-color="#E32CC4"/>
<stop offset="1" stop-color="#E9305E"/>
</linearGradient>
<radialGradient id="paint4_radial_20_3671" cx="0" cy="0" r="1" gradientUnits="userSpaceOnUse" gradientTransform="translate(19.0547 12.0469) rotate(90) scale(2.03752 2.35556)">
<stop stop-color="white" stop-opacity="0.3"/>
<stop offset="1" stop-color="white" stop-opacity="0"/>
</radialGradient>
<linearGradient id="paint5_linear_20_3671" x1="17.877" y1="13.0656" x2="20.2325" y2="13.0656" gradientUnits="userSpaceOnUse">
<stop stop-color="white" stop-opacity="0"/>
<stop offset="1" stop-color="white"/>
</linearGradient>
<linearGradient id="paint6_linear_20_3671" x1="17.6876" y1="4.26562" x2="17.6876" y2="24" gradientUnits="userSpaceOnUse">
<stop stop-color="#E32CC4"/>
<stop offset="1" stop-color="#E9305E"/>
</linearGradient>
<radialGradient id="paint7_radial_20_3671" cx="0" cy="0" r="1" gradientUnits="userSpaceOnUse" gradientTransform="translate(17.6876 4.26562) rotate(90) scale(19.7344 12.6252)">
<stop stop-color="white" stop-opacity="0.3"/>
<stop offset="1" stop-color="white" stop-opacity="0"/>
</radialGradient>
<linearGradient id="paint8_linear_20_3671" x1="11.375" y1="14.1328" x2="24.0002" y2="14.1328" gradientUnits="userSpaceOnUse">
<stop stop-color="white" stop-opacity="0"/>
<stop offset="1" stop-color="white"/>
</linearGradient>
<linearGradient id="paint9_linear_20_3671" x1="6.79102" y1="0" x2="6.79102" y2="19.7812" gradientUnits="userSpaceOnUse">
<stop stop-color="#E32CC4"/>
<stop offset="1" stop-color="#E9305E"/>
</linearGradient>
<radialGradient id="paint10_radial_20_3671" cx="0" cy="0" r="1" gradientUnits="userSpaceOnUse" gradientTransform="translate(6.79102) rotate(90) scale(19.7812 13.582)">
<stop stop-color="white" stop-opacity="0.3"/>
<stop offset="1" stop-color="white" stop-opacity="0"/>
</radialGradient>
<linearGradient id="paint11_linear_20_3671" x1="0" y1="9.89062" x2="13.582" y2="9.89062" gradientUnits="userSpaceOnUse">
<stop stop-color="white" stop-opacity="0"/>
<stop offset="1" stop-color="white"/>
</linearGradient>
<linearGradient id="paint12_linear_20_3671" x1="10.0639" y1="21.1875" x2="10.0639" y2="23.7861" gradientUnits="userSpaceOnUse">
<stop stop-color="#E32CC4"/>
<stop offset="1" stop-color="#E9305E"/>
</linearGradient>
<radialGradient id="paint13_radial_20_3671" cx="0" cy="0" r="1" gradientUnits="userSpaceOnUse" gradientTransform="translate(10.0639 21.1875) rotate(90) scale(2.59861 3.69708)">
<stop stop-color="white" stop-opacity="0.3"/>
<stop offset="1" stop-color="white" stop-opacity="0"/>
</radialGradient>
<linearGradient id="paint14_linear_20_3671" x1="8.21533" y1="22.4868" x2="11.9124" y2="22.4868" gradientUnits="userSpaceOnUse">
<stop stop-color="white" stop-opacity="0"/>
<stop offset="1" stop-color="white"/>
</linearGradient>
<clipPath id="clip0_20_3671">
<rect width="24" height="24" fill="white"/>
</clipPath>
</defs>
</svg>
