<svg width="24" height="24" viewBox="0 0 24 24" fill="none" xmlns="http://www.w3.org/2000/svg">
<g clip-path="url(#clip0_20_3500)">
<path d="M7.3999 15.5038V22.7997C7.40108 23.0366 7.47237 23.2679 7.60477 23.4643C7.73716 23.6608 7.92475 23.8137 8.1439 23.9037C8.36243 23.9956 8.60328 24.0207 8.83607 23.9759C9.06885 23.931 9.28314 23.8182 9.45188 23.6517L12.1999 20.8917L14.9478 23.6517C15.06 23.7629 15.1929 23.8509 15.3391 23.9106C15.4853 23.9704 15.6419 24.0006 15.7998 23.9997C15.9572 24.0038 16.1134 23.9709 16.2558 23.9037C16.475 23.8137 16.6626 23.6608 16.795 23.4643C16.9274 23.2679 16.9986 23.0366 16.9998 22.7997V15.5038C15.5425 16.3523 13.8862 16.7993 12.1999 16.7993C10.5135 16.7993 8.85726 16.3523 7.3999 15.5038Z" fill="url(#paint0_linear_20_3500)"/>
<path d="M7.3999 15.5038V22.7997C7.40108 23.0366 7.47237 23.2679 7.60477 23.4643C7.73716 23.6608 7.92475 23.8137 8.1439 23.9037C8.36243 23.9956 8.60328 24.0207 8.83607 23.9759C9.06885 23.931 9.28314 23.8182 9.45188 23.6517L12.1999 20.8917L14.9478 23.6517C15.06 23.7629 15.1929 23.8509 15.3391 23.9106C15.4853 23.9704 15.6419 24.0006 15.7998 23.9997C15.9572 24.0038 16.1134 23.9709 16.2558 23.9037C16.475 23.8137 16.6626 23.6608 16.795 23.4643C16.9274 23.2679 16.9986 23.0366 16.9998 22.7997V15.5038C15.5425 16.3523 13.8862 16.7993 12.1999 16.7993C10.5135 16.7993 8.85726 16.3523 7.3999 15.5038Z" fill="url(#paint1_radial_20_3500)"/>
<path d="M7.8999 16.3319C9.24068 16.9673 10.7091 17.2993 12.1999 17.2993C13.6906 17.2993 15.159 16.9673 16.4998 16.3319V22.7984C16.4989 22.9362 16.4573 23.0706 16.3803 23.1849C16.3031 23.2995 16.1937 23.3887 16.0658 23.4412L16.054 23.4461L16.0425 23.4515C15.9707 23.4853 15.892 23.5019 15.8127 23.4999L15.8048 23.4997L15.7969 23.4997C15.7048 23.5002 15.6135 23.4826 15.5282 23.4478L15.3391 23.9106L15.5282 23.4478C15.4433 23.4131 15.3661 23.3621 15.3009 23.2977L12.5542 20.539L12.1999 20.1831L11.8455 20.539L9.09933 23.2972C9.00111 23.3935 8.87664 23.4589 8.74148 23.4849C8.60568 23.5111 8.46519 23.4964 8.33771 23.4428L8.33772 23.4428L8.33389 23.4412C8.20606 23.3887 8.09663 23.2995 8.0194 23.1849C7.94237 23.0706 7.9008 22.9361 7.8999 22.7983V16.3319Z" stroke="url(#paint2_linear_20_3500)" stroke-opacity="0.3"/>
<path d="M12.1999 14.3997C16.1763 14.3997 19.3999 11.1762 19.3999 7.19981C19.3999 3.2234 16.1763 -0.00012207 12.1999 -0.00012207C8.22352 -0.00012207 5 3.2234 5 7.19981C5 11.1762 8.22352 14.3997 12.1999 14.3997Z" fill="url(#paint3_linear_20_3500)"/>
<path d="M12.1999 14.3997C16.1763 14.3997 19.3999 11.1762 19.3999 7.19981C19.3999 3.2234 16.1763 -0.00012207 12.1999 -0.00012207C8.22352 -0.00012207 5 3.2234 5 7.19981C5 11.1762 8.22352 14.3997 12.1999 14.3997Z" fill="url(#paint4_radial_20_3500)"/>
<path d="M18.8999 7.19981C18.8999 10.9001 15.9002 13.8997 12.1999 13.8997C8.49966 13.8997 5.5 10.9001 5.5 7.19981C5.5 3.49954 8.49966 0.499878 12.1999 0.499878C15.9002 0.499878 18.8999 3.49954 18.8999 7.19981Z" stroke="url(#paint5_linear_20_3500)" stroke-opacity="0.3"/>
</g>
<defs>
<linearGradient id="paint0_linear_20_3500" x1="12.1999" y1="15.5038" x2="12.1999" y2="24" gradientUnits="userSpaceOnUse">
<stop stop-color="#E32CC4"/>
<stop offset="1" stop-color="#E9305E"/>
</linearGradient>
<radialGradient id="paint1_radial_20_3500" cx="0" cy="0" r="1" gradientUnits="userSpaceOnUse" gradientTransform="translate(12.1999 15.5038) rotate(90) scale(8.49626 9.59991)">
<stop stop-color="white" stop-opacity="0.3"/>
<stop offset="1" stop-color="white" stop-opacity="0"/>
</radialGradient>
<linearGradient id="paint2_linear_20_3500" x1="7.3999" y1="19.7519" x2="16.9998" y2="19.7519" gradientUnits="userSpaceOnUse">
<stop stop-color="white" stop-opacity="0"/>
<stop offset="1" stop-color="white"/>
</linearGradient>
<linearGradient id="paint3_linear_20_3500" x1="12.1999" y1="-0.00012207" x2="12.1999" y2="14.3997" gradientUnits="userSpaceOnUse">
<stop stop-color="#E32CC4"/>
<stop offset="1" stop-color="#E9305E"/>
</linearGradient>
<radialGradient id="paint4_radial_20_3500" cx="0" cy="0" r="1" gradientUnits="userSpaceOnUse" gradientTransform="translate(12.1999 -0.00012207) rotate(90) scale(14.3999)">
<stop stop-color="white" stop-opacity="0.3"/>
<stop offset="1" stop-color="white" stop-opacity="0"/>
</radialGradient>
<linearGradient id="paint5_linear_20_3500" x1="5" y1="7.19981" x2="19.3999" y2="7.19981" gradientUnits="userSpaceOnUse">
<stop stop-color="white" stop-opacity="0"/>
<stop offset="1" stop-color="white"/>
</linearGradient>
<clipPath id="clip0_20_3500">
<rect width="24" height="24" fill="white"/>
</clipPath>
</defs>
</svg>
