<svg width="24" height="24" viewBox="0 0 24 24" fill="none" xmlns="http://www.w3.org/2000/svg">
<path d="M20.25 3H18V2.25C18 2.05109 17.921 1.86032 17.7803 1.71967C17.6397 1.57902 17.4489 1.5 17.25 1.5C17.0511 1.5 16.8603 1.57902 16.7197 1.71967C16.579 1.86032 16.5 2.05109 16.5 2.25V3H12.75V2.25C12.75 2.05109 12.671 1.86032 12.5303 1.71967C12.3897 1.57902 12.1989 1.5 12 1.5C11.8011 1.5 11.6103 1.57902 11.4697 1.71967C11.329 1.86032 11.25 2.05109 11.25 2.25V3H7.5V2.25C7.5 2.05109 7.42098 1.86032 7.28033 1.71967C7.13968 1.57902 6.94891 1.5 6.75 1.5C6.55109 1.5 6.36032 1.57902 6.21967 1.71967C6.07902 1.86032 6 2.05109 6 2.25V3H3.75C3.15326 3 2.58097 3.23705 2.15901 3.65901C1.73705 4.08097 1.5 4.65326 1.5 5.25V20.25C1.5 20.8467 1.73705 21.419 2.15901 21.841C2.58097 22.2629 3.15326 22.5 3.75 22.5H20.25C20.8467 22.5 21.419 22.2629 21.841 21.841C22.2629 21.419 22.5 20.8467 22.5 20.25V5.25C22.5 4.65326 22.2629 4.08097 21.841 3.65901C21.419 3.23705 20.8467 3 20.25 3ZM12 18.75C10.9616 18.75 9.94661 18.4421 9.08326 17.8652C8.2199 17.2883 7.54699 16.4684 7.14963 15.5091C6.75227 14.5498 6.6483 13.4942 6.85088 12.4758C7.05345 11.4574 7.55346 10.5219 8.28769 9.78769C9.02192 9.05346 9.95738 8.55345 10.9758 8.35088C11.9942 8.1483 13.0498 8.25227 14.0091 8.64963C14.9684 9.04699 15.7883 9.7199 16.3652 10.5833C16.9421 11.4466 17.25 12.4616 17.25 13.5C17.25 14.8924 16.6969 16.2277 15.7123 17.2123C14.7277 18.1969 13.3924 18.75 12 18.75Z" fill="url(#paint0_linear_20_3661)"/>
<path d="M20.25 3H18V2.25C18 2.05109 17.921 1.86032 17.7803 1.71967C17.6397 1.57902 17.4489 1.5 17.25 1.5C17.0511 1.5 16.8603 1.57902 16.7197 1.71967C16.579 1.86032 16.5 2.05109 16.5 2.25V3H12.75V2.25C12.75 2.05109 12.671 1.86032 12.5303 1.71967C12.3897 1.57902 12.1989 1.5 12 1.5C11.8011 1.5 11.6103 1.57902 11.4697 1.71967C11.329 1.86032 11.25 2.05109 11.25 2.25V3H7.5V2.25C7.5 2.05109 7.42098 1.86032 7.28033 1.71967C7.13968 1.57902 6.94891 1.5 6.75 1.5C6.55109 1.5 6.36032 1.57902 6.21967 1.71967C6.07902 1.86032 6 2.05109 6 2.25V3H3.75C3.15326 3 2.58097 3.23705 2.15901 3.65901C1.73705 4.08097 1.5 4.65326 1.5 5.25V20.25C1.5 20.8467 1.73705 21.419 2.15901 21.841C2.58097 22.2629 3.15326 22.5 3.75 22.5H20.25C20.8467 22.5 21.419 22.2629 21.841 21.841C22.2629 21.419 22.5 20.8467 22.5 20.25V5.25C22.5 4.65326 22.2629 4.08097 21.841 3.65901C21.419 3.23705 20.8467 3 20.25 3ZM12 18.75C10.9616 18.75 9.94661 18.4421 9.08326 17.8652C8.2199 17.2883 7.54699 16.4684 7.14963 15.5091C6.75227 14.5498 6.6483 13.4942 6.85088 12.4758C7.05345 11.4574 7.55346 10.5219 8.28769 9.78769C9.02192 9.05346 9.95738 8.55345 10.9758 8.35088C11.9942 8.1483 13.0498 8.25227 14.0091 8.64963C14.9684 9.04699 15.7883 9.7199 16.3652 10.5833C16.9421 11.4466 17.25 12.4616 17.25 13.5C17.25 14.8924 16.6969 16.2277 15.7123 17.2123C14.7277 18.1969 13.3924 18.75 12 18.75Z" fill="url(#paint1_radial_20_3661)"/>
<path d="M17.5 3V3.5H18H20.25C20.7141 3.5 21.1592 3.68437 21.4874 4.01256C21.8156 4.34075 22 4.78587 22 5.25V20.25C22 20.7141 21.8156 21.1592 21.4874 21.4874C21.1592 21.8156 20.7141 22 20.25 22H3.75C3.28587 22 2.84075 21.8156 2.51256 21.4874C2.18437 21.1592 2 20.7141 2 20.25V5.25C2 4.78587 2.18437 4.34075 2.51256 4.01256C2.84075 3.68437 3.28587 3.5 3.75 3.5H6H6.5V3V2.25C6.5 2.1837 6.52634 2.12011 6.57322 2.07322C6.62011 2.02634 6.6837 2 6.75 2C6.8163 2 6.87989 2.02634 6.92678 2.07322C6.97366 2.12011 7 2.1837 7 2.25V3V3.5H7.5H11.25H11.75V3V2.25C11.75 2.1837 11.7763 2.12011 11.8232 2.07322C11.8701 2.02634 11.9337 2 12 2C12.0663 2 12.1299 2.02634 12.1768 2.07322C12.2237 2.12011 12.25 2.18369 12.25 2.25V3V3.5H12.75H16.5H17V3V2.25C17 2.18369 17.0263 2.12011 17.0732 2.07322C17.1201 2.02634 17.1837 2 17.25 2C17.3163 2 17.3799 2.02634 17.4268 2.07322C17.4737 2.12011 17.5 2.1837 17.5 2.25V3ZM8.80547 18.281C9.75105 18.9128 10.8628 19.25 12 19.25C13.525 19.25 14.9875 18.6442 16.0659 17.5659C17.1442 16.4875 17.75 15.025 17.75 13.5C17.75 12.3628 17.4128 11.2511 16.781 10.3055C16.1491 9.35989 15.2511 8.6229 14.2004 8.18769C13.1498 7.75249 11.9936 7.63862 10.8782 7.86049C9.76284 8.08235 8.73829 8.62998 7.93414 9.43414C7.12998 10.2383 6.58235 11.2628 6.36049 12.3782C6.13862 13.4936 6.25249 14.6498 6.68769 15.7004C7.1229 16.7511 7.85989 17.6491 8.80547 18.281Z" stroke="url(#paint2_linear_20_3661)" stroke-opacity="0.3"/>
<path d="M14.25 12.75H12.75V11.25C12.75 11.0511 12.671 10.8603 12.5303 10.7197C12.3897 10.579 12.1989 10.5 12 10.5C11.8011 10.5 11.6103 10.579 11.4697 10.7197C11.329 10.8603 11.25 11.0511 11.25 11.25V12.75H9.75C9.55109 12.75 9.36032 12.829 9.21967 12.9697C9.07902 13.1103 9 13.3011 9 13.5C9 13.6989 9.07902 13.8897 9.21967 14.0303C9.36032 14.171 9.55109 14.25 9.75 14.25H11.25V15.75C11.25 15.9489 11.329 16.1397 11.4697 16.2803C11.6103 16.421 11.8011 16.5 12 16.5C12.1989 16.5 12.3897 16.421 12.5303 16.2803C12.671 16.1397 12.75 15.9489 12.75 15.75V14.25H14.25C14.4489 14.25 14.6397 14.171 14.7803 14.0303C14.921 13.8897 15 13.6989 15 13.5C15 13.3011 14.921 13.1103 14.7803 12.9697C14.6397 12.829 14.4489 12.75 14.25 12.75Z" fill="url(#paint3_linear_20_3661)"/>
<path d="M14.25 12.75H12.75V11.25C12.75 11.0511 12.671 10.8603 12.5303 10.7197C12.3897 10.579 12.1989 10.5 12 10.5C11.8011 10.5 11.6103 10.579 11.4697 10.7197C11.329 10.8603 11.25 11.0511 11.25 11.25V12.75H9.75C9.55109 12.75 9.36032 12.829 9.21967 12.9697C9.07902 13.1103 9 13.3011 9 13.5C9 13.6989 9.07902 13.8897 9.21967 14.0303C9.36032 14.171 9.55109 14.25 9.75 14.25H11.25V15.75C11.25 15.9489 11.329 16.1397 11.4697 16.2803C11.6103 16.421 11.8011 16.5 12 16.5C12.1989 16.5 12.3897 16.421 12.5303 16.2803C12.671 16.1397 12.75 15.9489 12.75 15.75V14.25H14.25C14.4489 14.25 14.6397 14.171 14.7803 14.0303C14.921 13.8897 15 13.6989 15 13.5C15 13.3011 14.921 13.1103 14.7803 12.9697C14.6397 12.829 14.4489 12.75 14.25 12.75Z" fill="url(#paint4_radial_20_3661)"/>
<path d="M12.25 12.75V13.25H12.75H14.25C14.3163 13.25 14.3799 13.2763 14.4268 13.3232C14.4737 13.3701 14.5 13.4337 14.5 13.5C14.5 13.5663 14.4737 13.6299 14.4268 13.6768C14.3799 13.7237 14.3163 13.75 14.25 13.75H12.75H12.25V14.25V15.75C12.25 15.8163 12.2237 15.8799 12.1768 15.9268C12.1299 15.9737 12.0663 16 12 16C11.9337 16 11.8701 15.9737 11.8232 15.9268C11.7763 15.8799 11.75 15.8163 11.75 15.75V14.25V13.75H11.25H9.75C9.6837 13.75 9.62011 13.7237 9.57322 13.6768C9.52634 13.6299 9.5 13.5663 9.5 13.5C9.5 13.4337 9.52634 13.3701 9.57322 13.3232C9.62011 13.2763 9.6837 13.25 9.75 13.25H11.25H11.75V12.75V11.25C11.75 11.1837 11.7763 11.1201 11.8232 11.0732C11.8701 11.0263 11.9337 11 12 11C12.0663 11 12.1299 11.0263 12.1768 11.0732C12.2237 11.1201 12.25 11.1837 12.25 11.25V12.75Z" stroke="url(#paint5_linear_20_3661)" stroke-opacity="0.3"/>
<defs>
<linearGradient id="paint0_linear_20_3661" x1="12" y1="1.5" x2="12" y2="22.5" gradientUnits="userSpaceOnUse">
<stop stop-color="#E32CC4"/>
<stop offset="1" stop-color="#E9305E"/>
</linearGradient>
<radialGradient id="paint1_radial_20_3661" cx="0" cy="0" r="1" gradientUnits="userSpaceOnUse" gradientTransform="translate(12 1.5) rotate(90) scale(21)">
<stop stop-color="white" stop-opacity="0.3"/>
<stop offset="1" stop-color="white" stop-opacity="0"/>
</radialGradient>
<linearGradient id="paint2_linear_20_3661" x1="1.5" y1="12" x2="22.5" y2="12" gradientUnits="userSpaceOnUse">
<stop stop-color="white" stop-opacity="0"/>
<stop offset="1" stop-color="white"/>
</linearGradient>
<linearGradient id="paint3_linear_20_3661" x1="12" y1="10.5" x2="12" y2="16.5" gradientUnits="userSpaceOnUse">
<stop stop-color="#E32CC4"/>
<stop offset="1" stop-color="#E9305E"/>
</linearGradient>
<radialGradient id="paint4_radial_20_3661" cx="0" cy="0" r="1" gradientUnits="userSpaceOnUse" gradientTransform="translate(12 10.5) rotate(90) scale(6)">
<stop stop-color="white" stop-opacity="0.3"/>
<stop offset="1" stop-color="white" stop-opacity="0"/>
</radialGradient>
<linearGradient id="paint5_linear_20_3661" x1="9" y1="13.5" x2="15" y2="13.5" gradientUnits="userSpaceOnUse">
<stop stop-color="white" stop-opacity="0"/>
<stop offset="1" stop-color="white"/>
</linearGradient>
</defs>
</svg>
