<svg width="58" height="58" viewBox="0 0 58 58" fill="none" xmlns="http://www.w3.org/2000/svg">
<g clip-path="url(#clip0_304_4170)">
<path d="M29 46.5C41.0122 46.5 50.75 36.7622 50.75 24.75C50.75 12.7378 41.0122 3 29 3C16.9878 3 7.25 12.7378 7.25 24.75C7.25 36.7622 16.9878 46.5 29 46.5Z" fill="#FFF8AB"/>
<path d="M28.9993 44.0834C39.6769 44.0834 48.3327 35.4276 48.3327 24.7501C48.3327 14.0726 39.6769 5.41675 28.9993 5.41675C18.3218 5.41675 9.66602 14.0726 9.66602 24.7501C9.66602 35.4276 18.3218 44.0834 28.9993 44.0834Z" fill="#FFEE6E"/>
<path d="M42.4481 46.3308L42.3877 46.4033L35.041 58.5833H20.541L28.9993 50.1249L35.041 44.0833H36.2493C38.5154 44.0812 40.7099 44.8768 42.4481 46.3308Z" fill="#FF936B"/>
<path d="M42.4481 46.3308C43.534 47.2382 44.4073 48.373 45.0066 49.655C45.6058 50.937 45.9163 52.3349 45.916 53.75V58.5833H35.041L42.3877 46.4033L42.4481 46.3308Z" fill="#5EC49C"/>
<path d="M29.0007 50.1249L20.5423 58.5833H12.084V53.7499C12.084 51.1862 13.1024 48.7274 14.9153 46.9146C16.7281 45.1017 19.1869 44.0833 21.7507 44.0833H22.959C22.959 45.6856 23.5955 47.2223 24.7285 48.3554C25.8616 49.4884 27.3983 50.1249 29.0007 50.1249Z" fill="#5EC49C"/>
<path d="M35.0423 44.0832L29.0007 50.1249C27.3983 50.1249 25.8616 49.4884 24.7285 48.3553C23.5955 47.2223 22.959 45.6856 22.959 44.0832H25.3757V38.5491C27.702 39.4835 30.2993 39.4835 32.6257 38.5491V44.0832H35.0423Z" fill="#E0AEA2"/>
<path d="M39.8746 30.7916H38.6662L38.5938 30.7795C38.6423 30.3826 38.6665 29.9831 38.6662 29.5833V25.9583H39.8746C40.5155 25.9583 41.1302 26.2129 41.5834 26.6661C42.0366 27.1193 42.2912 27.734 42.2912 28.3749C42.2912 29.0159 42.0366 29.6305 41.5834 30.0838C41.1302 30.537 40.5155 30.7916 39.8746 30.7916Z" fill="#E0AEA2"/>
<path d="M15.709 28.3749C15.7109 27.7346 15.9661 27.121 16.4189 26.6682C16.8717 26.2154 17.4853 25.9602 18.1257 25.9583H19.334V29.5833C19.3337 29.9831 19.3579 30.3826 19.4065 30.7795L19.334 30.7916H18.1257C17.4853 30.7897 16.8717 30.5344 16.4189 30.0816C15.9661 29.6288 15.7109 29.0153 15.709 28.3749Z" fill="#D79B8C"/>
<path d="M32.6257 38.5492C30.2993 39.4836 27.702 39.4836 25.3757 38.5492C23.7787 37.9035 22.3832 36.8427 21.3338 35.4767C20.2843 34.1107 19.6189 32.4891 19.4065 30.7797C19.3579 30.3828 19.3337 29.9833 19.334 29.5834V23.5417C19.334 21.5359 22.1615 19.9167 24.1673 19.9167C25.3757 19.9167 27.7923 19.9167 29.0007 21.1251C30.209 19.9167 32.6257 19.9167 33.834 19.9167C35.8398 19.9167 38.6673 21.5359 38.6673 23.5417V29.5834C38.6699 31.5101 38.0959 33.3935 37.0192 34.9913C35.9425 36.5891 34.4124 37.8282 32.6257 38.5492Z" fill="#E0AEA2"/>
<path d="M32.625 8.4375C32.625 9.76667 31.0058 10.25 29 10.25C26.9942 10.25 25.375 9.76667 25.375 8.4375C25.375 7.10833 28.0938 3 29 3C29.9062 3 32.625 7.10833 32.625 8.4375Z" fill="#FF936B"/>
<path d="M19.3327 24.7501C18.6923 24.7482 18.0788 24.493 17.626 24.0402C17.1732 23.5874 16.9179 22.9738 16.916 22.3334V21.1251C16.9151 20.4901 17.0394 19.8612 17.282 19.2744C17.5246 18.6875 17.8805 18.1543 18.3295 17.7053C18.7785 17.2563 19.3118 16.9003 19.8986 16.6578C20.4854 16.4152 21.1144 16.2908 21.7494 16.2918H24.2023C24.979 16.2893 25.7508 16.4159 26.486 16.6664L28.9994 17.5001L31.5127 16.6664C32.2479 16.4159 33.0197 16.2893 33.7964 16.2918H36.2494C36.8843 16.2908 37.5133 16.4152 38.1001 16.6578C38.687 16.9003 39.2202 17.2563 39.6692 17.7053C40.1182 18.1543 40.4742 18.6875 40.7167 19.2744C40.9593 19.8612 41.0836 20.4901 41.0827 21.1251V22.3334C41.0808 22.9738 40.8255 23.5874 40.3727 24.0402C39.9199 24.493 39.3064 24.7482 38.666 24.7501V23.5418C38.666 21.5359 35.8385 19.9168 33.8327 19.9168C32.6244 19.9168 30.2077 19.9168 28.9994 21.1251C27.791 19.9168 25.3744 19.9168 24.166 19.9168C22.1602 19.9168 19.3327 21.5359 19.3327 23.5418V24.7501Z" fill="#FF936B"/>
<path d="M18.1855 17.5001C18.7897 13.428 23.4055 10.2501 29.0001 10.2501C31.5797 10.2139 34.1118 10.9458 36.2743 12.3526C37.19 12.9171 37.9778 13.6665 38.5875 14.5529C39.1971 15.4392 39.6151 16.443 39.8147 17.5001L39.6455 17.6813C38.7388 16.7922 37.52 16.2934 36.2501 16.2917H33.7972C33.0205 16.2893 32.2487 16.4159 31.5135 16.6663L29.0001 17.5001L26.4868 16.6663C25.7515 16.4159 24.9798 16.2893 24.203 16.2917H21.7501C20.4802 16.2934 19.2614 16.7922 18.3547 17.6813L18.1855 17.5001Z" fill="#383838"/>
<path d="M36.2493 20.5378V29.5834C36.2519 31.5101 35.6779 33.3935 34.6012 34.9913C33.5245 36.5891 31.9944 37.8283 30.2077 38.5493C29.4313 38.8557 28.6193 39.0628 27.791 39.1655C29.4283 39.3863 31.0949 39.1738 32.6243 38.5493C34.4114 37.8287 35.9418 36.5897 37.0185 34.9918C38.0953 33.3939 38.669 31.5102 38.666 29.5834V23.5418C38.5695 22.8704 38.2942 22.2373 37.869 21.7089C37.4439 21.1804 36.8845 20.7759 36.2493 20.5378Z" fill="#EBCAC2"/>
<path d="M33.8342 19.9167C32.6259 19.9167 30.2092 19.9167 29.0009 21.1251C27.7925 19.9167 25.3759 19.9167 24.1675 19.9167C23.3257 19.942 22.5002 20.1546 21.7509 20.539C21.5224 20.6542 21.3013 20.7833 21.0887 20.9257C21.0392 20.9583 20.9896 20.9897 20.9413 21.0248C20.7396 21.1652 20.5482 21.3198 20.3685 21.4876C20.3383 21.5154 20.3117 21.5456 20.2827 21.5746C20.1306 21.7238 19.9911 21.8855 19.8659 22.0579C19.8417 22.0905 19.8151 22.122 19.7922 22.1558C19.6696 22.3402 19.5687 22.538 19.4913 22.7455C19.4744 22.7902 19.4623 22.8349 19.4478 22.8808C19.3764 23.094 19.3381 23.3169 19.3342 23.5417V29.5834C19.3248 30.9574 19.6104 32.3173 20.1718 33.5714C20.7331 34.8255 21.557 35.9446 22.5879 36.8529C23.6188 37.7612 24.8327 38.4377 26.1475 38.8367C27.4623 39.2357 28.8474 39.3478 30.2092 39.1655C28.0768 38.9117 26.0927 37.9452 24.5784 36.4226C23.6801 35.5248 22.968 34.4585 22.4827 33.2849C21.9975 32.1113 21.7488 30.8534 21.7509 29.5834V24.7501C21.7459 24.1364 21.976 23.5441 22.3939 23.0947C22.8119 22.6453 23.3859 22.3729 23.9984 22.3334H24.1675C25.3759 22.3334 27.7925 22.3334 29.0009 23.5417C30.2092 22.3334 32.6259 22.3334 33.8342 22.3334C35.84 22.3334 38.6675 23.9526 38.6675 25.9584V23.5417C38.6675 21.5359 35.84 19.9167 33.8342 19.9167Z" fill="#D79B8C"/>
<path d="M39.8743 25.9583H38.666C39.307 25.9583 39.9216 26.2129 40.3749 26.6661C40.8281 27.1193 41.0827 27.734 41.0827 28.3749C41.0827 29.0159 40.8281 29.6305 40.3749 30.0838C39.9216 30.537 39.307 30.7916 38.666 30.7916H39.8743C40.5153 30.7916 41.13 30.537 41.5832 30.0838C42.0364 29.6305 42.291 29.0159 42.291 28.3749C42.291 27.734 42.0364 27.1193 41.5832 26.6661C41.13 26.2129 40.5153 25.9583 39.8743 25.9583Z" fill="#EBCAC2"/>
<path d="M18.1257 25.9583H19.334C18.693 25.9583 18.0784 26.2129 17.6251 26.6661C17.1719 27.1193 16.9173 27.734 16.9173 28.3749C16.9173 29.0159 17.1719 29.6305 17.6251 30.0838C18.0784 30.537 18.693 30.7916 19.334 30.7916H18.1257C17.4847 30.7916 16.87 30.537 16.4168 30.0838C15.9636 29.6305 15.709 29.0159 15.709 28.3749C15.709 27.734 15.9636 27.1193 16.4168 26.6661C16.87 26.2129 17.4847 25.9583 18.1257 25.9583Z" fill="#E0AEA2"/>
<path d="M35.0418 17.5C32.3702 17.5 29.0001 18.5814 29.0001 19.9167C29.0001 18.5814 25.6301 17.5 22.9585 17.5C21.4771 17.4869 20.0437 18.0248 18.9368 19.0094C17.8299 19.9939 17.1285 21.3548 16.9688 22.8275C17.0837 23.3701 17.3811 23.8568 17.8114 24.2066C18.2417 24.5564 18.7789 24.7482 19.3335 24.75V23.5417C19.3335 21.5358 22.161 19.9167 24.1668 19.9167C25.3751 19.9167 27.7918 19.9167 29.0001 21.125C30.2085 19.9167 32.6251 19.9167 33.8335 19.9167C35.8393 19.9167 38.6668 21.5358 38.6668 23.5417V24.75C39.2213 24.7482 39.7585 24.5564 40.1888 24.2066C40.6192 23.8568 40.9166 23.3701 41.0315 22.8275C40.8718 21.3548 40.1703 19.9939 39.0634 19.0094C37.9565 18.0248 36.5232 17.4869 35.0418 17.5Z" fill="#FF7045"/>
<path d="M31.4173 9.04175C31.4173 9.92746 30.3383 10.2501 29.0007 10.2501C27.663 10.2501 26.584 9.92746 26.584 9.04175C26.584 8.15604 28.3965 5.41675 29.0007 5.41675C29.6048 5.41675 31.4173 8.15604 31.4173 9.04175Z" fill="#FF7045"/>
<path d="M36.2501 15.0833H33.7972C33.0205 15.0808 32.2487 15.2074 31.5135 15.4579L29.0001 16.2916L26.4868 15.4579C25.7515 15.2074 24.9798 15.0808 24.203 15.0833H21.7501C20.5331 15.0877 19.3623 15.5501 18.4707 16.3786C18.3421 16.743 18.2466 17.1183 18.1855 17.5L18.3547 17.6812C19.2614 16.7921 20.4802 16.2933 21.7501 16.2916H24.203C24.9798 16.2892 25.7515 16.4158 26.4868 16.6662L29.0001 17.5L31.5135 16.6662C32.2487 16.4158 33.0205 16.2892 33.7972 16.2916H36.2501C37.52 16.2933 38.7388 16.7921 39.6455 17.6812L39.8147 17.5C39.754 17.1176 39.6577 16.7418 39.5271 16.3774C38.6361 15.5497 37.4662 15.0877 36.2501 15.0833Z" fill="#242424"/>
<path d="M38.9081 15.0592C38.2361 13.9772 37.3374 13.0537 36.274 12.3526C34.1114 10.9458 31.5794 10.2139 28.9998 10.2501C28.6796 10.2501 28.363 10.2633 28.0488 10.2839C29.1291 12.8721 33.5177 14.8417 38.9081 15.0592Z" fill="#474747"/>
<path d="M26.6752 38.9551C26.2331 38.8494 25.7987 38.7137 25.375 38.5491V39.7574C25.9059 39.9651 26.4537 40.1268 27.0123 40.2407C26.8524 39.8261 26.7394 39.3948 26.6752 38.9551Z" fill="#C38778"/>
<path d="M29.0006 40.4582C30.2425 40.4569 31.4727 40.2191 32.6256 39.7574V38.5491C31.4727 39.0107 30.2425 39.2486 29.0006 39.2499C28.2166 39.2464 27.4359 39.1474 26.6758 38.9551C26.7395 39.3969 26.8526 39.8302 27.0129 40.2468C27.6663 40.3862 28.3325 40.457 29.0006 40.4582Z" fill="#E0AEA2"/>
<path d="M27.0117 40.2469C27.4526 41.3769 28.2241 42.3476 29.2255 43.0321C30.2269 43.7165 31.4115 44.083 32.6244 44.0834V39.7576C31.4716 40.2192 30.2413 40.4571 28.9994 40.4584C28.3313 40.4572 27.6651 40.3863 27.0117 40.2469Z" fill="#EBCAC2"/>
<path d="M32.6252 44.0833L26.6777 49.6585C27.4133 49.9663 28.2028 50.1248 29.0002 50.1249L35.0418 44.0833H32.6252Z" fill="#C38778"/>
<path d="M17.1582 58.5833H20.5415L27.8858 51.2391C27.1396 51.1181 26.4173 50.8795 25.7458 50.5322L17.1582 58.5833Z" fill="#40A87F"/>
<path d="M26.6816 49.6599C27.0417 49.8107 27.4157 49.926 27.7981 50.0043C27.4158 49.9255 27.0419 49.8101 26.6816 49.6599Z" fill="#40A87F"/>
<path d="M26.6812 49.6597C25.5793 49.2017 24.6378 48.4277 23.9752 47.4353C23.3127 46.4429 22.9588 45.2765 22.9583 44.0833H21.75C21.7514 45.4232 22.126 46.7364 22.8318 47.8754C23.5376 49.0145 24.5467 49.9344 25.746 50.5321L26.6776 49.6585L26.6812 49.6597Z" fill="#F5CD62"/>
<path d="M27.7969 50.0042C28.1946 50.0848 28.5994 50.1252 29.0052 50.125C28.5994 50.1252 28.1946 50.0848 27.7969 50.0042Z" fill="#F5CD62"/>
<path d="M27.7981 50.0043C27.4157 49.926 27.0417 49.8107 26.6816 49.6599L25.75 50.5335C26.4214 50.8808 27.1437 51.1194 27.89 51.2404L29.0004 50.1251C28.5966 50.125 28.1939 50.0845 27.7981 50.0043Z" fill="#FFB13B"/>
<path d="M36.2493 44.0833H35.041L28.9993 50.1249L20.541 58.5833H23.9932L36.4161 44.0905C36.3593 44.0893 36.3049 44.0833 36.2493 44.0833Z" fill="#F5CD62"/>
<path d="M31.9805 58.5834H35.0412L42.3878 46.4034L42.4483 46.3309C42.1406 46.0775 41.8178 45.843 41.4816 45.6289L31.9805 58.5834Z" fill="#F5CD62"/>
<path d="M34.9844 45.7604C36.6937 46.205 38.3001 46.9783 39.7138 48.0369L41.4792 45.6287C39.9214 44.6201 38.1053 44.0834 36.2495 44.0833C36.3051 44.0833 36.3595 44.0893 36.4163 44.0905L34.9844 45.7604Z" fill="#FFB89C"/>
<path d="M45.9168 53.75C45.917 52.3349 45.6066 50.937 45.0073 49.655C44.4081 48.373 43.5347 47.2382 42.4489 46.3308L42.3885 46.4033L40.8418 48.9771C42.0553 50.1047 43.0246 51.4694 43.6897 52.9866C44.3547 54.5038 44.7015 56.1413 44.7085 57.7979V58.5833H45.9168V53.75Z" fill="#87F5CA"/>
<path d="M22.0298 46.0613C21.8454 45.4181 21.7515 44.7524 21.7507 44.0833C19.1869 44.0833 16.7281 45.1017 14.9153 46.9146C13.1024 48.7274 12.084 51.1862 12.084 53.7499V58.5833H13.2923V57.8015C13.3403 55.1772 14.2087 52.6338 15.7757 50.5283C17.3428 48.4227 19.5298 46.8606 22.0298 46.0613Z" fill="#87F5CA"/>
<path d="M23.2 45.7181C23.1795 45.6468 23.1662 45.5719 23.1493 45.4994C23.1239 45.3931 23.0949 45.2892 23.0755 45.1816C23.0027 44.8199 22.9635 44.4522 22.9583 44.0833H21.75C21.7508 44.7524 21.8448 45.4181 22.0291 46.0613C22.4069 45.9308 22.7972 45.8164 23.2 45.7181Z" fill="#FFF48F"/>
<path d="M36.4177 44.0905C36.3609 44.0905 36.3065 44.0833 36.2509 44.0833H35.0426L33.6445 45.4813C34.1001 45.5538 34.5472 45.6456 34.9858 45.7604L36.4177 44.0905Z" fill="#FFF48F"/>
<path d="M40.8416 48.977L42.3943 46.4032L42.4547 46.3307C42.1471 46.0775 41.8243 45.8435 41.488 45.6299L39.7227 48.0381C40.1125 48.3304 40.486 48.6438 40.8416 48.977Z" fill="#FFF48F"/>
<path d="M34.4382 29.5833C34.7718 29.5833 35.0423 28.5014 35.0423 27.1667C35.0423 25.832 34.7718 24.75 34.4382 24.75C34.1045 24.75 33.834 25.832 33.834 27.1667C33.834 28.5014 34.1045 29.5833 34.4382 29.5833Z" fill="#383838"/>
<path d="M23.5632 29.5833C23.8968 29.5833 24.1673 28.5014 24.1673 27.1667C24.1673 25.832 23.8968 24.75 23.5632 24.75C23.2295 24.75 22.959 25.832 22.959 27.1667C22.959 28.5014 23.2295 29.5833 23.5632 29.5833Z" fill="#383838"/>
<path d="M28.9993 25.9584C29.6667 25.9584 30.2077 25.4174 30.2077 24.7501C30.2077 24.0827 29.6667 23.5417 28.9993 23.5417C28.332 23.5417 27.791 24.0827 27.791 24.7501C27.791 25.4174 28.332 25.9584 28.9993 25.9584Z" fill="#BD3B57"/>
<path d="M38.7409 47.2754C39.1302 46.8861 39.0066 46.1314 38.4649 45.5896C37.9232 45.0479 37.1684 44.9244 36.7791 45.3137C36.3898 45.703 36.5134 46.4577 37.0551 46.9994C37.5968 47.5412 38.3516 47.6647 38.7409 47.2754Z" fill="#F6FAFD"/>
<path d="M38.7526 19.4802C39.1419 19.0909 39.0183 18.3362 38.4766 17.7945C37.9349 17.2527 37.1801 17.1292 36.7908 17.5185C36.4015 17.9078 36.5251 18.6625 37.0668 19.2043C37.6085 19.746 38.3633 19.8695 38.7526 19.4802Z" fill="#F6FAFD"/>
<path d="M42.7771 49.8072C42.972 49.6123 42.9104 49.2347 42.6395 48.9639C42.3687 48.693 41.9911 48.6314 41.7962 48.8263C41.6013 49.0212 41.6629 49.3988 41.9338 49.6696C42.2047 49.9405 42.5822 50.0021 42.7771 49.8072Z" fill="#F6FAFD"/>
<path d="M35.5369 18.3846C35.7318 18.1897 35.6702 17.8121 35.3993 17.5413C35.1285 17.2704 34.7509 17.2088 34.556 17.4037C34.3611 17.5986 34.4227 17.9762 34.6936 18.247C34.9644 18.5179 35.342 18.5795 35.5369 18.3846Z" fill="#F6FAFD"/>
<path d="M30.7068 7.50593C30.9017 7.31104 30.8401 6.93348 30.5692 6.66262C30.2984 6.39175 29.9208 6.33017 29.7259 6.52505C29.531 6.71994 29.5926 7.09751 29.8635 7.36837C30.1343 7.63923 30.5119 7.70082 30.7068 7.50593Z" fill="#F6FAFD"/>
</g>
<defs>
<clipPath id="clip0_304_4170">
<rect width="58" height="58" fill="white"/>
</clipPath>
</defs>
</svg>
