<svg width="18" height="18" viewBox="0 0 18 18" fill="none" xmlns="http://www.w3.org/2000/svg">
<g clip-path="url(#clip0_0_639)">
<path d="M16.3905 5.14686C14.0131 1.24081 10.4316 3.9583 10.4316 3.9583C10.1993 4.13385 9.77103 4.27818 9.48001 4.27885L8.5207 4.27952C8.22969 4.27986 7.80139 4.13553 7.56945 3.95998C7.56945 3.95998 3.98764 1.24182 1.60984 5.14787C-0.76729 9.05258 0.190678 13.305 0.190678 13.305C0.358507 14.3462 0.911671 15.0411 1.95557 14.9538C2.99644 14.8669 5.25576 12.1497 5.25576 12.1497C5.44238 11.9258 5.83343 11.7429 6.12377 11.7429L11.8749 11.7419C12.1656 11.7419 12.5563 11.9248 12.7426 12.1487C12.7426 12.1487 15.0023 14.8658 16.0448 14.9528C17.0874 15.0401 17.6419 14.3446 17.8087 13.304C17.8087 13.304 18.768 9.05225 16.3905 5.14686ZM6.83872 8.32622H5.60551V9.51478C5.60551 9.51478 5.34437 9.71417 4.94024 9.70913C4.53678 9.70309 4.35418 9.49162 4.35418 9.49162V8.32655H3.18945C3.18945 8.32655 3.04411 8.17752 3.00517 7.78514C2.96691 7.39275 3.16595 7.07556 3.16595 7.07556H4.39949V5.84235C4.39949 5.84235 4.65325 5.70641 5.01811 5.71681C5.38331 5.72822 5.65083 5.86551 5.65083 5.86551L5.64579 7.07522H6.81053C6.81053 7.07522 7.01393 7.33636 7.03072 7.65188C7.0475 7.96774 6.83872 8.32622 6.83872 8.32622ZM12.4952 9.68093C11.9552 9.68093 11.5198 9.24424 11.5198 8.70484C11.5198 8.16443 11.9552 7.72875 12.4952 7.72875C13.033 7.72875 13.4717 8.16443 13.4717 8.70484C13.4717 9.24458 13.033 9.68093 12.4952 9.68093ZM12.4952 6.99533C11.9552 6.99533 11.5198 6.55898 11.5198 6.01958C11.5198 5.47917 11.9552 5.04348 12.4952 5.04348C13.033 5.04348 13.4717 5.47917 13.4717 6.01958C13.4717 6.55931 13.033 6.99533 12.4952 6.99533ZM14.9261 8.43699C14.386 8.43699 13.9506 8.00063 13.9506 7.46089C13.9506 6.92082 14.386 6.4848 14.9261 6.4848C15.4638 6.4848 15.9025 6.92082 15.9025 7.46089C15.9025 8.00063 15.4638 8.43699 14.9261 8.43699Z" fill="white"/>
</g>
<defs>
<clipPath id="clip0_0_639">
<rect width="18" height="18" fill="white"/>
</clipPath>
</defs>
</svg>
