<svg width="28" height="20" viewBox="0 0 28 20" fill="none" xmlns="http://www.w3.org/2000/svg">
<g filter="url(#filter0_i_24_120)">
<path fill-rule="evenodd" clip-rule="evenodd" d="M14.36 10.09L21.26 19.33L27.36 19.33L20.4 10.09L27.36 0.850003L27.48 0.670002L21.44 0.670002L21.25 0.850003L14.35 10.09L14.36 10.09ZM1.10901e-07 10.03L4.68 16.31L8.81 16.31L4.07 10.02L8.81 3.74L8.87 3.62L4.8 3.62L4.68 3.74L1.10901e-07 10.03ZM6.53 10.03L12.39 17.79L17.44 17.79L11.65 10.03L17.44 2.27L17.56 2.15L12.51 2.15L12.39 2.27L6.54 10.03L6.53 10.03Z" fill="#E5053D"/>
</g>
<defs>
<filter id="filter0_i_24_120" x="0" y="0.669998" width="27.48" height="19.66" filterUnits="userSpaceOnUse" color-interpolation-filters="sRGB">
<feFlood flood-opacity="0" result="BackgroundImageFix"/>
<feBlend mode="normal" in="SourceGraphic" in2="BackgroundImageFix" result="shape"/>
<feColorMatrix in="SourceAlpha" type="matrix" values="0 0 0 0 0 0 0 0 0 0 0 0 0 0 0 0 0 0 127 0" result="hardAlpha"/>
<feOffset dy="2"/>
<feGaussianBlur stdDeviation="0.5"/>
<feComposite in2="hardAlpha" operator="arithmetic" k2="-1" k3="1"/>
<feColorMatrix type="matrix" values="0 0 0 0 1 0 0 0 0 1 0 0 0 0 1 0 0 0 0.25 0"/>
<feBlend mode="normal" in2="shape" result="effect1_innerShadow_24_120"/>
</filter>
</defs>
</svg>
